<svg width="1920" height="1080" viewBox="0 0 1920 1080" fill="none" xmlns="http://www.w3.org/2000/svg">
<rect width="1920" height="1080" fill="#1E293B"/>
<path d="M263.3 906L194.6 696H245L304.7 882H279.5L341.9 696H386.9L446.9 882H422.6L483.8 696H530.3L461.6 906H409.4L356.3 742.8H370.1L315.5 906H263.3ZM618.92 908.4C601.72 908.4 586.42 904.8 573.02 897.6C559.82 890.4 549.32 880.6 541.52 868.2C533.92 855.6 530.12 841.3 530.12 825.3C530.12 809.1 533.92 794.8 541.52 782.4C549.32 769.8 559.82 760 573.02 753C586.42 745.8 601.72 742.2 618.92 742.2C635.92 742.2 651.12 745.8 664.52 753C677.92 760 688.42 769.7 696.02 782.1C703.62 794.5 707.42 808.9 707.42 825.3C707.42 841.3 703.62 855.6 696.02 868.2C688.42 880.6 677.92 890.4 664.52 897.6C651.12 904.8 635.92 908.4 618.92 908.4ZM618.92 870C626.72 870 633.72 868.2 639.92 864.6C646.12 861 651.02 855.9 654.62 849.3C658.22 842.5 660.02 834.5 660.02 825.3C660.02 815.9 658.22 807.9 654.62 801.3C651.02 794.7 646.12 789.6 639.92 786C633.72 782.4 626.72 780.6 618.92 780.6C611.12 780.6 604.12 782.4 597.92 786C591.72 789.6 586.72 794.7 582.92 801.3C579.32 807.9 577.52 815.9 577.52 825.3C577.52 834.5 579.32 842.5 582.92 849.3C586.72 855.9 591.72 861 597.92 864.6C604.12 868.2 611.12 870 618.92 870ZM738.702 906V744.6H783.402V790.2L777.102 777C781.902 765.6 789.602 757 800.202 751.2C810.802 745.2 823.702 742.2 838.902 742.2V785.4C836.902 785.2 835.102 785.1 833.502 785.1C831.902 784.9 830.202 784.8 828.402 784.8C815.602 784.8 805.202 788.5 797.202 795.9C789.402 803.1 785.502 814.4 785.502 829.8V906H738.702ZM905.722 873L906.922 816L982.222 744.6H1038.02L965.722 818.1L941.422 837.9L905.722 873ZM867.022 906V683.4H913.822V906H867.022ZM987.322 906L932.722 838.2L962.122 801.9L1044.02 906H987.322Z" fill="#17F186"/>
<path d="M204.6 296V156H231.4L291 254.8H276.8L335.4 156H362L362.4 296H332L331.8 202.6H337.4L290.6 281.2H276L228.2 202.6H235V296H204.6ZM459.416 296V275L457.416 270.4V232.8C457.416 226.133 455.349 220.933 451.216 217.2C447.216 213.467 441.016 211.6 432.616 211.6C426.882 211.6 421.216 212.533 415.616 214.4C410.149 216.133 405.482 218.533 401.616 221.6L390.416 199.8C396.282 195.667 403.349 192.467 411.616 190.2C419.882 187.933 428.282 186.8 436.816 186.8C453.216 186.8 465.949 190.667 475.016 198.4C484.082 206.133 488.616 218.2 488.616 234.6V296H459.416ZM426.616 297.6C418.216 297.6 411.016 296.2 405.016 293.4C399.016 290.467 394.416 286.533 391.216 281.6C388.016 276.667 386.416 271.133 386.416 265C386.416 258.6 387.949 253 391.016 248.2C394.216 243.4 399.216 239.667 406.016 237C412.816 234.2 421.682 232.8 432.616 232.8H461.216V251H436.016C428.682 251 423.616 252.2 420.816 254.6C418.149 257 416.816 260 416.816 263.6C416.816 267.6 418.349 270.8 421.416 273.2C424.616 275.467 428.949 276.6 434.416 276.6C439.616 276.6 444.282 275.4 448.416 273C452.549 270.467 455.549 266.8 457.416 262L462.216 276.4C459.949 283.333 455.816 288.6 449.816 292.2C443.816 295.8 436.082 297.6 426.616 297.6ZM542.653 274L543.453 236L593.653 188.4H630.853L582.653 237.4L566.453 250.6L542.653 274ZM516.853 296V147.6H548.053V296H516.853ZM597.053 296L560.653 250.8L580.253 226.6L634.853 296H597.053ZM697.792 297.6C685.526 297.6 674.726 295.2 665.392 290.4C656.192 285.6 649.059 279.067 643.992 270.8C638.926 262.4 636.392 252.867 636.392 242.2C636.392 231.4 638.859 221.867 643.792 213.6C648.859 205.2 655.726 198.667 664.392 194C673.059 189.2 682.859 186.8 693.792 186.8C704.326 186.8 713.792 189.067 722.192 193.6C730.726 198 737.459 204.4 742.392 212.8C747.326 221.067 749.792 231 749.792 242.6C749.792 243.8 749.726 245.2 749.592 246.8C749.459 248.267 749.326 249.667 749.192 251H661.792V232.8H732.792L720.792 238.2C720.792 232.6 719.659 227.733 717.392 223.6C715.126 219.467 711.992 216.267 707.992 214C703.992 211.6 699.326 210.4 693.992 210.4C688.659 210.4 683.926 211.6 679.792 214C675.792 216.267 672.659 219.533 670.392 223.8C668.126 227.933 666.992 232.867 666.992 238.6V243.4C666.992 249.267 668.259 254.467 670.792 259C673.459 263.4 677.126 266.8 681.792 269.2C686.592 271.467 692.192 272.6 698.592 272.6C704.326 272.6 709.326 271.733 713.592 270C717.992 268.267 721.992 265.667 725.592 262.2L742.192 280.2C737.259 285.8 731.059 290.133 723.592 293.2C716.126 296.133 707.526 297.6 697.792 297.6ZM806.764 297.6C797.564 297.6 788.697 296.533 780.164 294.4C771.764 292.133 765.097 289.333 760.164 286L770.564 263.6C775.497 266.667 781.297 269.2 787.964 271.2C794.764 273.067 801.431 274 807.964 274C815.164 274 820.231 273.133 823.164 271.4C826.231 269.667 827.764 267.267 827.764 264.2C827.764 261.667 826.564 259.8 824.164 258.6C821.897 257.267 818.831 256.267 814.964 255.6C811.097 254.933 806.831 254.267 802.164 253.6C797.631 252.933 793.031 252.067 788.364 251C783.697 249.8 779.431 248.067 775.564 245.8C771.697 243.533 768.564 240.467 766.164 236.6C763.897 232.733 762.764 227.733 762.764 221.6C762.764 214.8 764.697 208.8 768.564 203.6C772.564 198.4 778.297 194.333 785.764 191.4C793.231 188.333 802.164 186.8 812.564 186.8C819.897 186.8 827.364 187.6 834.964 189.2C842.564 190.8 848.897 193.133 853.964 196.2L843.564 218.4C838.364 215.333 833.097 213.267 827.764 212.2C822.564 211 817.497 210.4 812.564 210.4C805.631 210.4 800.564 211.333 797.364 213.2C794.164 215.067 792.564 217.467 792.564 220.4C792.564 223.067 793.697 225.067 795.964 226.4C798.364 227.733 801.497 228.8 805.364 229.6C809.231 230.4 813.431 231.133 817.964 231.8C822.631 232.333 827.297 233.2 831.964 234.4C836.631 235.6 840.831 237.333 844.564 239.6C848.431 241.733 851.564 244.733 853.964 248.6C856.364 252.333 857.564 257.267 857.564 263.4C857.564 270.067 855.564 276 851.564 281.2C847.564 286.267 841.764 290.267 834.164 293.2C826.697 296.133 817.564 297.6 806.764 297.6ZM246.4 541.6C233.733 541.6 223.867 538.4 216.8 532C209.733 525.467 206.2 515.8 206.2 503V408.6H237.4V502.6C237.4 507.133 238.6 510.667 241 513.2C243.4 515.6 246.667 516.8 250.8 516.8C255.733 516.8 259.933 515.467 263.4 512.8L271.8 534.8C268.6 537.067 264.733 538.8 260.2 540C255.8 541.067 251.2 541.6 246.4 541.6ZM189.6 458.8V434.8H264.2V458.8H189.6ZM354.714 430.8C363.247 430.8 370.847 432.533 377.514 436C384.314 439.333 389.647 444.533 393.514 451.6C397.381 458.533 399.314 467.467 399.314 478.4V540H368.114V483.2C368.114 474.533 366.181 468.133 362.314 464C358.581 459.867 353.247 457.8 346.314 457.8C341.381 457.8 336.914 458.867 332.914 461C329.047 463 325.981 466.133 323.714 470.4C321.581 474.667 320.514 480.133 320.514 486.8V540H289.314V391.6H320.514V462.2L313.514 453.2C317.381 446 322.914 440.467 330.114 436.6C337.314 432.733 345.514 430.8 354.714 430.8ZM427.595 540V432.4H458.795V540H427.595ZM443.195 417.4C437.462 417.4 432.795 415.733 429.195 412.4C425.595 409.067 423.795 404.933 423.795 400C423.795 395.067 425.595 390.933 429.195 387.6C432.795 384.267 437.462 382.6 443.195 382.6C448.929 382.6 453.595 384.2 457.195 387.4C460.795 390.467 462.595 394.467 462.595 399.4C462.595 404.6 460.795 408.933 457.195 412.4C453.729 415.733 449.062 417.4 443.195 417.4ZM523.952 541.6C514.752 541.6 505.885 540.533 497.352 538.4C488.952 536.133 482.285 533.333 477.352 530L487.752 507.6C492.685 510.667 498.485 513.2 505.152 515.2C511.952 517.067 518.618 518 525.152 518C532.352 518 537.418 517.133 540.352 515.4C543.418 513.667 544.952 511.267 544.952 508.2C544.952 505.667 543.752 503.8 541.352 502.6C539.085 501.267 536.018 500.267 532.152 499.6C528.285 498.933 524.018 498.267 519.352 497.6C514.818 496.933 510.218 496.067 505.552 495C500.885 493.8 496.618 492.067 492.752 489.8C488.885 487.533 485.752 484.467 483.352 480.6C481.085 476.733 479.952 471.733 479.952 465.6C479.952 458.8 481.885 452.8 485.752 447.6C489.752 442.4 495.485 438.333 502.952 435.4C510.418 432.333 519.352 430.8 529.752 430.8C537.085 430.8 544.552 431.6 552.152 433.2C559.752 434.8 566.085 437.133 571.152 440.2L560.752 462.4C555.552 459.333 550.285 457.267 544.952 456.2C539.752 455 534.685 454.4 529.752 454.4C522.818 454.4 517.752 455.333 514.552 457.2C511.352 459.067 509.752 461.467 509.752 464.4C509.752 467.067 510.885 469.067 513.152 470.4C515.552 471.733 518.685 472.8 522.552 473.6C526.418 474.4 530.618 475.133 535.152 475.8C539.818 476.333 544.485 477.2 549.152 478.4C553.818 479.6 558.018 481.333 561.752 483.6C565.618 485.733 568.752 488.733 571.152 492.6C573.552 496.333 574.752 501.267 574.752 507.4C574.752 514.067 572.752 520 568.752 525.2C564.752 530.267 558.952 534.267 551.352 537.2C543.885 540.133 534.752 541.6 523.952 541.6ZM679.842 540L634.642 432.4H666.842L704.442 525H688.442L727.442 432.4H757.442L712.042 540H679.842ZM770.173 540V432.4H801.373V540H770.173ZM785.773 417.4C780.04 417.4 775.373 415.733 771.773 412.4C768.173 409.067 766.373 404.933 766.373 400C766.373 395.067 768.173 390.933 771.773 387.6C775.373 384.267 780.04 382.6 785.773 382.6C791.507 382.6 796.173 384.2 799.773 387.4C803.373 390.467 805.173 394.467 805.173 399.4C805.173 404.6 803.373 408.933 799.773 412.4C796.307 415.733 791.64 417.4 785.773 417.4ZM876.53 541.6C866.396 541.6 857.263 539.333 849.13 534.8C840.996 530.133 834.53 523.667 829.73 515.4C825.063 507.133 822.73 497.4 822.73 486.2C822.73 474.867 825.063 465.067 829.73 456.8C834.53 448.533 840.996 442.133 849.13 437.6C857.263 433.067 866.396 430.8 876.53 430.8C885.596 430.8 893.53 432.8 900.33 436.8C907.13 440.8 912.396 446.867 916.13 455C919.863 463.133 921.73 473.533 921.73 486.2C921.73 498.733 919.93 509.133 916.33 517.4C912.73 525.533 907.53 531.6 900.73 535.6C894.063 539.6 885.996 541.6 876.53 541.6ZM881.93 516C886.996 516 891.596 514.8 895.73 512.4C899.863 510 903.13 506.6 905.53 502.2C908.063 497.667 909.33 492.333 909.33 486.2C909.33 479.933 908.063 474.6 905.53 470.2C903.13 465.8 899.863 462.4 895.73 460C891.596 457.6 886.996 456.4 881.93 456.4C876.73 456.4 872.063 457.6 867.93 460C863.796 462.4 860.463 465.8 857.93 470.2C855.53 474.6 854.33 479.933 854.33 486.2C854.33 492.333 855.53 497.667 857.93 502.2C860.463 506.6 863.796 510 867.93 512.4C872.063 514.8 876.73 516 881.93 516ZM910.13 540V518L910.73 486L908.73 454.2V391.6H939.93V540H910.13ZM1022.21 541.6C1009.94 541.6 999.14 539.2 989.806 534.4C980.606 529.6 973.473 523.067 968.406 514.8C963.34 506.4 960.806 496.867 960.806 486.2C960.806 475.4 963.273 465.867 968.206 457.6C973.273 449.2 980.14 442.667 988.806 438C997.473 433.2 1007.27 430.8 1018.21 430.8C1028.74 430.8 1038.21 433.067 1046.61 437.6C1055.14 442 1061.87 448.4 1066.81 456.8C1071.74 465.067 1074.21 475 1074.21 486.6C1074.21 487.8 1074.14 489.2 1074.01 490.8C1073.87 492.267 1073.74 493.667 1073.61 495H986.206V476.8H1057.21L1045.21 482.2C1045.21 476.6 1044.07 471.733 1041.81 467.6C1039.54 463.467 1036.41 460.267 1032.41 458C1028.41 455.6 1023.74 454.4 1018.41 454.4C1013.07 454.4 1008.34 455.6 1004.21 458C1000.21 460.267 997.073 463.533 994.806 467.8C992.54 471.933 991.406 476.867 991.406 482.6V487.4C991.406 493.267 992.673 498.467 995.206 503C997.873 507.4 1001.54 510.8 1006.21 513.2C1011.01 515.467 1016.61 516.6 1023.01 516.6C1028.74 516.6 1033.74 515.733 1038.01 514C1042.41 512.267 1046.41 509.667 1050.01 506.2L1066.61 524.2C1061.67 529.8 1055.47 534.133 1048.01 537.2C1040.54 540.133 1031.94 541.6 1022.21 541.6ZM1146.18 541.6C1134.71 541.6 1124.51 539.2 1115.58 534.4C1106.78 529.6 1099.78 523.067 1094.58 514.8C1089.51 506.4 1086.98 496.867 1086.98 486.2C1086.98 475.4 1089.51 465.867 1094.58 457.6C1099.78 449.2 1106.78 442.667 1115.58 438C1124.51 433.2 1134.71 430.8 1146.18 430.8C1157.51 430.8 1167.64 433.2 1176.58 438C1185.51 442.667 1192.51 449.133 1197.58 457.4C1202.64 465.667 1205.18 475.267 1205.18 486.2C1205.18 496.867 1202.64 506.4 1197.58 514.8C1192.51 523.067 1185.51 529.6 1176.58 534.4C1167.64 539.2 1157.51 541.6 1146.18 541.6ZM1146.18 516C1151.38 516 1156.04 514.8 1160.18 512.4C1164.31 510 1167.58 506.6 1169.98 502.2C1172.38 497.667 1173.58 492.333 1173.58 486.2C1173.58 479.933 1172.38 474.6 1169.98 470.2C1167.58 465.8 1164.31 462.4 1160.18 460C1156.04 457.6 1151.38 456.4 1146.18 456.4C1140.98 456.4 1136.31 457.6 1132.18 460C1128.04 462.4 1124.71 465.8 1122.18 470.2C1119.78 474.6 1118.58 479.933 1118.58 486.2C1118.58 492.333 1119.78 497.667 1122.18 502.2C1124.71 506.6 1128.04 510 1132.18 512.4C1136.31 514.8 1140.98 516 1146.18 516Z" fill="white"/>
</svg>
