<svg width="1920" height="1080" viewBox="0 0 1920 1080" fill="none" xmlns="http://www.w3.org/2000/svg">
<rect width="1920" height="1080" fill="#1E293B"/>
<path d="M169 234.5H253.25V266H169V234.5ZM172 306.5H267.25V339H131.75V164H264V196.5H172V306.5ZM349.533 339L274.033 164H317.783L383.783 319H358.033L425.033 164H465.283L389.533 339H349.533ZM517.145 234.5H601.395V266H517.145V234.5ZM520.145 306.5H615.395V339H479.895V164H612.145V196.5H520.145V306.5ZM647.619 339V164H723.369C739.036 164 752.536 166.583 763.869 171.75C775.202 176.75 783.952 184 790.119 193.5C796.286 203 799.369 214.333 799.369 227.5C799.369 240.5 796.286 251.75 790.119 261.25C783.952 270.583 775.202 277.75 763.869 282.75C752.536 287.75 739.036 290.25 723.369 290.25H670.119L688.119 272.5V339H647.619ZM758.869 339L715.119 275.5H758.369L802.619 339H758.869ZM688.119 277L670.119 258H721.119C733.619 258 742.952 255.333 749.119 250C755.286 244.5 758.369 237 758.369 227.5C758.369 217.833 755.286 210.333 749.119 205C742.952 199.667 733.619 197 721.119 197H670.119L688.119 177.75V277ZM872.516 339V267.5L881.766 292L804.766 164H847.766L906.766 262.25H882.016L941.266 164H981.016L904.016 292L913.016 267.5V339H872.516ZM1030.79 339V197H974.793V164H1127.29V197H1071.29V339H1030.79ZM1269.08 164H1309.58V339H1269.08V164ZM1189.58 339H1149.08V164H1189.58V339ZM1272.08 267.25H1186.58V233H1272.08V267.25ZM1350.99 339V164H1391.49V339H1350.99ZM1433.02 339V164H1466.52L1569.77 290H1553.52V164H1593.52V339H1560.27L1456.77 213H1473.02V339H1433.02ZM1719.42 342C1705.59 342 1692.84 339.833 1681.17 335.5C1669.67 331 1659.59 324.667 1650.92 316.5C1642.42 308.333 1635.76 298.75 1630.92 287.75C1626.26 276.75 1623.92 264.667 1623.92 251.5C1623.92 238.333 1626.26 226.25 1630.92 215.25C1635.76 204.25 1642.51 194.667 1651.17 186.5C1659.84 178.333 1670.01 172.083 1681.67 167.75C1693.34 163.25 1706.17 161 1720.17 161C1735.67 161 1749.59 163.583 1761.92 168.75C1774.42 173.917 1784.92 181.417 1793.42 191.25L1767.42 215.25C1761.09 208.583 1754.17 203.667 1746.67 200.5C1739.17 197.167 1731.01 195.5 1722.17 195.5C1713.67 195.5 1705.92 196.833 1698.92 199.5C1691.92 202.167 1685.84 206 1680.67 211C1675.67 216 1671.76 221.917 1668.92 228.75C1666.26 235.583 1664.92 243.167 1664.92 251.5C1664.92 259.667 1666.26 267.167 1668.92 274C1671.76 280.833 1675.67 286.833 1680.67 292C1685.84 297 1691.84 300.833 1698.67 303.5C1705.67 306.167 1713.34 307.5 1721.67 307.5C1729.67 307.5 1737.42 306.25 1744.92 303.75C1752.59 301.083 1760.01 296.667 1767.17 290.5L1790.17 319.75C1780.67 326.917 1769.59 332.417 1756.92 336.25C1744.42 340.083 1731.92 342 1719.42 342ZM1753.17 314.5V248.75H1790.17V319.75L1753.17 314.5Z" fill="#48CAE4"/>
<path d="M125.4 596V488.4H156.6V596H125.4ZM141 473.4C135.267 473.4 130.6 471.733 127 468.4C123.4 465.067 121.6 460.933 121.6 456C121.6 451.067 123.4 446.933 127 443.6C130.6 440.267 135.267 438.6 141 438.6C146.733 438.6 151.4 440.2 155 443.4C158.6 446.467 160.4 450.467 160.4 455.4C160.4 460.6 158.6 464.933 155 468.4C151.533 471.733 146.867 473.4 141 473.4ZM250.956 486.8C259.49 486.8 267.09 488.533 273.756 492C280.556 495.333 285.89 500.533 289.756 507.6C293.623 514.533 295.556 523.467 295.556 534.4V596H264.356V539.2C264.356 530.533 262.423 524.133 258.556 520C254.823 515.867 249.49 513.8 242.556 513.8C237.623 513.8 233.156 514.867 229.156 517C225.29 519 222.223 522.133 219.956 526.4C217.823 530.667 216.756 536.133 216.756 542.8V596H185.556V488.4H215.356V518.2L209.756 509.2C213.623 502 219.156 496.467 226.356 492.6C233.556 488.733 241.756 486.8 250.956 486.8ZM424.478 597.6C411.811 597.6 401.945 594.4 394.878 588C387.811 581.467 384.278 571.8 384.278 559V464.6H415.478V558.6C415.478 563.133 416.678 566.667 419.078 569.2C421.478 571.6 424.745 572.8 428.878 572.8C433.811 572.8 438.011 571.467 441.478 568.8L449.878 590.8C446.678 593.067 442.811 594.8 438.278 596C433.878 597.067 429.278 597.6 424.478 597.6ZM367.678 514.8V490.8H442.278V514.8H367.678ZM532.792 486.8C541.326 486.8 548.926 488.533 555.592 492C562.392 495.333 567.726 500.533 571.592 507.6C575.459 514.533 577.392 523.467 577.392 534.4V596H546.192V539.2C546.192 530.533 544.259 524.133 540.392 520C536.659 515.867 531.326 513.8 524.392 513.8C519.459 513.8 514.992 514.867 510.992 517C507.126 519 504.059 522.133 501.792 526.4C499.659 530.667 498.592 536.133 498.592 542.8V596H467.392V447.6H498.592V518.2L491.592 509.2C495.459 502 500.992 496.467 508.192 492.6C515.392 488.733 523.592 486.8 532.792 486.8ZM605.673 596V488.4H636.873V596H605.673ZM621.273 473.4C615.54 473.4 610.873 471.733 607.273 468.4C603.673 465.067 601.873 460.933 601.873 456C601.873 451.067 603.673 446.933 607.273 443.6C610.873 440.267 615.54 438.6 621.273 438.6C627.007 438.6 631.673 440.2 635.273 443.4C638.873 446.467 640.673 450.467 640.673 455.4C640.673 460.6 638.873 464.933 635.273 468.4C631.807 471.733 627.14 473.4 621.273 473.4ZM702.03 597.6C692.83 597.6 683.963 596.533 675.43 594.4C667.03 592.133 660.363 589.333 655.43 586L665.83 563.6C670.763 566.667 676.563 569.2 683.23 571.2C690.03 573.067 696.696 574 703.23 574C710.43 574 715.496 573.133 718.43 571.4C721.496 569.667 723.03 567.267 723.03 564.2C723.03 561.667 721.83 559.8 719.43 558.6C717.163 557.267 714.096 556.267 710.23 555.6C706.363 554.933 702.096 554.267 697.43 553.6C692.896 552.933 688.296 552.067 683.63 551C678.963 549.8 674.696 548.067 670.83 545.8C666.963 543.533 663.83 540.467 661.43 536.6C659.163 532.733 658.03 527.733 658.03 521.6C658.03 514.8 659.963 508.8 663.83 503.6C667.83 498.4 673.563 494.333 681.03 491.4C688.496 488.333 697.43 486.8 707.83 486.8C715.163 486.8 722.63 487.6 730.23 489.2C737.83 490.8 744.163 493.133 749.23 496.2L738.83 518.4C733.63 515.333 728.363 513.267 723.03 512.2C717.83 511 712.763 510.4 707.83 510.4C700.896 510.4 695.83 511.333 692.63 513.2C689.43 515.067 687.83 517.467 687.83 520.4C687.83 523.067 688.963 525.067 691.23 526.4C693.63 527.733 696.763 528.8 700.63 529.6C704.496 530.4 708.696 531.133 713.23 531.8C717.896 532.333 722.563 533.2 727.23 534.4C731.896 535.6 736.096 537.333 739.83 539.6C743.696 541.733 746.83 544.733 749.23 548.6C751.63 552.333 752.83 557.267 752.83 563.4C752.83 570.067 750.83 576 746.83 581.2C742.83 586.267 737.03 590.267 729.43 593.2C721.963 596.133 712.83 597.6 702.03 597.6ZM857.92 596L812.72 488.4H844.92L882.52 581H866.52L905.52 488.4H935.52L890.12 596H857.92ZM948.252 596V488.4H979.452V596H948.252ZM963.852 473.4C958.118 473.4 953.452 471.733 949.852 468.4C946.252 465.067 944.452 460.933 944.452 456C944.452 451.067 946.252 446.933 949.852 443.6C953.452 440.267 958.118 438.6 963.852 438.6C969.585 438.6 974.252 440.2 977.852 443.4C981.452 446.467 983.252 450.467 983.252 455.4C983.252 460.6 981.452 464.933 977.852 468.4C974.385 471.733 969.718 473.4 963.852 473.4ZM1054.61 597.6C1044.47 597.6 1035.34 595.333 1027.21 590.8C1019.07 586.133 1012.61 579.667 1007.81 571.4C1003.14 563.133 1000.81 553.4 1000.81 542.2C1000.81 530.867 1003.14 521.067 1007.81 512.8C1012.61 504.533 1019.07 498.133 1027.21 493.6C1035.34 489.067 1044.47 486.8 1054.61 486.8C1063.67 486.8 1071.61 488.8 1078.41 492.8C1085.21 496.8 1090.47 502.867 1094.21 511C1097.94 519.133 1099.81 529.533 1099.81 542.2C1099.81 554.733 1098.01 565.133 1094.41 573.4C1090.81 581.533 1085.61 587.6 1078.81 591.6C1072.14 595.6 1064.07 597.6 1054.61 597.6ZM1060.01 572C1065.07 572 1069.67 570.8 1073.81 568.4C1077.94 566 1081.21 562.6 1083.61 558.2C1086.14 553.667 1087.41 548.333 1087.41 542.2C1087.41 535.933 1086.14 530.6 1083.61 526.2C1081.21 521.8 1077.94 518.4 1073.81 516C1069.67 513.6 1065.07 512.4 1060.01 512.4C1054.81 512.4 1050.14 513.6 1046.01 516C1041.87 518.4 1038.54 521.8 1036.01 526.2C1033.61 530.6 1032.41 535.933 1032.41 542.2C1032.41 548.333 1033.61 553.667 1036.01 558.2C1038.54 562.6 1041.87 566 1046.01 568.4C1050.14 570.8 1054.81 572 1060.01 572ZM1088.21 596V574L1088.81 542L1086.81 510.2V447.6H1118.01V596H1088.21ZM1200.28 597.6C1188.02 597.6 1177.22 595.2 1167.88 590.4C1158.68 585.6 1151.55 579.067 1146.48 570.8C1141.42 562.4 1138.88 552.867 1138.88 542.2C1138.88 531.4 1141.35 521.867 1146.28 513.6C1151.35 505.2 1158.22 498.667 1166.88 494C1175.55 489.2 1185.35 486.8 1196.28 486.8C1206.82 486.8 1216.28 489.067 1224.68 493.6C1233.22 498 1239.95 504.4 1244.88 512.8C1249.82 521.067 1252.28 531 1252.28 542.6C1252.28 543.8 1252.22 545.2 1252.08 546.8C1251.95 548.267 1251.82 549.667 1251.68 551H1164.28V532.8H1235.28L1223.28 538.2C1223.28 532.6 1222.15 527.733 1219.88 523.6C1217.62 519.467 1214.48 516.267 1210.48 514C1206.48 511.6 1201.82 510.4 1196.48 510.4C1191.15 510.4 1186.42 511.6 1182.28 514C1178.28 516.267 1175.15 519.533 1172.88 523.8C1170.62 527.933 1169.48 532.867 1169.48 538.6V543.4C1169.48 549.267 1170.75 554.467 1173.28 559C1175.95 563.4 1179.62 566.8 1184.28 569.2C1189.08 571.467 1194.68 572.6 1201.08 572.6C1206.82 572.6 1211.82 571.733 1216.08 570C1220.48 568.267 1224.48 565.667 1228.08 562.2L1244.68 580.2C1239.75 585.8 1233.55 590.133 1226.08 593.2C1218.62 596.133 1210.02 597.6 1200.28 597.6ZM1324.26 597.6C1312.79 597.6 1302.59 595.2 1293.66 590.4C1284.86 585.6 1277.86 579.067 1272.66 570.8C1267.59 562.4 1265.06 552.867 1265.06 542.2C1265.06 531.4 1267.59 521.867 1272.66 513.6C1277.86 505.2 1284.86 498.667 1293.66 494C1302.59 489.2 1312.79 486.8 1324.26 486.8C1335.59 486.8 1345.72 489.2 1354.66 494C1363.59 498.667 1370.59 505.133 1375.66 513.4C1380.72 521.667 1383.26 531.267 1383.26 542.2C1383.26 552.867 1380.72 562.4 1375.66 570.8C1370.59 579.067 1363.59 585.6 1354.66 590.4C1345.72 595.2 1335.59 597.6 1324.26 597.6ZM1324.26 572C1329.46 572 1334.12 570.8 1338.26 568.4C1342.39 566 1345.66 562.6 1348.06 558.2C1350.46 553.667 1351.66 548.333 1351.66 542.2C1351.66 535.933 1350.46 530.6 1348.06 526.2C1345.66 521.8 1342.39 518.4 1338.26 516C1334.12 513.6 1329.46 512.4 1324.26 512.4C1319.06 512.4 1314.39 513.6 1310.26 516C1306.12 518.4 1302.79 521.8 1300.26 526.2C1297.86 530.6 1296.66 535.933 1296.66 542.2C1296.66 548.333 1297.86 553.667 1300.26 558.2C1302.79 562.6 1306.12 566 1310.26 568.4C1314.39 570.8 1319.06 572 1324.26 572ZM125.4 840V732.4H156.6V840H125.4ZM141 717.4C135.267 717.4 130.6 715.733 127 712.4C123.4 709.067 121.6 704.933 121.6 700C121.6 695.067 123.4 690.933 127 687.6C130.6 684.267 135.267 682.6 141 682.6C146.733 682.6 151.4 684.2 155 687.4C158.6 690.467 160.4 694.467 160.4 699.4C160.4 704.6 158.6 708.933 155 712.4C151.533 715.733 146.867 717.4 141 717.4ZM221.756 841.6C212.556 841.6 203.69 840.533 195.156 838.4C186.756 836.133 180.09 833.333 175.156 830L185.556 807.6C190.49 810.667 196.29 813.2 202.956 815.2C209.756 817.067 216.423 818 222.956 818C230.156 818 235.223 817.133 238.156 815.4C241.223 813.667 242.756 811.267 242.756 808.2C242.756 805.667 241.556 803.8 239.156 802.6C236.89 801.267 233.823 800.267 229.956 799.6C226.09 798.933 221.823 798.267 217.156 797.6C212.623 796.933 208.023 796.067 203.356 795C198.69 793.8 194.423 792.067 190.556 789.8C186.69 787.533 183.556 784.467 181.156 780.6C178.89 776.733 177.756 771.733 177.756 765.6C177.756 758.8 179.69 752.8 183.556 747.6C187.556 742.4 193.29 738.333 200.756 735.4C208.223 732.333 217.156 730.8 227.556 730.8C234.89 730.8 242.356 731.6 249.956 733.2C257.556 734.8 263.89 737.133 268.956 740.2L258.556 762.4C253.356 759.333 248.09 757.267 242.756 756.2C237.556 755 232.49 754.4 227.556 754.4C220.623 754.4 215.556 755.333 212.356 757.2C209.156 759.067 207.556 761.467 207.556 764.4C207.556 767.067 208.69 769.067 210.956 770.4C213.356 771.733 216.49 772.8 220.356 773.6C224.223 774.4 228.423 775.133 232.956 775.8C237.623 776.333 242.29 777.2 246.956 778.4C251.623 779.6 255.823 781.333 259.556 783.6C263.423 785.733 266.556 788.733 268.956 792.6C271.356 796.333 272.556 801.267 272.556 807.4C272.556 814.067 270.556 820 266.556 825.2C262.556 830.267 256.756 834.267 249.156 837.2C241.69 840.133 232.556 841.6 221.756 841.6Z" fill="white"/>
<path d="M303.606 841.6C298.273 841.6 293.673 839.8 289.806 836.2C286.073 832.467 284.206 827.733 284.206 822C284.206 816.267 286.073 811.667 289.806 808.2C293.673 804.6 298.273 802.8 303.606 802.8C309.073 802.8 313.673 804.6 317.406 808.2C321.14 811.667 323.006 816.267 323.006 822C323.006 827.733 321.14 832.467 317.406 836.2C313.673 839.8 309.073 841.6 303.606 841.6ZM355.95 841.6C350.617 841.6 346.017 839.8 342.15 836.2C338.417 832.467 336.55 827.733 336.55 822C336.55 816.267 338.417 811.667 342.15 808.2C346.017 804.6 350.617 802.8 355.95 802.8C361.417 802.8 366.017 804.6 369.75 808.2C373.483 811.667 375.35 816.267 375.35 822C375.35 827.733 373.483 832.467 369.75 836.2C366.017 839.8 361.417 841.6 355.95 841.6ZM408.294 841.6C402.96 841.6 398.36 839.8 394.494 836.2C390.76 832.467 388.894 827.733 388.894 822C388.894 816.267 390.76 811.667 394.494 808.2C398.36 804.6 402.96 802.8 408.294 802.8C413.76 802.8 418.36 804.6 422.094 808.2C425.827 811.667 427.694 816.267 427.694 822C427.694 827.733 425.827 832.467 422.094 836.2C418.36 839.8 413.76 841.6 408.294 841.6Z" fill="#48CAE4"/>
</svg>
