<svg width="1920" height="1080" viewBox="0 0 1920 1080" fill="none" xmlns="http://www.w3.org/2000/svg">
<rect width="1920" height="1080" fill="#1E293B"/>
<path d="M851.4 651.6C835.2 651.6 820.1 649 806.1 643.8C792.3 638.4 780.3 630.8 770.1 621C759.9 611.2 751.9 599.7 746.1 586.5C740.5 573.3 737.7 558.8 737.7 543C737.7 527.2 740.5 512.7 746.1 499.5C751.9 486.3 759.9 474.8 770.1 465C780.5 455.2 792.6 447.7 806.4 442.5C820.2 437.1 835.3 434.4 851.7 434.4C869.9 434.4 886.3 437.6 900.9 444C915.7 450.2 928.1 459.4 938.1 471.6L906.9 500.4C899.7 492.2 891.7 486.1 882.9 482.1C874.1 477.9 864.5 475.8 854.1 475.8C844.3 475.8 835.3 477.4 827.1 480.6C818.9 483.8 811.8 488.4 805.8 494.4C799.8 500.4 795.1 507.5 791.7 515.7C788.5 523.9 786.9 533 786.9 543C786.9 553 788.5 562.1 791.7 570.3C795.1 578.5 799.8 585.6 805.8 591.6C811.8 597.6 818.9 602.2 827.1 605.4C835.3 608.6 844.3 610.2 854.1 610.2C864.5 610.2 874.1 608.2 882.9 604.2C891.7 600 899.7 593.7 906.9 585.3L938.1 614.1C928.1 626.3 915.7 635.6 900.9 642C886.3 648.4 869.8 651.6 851.4 651.6ZM1038.85 650.4C1021.65 650.4 1006.35 646.8 992.953 639.6C979.753 632.4 969.253 622.6 961.453 610.2C953.853 597.6 950.053 583.3 950.053 567.3C950.053 551.1 953.853 536.8 961.453 524.4C969.253 511.8 979.753 502 992.953 495C1006.35 487.8 1021.65 484.2 1038.85 484.2C1055.85 484.2 1071.05 487.8 1084.45 495C1097.85 502 1108.35 511.7 1115.95 524.1C1123.55 536.5 1127.35 550.9 1127.35 567.3C1127.35 583.3 1123.55 597.6 1115.95 610.2C1108.35 622.6 1097.85 632.4 1084.45 639.6C1071.05 646.8 1055.85 650.4 1038.85 650.4ZM1038.85 612C1046.65 612 1053.65 610.2 1059.85 606.6C1066.05 603 1070.95 597.9 1074.55 591.3C1078.15 584.5 1079.95 576.5 1079.95 567.3C1079.95 557.9 1078.15 549.9 1074.55 543.3C1070.95 536.7 1066.05 531.6 1059.85 528C1053.65 524.4 1046.65 522.6 1038.85 522.6C1031.05 522.6 1024.05 524.4 1017.85 528C1011.65 531.6 1006.65 536.7 1002.85 543.3C999.253 549.9 997.453 557.9 997.453 567.3C997.453 576.5 999.253 584.5 1002.85 591.3C1006.65 597.9 1011.65 603 1017.85 606.6C1024.05 610.2 1031.05 612 1038.85 612ZM1227.94 650.4C1212.74 650.4 1199.04 647 1186.84 640.2C1174.64 633.2 1164.94 623.5 1157.74 611.1C1150.74 598.7 1147.24 584.1 1147.24 567.3C1147.24 550.3 1150.74 535.6 1157.74 523.2C1164.94 510.8 1174.64 501.2 1186.84 494.4C1199.04 487.6 1212.74 484.2 1227.94 484.2C1241.54 484.2 1253.44 487.2 1263.64 493.2C1273.84 499.2 1281.74 508.3 1287.34 520.5C1292.94 532.7 1295.74 548.3 1295.74 567.3C1295.74 586.1 1293.04 601.7 1287.64 614.1C1282.24 626.3 1274.44 635.4 1264.24 641.4C1254.24 647.4 1242.14 650.4 1227.94 650.4ZM1236.04 612C1243.64 612 1250.54 610.2 1256.74 606.6C1262.94 603 1267.84 597.9 1271.44 591.3C1275.24 584.5 1277.14 576.5 1277.14 567.3C1277.14 557.9 1275.24 549.9 1271.44 543.3C1267.84 536.7 1262.94 531.6 1256.74 528C1250.54 524.4 1243.64 522.6 1236.04 522.6C1228.24 522.6 1221.24 524.4 1215.04 528C1208.84 531.6 1203.84 536.7 1200.04 543.3C1196.44 549.9 1194.64 557.9 1194.64 567.3C1194.64 576.5 1196.44 584.5 1200.04 591.3C1203.84 597.9 1208.84 603 1215.04 606.6C1221.24 610.2 1228.24 612 1236.04 612ZM1278.34 648V615L1279.24 567L1276.24 519.3V425.4H1323.04V648H1278.34ZM1446.45 650.4C1428.05 650.4 1411.85 646.8 1397.85 639.6C1384.05 632.4 1373.35 622.6 1365.75 610.2C1358.15 597.6 1354.35 583.3 1354.35 567.3C1354.35 551.1 1358.05 536.8 1365.45 524.4C1373.05 511.8 1383.35 502 1396.35 495C1409.35 487.8 1424.05 484.2 1440.45 484.2C1456.25 484.2 1470.45 487.6 1483.05 494.4C1495.85 501 1505.95 510.6 1513.35 523.2C1520.75 535.6 1524.45 550.5 1524.45 567.9C1524.45 569.7 1524.35 571.8 1524.15 574.2C1523.95 576.4 1523.75 578.5 1523.55 580.5H1392.45V553.2H1498.95L1480.95 561.3C1480.95 552.9 1479.25 545.6 1475.85 539.4C1472.45 533.2 1467.75 528.4 1461.75 525C1455.75 521.4 1448.75 519.6 1440.75 519.6C1432.75 519.6 1425.65 521.4 1419.45 525C1413.45 528.4 1408.75 533.3 1405.35 539.7C1401.95 545.9 1400.25 553.3 1400.25 561.9V569.1C1400.25 577.9 1402.15 585.7 1405.95 592.5C1409.95 599.1 1415.45 604.2 1422.45 607.8C1429.65 611.2 1438.05 612.9 1447.65 612.9C1456.25 612.9 1463.75 611.6 1470.15 609C1476.75 606.4 1482.75 602.5 1488.15 597.3L1513.05 624.3C1505.65 632.7 1496.35 639.2 1485.15 643.8C1473.95 648.2 1461.05 650.4 1446.45 650.4ZM1624.91 650.4C1609.71 650.4 1596.01 647 1583.81 640.2C1571.61 633.2 1561.91 623.5 1554.71 611.1C1547.71 598.7 1544.21 584.1 1544.21 567.3C1544.21 550.3 1547.71 535.6 1554.71 523.2C1561.91 510.8 1571.61 501.2 1583.81 494.4C1596.01 487.6 1609.71 484.2 1624.91 484.2C1638.51 484.2 1650.41 487.2 1660.61 493.2C1670.81 499.2 1678.71 508.3 1684.31 520.5C1689.91 532.7 1692.71 548.3 1692.71 567.3C1692.71 586.1 1690.01 601.7 1684.61 614.1C1679.21 626.3 1671.41 635.4 1661.21 641.4C1651.21 647.4 1639.11 650.4 1624.91 650.4ZM1633.01 612C1640.61 612 1647.51 610.2 1653.71 606.6C1659.91 603 1664.81 597.9 1668.41 591.3C1672.21 584.5 1674.11 576.5 1674.11 567.3C1674.11 557.9 1672.21 549.9 1668.41 543.3C1664.81 536.7 1659.91 531.6 1653.71 528C1647.51 524.4 1640.61 522.6 1633.01 522.6C1625.21 522.6 1618.21 524.4 1612.01 528C1605.81 531.6 1600.81 536.7 1597.01 543.3C1593.41 549.9 1591.61 557.9 1591.61 567.3C1591.61 576.5 1593.41 584.5 1597.01 591.3C1600.81 597.9 1605.81 603 1612.01 606.6C1618.21 610.2 1625.21 612 1633.01 612ZM1675.31 648V615L1676.21 567L1673.21 519.3V425.4H1720.01V648H1675.31Z" fill="#149ECA"/>
<path d="M266.8 864.4C246.933 864.4 231.4 858.867 220.2 847.8C209 836.733 203.4 820.933 203.4 800.4V722H235.8V799.2C235.8 812.533 238.533 822.133 244 828C249.467 833.867 257.133 836.8 267 836.8C276.867 836.8 284.533 833.867 290 828C295.467 822.133 298.2 812.533 298.2 799.2V722H330.2V800.4C330.2 820.933 324.6 836.733 313.4 847.8C302.2 858.867 286.667 864.4 266.8 864.4ZM396.217 863.6C387.017 863.6 378.151 862.533 369.617 860.4C361.217 858.133 354.551 855.333 349.617 852L360.017 829.6C364.951 832.667 370.751 835.2 377.417 837.2C384.217 839.067 390.884 840 397.417 840C404.617 840 409.684 839.133 412.617 837.4C415.684 835.667 417.217 833.267 417.217 830.2C417.217 827.667 416.017 825.8 413.617 824.6C411.351 823.267 408.284 822.267 404.417 821.6C400.551 820.933 396.284 820.267 391.617 819.6C387.084 818.933 382.484 818.067 377.817 817C373.151 815.8 368.884 814.067 365.017 811.8C361.151 809.533 358.017 806.467 355.617 802.6C353.351 798.733 352.217 793.733 352.217 787.6C352.217 780.8 354.151 774.8 358.017 769.6C362.017 764.4 367.751 760.333 375.217 757.4C382.684 754.333 391.617 752.8 402.017 752.8C409.351 752.8 416.817 753.6 424.417 755.2C432.017 756.8 438.351 759.133 443.417 762.2L433.017 784.4C427.817 781.333 422.551 779.267 417.217 778.2C412.017 777 406.951 776.4 402.017 776.4C395.084 776.4 390.017 777.333 386.817 779.2C383.617 781.067 382.017 783.467 382.017 786.4C382.017 789.067 383.151 791.067 385.417 792.4C387.817 793.733 390.951 794.8 394.817 795.6C398.684 796.4 402.884 797.133 407.417 797.8C412.084 798.333 416.751 799.2 421.417 800.4C426.084 801.6 430.284 803.333 434.017 805.6C437.884 807.733 441.017 810.733 443.417 814.6C445.817 818.333 447.017 823.267 447.017 829.4C447.017 836.067 445.017 842 441.017 847.2C437.017 852.267 431.217 856.267 423.617 859.2C416.151 862.133 407.017 863.6 396.217 863.6ZM466.267 862V754.4H497.467V862H466.267ZM481.867 739.4C476.134 739.4 471.467 737.733 467.867 734.4C464.267 731.067 462.467 726.933 462.467 722C462.467 717.067 464.267 712.933 467.867 709.6C471.467 706.267 476.134 704.6 481.867 704.6C487.601 704.6 492.267 706.2 495.867 709.4C499.467 712.467 501.267 716.467 501.267 721.4C501.267 726.6 499.467 730.933 495.867 734.4C492.401 737.733 487.734 739.4 481.867 739.4ZM591.823 752.8C600.357 752.8 607.957 754.533 614.623 758C621.423 761.333 626.757 766.533 630.623 773.6C634.49 780.533 636.423 789.467 636.423 800.4V862H605.223V805.2C605.223 796.533 603.29 790.133 599.423 786C595.69 781.867 590.357 779.8 583.423 779.8C578.49 779.8 574.023 780.867 570.023 783C566.157 785 563.09 788.133 560.823 792.4C558.69 796.667 557.623 802.133 557.623 808.8V862H526.423V754.4H556.223V784.2L550.623 775.2C554.49 768 560.023 762.467 567.223 758.6C574.423 754.733 582.623 752.8 591.823 752.8ZM716.086 902.4C705.953 902.4 696.153 901.133 686.686 898.6C677.353 896.2 669.553 892.533 663.286 887.6L675.686 865.2C680.219 868.933 685.953 871.867 692.886 874C699.953 876.267 706.886 877.4 713.686 877.4C724.753 877.4 732.753 874.933 737.686 870C742.753 865.067 745.286 857.733 745.286 848V831.8L747.286 804.8L746.886 777.6V754.4H776.486V844C776.486 864 771.286 878.733 760.886 888.2C750.486 897.667 735.553 902.4 716.086 902.4ZM711.286 856.8C701.286 856.8 692.219 854.667 684.086 850.4C676.086 846 669.619 839.933 664.686 832.2C659.886 824.333 657.486 815.2 657.486 804.8C657.486 794.267 659.886 785.133 664.686 777.4C669.619 769.533 676.086 763.467 684.086 759.2C692.219 754.933 701.286 752.8 711.286 752.8C720.353 752.8 728.353 754.667 735.286 758.4C742.219 762 747.619 767.667 751.486 775.4C755.353 783 757.286 792.8 757.286 804.8C757.286 816.667 755.353 826.467 751.486 834.2C747.619 841.8 742.219 847.467 735.286 851.2C728.353 854.933 720.353 856.8 711.286 856.8ZM717.486 831.2C722.953 831.2 727.819 830.133 732.086 828C736.353 825.733 739.686 822.6 742.086 818.6C744.486 814.6 745.686 810 745.686 804.8C745.686 799.467 744.486 794.867 742.086 791C739.686 787 736.353 783.933 732.086 781.8C727.819 779.533 722.953 778.4 717.486 778.4C712.019 778.4 707.153 779.533 702.886 781.8C698.619 783.933 695.219 787 692.686 791C690.286 794.867 689.086 799.467 689.086 804.8C689.086 810 690.286 814.6 692.686 818.6C695.219 822.6 698.619 825.733 702.886 828C707.153 830.133 712.019 831.2 717.486 831.2ZM864.366 862V722H924.966C937.499 722 948.299 724.067 957.366 728.2C966.432 732.2 973.432 738 978.366 745.6C983.299 753.2 985.766 762.267 985.766 772.8C985.766 783.2 983.299 792.2 978.366 799.8C973.432 807.267 966.432 813 957.366 817C948.299 821 937.499 823 924.966 823H882.366L896.766 808.8V862H864.366ZM953.366 862L918.366 811.2H952.966L988.366 862H953.366ZM896.766 812.4L882.366 797.2H923.166C933.166 797.2 940.632 795.067 945.566 790.8C950.499 786.4 952.966 780.4 952.966 772.8C952.966 765.067 950.499 759.067 945.566 754.8C940.632 750.533 933.166 748.4 923.166 748.4H882.366L896.766 733V812.4ZM1062.64 863.6C1050.37 863.6 1039.57 861.2 1030.24 856.4C1021.04 851.6 1013.9 845.067 1008.84 836.8C1003.77 828.4 1001.24 818.867 1001.24 808.2C1001.24 797.4 1003.7 787.867 1008.64 779.6C1013.7 771.2 1020.57 764.667 1029.24 760C1037.9 755.2 1047.7 752.8 1058.64 752.8C1069.17 752.8 1078.64 755.067 1087.04 759.6C1095.57 764 1102.3 770.4 1107.24 778.8C1112.17 787.067 1114.64 797 1114.64 808.6C1114.64 809.8 1114.57 811.2 1114.44 812.8C1114.3 814.267 1114.17 815.667 1114.04 817H1026.64V798.8H1097.64L1085.64 804.2C1085.64 798.6 1084.5 793.733 1082.24 789.6C1079.97 785.467 1076.84 782.267 1072.84 780C1068.84 777.6 1064.17 776.4 1058.84 776.4C1053.5 776.4 1048.77 777.6 1044.64 780C1040.64 782.267 1037.5 785.533 1035.24 789.8C1032.97 793.933 1031.84 798.867 1031.84 804.6V809.4C1031.84 815.267 1033.1 820.467 1035.64 825C1038.3 829.4 1041.97 832.8 1046.64 835.2C1051.44 837.467 1057.04 838.6 1063.44 838.6C1069.17 838.6 1074.17 837.733 1078.44 836C1082.84 834.267 1086.84 831.667 1090.44 828.2L1107.04 846.2C1102.1 851.8 1095.9 856.133 1088.44 859.2C1080.97 862.133 1072.37 863.6 1062.64 863.6ZM1198.48 862V841L1196.48 836.4V798.8C1196.48 792.133 1194.41 786.933 1190.28 783.2C1186.28 779.467 1180.08 777.6 1171.68 777.6C1165.94 777.6 1160.28 778.533 1154.68 780.4C1149.21 782.133 1144.54 784.533 1140.68 787.6L1129.48 765.8C1135.34 761.667 1142.41 758.467 1150.68 756.2C1158.94 753.933 1167.34 752.8 1175.88 752.8C1192.28 752.8 1205.01 756.667 1214.08 764.4C1223.14 772.133 1227.68 784.2 1227.68 800.6V862H1198.48ZM1165.68 863.6C1157.28 863.6 1150.08 862.2 1144.08 859.4C1138.08 856.467 1133.48 852.533 1130.28 847.6C1127.08 842.667 1125.48 837.133 1125.48 831C1125.48 824.6 1127.01 819 1130.08 814.2C1133.28 809.4 1138.28 805.667 1145.08 803C1151.88 800.2 1160.74 798.8 1171.68 798.8H1200.28V817H1175.08C1167.74 817 1162.68 818.2 1159.88 820.6C1157.21 823 1155.88 826 1155.88 829.6C1155.88 833.6 1157.41 836.8 1160.48 839.2C1163.68 841.467 1168.01 842.6 1173.48 842.6C1178.68 842.6 1183.34 841.4 1187.48 839C1191.61 836.467 1194.61 832.8 1196.48 828L1201.28 842.4C1199.01 849.333 1194.88 854.6 1188.88 858.2C1182.88 861.8 1175.14 863.6 1165.68 863.6ZM1308.7 863.6C1297.1 863.6 1286.76 861.267 1277.7 856.6C1268.63 851.8 1261.5 845.2 1256.3 836.8C1251.23 828.4 1248.7 818.867 1248.7 808.2C1248.7 797.4 1251.23 787.867 1256.3 779.6C1261.5 771.2 1268.63 764.667 1277.7 760C1286.76 755.2 1297.1 752.8 1308.7 752.8C1320.03 752.8 1329.9 755.2 1338.3 760C1346.7 764.667 1352.9 771.4 1356.9 780.2L1332.7 793.2C1329.9 788.133 1326.36 784.4 1322.1 782C1317.96 779.6 1313.43 778.4 1308.5 778.4C1303.16 778.4 1298.36 779.6 1294.1 782C1289.83 784.4 1286.43 787.8 1283.9 792.2C1281.5 796.6 1280.3 801.933 1280.3 808.2C1280.3 814.467 1281.5 819.8 1283.9 824.2C1286.43 828.6 1289.83 832 1294.1 834.4C1298.36 836.8 1303.16 838 1308.5 838C1313.43 838 1317.96 836.867 1322.1 834.6C1326.36 832.2 1329.9 828.4 1332.7 823.2L1356.9 836.4C1352.9 845.067 1346.7 851.8 1338.3 856.6C1329.9 861.267 1320.03 863.6 1308.7 863.6ZM1420.42 863.6C1407.76 863.6 1397.89 860.4 1390.82 854C1383.76 847.467 1380.22 837.8 1380.22 825V730.6H1411.42V824.6C1411.42 829.133 1412.62 832.667 1415.02 835.2C1417.42 837.6 1420.69 838.8 1424.82 838.8C1429.76 838.8 1433.96 837.467 1437.42 834.8L1445.82 856.8C1442.62 859.067 1438.76 860.8 1434.22 862C1429.82 863.067 1425.22 863.6 1420.42 863.6ZM1363.62 780.8V756.8H1438.22V780.8H1363.62ZM1547.98 864.4C1538.51 864.4 1529.78 862.667 1521.78 859.2C1513.91 855.6 1507.44 850.533 1502.38 844L1520.38 822.4C1524.24 827.467 1528.31 831.333 1532.58 834C1536.84 836.533 1541.44 837.8 1546.38 837.8C1559.58 837.8 1566.18 830.067 1566.18 814.6V748H1516.98V722H1598.38V812.8C1598.38 830.133 1594.11 843.067 1585.58 851.6C1577.04 860.133 1564.51 864.4 1547.98 864.4ZM1676.38 864.4C1665.18 864.4 1654.45 862.933 1644.18 860C1633.91 856.933 1625.65 853 1619.38 848.2L1630.38 823.8C1636.38 828.067 1643.45 831.6 1651.58 834.4C1659.85 837.067 1668.18 838.4 1676.58 838.4C1682.98 838.4 1688.11 837.8 1691.98 836.6C1695.98 835.267 1698.91 833.467 1700.78 831.2C1702.65 828.933 1703.58 826.333 1703.58 823.4C1703.58 819.667 1702.11 816.733 1699.18 814.6C1696.25 812.333 1692.38 810.533 1687.58 809.2C1682.78 807.733 1677.45 806.4 1671.58 805.2C1665.85 803.867 1660.05 802.267 1654.18 800.4C1648.45 798.533 1643.18 796.133 1638.38 793.2C1633.58 790.267 1629.65 786.4 1626.58 781.6C1623.65 776.8 1622.18 770.667 1622.18 763.2C1622.18 755.2 1624.31 747.933 1628.58 741.4C1632.98 734.733 1639.51 729.467 1648.18 725.6C1656.98 721.6 1667.98 719.6 1681.18 719.6C1689.98 719.6 1698.65 720.667 1707.18 722.8C1715.71 724.8 1723.25 727.867 1729.78 732L1719.78 756.6C1713.25 752.867 1706.71 750.133 1700.18 748.4C1693.65 746.533 1687.25 745.6 1680.98 745.6C1674.71 745.6 1669.58 746.333 1665.58 747.8C1661.58 749.267 1658.71 751.2 1656.98 753.6C1655.25 755.867 1654.38 758.533 1654.38 761.6C1654.38 765.2 1655.85 768.133 1658.78 770.4C1661.71 772.533 1665.58 774.267 1670.38 775.6C1675.18 776.933 1680.45 778.267 1686.18 779.6C1692.05 780.933 1697.85 782.467 1703.58 784.2C1709.45 785.933 1714.78 788.267 1719.58 791.2C1724.38 794.133 1728.25 798 1731.18 802.8C1734.25 807.6 1735.78 813.667 1735.78 821C1735.78 828.867 1733.58 836.067 1729.18 842.6C1724.78 849.133 1718.18 854.4 1709.38 858.4C1700.71 862.4 1689.71 864.4 1676.38 864.4Z" fill="white"/>
<g clip-path="url(#clip0_45_3450)">
<path d="M367.001 365.278C391.219 365.278 410.853 345.678 410.853 321.5C410.853 297.322 391.219 277.722 367.001 277.722C342.782 277.722 323.148 297.322 323.148 321.5C323.148 345.678 342.782 365.278 367.001 365.278Z" fill="#149ECA"/>
<path d="M367 411.192C496.955 411.192 602.304 371.035 602.304 321.5C602.304 271.965 496.955 231.809 367 231.809C237.045 231.809 131.695 271.965 131.695 321.5C131.695 371.035 237.045 411.192 367 411.192Z" stroke="#149ECA" stroke-width="20"/>
<path d="M289.191 366.346C354.169 478.7 441.678 549.702 484.65 524.935C527.621 500.167 509.782 389.008 444.805 276.654C379.827 164.3 292.317 93.2976 249.346 118.065C206.374 142.833 224.214 253.992 289.191 366.346Z" stroke="#149ECA" stroke-width="20"/>
<path d="M289.191 276.654C224.214 389.008 206.374 500.167 249.346 524.935C292.317 549.702 379.827 478.7 444.805 366.346C509.782 253.992 527.622 142.833 484.65 118.065C441.679 93.2975 354.169 164.3 289.191 276.654Z" stroke="#149ECA" stroke-width="20"/>
</g>
<defs>
<clipPath id="clip0_45_3450">
<rect width="492" height="437" fill="white" transform="translate(121 103)"/>
</clipPath>
</defs>
</svg>
