<svg width="1920" height="1080" viewBox="0 0 1920 1080" fill="none" xmlns="http://www.w3.org/2000/svg">
<g clip-path="url(#clip0_45_3434)">
<rect width="1920" height="1080" fill="#1E293B"/>
<g clip-path="url(#clip1_45_3434)">
<path d="M1738 -5V70H1613V-5H1738ZM1613 -30C1606.37 -30 1600.01 -27.3661 1595.32 -22.6777C1590.63 -17.9893 1588 -11.6304 1588 -5V70C1588 76.6304 1590.63 82.9893 1595.32 87.6777C1600.01 92.3661 1606.37 95 1613 95H1738C1744.63 95 1750.99 92.3661 1755.68 87.6777C1760.37 82.9893 1763 76.6304 1763 70V-5C1763 -11.6304 1760.37 -17.9893 1755.68 -22.6777C1750.99 -27.3661 1744.63 -30 1738 -30H1613ZM1963 270V345H1838V270H1963ZM1838 245C1831.37 245 1825.01 247.634 1820.32 252.322C1815.63 257.011 1813 263.37 1813 270V345C1813 351.63 1815.63 357.989 1820.32 362.678C1825.01 367.366 1831.37 370 1838 370H1963C1969.63 370 1975.99 367.366 1980.68 362.678C1985.37 357.989 1988 351.63 1988 345V270C1988 263.37 1985.37 257.011 1980.68 252.322C1975.99 247.634 1969.63 245 1963 245H1838ZM1738 170V345H1613V170H1738ZM1613 145C1606.37 145 1600.01 147.634 1595.32 152.322C1590.63 157.011 1588 163.37 1588 170V345C1588 351.63 1590.63 357.989 1595.32 362.678C1600.01 367.366 1606.37 370 1613 370H1738C1744.63 370 1750.99 367.366 1755.68 362.678C1760.37 357.989 1763 351.63 1763 345V170C1763 163.37 1760.37 157.011 1755.68 152.322C1750.99 147.634 1744.63 145 1738 145H1613ZM1963 -5V170H1838V-5H1963ZM1838 -30C1831.37 -30 1825.01 -27.3661 1820.32 -22.6777C1815.63 -17.9893 1813 -11.6304 1813 -5V170C1813 176.63 1815.63 182.989 1820.32 187.678C1825.01 192.366 1831.37 195 1838 195H1963C1969.63 195 1975.99 192.366 1980.68 187.678C1985.37 182.989 1988 176.63 1988 170V-5C1988 -11.6304 1985.37 -17.9893 1980.68 -22.6777C1975.99 -27.3661 1969.63 -30 1963 -30H1838Z" fill="#69F0AE"/>
</g>
<g clip-path="url(#clip2_45_3434)">
<path d="M1427.32 97.825C1428.5 96.6533 1430.08 95.9951 1431.74 95.9951C1433.4 95.9951 1434.99 96.6533 1436.16 97.825L1456.75 118.413L1410.41 164.75L1389.82 144.175C1389.24 143.594 1388.78 142.905 1388.46 142.145C1388.15 141.386 1387.99 140.572 1387.99 139.75C1387.99 138.928 1388.15 138.114 1388.46 137.355C1388.78 136.595 1389.24 135.906 1389.82 135.325L1427.32 97.825ZM1419.25 173.588L1465.59 127.25L1546.84 208.5H1544.25C1542.59 208.5 1541 209.159 1539.83 210.331C1538.66 211.503 1538 213.092 1538 214.75V221H1531.75C1530.09 221 1528.5 221.659 1527.33 222.831C1526.16 224.003 1525.5 225.592 1525.5 227.25V233.5H1519.25C1517.59 233.5 1516 234.159 1514.83 235.331C1513.66 236.503 1513 238.092 1513 239.75V246H1506.75C1505.09 246 1503.5 246.659 1502.33 247.831C1501.16 249.003 1500.5 250.592 1500.5 252.25V254.838L1419.25 173.588ZM1512.6 266.938C1512.86 266.238 1513 265.497 1513 264.75V258.5H1519.25C1520.91 258.5 1522.5 257.842 1523.67 256.669C1524.84 255.497 1525.5 253.908 1525.5 252.25V246H1531.75C1533.41 246 1535 245.342 1536.17 244.169C1537.34 242.997 1538 241.408 1538 239.75V233.5H1544.25C1545.91 233.5 1547.5 232.842 1548.67 231.669C1549.84 230.497 1550.5 228.908 1550.5 227.25V221H1556.75C1557.5 220.999 1558.24 220.863 1558.94 220.6L1561.17 222.825C1561.77 223.425 1562.24 224.139 1562.55 224.925L1587.55 287.425C1588 288.561 1588.11 289.805 1587.87 291.004C1587.62 292.202 1587.03 293.302 1586.17 294.167C1585.3 295.032 1584.2 295.624 1583 295.87C1581.8 296.116 1580.56 296.005 1579.42 295.55L1516.92 270.55C1516.14 270.238 1515.42 269.771 1514.82 269.175L1512.6 266.938Z" fill="#69F0AE"/>
</g>
<path d="M81.9 623V413H177.3C200.1 413 220.2 417.4 237.6 426.2C255 434.8 268.6 446.9 278.4 462.5C288.2 478.1 293.1 496.6 293.1 518C293.1 539.2 288.2 557.7 278.4 573.5C268.6 589.1 255 601.3 237.6 610.1C220.2 618.7 200.1 623 177.3 623H81.9ZM130.5 583.1H174.9C188.9 583.1 201 580.5 211.2 575.3C221.6 569.9 229.6 562.3 235.2 552.5C241 542.7 243.9 531.2 243.9 518C243.9 504.6 241 493.1 235.2 483.5C229.6 473.7 221.6 466.2 211.2 461C201 455.6 188.9 452.9 174.9 452.9H130.5V583.1ZM406.552 625.4C388.152 625.4 371.952 621.8 357.952 614.6C344.152 607.4 333.452 597.6 325.852 585.2C318.252 572.6 314.452 558.3 314.452 542.3C314.452 526.1 318.152 511.8 325.552 499.4C333.152 486.8 343.452 477 356.452 470C369.452 462.8 384.152 459.2 400.552 459.2C416.352 459.2 430.552 462.6 443.152 469.4C455.952 476 466.052 485.6 473.452 498.2C480.852 510.6 484.552 525.5 484.552 542.9C484.552 544.7 484.452 546.8 484.252 549.2C484.052 551.4 483.852 553.5 483.652 555.5H352.552V528.2H459.052L441.052 536.3C441.052 527.9 439.352 520.6 435.952 514.4C432.552 508.2 427.852 503.4 421.852 500C415.852 496.4 408.852 494.6 400.852 494.6C392.852 494.6 385.752 496.4 379.552 500C373.552 503.4 368.852 508.3 365.452 514.7C362.052 520.9 360.352 528.3 360.352 536.9V544.1C360.352 552.9 362.252 560.7 366.052 567.5C370.052 574.1 375.552 579.2 382.552 582.8C389.752 586.2 398.152 587.9 407.752 587.9C416.352 587.9 423.852 586.6 430.252 584C436.852 581.4 442.852 577.5 448.252 572.3L473.152 599.3C465.752 607.7 456.452 614.2 445.252 618.8C434.052 623.2 421.152 625.4 406.552 625.4ZM570.009 625.4C556.209 625.4 542.909 623.8 530.109 620.6C517.509 617.2 507.509 613 500.109 608L515.709 574.4C523.109 579 531.809 582.8 541.809 585.8C552.009 588.6 562.009 590 571.809 590C582.609 590 590.209 588.7 594.609 586.1C599.209 583.5 601.509 579.9 601.509 575.3C601.509 571.5 599.709 568.7 596.109 566.9C592.709 564.9 588.109 563.4 582.309 562.4C576.509 561.4 570.109 560.4 563.109 559.4C556.309 558.4 549.409 557.1 542.409 555.5C535.409 553.7 529.009 551.1 523.209 547.7C517.409 544.3 512.709 539.7 509.109 533.9C505.709 528.1 504.009 520.6 504.009 511.4C504.009 501.2 506.909 492.2 512.709 484.4C518.709 476.6 527.309 470.5 538.509 466.1C549.709 461.5 563.109 459.2 578.709 459.2C589.709 459.2 600.909 460.4 612.309 462.8C623.709 465.2 633.209 468.7 640.809 473.3L625.209 506.6C617.409 502 609.509 498.9 601.509 497.3C593.709 495.5 586.109 494.6 578.709 494.6C568.309 494.6 560.709 496 555.909 498.8C551.109 501.6 548.709 505.2 548.709 509.6C548.709 513.6 550.409 516.6 553.809 518.6C557.409 520.6 562.109 522.2 567.909 523.4C573.709 524.6 580.009 525.7 586.809 526.7C593.809 527.5 600.809 528.8 607.809 530.6C614.809 532.4 621.109 535 626.709 538.4C632.509 541.6 637.209 546.1 640.809 551.9C644.409 557.5 646.209 564.9 646.209 574.1C646.209 584.1 643.209 593 637.209 600.8C631.209 608.4 622.509 614.4 611.109 618.8C599.909 623.2 586.209 625.4 570.009 625.4ZM675.084 623V461.6H721.884V623H675.084ZM698.484 439.1C689.884 439.1 682.884 436.6 677.484 431.6C672.084 426.6 669.384 420.4 669.384 413C669.384 405.6 672.084 399.4 677.484 394.4C682.884 389.4 689.884 386.9 698.484 386.9C707.084 386.9 714.084 389.3 719.484 394.1C724.884 398.7 727.584 404.7 727.584 412.1C727.584 419.9 724.884 426.4 719.484 431.6C714.284 436.6 707.284 439.1 698.484 439.1ZM841.219 683.6C826.019 683.6 811.319 681.7 797.119 677.9C783.119 674.3 771.419 668.8 762.019 661.4L780.619 627.8C787.419 633.4 796.019 637.8 806.419 641C817.019 644.4 827.419 646.1 837.619 646.1C854.219 646.1 866.219 642.4 873.619 635C881.219 627.6 885.019 616.6 885.019 602V577.7L888.019 537.2L887.419 496.4V461.6H931.819V596C931.819 626 924.019 648.1 908.419 662.3C892.819 676.5 870.419 683.6 841.219 683.6ZM834.019 615.2C819.019 615.2 805.419 612 793.219 605.6C781.219 599 771.519 589.9 764.119 578.3C756.919 566.5 753.319 552.8 753.319 537.2C753.319 521.4 756.919 507.7 764.119 496.1C771.519 484.3 781.219 475.2 793.219 468.8C805.419 462.4 819.019 459.2 834.019 459.2C847.619 459.2 859.619 462 870.019 467.6C880.419 473 888.519 481.5 894.319 493.1C900.119 504.5 903.019 519.2 903.019 537.2C903.019 555 900.119 569.7 894.319 581.3C888.519 592.7 880.419 601.2 870.019 606.8C859.619 612.4 847.619 615.2 834.019 615.2ZM843.319 576.8C851.519 576.8 858.819 575.2 865.219 572C871.619 568.6 876.619 563.9 880.219 557.9C883.819 551.9 885.619 545 885.619 537.2C885.619 529.2 883.819 522.3 880.219 516.5C876.619 510.5 871.619 505.9 865.219 502.7C858.819 499.3 851.519 497.6 843.319 497.6C835.119 497.6 827.819 499.3 821.419 502.7C815.019 505.9 809.919 510.5 806.119 516.5C802.519 522.3 800.719 529.2 800.719 537.2C800.719 545 802.519 551.9 806.119 557.9C809.919 563.9 815.019 568.6 821.419 572C827.819 575.2 835.119 576.8 843.319 576.8ZM1073.48 459.2C1086.28 459.2 1097.68 461.8 1107.68 467C1117.88 472 1125.88 479.8 1131.68 490.4C1137.48 500.8 1140.38 514.2 1140.38 530.6V623H1093.58V537.8C1093.58 524.8 1090.68 515.2 1084.88 509C1079.28 502.8 1071.28 499.7 1060.88 499.7C1053.48 499.7 1046.78 501.3 1040.78 504.5C1034.98 507.5 1030.38 512.2 1026.98 518.6C1023.78 525 1022.18 533.2 1022.18 543.2V623H975.377V461.6H1020.08V506.3L1011.68 492.8C1017.48 482 1025.78 473.7 1036.58 467.9C1047.38 462.1 1059.68 459.2 1073.48 459.2ZM1264.07 625.4C1245.67 625.4 1229.47 621.8 1215.47 614.6C1201.67 607.4 1190.97 597.6 1183.37 585.2C1175.77 572.6 1171.97 558.3 1171.97 542.3C1171.97 526.1 1175.67 511.8 1183.07 499.4C1190.67 486.8 1200.97 477 1213.97 470C1226.97 462.8 1241.67 459.2 1258.07 459.2C1273.87 459.2 1288.07 462.6 1300.67 469.4C1313.47 476 1323.57 485.6 1330.97 498.2C1338.37 510.6 1342.07 525.5 1342.07 542.9C1342.07 544.7 1341.97 546.8 1341.77 549.2C1341.57 551.4 1341.37 553.5 1341.17 555.5H1210.07V528.2H1316.57L1298.57 536.3C1298.57 527.9 1296.87 520.6 1293.47 514.4C1290.07 508.2 1285.37 503.4 1279.37 500C1273.37 496.4 1266.37 494.6 1258.37 494.6C1250.37 494.6 1243.27 496.4 1237.07 500C1231.07 503.4 1226.37 508.3 1222.97 514.7C1219.57 520.9 1217.87 528.3 1217.87 536.9V544.1C1217.87 552.9 1219.77 560.7 1223.57 567.5C1227.57 574.1 1233.07 579.2 1240.07 582.8C1247.27 586.2 1255.67 587.9 1265.27 587.9C1273.87 587.9 1281.37 586.6 1287.77 584C1294.37 581.4 1300.37 577.5 1305.77 572.3L1330.67 599.3C1323.27 607.7 1313.97 614.2 1302.77 618.8C1291.57 623.2 1278.67 625.4 1264.07 625.4ZM1442.53 625.4C1427.33 625.4 1413.63 622 1401.43 615.2C1389.23 608.2 1379.53 598.5 1372.33 586.1C1365.33 573.7 1361.83 559.1 1361.83 542.3C1361.83 525.3 1365.33 510.6 1372.33 498.2C1379.53 485.8 1389.23 476.2 1401.43 469.4C1413.63 462.6 1427.33 459.2 1442.53 459.2C1456.13 459.2 1468.03 462.2 1478.23 468.2C1488.43 474.2 1496.33 483.3 1501.93 495.5C1507.53 507.7 1510.33 523.3 1510.33 542.3C1510.33 561.1 1507.63 576.7 1502.23 589.1C1496.83 601.3 1489.03 610.4 1478.83 616.4C1468.83 622.4 1456.73 625.4 1442.53 625.4ZM1450.63 587C1458.23 587 1465.13 585.2 1471.33 581.6C1477.53 578 1482.43 572.9 1486.03 566.3C1489.83 559.5 1491.73 551.5 1491.73 542.3C1491.73 532.9 1489.83 524.9 1486.03 518.3C1482.43 511.7 1477.53 506.6 1471.33 503C1465.13 499.4 1458.23 497.6 1450.63 497.6C1442.83 497.6 1435.83 499.4 1429.63 503C1423.43 506.6 1418.43 511.7 1414.63 518.3C1411.03 524.9 1409.23 532.9 1409.23 542.3C1409.23 551.5 1411.03 559.5 1414.63 566.3C1418.43 572.9 1423.43 578 1429.63 581.6C1435.83 585.2 1442.83 587 1450.63 587ZM1492.93 623V590L1493.83 542L1490.83 494.3V400.4H1537.63V623H1492.93Z" fill="#69F0AE"/>
<path d="M456.8 894.4C436.933 894.4 421.4 888.867 410.2 877.8C399 866.733 393.4 850.933 393.4 830.4V752H425.8V829.2C425.8 842.533 428.533 852.133 434 858C439.467 863.867 447.133 866.8 457 866.8C466.867 866.8 474.533 863.867 480 858C485.467 852.133 488.2 842.533 488.2 829.2V752H520.2V830.4C520.2 850.933 514.6 866.733 503.4 877.8C492.2 888.867 476.667 894.4 456.8 894.4ZM586.217 893.6C577.017 893.6 568.151 892.533 559.617 890.4C551.217 888.133 544.551 885.333 539.617 882L550.017 859.6C554.951 862.667 560.751 865.2 567.417 867.2C574.217 869.067 580.884 870 587.417 870C594.617 870 599.684 869.133 602.617 867.4C605.684 865.667 607.217 863.267 607.217 860.2C607.217 857.667 606.017 855.8 603.617 854.6C601.351 853.267 598.284 852.267 594.417 851.6C590.551 850.933 586.284 850.267 581.617 849.6C577.084 848.933 572.484 848.067 567.817 847C563.151 845.8 558.884 844.067 555.017 841.8C551.151 839.533 548.017 836.467 545.617 832.6C543.351 828.733 542.217 823.733 542.217 817.6C542.217 810.8 544.151 804.8 548.017 799.6C552.017 794.4 557.751 790.333 565.217 787.4C572.684 784.333 581.617 782.8 592.017 782.8C599.351 782.8 606.817 783.6 614.417 785.2C622.017 786.8 628.351 789.133 633.417 792.2L623.017 814.4C617.817 811.333 612.551 809.267 607.217 808.2C602.017 807 596.951 806.4 592.017 806.4C585.084 806.4 580.017 807.333 576.817 809.2C573.617 811.067 572.017 813.467 572.017 816.4C572.017 819.067 573.151 821.067 575.417 822.4C577.817 823.733 580.951 824.8 584.817 825.6C588.684 826.4 592.884 827.133 597.417 827.8C602.084 828.333 606.751 829.2 611.417 830.4C616.084 831.6 620.284 833.333 624.017 835.6C627.884 837.733 631.017 840.733 633.417 844.6C635.817 848.333 637.017 853.267 637.017 859.4C637.017 866.067 635.017 872 631.017 877.2C627.017 882.267 621.217 886.267 613.617 889.2C606.151 892.133 597.017 893.6 586.217 893.6ZM656.267 892V784.4H687.467V892H656.267ZM671.867 769.4C666.134 769.4 661.467 767.733 657.867 764.4C654.267 761.067 652.467 756.933 652.467 752C652.467 747.067 654.267 742.933 657.867 739.6C661.467 736.267 666.134 734.6 671.867 734.6C677.601 734.6 682.267 736.2 685.867 739.4C689.467 742.467 691.267 746.467 691.267 751.4C691.267 756.6 689.467 760.933 685.867 764.4C682.401 767.733 677.734 769.4 671.867 769.4ZM781.823 782.8C790.357 782.8 797.957 784.533 804.623 788C811.423 791.333 816.757 796.533 820.623 803.6C824.49 810.533 826.423 819.467 826.423 830.4V892H795.223V835.2C795.223 826.533 793.29 820.133 789.423 816C785.69 811.867 780.357 809.8 773.423 809.8C768.49 809.8 764.023 810.867 760.023 813C756.157 815 753.09 818.133 750.823 822.4C748.69 826.667 747.623 832.133 747.623 838.8V892H716.423V784.4H746.223V814.2L740.623 805.2C744.49 798 750.023 792.467 757.223 788.6C764.423 784.733 772.623 782.8 781.823 782.8ZM906.086 932.4C895.953 932.4 886.153 931.133 876.686 928.6C867.353 926.2 859.553 922.533 853.286 917.6L865.686 895.2C870.219 898.933 875.953 901.867 882.886 904C889.953 906.267 896.886 907.4 903.686 907.4C914.753 907.4 922.753 904.933 927.686 900C932.753 895.067 935.286 887.733 935.286 878V861.8L937.286 834.8L936.886 807.6V784.4H966.486V874C966.486 894 961.286 908.733 950.886 918.2C940.486 927.667 925.553 932.4 906.086 932.4ZM901.286 886.8C891.286 886.8 882.219 884.667 874.086 880.4C866.086 876 859.619 869.933 854.686 862.2C849.886 854.333 847.486 845.2 847.486 834.8C847.486 824.267 849.886 815.133 854.686 807.4C859.619 799.533 866.086 793.467 874.086 789.2C882.219 784.933 891.286 782.8 901.286 782.8C910.353 782.8 918.353 784.667 925.286 788.4C932.219 792 937.619 797.667 941.486 805.4C945.353 813 947.286 822.8 947.286 834.8C947.286 846.667 945.353 856.467 941.486 864.2C937.619 871.8 932.219 877.467 925.286 881.2C918.353 884.933 910.353 886.8 901.286 886.8ZM907.486 861.2C912.953 861.2 917.819 860.133 922.086 858C926.353 855.733 929.686 852.6 932.086 848.6C934.486 844.6 935.686 840 935.686 834.8C935.686 829.467 934.486 824.867 932.086 821C929.686 817 926.353 813.933 922.086 811.8C917.819 809.533 912.953 808.4 907.486 808.4C902.019 808.4 897.153 809.533 892.886 811.8C888.619 813.933 885.219 817 882.686 821C880.286 824.867 879.086 829.467 879.086 834.8C879.086 840 880.286 844.6 882.686 848.6C885.219 852.6 888.619 855.733 892.886 858C897.153 860.133 902.019 861.2 907.486 861.2ZM1084.37 815H1151.57V841H1084.37V815ZM1086.77 892H1054.37V752H1160.17V778H1086.77V892ZM1179.9 892V784.4H1211.1V892H1179.9ZM1195.5 769.4C1189.77 769.4 1185.1 767.733 1181.5 764.4C1177.9 761.067 1176.1 756.933 1176.1 752C1176.1 747.067 1177.9 742.933 1181.5 739.6C1185.1 736.267 1189.77 734.6 1195.5 734.6C1201.23 734.6 1205.9 736.2 1209.5 739.4C1213.1 742.467 1214.9 746.467 1214.9 751.4C1214.9 756.6 1213.1 760.933 1209.5 764.4C1206.03 767.733 1201.37 769.4 1195.5 769.4ZM1290.66 932.4C1280.52 932.4 1270.72 931.133 1261.26 928.6C1251.92 926.2 1244.12 922.533 1237.86 917.6L1250.26 895.2C1254.79 898.933 1260.52 901.867 1267.46 904C1274.52 906.267 1281.46 907.4 1288.26 907.4C1299.32 907.4 1307.32 904.933 1312.26 900C1317.32 895.067 1319.86 887.733 1319.86 878V861.8L1321.86 834.8L1321.46 807.6V784.4H1351.06V874C1351.06 894 1345.86 908.733 1335.46 918.2C1325.06 927.667 1310.12 932.4 1290.66 932.4ZM1285.86 886.8C1275.86 886.8 1266.79 884.667 1258.66 880.4C1250.66 876 1244.19 869.933 1239.26 862.2C1234.46 854.333 1232.06 845.2 1232.06 834.8C1232.06 824.267 1234.46 815.133 1239.26 807.4C1244.19 799.533 1250.66 793.467 1258.66 789.2C1266.79 784.933 1275.86 782.8 1285.86 782.8C1294.92 782.8 1302.92 784.667 1309.86 788.4C1316.79 792 1322.19 797.667 1326.06 805.4C1329.92 813 1331.86 822.8 1331.86 834.8C1331.86 846.667 1329.92 856.467 1326.06 864.2C1322.19 871.8 1316.79 877.467 1309.86 881.2C1302.92 884.933 1294.92 886.8 1285.86 886.8ZM1292.06 861.2C1297.52 861.2 1302.39 860.133 1306.66 858C1310.92 855.733 1314.26 852.6 1316.66 848.6C1319.06 844.6 1320.26 840 1320.26 834.8C1320.26 829.467 1319.06 824.867 1316.66 821C1314.26 817 1310.92 813.933 1306.66 811.8C1302.39 809.533 1297.52 808.4 1292.06 808.4C1286.59 808.4 1281.72 809.533 1277.46 811.8C1273.19 813.933 1269.79 817 1267.26 821C1264.86 824.867 1263.66 829.467 1263.66 834.8C1263.66 840 1264.86 844.6 1267.26 848.6C1269.79 852.6 1273.19 855.733 1277.46 858C1281.72 860.133 1286.59 861.2 1292.06 861.2ZM1517.9 782.8C1526.43 782.8 1533.96 784.533 1540.5 788C1547.16 791.333 1552.36 796.533 1556.1 803.6C1559.96 810.533 1561.9 819.467 1561.9 830.4V892H1530.7V835.2C1530.7 826.533 1528.9 820.133 1525.3 816C1521.7 811.867 1516.63 809.8 1510.1 809.8C1505.56 809.8 1501.5 810.867 1497.9 813C1494.3 815 1491.5 818.067 1489.5 822.2C1487.5 826.333 1486.5 831.6 1486.5 838V892H1455.3V835.2C1455.3 826.533 1453.5 820.133 1449.9 816C1446.43 811.867 1441.43 809.8 1434.9 809.8C1430.36 809.8 1426.3 810.867 1422.7 813C1419.1 815 1416.3 818.067 1414.3 822.2C1412.3 826.333 1411.3 831.6 1411.3 838V892H1380.1V784.4H1409.9V813.8L1404.3 805.2C1408.03 797.867 1413.3 792.333 1420.1 788.6C1427.03 784.733 1434.9 782.8 1443.7 782.8C1453.56 782.8 1462.16 785.333 1469.5 790.4C1476.96 795.333 1481.9 802.933 1484.3 813.2L1473.3 810.2C1476.9 801.8 1482.63 795.133 1490.5 790.2C1498.5 785.267 1507.63 782.8 1517.9 782.8ZM1655.86 892V871L1653.86 866.4V828.8C1653.86 822.133 1651.79 816.933 1647.66 813.2C1643.66 809.467 1637.46 807.6 1629.06 807.6C1623.33 807.6 1617.66 808.533 1612.06 810.4C1606.59 812.133 1601.93 814.533 1598.06 817.6L1586.86 795.8C1592.73 791.667 1599.79 788.467 1608.06 786.2C1616.33 783.933 1624.73 782.8 1633.26 782.8C1649.66 782.8 1662.39 786.667 1671.46 794.4C1680.53 802.133 1685.06 814.2 1685.06 830.6V892H1655.86ZM1623.06 893.6C1614.66 893.6 1607.46 892.2 1601.46 889.4C1595.46 886.467 1590.86 882.533 1587.66 877.6C1584.46 872.667 1582.86 867.133 1582.86 861C1582.86 854.6 1584.39 849 1587.46 844.2C1590.66 839.4 1595.66 835.667 1602.46 833C1609.26 830.2 1618.13 828.8 1629.06 828.8H1657.66V847H1632.46C1625.13 847 1620.06 848.2 1617.26 850.6C1614.59 853 1613.26 856 1613.26 859.6C1613.26 863.6 1614.79 866.8 1617.86 869.2C1621.06 871.467 1625.39 872.6 1630.86 872.6C1636.06 872.6 1640.73 871.4 1644.86 869C1648.99 866.467 1651.99 862.8 1653.86 858L1658.66 872.4C1656.39 879.333 1652.26 884.6 1646.26 888.2C1640.26 891.8 1632.53 893.6 1623.06 893.6ZM1725.1 893.6C1719.77 893.6 1715.17 891.8 1711.3 888.2C1707.57 884.467 1705.7 879.733 1705.7 874C1705.7 868.267 1707.57 863.667 1711.3 860.2C1715.17 856.6 1719.77 854.8 1725.1 854.8C1730.57 854.8 1735.17 856.6 1738.9 860.2C1742.63 863.667 1744.5 868.267 1744.5 874C1744.5 879.733 1742.63 884.467 1738.9 888.2C1735.17 891.8 1730.57 893.6 1725.1 893.6ZM1777.44 893.6C1772.11 893.6 1767.51 891.8 1763.64 888.2C1759.91 884.467 1758.04 879.733 1758.04 874C1758.04 868.267 1759.91 863.667 1763.64 860.2C1767.51 856.6 1772.11 854.8 1777.44 854.8C1782.91 854.8 1787.51 856.6 1791.24 860.2C1794.98 863.667 1796.84 868.267 1796.84 874C1796.84 879.733 1794.98 884.467 1791.24 888.2C1787.51 891.8 1782.91 893.6 1777.44 893.6ZM1829.79 893.6C1824.45 893.6 1819.85 891.8 1815.99 888.2C1812.25 884.467 1810.39 879.733 1810.39 874C1810.39 868.267 1812.25 863.667 1815.99 860.2C1819.85 856.6 1824.45 854.8 1829.79 854.8C1835.25 854.8 1839.85 856.6 1843.59 860.2C1847.32 863.667 1849.19 868.267 1849.19 874C1849.19 879.733 1847.32 884.467 1843.59 888.2C1839.85 891.8 1835.25 893.6 1829.79 893.6Z" fill="white"/>
</g>
<defs>
<clipPath id="clip0_45_3434">
<rect width="1920" height="1080" fill="white"/>
</clipPath>
<clipPath id="clip1_45_3434">
<rect width="400" height="400" fill="white" transform="translate(1588 -30)"/>
</clipPath>
<clipPath id="clip2_45_3434">
<rect width="200" height="200" fill="white" transform="matrix(-1 0 0 1 1588 96)"/>
</clipPath>
</defs>
</svg>
