<svg width="1920" height="1080" viewBox="0 0 1920 1080" fill="none" xmlns="http://www.w3.org/2000/svg">
<rect width="1920" height="1080" fill="#1E293B"/>
<path d="M204.6 612V472H268.2C283.4 472 296.8 474.933 308.4 480.8C320 486.533 329.067 494.6 335.6 505C342.133 515.4 345.4 527.733 345.4 542C345.4 556.133 342.133 568.467 335.6 579C329.067 589.4 320 597.533 308.4 603.4C296.8 609.133 283.4 612 268.2 612H204.6ZM237 585.4H266.6C275.933 585.4 284 583.667 290.8 580.2C297.733 576.6 303.067 571.533 306.8 565C310.667 558.467 312.6 550.8 312.6 542C312.6 533.067 310.667 525.4 306.8 519C303.067 512.467 297.733 507.467 290.8 504C284 500.4 275.933 498.6 266.6 498.6H237V585.4ZM367.634 612V504.4H398.834V612H367.634ZM383.234 489.4C377.501 489.4 372.834 487.733 369.234 484.4C365.634 481.067 363.834 476.933 363.834 472C363.834 467.067 365.634 462.933 369.234 459.6C372.834 456.267 377.501 454.6 383.234 454.6C388.968 454.6 393.634 456.2 397.234 459.4C400.834 462.467 402.634 466.467 402.634 471.4C402.634 476.6 400.834 480.933 397.234 484.4C393.768 487.733 389.101 489.4 383.234 489.4ZM473.991 613.6C463.857 613.6 454.724 611.333 446.591 606.8C438.457 602.133 431.991 595.667 427.191 587.4C422.524 579.133 420.191 569.4 420.191 558.2C420.191 546.867 422.524 537.067 427.191 528.8C431.991 520.533 438.457 514.133 446.591 509.6C454.724 505.067 463.857 502.8 473.991 502.8C483.057 502.8 490.991 504.8 497.791 508.8C504.591 512.8 509.857 518.867 513.591 527C517.324 535.133 519.191 545.533 519.191 558.2C519.191 570.733 517.391 581.133 513.791 589.4C510.191 597.533 504.991 603.6 498.191 607.6C491.524 611.6 483.457 613.6 473.991 613.6ZM479.391 588C484.457 588 489.057 586.8 493.191 584.4C497.324 582 500.591 578.6 502.991 574.2C505.524 569.667 506.791 564.333 506.791 558.2C506.791 551.933 505.524 546.6 502.991 542.2C500.591 537.8 497.324 534.4 493.191 532C489.057 529.6 484.457 528.4 479.391 528.4C474.191 528.4 469.524 529.6 465.391 532C461.257 534.4 457.924 537.8 455.391 542.2C452.991 546.6 451.791 551.933 451.791 558.2C451.791 564.333 452.991 569.667 455.391 574.2C457.924 578.6 461.257 582 465.391 584.4C469.524 586.8 474.191 588 479.391 588ZM507.591 612V590L508.191 558L506.191 526.2V463.6H537.391V612H507.591ZM625.108 612V472H657.508V612H625.108ZM1665.58 563.4C1665.58 558.733 1666.31 554.6 1667.78 551C1669.38 547.4 1671.31 544.2 1673.58 541.4C1675.98 538.6 1678.51 536 1681.18 533.6C1683.85 531.2 1686.31 528.933 1688.58 526.8C1690.98 524.533 1692.91 522.2 1694.38 519.8C1695.98 517.4 1696.78 514.733 1696.78 511.8C1696.78 507 1694.78 503.133 1690.78 500.2C1686.91 497.267 1681.71 495.8 1675.18 495.8C1668.91 495.8 1663.31 497.133 1658.38 499.8C1653.45 502.333 1649.38 505.933 1646.18 510.6L1621.98 496.4C1627.31 488.267 1634.71 481.8 1644.18 477C1653.65 472.067 1665.11 469.6 1678.58 469.6C1688.58 469.6 1697.38 471.067 1704.98 474C1712.58 476.8 1718.51 480.933 1722.78 486.4C1727.18 491.867 1729.38 498.6 1729.38 506.6C1729.38 511.8 1728.58 516.4 1726.98 520.4C1725.38 524.4 1723.31 527.867 1720.78 530.8C1718.25 533.733 1715.51 536.467 1712.58 539C1709.78 541.533 1707.11 544 1704.58 546.4C1702.05 548.8 1699.91 551.333 1698.18 554C1696.58 556.667 1695.78 559.8 1695.78 563.4H1665.58ZM1680.78 613.6C1675.18 613.6 1670.58 611.8 1666.98 608.2C1663.38 604.6 1661.58 600.333 1661.58 595.4C1661.58 590.333 1663.38 586.133 1666.98 582.8C1670.58 579.333 1675.18 577.6 1680.78 577.6C1686.51 577.6 1691.11 579.333 1694.58 582.8C1698.18 586.133 1699.98 590.333 1699.98 595.4C1699.98 600.333 1698.18 604.6 1694.58 608.2C1691.11 611.8 1686.51 613.6 1680.78 613.6Z" fill="white"/>
<path d="M882.973 502.8C891.507 502.8 899.04 504.533 905.573 508C912.24 511.333 917.44 516.533 921.173 523.6C925.04 530.533 926.973 539.467 926.973 550.4V612H895.773V555.2C895.773 546.533 893.973 540.133 890.373 536C886.773 531.867 881.707 529.8 875.173 529.8C870.64 529.8 866.573 530.867 862.973 533C859.373 535 856.573 538.067 854.573 542.2C852.573 546.333 851.573 551.6 851.573 558V612H820.373V555.2C820.373 546.533 818.573 540.133 814.973 536C811.507 531.867 806.507 529.8 799.973 529.8C795.44 529.8 791.373 530.867 787.773 533C784.173 535 781.373 538.067 779.373 542.2C777.373 546.333 776.373 551.6 776.373 558V612H745.173V504.4H774.973V533.8L769.373 525.2C773.107 517.867 778.373 512.333 785.173 508.6C792.107 504.733 799.973 502.8 808.773 502.8C818.64 502.8 827.24 505.333 834.573 510.4C842.04 515.333 846.973 522.933 849.373 533.2L838.373 530.2C841.973 521.8 847.707 515.133 855.573 510.2C863.573 505.267 872.707 502.8 882.973 502.8ZM1009.12 613.6C996.854 613.6 986.054 611.2 976.72 606.4C967.52 601.6 960.387 595.067 955.32 586.8C950.254 578.4 947.72 568.867 947.72 558.2C947.72 547.4 950.187 537.867 955.12 529.6C960.187 521.2 967.054 514.667 975.72 510C984.387 505.2 994.187 502.8 1005.12 502.8C1015.65 502.8 1025.12 505.067 1033.52 509.6C1042.05 514 1048.79 520.4 1053.72 528.8C1058.65 537.067 1061.12 547 1061.12 558.6C1061.12 559.8 1061.05 561.2 1060.92 562.8C1060.79 564.267 1060.65 565.667 1060.52 567H973.12V548.8H1044.12L1032.12 554.2C1032.12 548.6 1030.99 543.733 1028.72 539.6C1026.45 535.467 1023.32 532.267 1019.32 530C1015.32 527.6 1010.65 526.4 1005.32 526.4C999.987 526.4 995.254 527.6 991.12 530C987.12 532.267 983.987 535.533 981.72 539.8C979.454 543.933 978.32 548.867 978.32 554.6V559.4C978.32 565.267 979.587 570.467 982.12 575C984.787 579.4 988.454 582.8 993.12 585.2C997.92 587.467 1003.52 588.6 1009.92 588.6C1015.65 588.6 1020.65 587.733 1024.92 586C1029.32 584.267 1033.32 581.667 1036.92 578.2L1053.52 596.2C1048.59 601.8 1042.39 606.133 1034.92 609.2C1027.45 612.133 1018.85 613.6 1009.12 613.6ZM1147.29 502.8C1155.83 502.8 1163.43 504.533 1170.09 508C1176.89 511.333 1182.23 516.533 1186.09 523.6C1189.96 530.533 1191.89 539.467 1191.89 550.4V612H1160.69V555.2C1160.69 546.533 1158.76 540.133 1154.89 536C1151.16 531.867 1145.83 529.8 1138.89 529.8C1133.96 529.8 1129.49 530.867 1125.49 533C1121.63 535 1118.56 538.133 1116.29 542.4C1114.16 546.667 1113.09 552.133 1113.09 558.8V612H1081.89V504.4H1111.69V534.2L1106.09 525.2C1109.96 518 1115.49 512.467 1122.69 508.6C1129.89 504.733 1138.09 502.8 1147.29 502.8ZM1264.17 613.6C1251.51 613.6 1241.64 610.4 1234.57 604C1227.51 597.467 1223.97 587.8 1223.97 575V480.6H1255.17V574.6C1255.17 579.133 1256.37 582.667 1258.77 585.2C1261.17 587.6 1264.44 588.8 1268.57 588.8C1273.51 588.8 1277.71 587.467 1281.17 584.8L1289.57 606.8C1286.37 609.067 1282.51 610.8 1277.97 612C1273.57 613.067 1268.97 613.6 1264.17 613.6ZM1207.37 530.8V506.8H1281.97V530.8H1207.37ZM1307.09 612V504.4H1338.29V612H1307.09ZM1322.69 489.4C1316.95 489.4 1312.29 487.733 1308.69 484.4C1305.09 481.067 1303.29 476.933 1303.29 472C1303.29 467.067 1305.09 462.933 1308.69 459.6C1312.29 456.267 1316.95 454.6 1322.69 454.6C1328.42 454.6 1333.09 456.2 1336.69 459.4C1340.29 462.467 1342.09 466.467 1342.09 471.4C1342.09 476.6 1340.29 480.933 1336.69 484.4C1333.22 487.733 1328.55 489.4 1322.69 489.4ZM1418.44 613.6C1406.98 613.6 1396.78 611.2 1387.84 606.4C1379.04 601.6 1372.04 595.067 1366.84 586.8C1361.78 578.4 1359.24 568.867 1359.24 558.2C1359.24 547.4 1361.78 537.867 1366.84 529.6C1372.04 521.2 1379.04 514.667 1387.84 510C1396.78 505.2 1406.98 502.8 1418.44 502.8C1429.78 502.8 1439.91 505.2 1448.84 510C1457.78 514.667 1464.78 521.133 1469.84 529.4C1474.91 537.667 1477.44 547.267 1477.44 558.2C1477.44 568.867 1474.91 578.4 1469.84 586.8C1464.78 595.067 1457.78 601.6 1448.84 606.4C1439.91 611.2 1429.78 613.6 1418.44 613.6ZM1418.44 588C1423.64 588 1428.31 586.8 1432.44 584.4C1436.58 582 1439.84 578.6 1442.24 574.2C1444.64 569.667 1445.84 564.333 1445.84 558.2C1445.84 551.933 1444.64 546.6 1442.24 542.2C1439.84 537.8 1436.58 534.4 1432.44 532C1428.31 529.6 1423.64 528.4 1418.44 528.4C1413.24 528.4 1408.58 529.6 1404.44 532C1400.31 534.4 1396.98 537.8 1394.44 542.2C1392.04 546.6 1390.84 551.933 1390.84 558.2C1390.84 564.333 1392.04 569.667 1394.44 574.2C1396.98 578.6 1400.31 582 1404.44 584.4C1408.58 586.8 1413.24 588 1418.44 588ZM1563.7 502.8C1572.23 502.8 1579.83 504.533 1586.5 508C1593.3 511.333 1598.63 516.533 1602.5 523.6C1606.37 530.533 1608.3 539.467 1608.3 550.4V612H1577.1V555.2C1577.1 546.533 1575.17 540.133 1571.3 536C1567.57 531.867 1562.23 529.8 1555.3 529.8C1550.37 529.8 1545.9 530.867 1541.9 533C1538.03 535 1534.97 538.133 1532.7 542.4C1530.57 546.667 1529.5 552.133 1529.5 558.8V612H1498.3V504.4H1528.1V534.2L1522.5 525.2C1526.37 518 1531.9 512.467 1539.1 508.6C1546.3 504.733 1554.5 502.8 1563.7 502.8Z" fill="#FF6F07"/>
</svg>
