<svg width="618" height="467" viewBox="0 0 618 467" fill="none" xmlns="http://www.w3.org/2000/svg">
<rect width="618" height="467" rx="10" fill="white"/>
<path d="M216 315.526V343H510V182L345.721 239.147L216 315.526Z" fill="#DFDFDF" fill-opacity="0.9"/>
<path d="M75.8672 60.7783C75.7988 62.2627 75.3984 63.5762 74.666 64.7188C73.9336 65.8516 72.9033 66.7305 71.5752 67.3555C70.2568 67.9805 68.748 68.293 67.0488 68.293C64.2461 68.293 62.0391 67.3799 60.4277 65.5537C58.8164 63.7275 58.0107 61.1494 58.0107 57.8193V56.7646C58.0107 54.6748 58.3721 52.8486 59.0947 51.2861C59.8271 49.7139 60.877 48.5029 62.2441 47.6533C63.6113 46.7939 65.1934 46.3643 66.9902 46.3643C69.5781 46.3643 71.6582 47.0479 73.2305 48.415C74.8027 49.7725 75.6963 51.6475 75.9111 54.04H70.7842C70.7451 52.7412 70.418 51.8086 69.8027 51.2422C69.1875 50.6758 68.25 50.3926 66.9902 50.3926C65.7109 50.3926 64.7734 50.8711 64.1777 51.8281C63.582 52.7852 63.2695 54.3135 63.2402 56.4131V57.9219C63.2402 60.1973 63.5234 61.8232 64.0898 62.7998C64.666 63.7764 65.6523 64.2646 67.0488 64.2646C68.2305 64.2646 69.1338 63.9863 69.7588 63.4297C70.3838 62.873 70.7158 61.9893 70.7549 60.7783H75.8672ZM77.4492 59.9287C77.4492 58.3467 77.7568 56.9404 78.3721 55.71C78.9873 54.4697 79.8711 53.5176 81.0234 52.8535C82.1758 52.1895 83.5283 51.8574 85.0811 51.8574C87.4541 51.8574 89.3242 52.5947 90.6914 54.0693C92.0586 55.5342 92.7422 57.5312 92.7422 60.0605V60.2363C92.7422 62.707 92.0537 64.6699 90.6768 66.125C89.3096 67.5703 87.4541 68.293 85.1104 68.293C82.8545 68.293 81.043 67.6191 79.6758 66.2715C78.3086 64.9141 77.5713 63.0781 77.4639 60.7637L77.4492 59.9287ZM82.3857 60.2363C82.3857 61.7012 82.6152 62.7754 83.0742 63.459C83.5332 64.1426 84.2119 64.4844 85.1104 64.4844C86.8682 64.4844 87.7666 63.1318 87.8057 60.4268V59.9287C87.8057 57.0869 86.8975 55.666 85.0811 55.666C83.4307 55.666 82.5371 56.8916 82.4004 59.3428L82.3857 60.2363ZM103.216 63.5469C103.216 63.127 102.996 62.79 102.557 62.5361C102.117 62.2822 101.282 62.0186 100.052 61.7451C98.8213 61.4717 97.8057 61.1152 97.0049 60.6758C96.2041 60.2266 95.5938 59.6846 95.1738 59.0498C94.7539 58.415 94.5439 57.6875 94.5439 56.8672C94.5439 55.4121 95.1445 54.2158 96.3457 53.2783C97.5469 52.3311 99.1191 51.8574 101.062 51.8574C103.152 51.8574 104.832 52.3311 106.102 53.2783C107.371 54.2256 108.006 55.4707 108.006 57.0137H103.055C103.055 55.7441 102.386 55.1094 101.048 55.1094C100.53 55.1094 100.096 55.2559 99.7441 55.5488C99.3926 55.832 99.2168 56.1885 99.2168 56.6182C99.2168 57.0576 99.4316 57.4141 99.8613 57.6875C100.291 57.9609 100.975 58.1855 101.912 58.3613C102.859 58.5371 103.689 58.7471 104.402 58.9912C106.785 59.8115 107.977 61.2812 107.977 63.4004C107.977 64.8457 107.332 66.0225 106.043 66.9307C104.764 67.8389 103.104 68.293 101.062 68.293C99.7051 68.293 98.4941 68.0488 97.4297 67.5605C96.3652 67.0723 95.5352 66.4082 94.9395 65.5684C94.3438 64.7285 94.0459 63.8447 94.0459 62.917H98.6602C98.6797 63.6494 98.9238 64.1865 99.3926 64.5283C99.8613 64.8604 100.462 65.0264 101.194 65.0264C101.868 65.0264 102.371 64.8896 102.703 64.6162C103.045 64.3428 103.216 63.9863 103.216 63.5469ZM116.048 48.21V52.1504H118.655V55.5781H116.048V62.8291C116.048 63.4248 116.155 63.8398 116.37 64.0742C116.585 64.3086 117.01 64.4258 117.645 64.4258C118.133 64.4258 118.543 64.3965 118.875 64.3379V67.8682C117.986 68.1514 117.059 68.293 116.092 68.293C114.393 68.293 113.138 67.8926 112.327 67.0918C111.517 66.291 111.111 65.0752 111.111 63.4443V55.5781H109.09V52.1504H111.111V48.21H116.048ZM136.585 62.1992L140.833 46.6719H146.575L139.397 68H133.772L126.653 46.6719H132.352L136.585 62.1992ZM159.144 62.3311C159.144 61.5791 158.875 60.9932 158.338 60.5732C157.811 60.1533 156.878 59.7188 155.54 59.2695C154.202 58.8203 153.108 58.3857 152.259 57.9658C149.495 56.6084 148.113 54.7432 148.113 52.3701C148.113 51.1885 148.455 50.1484 149.139 49.25C149.832 48.3418 150.809 47.6387 152.068 47.1406C153.328 46.6328 154.744 46.3789 156.316 46.3789C157.85 46.3789 159.222 46.6523 160.433 47.1992C161.653 47.7461 162.601 48.5273 163.274 49.543C163.948 50.5488 164.285 51.7012 164.285 53H159.158C159.158 52.1309 158.89 51.457 158.353 50.9785C157.825 50.5 157.107 50.2607 156.199 50.2607C155.281 50.2607 154.554 50.4658 154.017 50.876C153.489 51.2764 153.226 51.7891 153.226 52.4141C153.226 52.9609 153.519 53.459 154.104 53.9082C154.69 54.3477 155.721 54.8066 157.195 55.2852C158.67 55.7539 159.881 56.2617 160.828 56.8086C163.133 58.1367 164.285 59.9678 164.285 62.3018C164.285 64.167 163.582 65.6318 162.176 66.6963C160.77 67.7607 158.841 68.293 156.39 68.293C154.661 68.293 153.094 67.9854 151.688 67.3701C150.291 66.7451 149.236 65.8955 148.523 64.8213C147.82 63.7373 147.469 62.4922 147.469 61.0859H152.625C152.625 62.2285 152.918 63.0732 153.504 63.6201C154.1 64.1572 155.062 64.4258 156.39 64.4258C157.239 64.4258 157.908 64.2451 158.396 63.8838C158.895 63.5127 159.144 62.9951 159.144 62.3311ZM190.257 50.6416H183.855V68H178.714V50.6416H172.43V46.6719H190.257V50.6416ZM197.42 68H192.469V52.1504H197.42V68ZM192.176 48.0635C192.176 47.3604 192.43 46.7842 192.938 46.335C193.445 45.8857 194.104 45.6611 194.915 45.6611C195.726 45.6611 196.385 45.8857 196.893 46.335C197.4 46.7842 197.654 47.3604 197.654 48.0635C197.654 48.7666 197.4 49.3428 196.893 49.792C196.385 50.2412 195.726 50.4658 194.915 50.4658C194.104 50.4658 193.445 50.2412 192.938 49.792C192.43 49.3428 192.176 48.7666 192.176 48.0635ZM205.14 52.1504L205.301 54.0107C206.424 52.5752 207.933 51.8574 209.827 51.8574C211.829 51.8574 213.182 52.6533 213.885 54.2451C214.959 52.6533 216.512 51.8574 218.543 51.8574C221.756 51.8574 223.406 53.8008 223.494 57.6875V68H218.543V57.9951C218.543 57.1846 218.406 56.5938 218.133 56.2227C217.859 55.8516 217.361 55.666 216.639 55.666C215.662 55.666 214.935 56.1006 214.456 56.9697L214.471 57.1748V68H209.52V58.0244C209.52 57.1943 209.388 56.5938 209.124 56.2227C208.86 55.8516 208.357 55.666 207.615 55.666C206.668 55.666 205.945 56.1006 205.447 56.9697V68H200.511V52.1504H205.14ZM233.982 68.293C231.551 68.293 229.583 67.5703 228.079 66.125C226.575 64.6699 225.823 62.7803 225.823 60.4561V60.0459C225.823 58.4248 226.121 56.9941 226.717 55.7539C227.322 54.5137 228.201 53.5566 229.354 52.8828C230.506 52.1992 231.873 51.8574 233.455 51.8574C235.682 51.8574 237.439 52.5508 238.729 53.9375C240.018 55.3145 240.662 57.2383 240.662 59.709V61.6279H230.848C231.023 62.5166 231.409 63.2148 232.005 63.7227C232.601 64.2305 233.372 64.4844 234.319 64.4844C235.882 64.4844 237.103 63.9375 237.981 62.8438L240.237 65.5098C239.622 66.3594 238.748 67.0381 237.615 67.5459C236.492 68.0439 235.281 68.293 233.982 68.293ZM233.426 55.666C231.98 55.666 231.121 56.623 230.848 58.5371H235.828V58.1562C235.848 57.3652 235.647 56.7549 235.228 56.3252C234.808 55.8857 234.207 55.666 233.426 55.666Z" fill="#1A83C2"/>
<line x1="531" y1="343.5" x2="175" y2="343.5" stroke="#757575"/>
<line x1="531" y1="302.5" x2="175" y2="302.5" stroke="#757575"/>
<line x1="531" y1="259.5" x2="175" y2="259.5" stroke="#757575"/>
<line x1="531" y1="218.5" x2="175" y2="218.5" stroke="#757575"/>
<line x1="531" y1="175.5" x2="175" y2="175.5" stroke="#757575"/>
<path d="M139.93 343.258C139.93 344.862 139.635 346.081 139.047 346.914C138.458 347.742 137.591 348.156 136.445 348.156C135.32 348.156 134.458 347.75 133.859 346.938C133.26 346.12 132.953 344.932 132.938 343.375V341.336C132.938 339.737 133.234 338.526 133.828 337.703C134.422 336.88 135.289 336.469 136.43 336.469C137.555 336.469 138.414 336.867 139.008 337.664C139.602 338.456 139.909 339.625 139.93 341.172V343.258ZM138.992 341.219C138.992 339.917 138.779 338.932 138.352 338.266C137.93 337.599 137.289 337.266 136.43 337.266C135.586 337.266 134.951 337.591 134.523 338.242C134.096 338.893 133.878 339.854 133.867 341.125V343.359C133.867 344.656 134.086 345.648 134.523 346.336C134.966 347.023 135.607 347.367 136.445 347.367C137.279 347.367 137.909 347.031 138.336 346.359C138.768 345.688 138.987 344.703 138.992 343.406V341.219Z" fill="#424242"/>
<path d="M110.422 307H109.484V296.75L106.391 297.898V297.023L110.266 295.586H110.422V307ZM121.805 302.258C121.805 303.862 121.51 305.081 120.922 305.914C120.333 306.742 119.466 307.156 118.32 307.156C117.195 307.156 116.333 306.75 115.734 305.938C115.135 305.12 114.828 303.932 114.812 302.375V300.336C114.812 298.737 115.109 297.526 115.703 296.703C116.297 295.88 117.164 295.469 118.305 295.469C119.43 295.469 120.289 295.867 120.883 296.664C121.477 297.456 121.784 298.625 121.805 300.172V302.258ZM120.867 300.219C120.867 298.917 120.654 297.932 120.227 297.266C119.805 296.599 119.164 296.266 118.305 296.266C117.461 296.266 116.826 296.591 116.398 297.242C115.971 297.893 115.753 298.854 115.742 300.125V302.359C115.742 303.656 115.961 304.648 116.398 305.336C116.841 306.023 117.482 306.367 118.32 306.367C119.154 306.367 119.784 306.031 120.211 305.359C120.643 304.688 120.862 303.703 120.867 302.406V300.219ZM130.68 302.258C130.68 303.862 130.385 305.081 129.797 305.914C129.208 306.742 128.341 307.156 127.195 307.156C126.07 307.156 125.208 306.75 124.609 305.938C124.01 305.12 123.703 303.932 123.688 302.375V300.336C123.688 298.737 123.984 297.526 124.578 296.703C125.172 295.88 126.039 295.469 127.18 295.469C128.305 295.469 129.164 295.867 129.758 296.664C130.352 297.456 130.659 298.625 130.68 300.172V302.258ZM129.742 300.219C129.742 298.917 129.529 297.932 129.102 297.266C128.68 296.599 128.039 296.266 127.18 296.266C126.336 296.266 125.701 296.591 125.273 297.242C124.846 297.893 124.628 298.854 124.617 300.125V302.359C124.617 303.656 124.836 304.648 125.273 305.336C125.716 306.023 126.357 306.367 127.195 306.367C128.029 306.367 128.659 306.031 129.086 305.359C129.518 304.688 129.737 303.703 129.742 302.406V300.219ZM139.555 302.258C139.555 303.862 139.26 305.081 138.672 305.914C138.083 306.742 137.216 307.156 136.07 307.156C134.945 307.156 134.083 306.75 133.484 305.938C132.885 305.12 132.578 303.932 132.562 302.375V300.336C132.562 298.737 132.859 297.526 133.453 296.703C134.047 295.88 134.914 295.469 136.055 295.469C137.18 295.469 138.039 295.867 138.633 296.664C139.227 297.456 139.534 298.625 139.555 300.172V302.258ZM138.617 300.219C138.617 298.917 138.404 297.932 137.977 297.266C137.555 296.599 136.914 296.266 136.055 296.266C135.211 296.266 134.576 296.591 134.148 297.242C133.721 297.893 133.503 298.854 133.492 300.125V302.359C133.492 303.656 133.711 304.648 134.148 305.336C134.591 306.023 135.232 306.367 136.07 306.367C136.904 306.367 137.534 306.031 137.961 305.359C138.393 304.688 138.612 303.703 138.617 302.406V300.219Z" fill="#424242"/>
<path d="M113.195 264H106.07V263.281L109.969 258.859C110.615 258.115 111.062 257.5 111.312 257.016C111.562 256.531 111.688 256.06 111.688 255.602C111.688 254.883 111.477 254.315 111.055 253.898C110.633 253.477 110.052 253.266 109.312 253.266C108.547 253.266 107.927 253.51 107.453 254C106.984 254.49 106.75 255.125 106.75 255.906H105.82C105.82 255.266 105.964 254.682 106.25 254.156C106.542 253.63 106.953 253.219 107.484 252.922C108.021 252.62 108.63 252.469 109.312 252.469C110.354 252.469 111.167 252.742 111.75 253.289C112.339 253.836 112.633 254.581 112.633 255.523C112.633 256.055 112.466 256.635 112.133 257.266C111.805 257.896 111.224 258.682 110.391 259.625L107.219 263.211H113.195V264ZM121.805 259.258C121.805 260.862 121.51 262.081 120.922 262.914C120.333 263.742 119.466 264.156 118.32 264.156C117.195 264.156 116.333 263.75 115.734 262.938C115.135 262.12 114.828 260.932 114.812 259.375V257.336C114.812 255.737 115.109 254.526 115.703 253.703C116.297 252.88 117.164 252.469 118.305 252.469C119.43 252.469 120.289 252.867 120.883 253.664C121.477 254.456 121.784 255.625 121.805 257.172V259.258ZM120.867 257.219C120.867 255.917 120.654 254.932 120.227 254.266C119.805 253.599 119.164 253.266 118.305 253.266C117.461 253.266 116.826 253.591 116.398 254.242C115.971 254.893 115.753 255.854 115.742 257.125V259.359C115.742 260.656 115.961 261.648 116.398 262.336C116.841 263.023 117.482 263.367 118.32 263.367C119.154 263.367 119.784 263.031 120.211 262.359C120.643 261.688 120.862 260.703 120.867 259.406V257.219ZM130.68 259.258C130.68 260.862 130.385 262.081 129.797 262.914C129.208 263.742 128.341 264.156 127.195 264.156C126.07 264.156 125.208 263.75 124.609 262.938C124.01 262.12 123.703 260.932 123.688 259.375V257.336C123.688 255.737 123.984 254.526 124.578 253.703C125.172 252.88 126.039 252.469 127.18 252.469C128.305 252.469 129.164 252.867 129.758 253.664C130.352 254.456 130.659 255.625 130.68 257.172V259.258ZM129.742 257.219C129.742 255.917 129.529 254.932 129.102 254.266C128.68 253.599 128.039 253.266 127.18 253.266C126.336 253.266 125.701 253.591 125.273 254.242C124.846 254.893 124.628 255.854 124.617 257.125V259.359C124.617 260.656 124.836 261.648 125.273 262.336C125.716 263.023 126.357 263.367 127.195 263.367C128.029 263.367 128.659 263.031 129.086 262.359C129.518 261.688 129.737 260.703 129.742 259.406V257.219ZM139.555 259.258C139.555 260.862 139.26 262.081 138.672 262.914C138.083 263.742 137.216 264.156 136.07 264.156C134.945 264.156 134.083 263.75 133.484 262.938C132.885 262.12 132.578 260.932 132.562 259.375V257.336C132.562 255.737 132.859 254.526 133.453 253.703C134.047 252.88 134.914 252.469 136.055 252.469C137.18 252.469 138.039 252.867 138.633 253.664C139.227 254.456 139.534 255.625 139.555 257.172V259.258ZM138.617 257.219C138.617 255.917 138.404 254.932 137.977 254.266C137.555 253.599 136.914 253.266 136.055 253.266C135.211 253.266 134.576 253.591 134.148 254.242C133.721 254.893 133.503 255.854 133.492 257.125V259.359C133.492 260.656 133.711 261.648 134.148 262.336C134.591 263.023 135.232 263.367 136.07 263.367C136.904 263.367 137.534 263.031 137.961 262.359C138.393 261.688 138.612 260.703 138.617 259.406V257.219Z" fill="#424242"/>
<path d="M108.148 216.805H109.117C109.654 216.805 110.122 216.711 110.523 216.523C110.924 216.331 111.229 216.07 111.438 215.742C111.651 215.409 111.758 215.026 111.758 214.594C111.758 213.865 111.552 213.294 111.141 212.883C110.729 212.471 110.138 212.266 109.367 212.266C108.638 212.266 108.039 212.482 107.57 212.914C107.107 213.341 106.875 213.906 106.875 214.609H105.938C105.938 214.021 106.086 213.484 106.383 213C106.68 212.51 107.091 212.133 107.617 211.867C108.143 211.602 108.727 211.469 109.367 211.469C110.398 211.469 111.211 211.75 111.805 212.312C112.398 212.875 112.695 213.646 112.695 214.625C112.695 215.172 112.521 215.677 112.172 216.141C111.828 216.599 111.354 216.943 110.75 217.172C111.458 217.37 111.995 217.711 112.359 218.195C112.724 218.674 112.906 219.247 112.906 219.914C112.906 220.888 112.589 221.672 111.953 222.266C111.318 222.859 110.469 223.156 109.406 223.156C108.729 223.156 108.107 223.021 107.539 222.75C106.977 222.479 106.539 222.102 106.227 221.617C105.919 221.128 105.766 220.56 105.766 219.914H106.703C106.703 220.638 106.956 221.229 107.461 221.688C107.966 222.141 108.615 222.367 109.406 222.367C110.214 222.367 110.841 222.161 111.289 221.75C111.742 221.333 111.969 220.732 111.969 219.945C111.969 219.185 111.724 218.604 111.234 218.203C110.75 217.802 110.034 217.602 109.086 217.602H108.148V216.805ZM121.805 218.258C121.805 219.862 121.51 221.081 120.922 221.914C120.333 222.742 119.466 223.156 118.32 223.156C117.195 223.156 116.333 222.75 115.734 221.938C115.135 221.12 114.828 219.932 114.812 218.375V216.336C114.812 214.737 115.109 213.526 115.703 212.703C116.297 211.88 117.164 211.469 118.305 211.469C119.43 211.469 120.289 211.867 120.883 212.664C121.477 213.456 121.784 214.625 121.805 216.172V218.258ZM120.867 216.219C120.867 214.917 120.654 213.932 120.227 213.266C119.805 212.599 119.164 212.266 118.305 212.266C117.461 212.266 116.826 212.591 116.398 213.242C115.971 213.893 115.753 214.854 115.742 216.125V218.359C115.742 219.656 115.961 220.648 116.398 221.336C116.841 222.023 117.482 222.367 118.32 222.367C119.154 222.367 119.784 222.031 120.211 221.359C120.643 220.688 120.862 219.703 120.867 218.406V216.219ZM130.68 218.258C130.68 219.862 130.385 221.081 129.797 221.914C129.208 222.742 128.341 223.156 127.195 223.156C126.07 223.156 125.208 222.75 124.609 221.938C124.01 221.12 123.703 219.932 123.688 218.375V216.336C123.688 214.737 123.984 213.526 124.578 212.703C125.172 211.88 126.039 211.469 127.18 211.469C128.305 211.469 129.164 211.867 129.758 212.664C130.352 213.456 130.659 214.625 130.68 216.172V218.258ZM129.742 216.219C129.742 214.917 129.529 213.932 129.102 213.266C128.68 212.599 128.039 212.266 127.18 212.266C126.336 212.266 125.701 212.591 125.273 213.242C124.846 213.893 124.628 214.854 124.617 216.125V218.359C124.617 219.656 124.836 220.648 125.273 221.336C125.716 222.023 126.357 222.367 127.195 222.367C128.029 222.367 128.659 222.031 129.086 221.359C129.518 220.688 129.737 219.703 129.742 218.406V216.219ZM139.555 218.258C139.555 219.862 139.26 221.081 138.672 221.914C138.083 222.742 137.216 223.156 136.07 223.156C134.945 223.156 134.083 222.75 133.484 221.938C132.885 221.12 132.578 219.932 132.562 218.375V216.336C132.562 214.737 132.859 213.526 133.453 212.703C134.047 211.88 134.914 211.469 136.055 211.469C137.18 211.469 138.039 211.867 138.633 212.664C139.227 213.456 139.534 214.625 139.555 216.172V218.258ZM138.617 216.219C138.617 214.917 138.404 213.932 137.977 213.266C137.555 212.599 136.914 212.266 136.055 212.266C135.211 212.266 134.576 212.591 134.148 213.242C133.721 213.893 133.503 214.854 133.492 216.125V218.359C133.492 219.656 133.711 220.648 134.148 221.336C134.591 222.023 135.232 222.367 136.07 222.367C136.904 222.367 137.534 222.031 137.961 221.359C138.393 220.688 138.612 219.703 138.617 218.406V216.219Z" fill="#424242"/>
<path d="M111.812 178.336H113.586V179.125H111.812V182H110.875V179.125H105.523V178.594L110.789 170.625H111.812V178.336ZM106.672 178.336H110.875V171.836L110.461 172.555L106.672 178.336ZM121.805 177.258C121.805 178.862 121.51 180.081 120.922 180.914C120.333 181.742 119.466 182.156 118.32 182.156C117.195 182.156 116.333 181.75 115.734 180.938C115.135 180.12 114.828 178.932 114.812 177.375V175.336C114.812 173.737 115.109 172.526 115.703 171.703C116.297 170.88 117.164 170.469 118.305 170.469C119.43 170.469 120.289 170.867 120.883 171.664C121.477 172.456 121.784 173.625 121.805 175.172V177.258ZM120.867 175.219C120.867 173.917 120.654 172.932 120.227 172.266C119.805 171.599 119.164 171.266 118.305 171.266C117.461 171.266 116.826 171.591 116.398 172.242C115.971 172.893 115.753 173.854 115.742 175.125V177.359C115.742 178.656 115.961 179.648 116.398 180.336C116.841 181.023 117.482 181.367 118.32 181.367C119.154 181.367 119.784 181.031 120.211 180.359C120.643 179.688 120.862 178.703 120.867 177.406V175.219ZM130.68 177.258C130.68 178.862 130.385 180.081 129.797 180.914C129.208 181.742 128.341 182.156 127.195 182.156C126.07 182.156 125.208 181.75 124.609 180.938C124.01 180.12 123.703 178.932 123.688 177.375V175.336C123.688 173.737 123.984 172.526 124.578 171.703C125.172 170.88 126.039 170.469 127.18 170.469C128.305 170.469 129.164 170.867 129.758 171.664C130.352 172.456 130.659 173.625 130.68 175.172V177.258ZM129.742 175.219C129.742 173.917 129.529 172.932 129.102 172.266C128.68 171.599 128.039 171.266 127.18 171.266C126.336 171.266 125.701 171.591 125.273 172.242C124.846 172.893 124.628 173.854 124.617 175.125V177.359C124.617 178.656 124.836 179.648 125.273 180.336C125.716 181.023 126.357 181.367 127.195 181.367C128.029 181.367 128.659 181.031 129.086 180.359C129.518 179.688 129.737 178.703 129.742 177.406V175.219ZM139.555 177.258C139.555 178.862 139.26 180.081 138.672 180.914C138.083 181.742 137.216 182.156 136.07 182.156C134.945 182.156 134.083 181.75 133.484 180.938C132.885 180.12 132.578 178.932 132.562 177.375V175.336C132.562 173.737 132.859 172.526 133.453 171.703C134.047 170.88 134.914 170.469 136.055 170.469C137.18 170.469 138.039 170.867 138.633 171.664C139.227 172.456 139.534 173.625 139.555 175.172V177.258ZM138.617 175.219C138.617 173.917 138.404 172.932 137.977 172.266C137.555 171.599 136.914 171.266 136.055 171.266C135.211 171.266 134.576 171.591 134.148 172.242C133.721 172.893 133.503 173.854 133.492 175.125V177.359C133.492 178.656 133.711 179.648 134.148 180.336C134.591 181.023 135.232 181.367 136.07 181.367C136.904 181.367 137.534 181.031 137.961 180.359C138.393 179.688 138.612 178.703 138.617 177.406V175.219Z" fill="#424242"/>
<path d="M208.703 368.688H203.398V374H202.438V362.625H209.484V363.445H203.398V367.867H208.703V368.688ZM212.266 374H211.328V365.547H212.266V374ZM211.164 363.102C211.164 362.924 211.221 362.776 211.336 362.656C211.451 362.531 211.607 362.469 211.805 362.469C212.003 362.469 212.159 362.531 212.273 362.656C212.393 362.776 212.453 362.924 212.453 363.102C212.453 363.279 212.393 363.427 212.273 363.547C212.159 363.667 212.003 363.727 211.805 363.727C211.607 363.727 211.451 363.667 211.336 363.547C211.221 363.427 211.164 363.279 211.164 363.102ZM216.266 363.383V365.547H218.016V366.312H216.266V371.945C216.266 372.414 216.349 372.763 216.516 372.992C216.688 373.221 216.971 373.336 217.367 373.336C217.523 373.336 217.776 373.31 218.125 373.258L218.164 374.023C217.919 374.112 217.586 374.156 217.164 374.156C216.523 374.156 216.057 373.971 215.766 373.602C215.474 373.227 215.328 372.677 215.328 371.953V366.312H213.773V365.547H215.328V363.383H216.266ZM219.281 369.648C219.281 368.836 219.438 368.104 219.75 367.453C220.068 366.802 220.513 366.297 221.086 365.938C221.664 365.573 222.318 365.391 223.047 365.391C224.172 365.391 225.083 365.786 225.781 366.578C226.479 367.365 226.828 368.409 226.828 369.711V369.906C226.828 370.724 226.669 371.461 226.352 372.117C226.039 372.768 225.596 373.271 225.023 373.625C224.451 373.979 223.797 374.156 223.062 374.156C221.943 374.156 221.031 373.763 220.328 372.977C219.63 372.185 219.281 371.138 219.281 369.836V369.648ZM220.219 369.906C220.219 370.917 220.479 371.747 221 372.398C221.526 373.044 222.214 373.367 223.062 373.367C223.906 373.367 224.589 373.044 225.109 372.398C225.635 371.747 225.898 370.891 225.898 369.828V369.648C225.898 369.003 225.779 368.411 225.539 367.875C225.299 367.339 224.964 366.924 224.531 366.633C224.099 366.336 223.604 366.188 223.047 366.188C222.214 366.188 221.534 366.516 221.008 367.172C220.482 367.823 220.219 368.677 220.219 369.734V369.906ZM234.203 372.93C233.641 373.747 232.742 374.156 231.508 374.156C230.607 374.156 229.922 373.896 229.453 373.375C228.984 372.849 228.745 372.073 228.734 371.047V365.547H229.664V370.93C229.664 372.539 230.315 373.344 231.617 373.344C232.971 373.344 233.828 372.784 234.188 371.664V365.547H235.125V374H234.219L234.203 372.93ZM239.016 363.383V365.547H240.766V366.312H239.016V371.945C239.016 372.414 239.099 372.763 239.266 372.992C239.438 373.221 239.721 373.336 240.117 373.336C240.273 373.336 240.526 373.31 240.875 373.258L240.914 374.023C240.669 374.112 240.336 374.156 239.914 374.156C239.273 374.156 238.807 373.971 238.516 373.602C238.224 373.227 238.078 372.677 238.078 371.953V366.312H236.523V365.547H238.078V363.383H239.016Z" fill="#424242"/>
<path d="M291.711 362.625L295.906 372.664L300.117 362.625H301.398V374H300.438V369.047L300.516 363.969L296.281 374H295.539L291.32 364.008L291.398 369.016V374H290.438V362.625H291.711ZM305.109 374H304.172V365.547H305.109V374ZM304.008 363.102C304.008 362.924 304.065 362.776 304.18 362.656C304.294 362.531 304.451 362.469 304.648 362.469C304.846 362.469 305.003 362.531 305.117 362.656C305.237 362.776 305.297 362.924 305.297 363.102C305.297 363.279 305.237 363.427 305.117 363.547C305.003 363.667 304.846 363.727 304.648 363.727C304.451 363.727 304.294 363.667 304.18 363.547C304.065 363.427 304.008 363.279 304.008 363.102ZM307.281 369.695C307.281 368.383 307.573 367.339 308.156 366.562C308.745 365.781 309.542 365.391 310.547 365.391C311.688 365.391 312.557 365.841 313.156 366.742V362H314.086V374H313.211L313.172 372.875C312.573 373.729 311.693 374.156 310.531 374.156C309.557 374.156 308.771 373.766 308.172 372.984C307.578 372.198 307.281 371.138 307.281 369.805V369.695ZM308.227 369.859C308.227 370.938 308.443 371.789 308.875 372.414C309.307 373.034 309.917 373.344 310.703 373.344C311.854 373.344 312.672 372.836 313.156 371.82V367.852C312.672 366.753 311.859 366.203 310.719 366.203C309.932 366.203 309.32 366.513 308.883 367.133C308.445 367.747 308.227 368.656 308.227 369.859ZM327.094 371.203C327.094 370.573 326.872 370.076 326.43 369.711C325.987 369.341 325.177 368.992 324 368.664C322.823 368.331 321.964 367.969 321.422 367.578C320.651 367.026 320.266 366.302 320.266 365.406C320.266 364.536 320.622 363.831 321.336 363.289C322.055 362.742 322.971 362.469 324.086 362.469C324.841 362.469 325.516 362.615 326.109 362.906C326.708 363.198 327.172 363.604 327.5 364.125C327.828 364.646 327.992 365.227 327.992 365.867H327.023C327.023 365.091 326.758 364.469 326.227 364C325.695 363.526 324.982 363.289 324.086 363.289C323.216 363.289 322.523 363.484 322.008 363.875C321.492 364.26 321.234 364.766 321.234 365.391C321.234 365.969 321.466 366.44 321.93 366.805C322.393 367.169 323.135 367.492 324.156 367.773C325.177 368.049 325.951 368.339 326.477 368.641C327.003 368.938 327.398 369.294 327.664 369.711C327.93 370.128 328.062 370.62 328.062 371.188C328.062 372.083 327.703 372.802 326.984 373.344C326.271 373.885 325.328 374.156 324.156 374.156C323.354 374.156 322.617 374.013 321.945 373.727C321.279 373.44 320.771 373.039 320.422 372.523C320.078 372.008 319.906 371.417 319.906 370.75H320.867C320.867 371.552 321.167 372.185 321.766 372.648C322.365 373.112 323.161 373.344 324.156 373.344C325.042 373.344 325.753 373.148 326.289 372.758C326.826 372.367 327.094 371.849 327.094 371.203ZM330.969 374H330.031V365.547H330.969V374ZM329.867 363.102C329.867 362.924 329.924 362.776 330.039 362.656C330.154 362.531 330.31 362.469 330.508 362.469C330.706 362.469 330.862 362.531 330.977 362.656C331.096 362.776 331.156 362.924 331.156 363.102C331.156 363.279 331.096 363.427 330.977 363.547C330.862 363.667 330.706 363.727 330.508 363.727C330.31 363.727 330.154 363.667 330.039 363.547C329.924 363.427 329.867 363.279 329.867 363.102ZM334.133 373.211H339.625V374H332.977V373.312L338.102 366.352H333.133V365.547H339.281V366.242L334.133 373.211ZM344.445 374.156C343.727 374.156 343.076 373.979 342.492 373.625C341.914 373.271 341.464 372.779 341.141 372.148C340.818 371.513 340.656 370.802 340.656 370.016V369.68C340.656 368.867 340.812 368.135 341.125 367.484C341.443 366.833 341.883 366.323 342.445 365.953C343.008 365.578 343.617 365.391 344.273 365.391C345.299 365.391 346.112 365.742 346.711 366.445C347.315 367.143 347.617 368.099 347.617 369.312V369.836H341.586V370.016C341.586 370.974 341.859 371.773 342.406 372.414C342.958 373.049 343.651 373.367 344.484 373.367C344.984 373.367 345.424 373.276 345.805 373.094C346.19 372.911 346.539 372.62 346.852 372.219L347.438 372.664C346.75 373.659 345.753 374.156 344.445 374.156ZM344.273 366.188C343.57 366.188 342.977 366.445 342.492 366.961C342.013 367.477 341.721 368.169 341.617 369.039H346.688V368.938C346.661 368.125 346.43 367.464 345.992 366.953C345.555 366.443 344.982 366.188 344.273 366.188ZM354.508 369.367V374H353.547V362.625H357.422C358.604 362.625 359.536 362.927 360.219 363.531C360.906 364.135 361.25 364.966 361.25 366.023C361.25 367.091 360.919 367.917 360.258 368.5C359.602 369.078 358.648 369.367 357.398 369.367H354.508ZM354.508 368.555H357.422C358.354 368.555 359.065 368.333 359.555 367.891C360.044 367.448 360.289 366.831 360.289 366.039C360.289 365.253 360.044 364.628 359.555 364.164C359.07 363.695 358.38 363.456 357.484 363.445H354.508V368.555ZM367.094 366.344C366.896 366.307 366.685 366.289 366.461 366.289C365.878 366.289 365.383 366.453 364.977 366.781C364.576 367.104 364.289 367.576 364.117 368.195V374H363.188V365.547H364.102L364.117 366.891C364.612 365.891 365.406 365.391 366.5 365.391C366.76 365.391 366.966 365.424 367.117 365.492L367.094 366.344ZM367.906 369.648C367.906 368.836 368.062 368.104 368.375 367.453C368.693 366.802 369.138 366.297 369.711 365.938C370.289 365.573 370.943 365.391 371.672 365.391C372.797 365.391 373.708 365.786 374.406 366.578C375.104 367.365 375.453 368.409 375.453 369.711V369.906C375.453 370.724 375.294 371.461 374.977 372.117C374.664 372.768 374.221 373.271 373.648 373.625C373.076 373.979 372.422 374.156 371.688 374.156C370.568 374.156 369.656 373.763 368.953 372.977C368.255 372.185 367.906 371.138 367.906 369.836V369.648ZM368.844 369.906C368.844 370.917 369.104 371.747 369.625 372.398C370.151 373.044 370.839 373.367 371.688 373.367C372.531 373.367 373.214 373.044 373.734 372.398C374.26 371.747 374.523 370.891 374.523 369.828V369.648C374.523 369.003 374.404 368.411 374.164 367.875C373.924 367.339 373.589 366.924 373.156 366.633C372.724 366.336 372.229 366.188 371.672 366.188C370.839 366.188 370.159 366.516 369.633 367.172C369.107 367.823 368.844 368.677 368.844 369.734V369.906ZM378.398 365.547V375.008C378.398 375.789 378.211 376.385 377.836 376.797C377.461 377.208 376.909 377.414 376.18 377.414C375.898 377.414 375.625 377.365 375.359 377.266L375.375 376.492C375.604 376.56 375.839 376.594 376.078 376.594C377.005 376.594 377.469 376.06 377.469 374.992V365.547H378.398ZM377.938 362.469C378.141 362.469 378.299 362.531 378.414 362.656C378.529 362.776 378.586 362.924 378.586 363.102C378.586 363.279 378.529 363.427 378.414 363.547C378.299 363.667 378.141 363.727 377.938 363.727C377.74 363.727 377.583 363.667 377.469 363.547C377.359 363.427 377.305 363.279 377.305 363.102C377.305 362.924 377.359 362.776 377.469 362.656C377.583 362.531 377.74 362.469 377.938 362.469ZM384.32 374.156C383.602 374.156 382.951 373.979 382.367 373.625C381.789 373.271 381.339 372.779 381.016 372.148C380.693 371.513 380.531 370.802 380.531 370.016V369.68C380.531 368.867 380.688 368.135 381 367.484C381.318 366.833 381.758 366.323 382.32 365.953C382.883 365.578 383.492 365.391 384.148 365.391C385.174 365.391 385.987 365.742 386.586 366.445C387.19 367.143 387.492 368.099 387.492 369.312V369.836H381.461V370.016C381.461 370.974 381.734 371.773 382.281 372.414C382.833 373.049 383.526 373.367 384.359 373.367C384.859 373.367 385.299 373.276 385.68 373.094C386.065 372.911 386.414 372.62 386.727 372.219L387.312 372.664C386.625 373.659 385.628 374.156 384.32 374.156ZM384.148 366.188C383.445 366.188 382.852 366.445 382.367 366.961C381.888 367.477 381.596 368.169 381.492 369.039H386.562V368.938C386.536 368.125 386.305 367.464 385.867 366.953C385.43 366.443 384.857 366.188 384.148 366.188ZM392.438 373.367C393.089 373.367 393.633 373.185 394.07 372.82C394.513 372.451 394.753 371.974 394.789 371.391H395.688C395.661 371.906 395.5 372.378 395.203 372.805C394.906 373.227 394.51 373.557 394.016 373.797C393.526 374.036 393 374.156 392.438 374.156C391.328 374.156 390.448 373.771 389.797 373C389.151 372.229 388.828 371.193 388.828 369.891V369.609C388.828 368.776 388.974 368.039 389.266 367.398C389.557 366.758 389.974 366.263 390.516 365.914C391.062 365.565 391.701 365.391 392.43 365.391C393.357 365.391 394.12 365.667 394.719 366.219C395.323 366.771 395.646 367.497 395.688 368.398H394.789C394.747 367.737 394.508 367.203 394.07 366.797C393.638 366.391 393.091 366.188 392.43 366.188C391.586 366.188 390.93 366.492 390.461 367.102C389.997 367.711 389.766 368.565 389.766 369.664V369.938C389.766 371.016 389.997 371.857 390.461 372.461C390.93 373.065 391.589 373.367 392.438 373.367ZM399.016 363.383V365.547H400.766V366.312H399.016V371.945C399.016 372.414 399.099 372.763 399.266 372.992C399.438 373.221 399.721 373.336 400.117 373.336C400.273 373.336 400.526 373.31 400.875 373.258L400.914 374.023C400.669 374.112 400.336 374.156 399.914 374.156C399.273 374.156 398.807 373.971 398.516 373.602C398.224 373.227 398.078 372.677 398.078 371.953V366.312H396.523V365.547H398.078V363.383H399.016Z" fill="#424242"/>
<path d="M446.406 373.188H452.023V374H445.438V362.625H446.406V373.188ZM458.992 374C458.898 373.734 458.839 373.341 458.812 372.82C458.484 373.247 458.065 373.578 457.555 373.812C457.049 374.042 456.513 374.156 455.945 374.156C455.133 374.156 454.474 373.93 453.969 373.477C453.469 373.023 453.219 372.451 453.219 371.758C453.219 370.935 453.56 370.284 454.242 369.805C454.93 369.326 455.885 369.086 457.109 369.086H458.805V368.125C458.805 367.521 458.617 367.047 458.242 366.703C457.872 366.354 457.331 366.18 456.617 366.18C455.966 366.18 455.427 366.346 455 366.68C454.573 367.013 454.359 367.414 454.359 367.883L453.422 367.875C453.422 367.203 453.734 366.622 454.359 366.133C454.984 365.638 455.753 365.391 456.664 365.391C457.607 365.391 458.349 365.628 458.891 366.102C459.438 366.57 459.719 367.227 459.734 368.07V372.07C459.734 372.888 459.82 373.5 459.992 373.906V374H458.992ZM456.055 373.328C456.68 373.328 457.237 373.177 457.727 372.875C458.221 372.573 458.581 372.169 458.805 371.664V369.805H457.133C456.201 369.815 455.471 369.987 454.945 370.32C454.419 370.648 454.156 371.102 454.156 371.68C454.156 372.154 454.331 372.547 454.68 372.859C455.034 373.172 455.492 373.328 456.055 373.328ZM466.141 366.344C465.943 366.307 465.732 366.289 465.508 366.289C464.924 366.289 464.43 366.453 464.023 366.781C463.622 367.104 463.336 367.576 463.164 368.195V374H462.234V365.547H463.148L463.164 366.891C463.659 365.891 464.453 365.391 465.547 365.391C465.807 365.391 466.013 365.424 466.164 365.492L466.141 366.344ZM467.094 369.695C467.094 368.372 467.385 367.326 467.969 366.555C468.557 365.779 469.354 365.391 470.359 365.391C471.51 365.391 472.385 365.849 472.984 366.766L473.031 365.547H473.906V373.828C473.906 374.917 473.602 375.779 472.992 376.414C472.383 377.049 471.557 377.367 470.516 377.367C469.927 377.367 469.365 377.234 468.828 376.969C468.297 376.708 467.878 376.359 467.57 375.922L468.094 375.359C468.755 376.172 469.542 376.578 470.453 376.578C471.234 376.578 471.844 376.346 472.281 375.883C472.719 375.424 472.945 374.786 472.961 373.969V372.906C472.362 373.74 471.49 374.156 470.344 374.156C469.365 374.156 468.578 373.766 467.984 372.984C467.391 372.203 467.094 371.148 467.094 369.82V369.695ZM468.039 369.859C468.039 370.938 468.255 371.789 468.688 372.414C469.12 373.034 469.729 373.344 470.516 373.344C471.667 373.344 472.482 372.828 472.961 371.797V367.867C472.742 367.326 472.427 366.914 472.016 366.633C471.604 366.346 471.109 366.203 470.531 366.203C469.745 366.203 469.133 366.513 468.695 367.133C468.258 367.747 468.039 368.656 468.039 369.859ZM479.617 374.156C478.898 374.156 478.247 373.979 477.664 373.625C477.086 373.271 476.635 372.779 476.312 372.148C475.99 371.513 475.828 370.802 475.828 370.016V369.68C475.828 368.867 475.984 368.135 476.297 367.484C476.615 366.833 477.055 366.323 477.617 365.953C478.18 365.578 478.789 365.391 479.445 365.391C480.471 365.391 481.284 365.742 481.883 366.445C482.487 367.143 482.789 368.099 482.789 369.312V369.836H476.758V370.016C476.758 370.974 477.031 371.773 477.578 372.414C478.13 373.049 478.823 373.367 479.656 373.367C480.156 373.367 480.596 373.276 480.977 373.094C481.362 372.911 481.711 372.62 482.023 372.219L482.609 372.664C481.922 373.659 480.924 374.156 479.617 374.156ZM479.445 366.188C478.742 366.188 478.148 366.445 477.664 366.961C477.185 367.477 476.893 368.169 476.789 369.039H481.859V368.938C481.833 368.125 481.602 367.464 481.164 366.953C480.727 366.443 480.154 366.188 479.445 366.188ZM495.156 371.203C495.156 370.573 494.935 370.076 494.492 369.711C494.049 369.341 493.24 368.992 492.062 368.664C490.885 368.331 490.026 367.969 489.484 367.578C488.714 367.026 488.328 366.302 488.328 365.406C488.328 364.536 488.685 363.831 489.398 363.289C490.117 362.742 491.034 362.469 492.148 362.469C492.904 362.469 493.578 362.615 494.172 362.906C494.771 363.198 495.234 363.604 495.562 364.125C495.891 364.646 496.055 365.227 496.055 365.867H495.086C495.086 365.091 494.82 364.469 494.289 364C493.758 363.526 493.044 363.289 492.148 363.289C491.279 363.289 490.586 363.484 490.07 363.875C489.555 364.26 489.297 364.766 489.297 365.391C489.297 365.969 489.529 366.44 489.992 366.805C490.456 367.169 491.198 367.492 492.219 367.773C493.24 368.049 494.013 368.339 494.539 368.641C495.065 368.938 495.461 369.294 495.727 369.711C495.992 370.128 496.125 370.62 496.125 371.188C496.125 372.083 495.766 372.802 495.047 373.344C494.333 373.885 493.391 374.156 492.219 374.156C491.417 374.156 490.68 374.013 490.008 373.727C489.341 373.44 488.833 373.039 488.484 372.523C488.141 372.008 487.969 371.417 487.969 370.75H488.93C488.93 371.552 489.229 372.185 489.828 372.648C490.427 373.112 491.224 373.344 492.219 373.344C493.104 373.344 493.815 373.148 494.352 372.758C494.888 372.367 495.156 371.849 495.156 371.203ZM499.031 374H498.094V365.547H499.031V374ZM497.93 363.102C497.93 362.924 497.987 362.776 498.102 362.656C498.216 362.531 498.372 362.469 498.57 362.469C498.768 362.469 498.924 362.531 499.039 362.656C499.159 362.776 499.219 362.924 499.219 363.102C499.219 363.279 499.159 363.427 499.039 363.547C498.924 363.667 498.768 363.727 498.57 363.727C498.372 363.727 498.216 363.667 498.102 363.547C497.987 363.427 497.93 363.279 497.93 363.102ZM502.195 373.211H507.688V374H501.039V373.312L506.164 366.352H501.195V365.547H507.344V366.242L502.195 373.211ZM512.508 374.156C511.789 374.156 511.138 373.979 510.555 373.625C509.977 373.271 509.526 372.779 509.203 372.148C508.88 371.513 508.719 370.802 508.719 370.016V369.68C508.719 368.867 508.875 368.135 509.188 367.484C509.505 366.833 509.945 366.323 510.508 365.953C511.07 365.578 511.68 365.391 512.336 365.391C513.362 365.391 514.174 365.742 514.773 366.445C515.378 367.143 515.68 368.099 515.68 369.312V369.836H509.648V370.016C509.648 370.974 509.922 371.773 510.469 372.414C511.021 373.049 511.714 373.367 512.547 373.367C513.047 373.367 513.487 373.276 513.867 373.094C514.253 372.911 514.602 372.62 514.914 372.219L515.5 372.664C514.812 373.659 513.815 374.156 512.508 374.156ZM512.336 366.188C511.633 366.188 511.039 366.445 510.555 366.961C510.076 367.477 509.784 368.169 509.68 369.039H514.75V368.938C514.724 368.125 514.492 367.464 514.055 366.953C513.617 366.443 513.044 366.188 512.336 366.188ZM522.57 369.367V374H521.609V362.625H525.484C526.667 362.625 527.599 362.927 528.281 363.531C528.969 364.135 529.312 364.966 529.312 366.023C529.312 367.091 528.982 367.917 528.32 368.5C527.664 369.078 526.711 369.367 525.461 369.367H522.57ZM522.57 368.555H525.484C526.417 368.555 527.128 368.333 527.617 367.891C528.107 367.448 528.352 366.831 528.352 366.039C528.352 365.253 528.107 364.628 527.617 364.164C527.133 363.695 526.443 363.456 525.547 363.445H522.57V368.555ZM535.156 366.344C534.958 366.307 534.747 366.289 534.523 366.289C533.94 366.289 533.445 366.453 533.039 366.781C532.638 367.104 532.352 367.576 532.18 368.195V374H531.25V365.547H532.164L532.18 366.891C532.674 365.891 533.469 365.391 534.562 365.391C534.823 365.391 535.029 365.424 535.18 365.492L535.156 366.344ZM535.969 369.648C535.969 368.836 536.125 368.104 536.438 367.453C536.755 366.802 537.201 366.297 537.773 365.938C538.352 365.573 539.005 365.391 539.734 365.391C540.859 365.391 541.771 365.786 542.469 366.578C543.167 367.365 543.516 368.409 543.516 369.711V369.906C543.516 370.724 543.357 371.461 543.039 372.117C542.727 372.768 542.284 373.271 541.711 373.625C541.138 373.979 540.484 374.156 539.75 374.156C538.63 374.156 537.719 373.763 537.016 372.977C536.318 372.185 535.969 371.138 535.969 369.836V369.648ZM536.906 369.906C536.906 370.917 537.167 371.747 537.688 372.398C538.214 373.044 538.901 373.367 539.75 373.367C540.594 373.367 541.276 373.044 541.797 372.398C542.323 371.747 542.586 370.891 542.586 369.828V369.648C542.586 369.003 542.466 368.411 542.227 367.875C541.987 367.339 541.651 366.924 541.219 366.633C540.786 366.336 540.292 366.188 539.734 366.188C538.901 366.188 538.221 366.516 537.695 367.172C537.169 367.823 536.906 368.677 536.906 369.734V369.906ZM546.461 365.547V375.008C546.461 375.789 546.273 376.385 545.898 376.797C545.523 377.208 544.971 377.414 544.242 377.414C543.961 377.414 543.688 377.365 543.422 377.266L543.438 376.492C543.667 376.56 543.901 376.594 544.141 376.594C545.068 376.594 545.531 376.06 545.531 374.992V365.547H546.461ZM546 362.469C546.203 362.469 546.362 362.531 546.477 362.656C546.591 362.776 546.648 362.924 546.648 363.102C546.648 363.279 546.591 363.427 546.477 363.547C546.362 363.667 546.203 363.727 546 363.727C545.802 363.727 545.646 363.667 545.531 363.547C545.422 363.427 545.367 363.279 545.367 363.102C545.367 362.924 545.422 362.776 545.531 362.656C545.646 362.531 545.802 362.469 546 362.469ZM552.383 374.156C551.664 374.156 551.013 373.979 550.43 373.625C549.852 373.271 549.401 372.779 549.078 372.148C548.755 371.513 548.594 370.802 548.594 370.016V369.68C548.594 368.867 548.75 368.135 549.062 367.484C549.38 366.833 549.82 366.323 550.383 365.953C550.945 365.578 551.555 365.391 552.211 365.391C553.237 365.391 554.049 365.742 554.648 366.445C555.253 367.143 555.555 368.099 555.555 369.312V369.836H549.523V370.016C549.523 370.974 549.797 371.773 550.344 372.414C550.896 373.049 551.589 373.367 552.422 373.367C552.922 373.367 553.362 373.276 553.742 373.094C554.128 372.911 554.477 372.62 554.789 372.219L555.375 372.664C554.688 373.659 553.69 374.156 552.383 374.156ZM552.211 366.188C551.508 366.188 550.914 366.445 550.43 366.961C549.951 367.477 549.659 368.169 549.555 369.039H554.625V368.938C554.599 368.125 554.367 367.464 553.93 366.953C553.492 366.443 552.919 366.188 552.211 366.188ZM560.5 373.367C561.151 373.367 561.695 373.185 562.133 372.82C562.576 372.451 562.815 371.974 562.852 371.391H563.75C563.724 371.906 563.562 372.378 563.266 372.805C562.969 373.227 562.573 373.557 562.078 373.797C561.589 374.036 561.062 374.156 560.5 374.156C559.391 374.156 558.51 373.771 557.859 373C557.214 372.229 556.891 371.193 556.891 369.891V369.609C556.891 368.776 557.036 368.039 557.328 367.398C557.62 366.758 558.036 366.263 558.578 365.914C559.125 365.565 559.763 365.391 560.492 365.391C561.419 365.391 562.182 365.667 562.781 366.219C563.385 366.771 563.708 367.497 563.75 368.398H562.852C562.81 367.737 562.57 367.203 562.133 366.797C561.701 366.391 561.154 366.188 560.492 366.188C559.648 366.188 558.992 366.492 558.523 367.102C558.06 367.711 557.828 368.565 557.828 369.664V369.938C557.828 371.016 558.06 371.857 558.523 372.461C558.992 373.065 559.651 373.367 560.5 373.367ZM567.078 363.383V365.547H568.828V366.312H567.078V371.945C567.078 372.414 567.161 372.763 567.328 372.992C567.5 373.221 567.784 373.336 568.18 373.336C568.336 373.336 568.589 373.31 568.938 373.258L568.977 374.023C568.732 374.112 568.398 374.156 567.977 374.156C567.336 374.156 566.87 373.971 566.578 373.602C566.286 373.227 566.141 372.677 566.141 371.953V366.312H564.586V365.547H566.141V363.383H567.078Z" fill="#424242"/>
<path d="M61.1855 355.422C62.1751 355.467 63.0508 355.734 63.8125 356.223C64.5677 356.711 65.1536 357.398 65.5703 358.283C65.987 359.162 66.1953 360.168 66.1953 361.301C66.1953 363.169 65.5866 364.641 64.3691 365.715C63.1517 366.789 61.4329 367.326 59.2129 367.326H58.5098C57.1165 367.326 55.8991 367.085 54.8574 366.604C53.8092 366.115 53.002 365.415 52.4355 364.504C51.8626 363.592 51.5762 362.538 51.5762 361.34C51.5762 359.615 52.0319 358.228 52.9434 357.18C53.8483 356.132 55.0983 355.536 56.6934 355.393V358.811C55.8275 358.837 55.2057 359.055 54.8281 359.465C54.4505 359.875 54.2617 360.5 54.2617 361.34C54.2617 362.193 54.5807 362.818 55.2188 363.215C55.8568 363.612 56.8757 363.82 58.2754 363.84H59.2812C60.7982 363.84 61.8822 363.651 62.5332 363.273C63.1842 362.889 63.5098 362.232 63.5098 361.301C63.5098 360.513 63.3242 359.911 62.9531 359.494C62.582 359.077 61.9928 358.856 61.1855 358.83V355.422ZM59.1836 341.76C60.5703 341.76 61.7975 342.017 62.8652 342.531C63.9329 343.046 64.7565 343.778 65.3359 344.729C65.9089 345.673 66.1953 346.75 66.1953 347.961C66.1953 349.172 65.9186 350.246 65.3652 351.184C64.8053 352.121 64.0078 352.854 62.9727 353.381C61.9375 353.902 60.7493 354.175 59.4082 354.201H58.6074C57.2142 354.201 55.987 353.947 54.9258 353.439C53.8581 352.925 53.0345 352.193 52.4551 351.242C51.8757 350.285 51.5859 349.198 51.5859 347.98C51.5859 346.776 51.8724 345.702 52.4453 344.758C53.0182 343.814 53.8353 343.081 54.8965 342.561C55.9512 342.033 57.1621 341.766 58.5293 341.76H59.1836ZM58.5879 345.246C57.1751 345.246 56.1042 345.484 55.375 345.959C54.6393 346.428 54.2715 347.102 54.2715 347.98C54.2715 349.699 55.5605 350.607 58.1387 350.705L59.1836 350.715C60.5768 350.715 61.6478 350.484 62.3965 350.021C63.1452 349.559 63.5195 348.872 63.5195 347.961C63.5195 347.095 63.1517 346.428 62.416 345.959C61.6803 345.49 60.6224 345.253 59.2422 345.246H58.5879ZM62.2207 332.658C61.7194 332.658 61.3288 332.837 61.0488 333.195C60.7689 333.547 60.4792 334.169 60.1797 335.061C59.8802 335.952 59.5905 336.682 59.3105 337.248C58.4056 339.09 57.1621 340.012 55.5801 340.012C54.7923 340.012 54.099 339.784 53.5 339.328C52.8945 338.866 52.4258 338.215 52.0938 337.375C51.7552 336.535 51.5859 335.591 51.5859 334.543C51.5859 333.521 51.7682 332.606 52.1328 331.799C52.4974 330.985 53.0182 330.354 53.6953 329.904C54.3659 329.455 55.1341 329.23 56 329.23V332.648C55.4206 332.648 54.9714 332.827 54.6523 333.186C54.3333 333.537 54.1738 334.016 54.1738 334.621C54.1738 335.233 54.3105 335.718 54.584 336.076C54.8509 336.428 55.1927 336.604 55.6094 336.604C55.974 336.604 56.306 336.408 56.6055 336.018C56.8984 335.627 57.2044 334.94 57.5234 333.957C57.8359 332.974 58.1745 332.167 58.5391 331.535C59.4245 329.999 60.6452 329.23 62.2012 329.23C63.4447 329.23 64.4212 329.699 65.1309 330.637C65.8405 331.574 66.1953 332.86 66.1953 334.494C66.1953 335.646 65.9902 336.691 65.5801 337.629C65.1634 338.56 64.597 339.263 63.8809 339.738C63.1582 340.207 62.3281 340.441 61.3906 340.441V337.004C62.1523 337.004 62.7155 336.809 63.0801 336.418C63.4382 336.021 63.6172 335.38 63.6172 334.494C63.6172 333.928 63.4967 333.482 63.2559 333.156C63.0085 332.824 62.6634 332.658 62.2207 332.658ZM54.4277 316.311V320.578H66V324.006H54.4277V328.195H51.7812V316.311H54.4277ZM60.6289 294.387C62.3281 294.452 63.6823 294.875 64.6914 295.656C65.7005 296.438 66.2051 297.479 66.2051 298.781C66.2051 299.315 66.0911 299.787 65.8633 300.197C65.6289 300.607 65.3001 300.926 64.877 301.154C65.7363 301.792 66.166 302.648 66.166 303.723C66.166 304.348 65.9837 304.895 65.6191 305.363C65.248 305.832 64.724 306.177 64.0469 306.398C63.3698 306.613 62.6016 306.678 61.7422 306.594C60.1146 306.398 58.806 305.874 57.8164 305.021C56.8268 304.169 56.332 303.124 56.332 301.887C56.332 300.93 56.5534 300.106 56.9961 299.416L57.4062 298.801L63.1387 299.299C64.0436 299.41 64.4961 299.097 64.4961 298.361C64.4961 297.808 64.1445 297.346 63.4414 296.975C62.7318 296.597 61.8268 296.389 60.7266 296.35C58.5521 296.239 56.8724 296.691 55.6875 297.707C54.5026 298.716 53.9102 300.197 53.9102 302.15C53.9102 303.394 54.2292 304.501 54.8672 305.471C55.4987 306.434 56.3971 307.199 57.5625 307.766C58.7214 308.326 60.043 308.641 61.5273 308.713C63.806 308.817 65.5475 308.361 66.752 307.346C67.9629 306.33 68.5684 304.807 68.5684 302.775C68.5684 302.229 68.5033 301.649 68.373 301.037C68.2493 300.425 68.1029 299.927 67.9336 299.543L69.5547 299.182C69.8151 299.579 70.0234 300.116 70.1797 300.793C70.3424 301.464 70.4238 302.137 70.4238 302.814C70.4238 304.592 70.082 306.096 69.3984 307.326C68.7214 308.55 67.7155 309.462 66.3809 310.061C65.0462 310.66 63.4284 310.926 61.5273 310.861C59.7305 310.783 58.1224 310.37 56.7031 309.621C55.2773 308.866 54.1771 307.837 53.4023 306.535C52.6211 305.227 52.2305 303.752 52.2305 302.111C52.2305 300.471 52.5723 299.055 53.2559 297.863C53.9329 296.672 54.9095 295.777 56.1855 295.178C57.4616 294.579 58.9427 294.315 60.6289 294.387ZM61.7422 304.152C62.5885 304.224 63.2298 304.159 63.666 303.957C64.0957 303.749 64.3105 303.417 64.3105 302.961C64.3105 302.655 64.1738 302.375 63.9004 302.121C63.627 301.861 63.2363 301.646 62.7285 301.477L58.2754 301.086C58.2233 301.281 58.1973 301.483 58.1973 301.691C58.1973 302.421 58.4837 302.984 59.0566 303.381C59.623 303.771 60.5182 304.029 61.7422 304.152ZM62.2305 281.223C61.7161 281.223 61.3125 281.35 61.0195 281.604C60.7266 281.857 60.4499 282.303 60.1895 282.941C59.929 283.579 59.6654 284.169 59.3984 284.709C59.1315 285.249 58.8223 285.715 58.4707 286.105C58.1191 286.496 57.7122 286.796 57.25 287.004C56.7878 287.212 56.2279 287.316 55.5703 287.316C54.4701 287.316 53.5651 286.945 52.8555 286.203C52.1393 285.461 51.7227 284.471 51.6055 283.234H49.5449V281.682H51.6445C51.8203 280.49 52.3118 279.556 53.1191 278.879C53.9199 278.195 54.9388 277.854 56.1758 277.854V281.154C55.4987 281.154 54.9779 281.285 54.6133 281.545C54.2487 281.805 54.0664 282.176 54.0664 282.658C54.0664 283.088 54.2031 283.423 54.4766 283.664C54.7435 283.898 55.1146 284.016 55.5898 284.016C56.0716 284.016 56.4557 283.879 56.7422 283.605C57.0221 283.332 57.2923 282.893 57.5527 282.287C57.8066 281.682 58.0736 281.112 58.3535 280.578C58.627 280.038 58.9395 279.572 59.291 279.182C59.6426 278.791 60.0527 278.485 60.5215 278.264C60.9902 278.042 61.5534 277.932 62.2109 277.932C63.3242 277.932 64.2324 278.286 64.9355 278.996C65.6387 279.699 66.0488 280.66 66.166 281.877H68.1289V283.43H66.1562C66.0065 284.849 65.5215 285.939 64.7012 286.701C63.8743 287.456 62.7871 287.834 61.4395 287.834V284.543C62.1816 284.543 62.748 284.38 63.1387 284.055C63.5228 283.723 63.7148 283.254 63.7148 282.648C63.7148 282.206 63.5846 281.857 63.3242 281.604C63.0573 281.35 62.6927 281.223 62.2305 281.223ZM66 266.271V276.193H63.8516L59.0469 271.623C57.7643 270.497 56.7454 269.934 55.9902 269.934C55.3783 269.934 54.9128 270.067 54.5938 270.334C54.2747 270.601 54.1152 270.988 54.1152 271.496C54.1152 271.997 54.3301 272.404 54.7598 272.717C55.1829 273.029 55.7135 273.186 56.3516 273.186V276.486C55.4792 276.486 54.6751 276.268 53.9395 275.832C53.1973 275.396 52.6178 274.79 52.2012 274.016C51.7845 273.241 51.5762 272.375 51.5762 271.418C51.5762 269.882 51.931 268.7 52.6406 267.873C53.3503 267.04 54.3691 266.623 55.6973 266.623C56.2572 266.623 56.804 266.727 57.3379 266.936C57.8652 267.144 58.4219 267.469 59.0078 267.912C59.5872 268.348 60.3652 269.055 61.3418 270.031L63.4609 271.867V266.271H66ZM59.0469 264.416L51.7813 263.547V255.236H54.3398V260.871L57.1621 261.193C57.0254 260.959 56.9049 260.653 56.8008 260.275C56.6966 259.891 56.6445 259.517 56.6445 259.152C56.6445 257.74 57.0645 256.656 57.9043 255.9C58.7376 255.139 59.9095 254.758 61.4199 254.758C62.3314 254.758 63.1582 254.963 63.9004 255.373C64.6361 255.777 65.2025 256.346 65.5996 257.082C65.9967 257.818 66.1953 258.687 66.1953 259.689C66.1953 260.581 66.013 261.418 65.6484 262.199C65.2773 262.98 64.7728 263.592 64.1348 264.035C63.4902 264.478 62.7643 264.696 61.957 264.689V261.389C62.4779 261.356 62.8913 261.19 63.1973 260.891C63.5033 260.591 63.6563 260.197 63.6563 259.709C63.6563 258.602 62.8359 258.049 61.1953 258.049C59.6784 258.049 58.9199 258.726 58.9199 260.08C58.9199 260.848 59.1673 261.421 59.6621 261.799L59.0469 264.416ZM60.1895 243.156C62.11 243.156 63.5911 243.589 64.6328 244.455C65.6745 245.314 66.1953 246.529 66.1953 248.098C66.1953 249.68 65.6712 250.904 64.623 251.77C63.5749 252.635 62.097 253.068 60.1895 253.068H57.5918C55.6712 253.068 54.1901 252.639 53.1484 251.779C52.1068 250.913 51.5859 249.693 51.5859 248.117C51.5859 246.542 52.11 245.321 53.1582 244.455C54.2064 243.589 55.6875 243.156 57.6016 243.156H60.1895ZM57.1719 246.447C56.1497 246.447 55.388 246.581 54.8867 246.848C54.3789 247.115 54.125 247.538 54.125 248.117C54.125 248.684 54.3594 249.097 54.8281 249.357C55.2969 249.611 56.0065 249.748 56.957 249.768H60.5898C61.651 249.768 62.429 249.634 62.9238 249.367C63.4121 249.1 63.6563 248.677 63.6563 248.098C63.6563 247.538 63.4186 247.124 62.9434 246.857C62.4616 246.59 61.7096 246.454 60.6875 246.447H57.1719ZM61.1758 232.834H66V236.262H51.7813V230.588C51.7813 229.501 51.9831 228.54 52.3867 227.707C52.7839 226.867 53.3535 226.219 54.0957 225.764C54.8314 225.301 55.668 225.07 56.6055 225.07C57.9922 225.07 59.1022 225.568 59.9355 226.564C60.7624 227.554 61.1758 228.915 61.1758 230.646V232.834ZM58.5293 232.834V230.588C58.5293 229.924 58.3633 229.419 58.0313 229.074C57.6992 228.723 57.2305 228.547 56.625 228.547C55.9609 228.547 55.4303 228.726 55.0332 229.084C54.6361 229.442 54.4342 229.93 54.4277 230.549V232.834H58.5293ZM59.9746 214.416V219.807H63.3633V213.439H66L66 223.234H51.7813V213.42H54.4277V219.807H57.4258V214.416H59.9746ZM60.9805 206.76L60.9805 208.615H66V212.043H51.7813V206.447C51.7813 204.761 52.1556 203.443 52.9043 202.492C53.653 201.542 54.7109 201.066 56.0781 201.066C57.0677 201.066 57.888 201.268 58.5391 201.672C59.1901 202.069 59.7174 202.694 60.1211 203.547L65.8535 200.578H66V204.25L60.9805 206.76ZM58.334 208.615L58.334 206.447C58.334 205.796 58.1647 205.308 57.8262 204.982C57.4811 204.65 57.0026 204.484 56.3906 204.484C55.7786 204.484 55.3001 204.65 54.9551 204.982C54.6035 205.314 54.4277 205.803 54.4277 206.447V208.615H58.334ZM66 182.131V185.539H60.0625V190.588H66V194.016H51.7813V190.588H57.4258V185.539H51.7813V182.131H66ZM59.1836 167.912C60.5703 167.912 61.7975 168.169 62.8652 168.684C63.9329 169.198 64.7565 169.93 65.3359 170.881C65.9089 171.825 66.1953 172.902 66.1953 174.113C66.1953 175.324 65.9186 176.398 65.3652 177.336C64.8053 178.273 64.0078 179.006 62.9727 179.533C61.9375 180.054 60.7493 180.327 59.4082 180.354H58.6074C57.2142 180.354 55.987 180.1 54.9258 179.592C53.8581 179.077 53.0345 178.345 52.4551 177.395C51.8757 176.438 51.5859 175.35 51.5859 174.133C51.5859 172.928 51.8724 171.854 52.4453 170.91C53.0182 169.966 53.8353 169.234 54.8965 168.713C55.9512 168.186 57.1621 167.919 58.5293 167.912H59.1836ZM58.5879 171.398C57.1751 171.398 56.1042 171.636 55.375 172.111C54.6393 172.58 54.2715 173.254 54.2715 174.133C54.2715 175.852 55.5605 176.76 58.1387 176.857L59.1836 176.867C60.5768 176.867 61.6478 176.636 62.3965 176.174C63.1452 175.712 63.5195 175.025 63.5195 174.113C63.5195 173.247 63.1517 172.58 62.416 172.111C61.6803 171.643 60.6224 171.405 59.2422 171.398H58.5879ZM51.7813 154.992H61.0879C62.1426 154.992 63.0573 155.217 63.832 155.666C64.6003 156.115 65.1862 156.76 65.5898 157.6C65.9935 158.439 66.1953 159.432 66.1953 160.578C66.1953 162.31 65.7461 163.674 64.8477 164.67C63.9492 165.666 62.7188 166.174 61.1563 166.193H51.7813V162.746H61.2246C62.7806 162.707 63.5586 161.984 63.5586 160.578C63.5586 159.868 63.3633 159.331 62.9727 158.967C62.582 158.602 61.9473 158.42 61.0684 158.42H51.7813V154.992ZM60.9805 147.561V149.416H66V152.844H51.7813V147.248C51.7813 145.562 52.1556 144.243 52.9043 143.293C53.653 142.342 54.7109 141.867 56.0781 141.867C57.0677 141.867 57.888 142.069 58.5391 142.473C59.1901 142.87 59.7174 143.495 60.1211 144.348L65.8535 141.379H66V145.051L60.9805 147.561ZM58.334 149.416V147.248C58.334 146.597 58.1647 146.109 57.8262 145.783C57.4811 145.451 57.0026 145.285 56.3906 145.285C55.7786 145.285 55.3001 145.451 54.9551 145.783C54.6035 146.115 54.4277 146.604 54.4277 147.248V149.416H58.334Z" fill="#1A83C2"/>
<path d="M254.236 413.428H249.969V425H246.541V413.428H242.352V410.781H254.236V413.428ZM261.053 416.953L263.67 410.781H267.371L262.791 419.893V425H259.314V419.893L254.744 410.781H258.426L261.053 416.953ZM271.834 420.176V425H268.406V410.781H274.08C275.167 410.781 276.128 410.983 276.961 411.387C277.801 411.784 278.449 412.354 278.904 413.096C279.367 413.831 279.598 414.668 279.598 415.605C279.598 416.992 279.1 418.102 278.104 418.936C277.114 419.762 275.753 420.176 274.021 420.176H271.834ZM271.834 417.529H274.08C274.744 417.529 275.249 417.363 275.594 417.031C275.945 416.699 276.121 416.23 276.121 415.625C276.121 414.961 275.942 414.43 275.584 414.033C275.226 413.636 274.738 413.434 274.119 413.428H271.834V417.529ZM290.252 418.975H284.861V422.363H291.229V425H281.434V410.781H291.248V413.428H284.861V416.426H290.252V418.975ZM309.646 418.184C309.646 419.57 309.389 420.798 308.875 421.865C308.361 422.933 307.628 423.757 306.678 424.336C305.734 424.909 304.656 425.195 303.445 425.195C302.234 425.195 301.16 424.919 300.223 424.365C299.285 423.805 298.553 423.008 298.025 421.973C297.505 420.938 297.231 419.749 297.205 418.408V417.607C297.205 416.214 297.459 414.987 297.967 413.926C298.481 412.858 299.214 412.035 300.164 411.455C301.121 410.876 302.208 410.586 303.426 410.586C304.63 410.586 305.704 410.872 306.648 411.445C307.592 412.018 308.325 412.835 308.846 413.896C309.373 414.951 309.64 416.162 309.646 417.529V418.184ZM306.16 417.588C306.16 416.175 305.923 415.104 305.447 414.375C304.979 413.639 304.305 413.271 303.426 413.271C301.707 413.271 300.799 414.561 300.701 417.139L300.691 418.184C300.691 419.577 300.923 420.648 301.385 421.396C301.847 422.145 302.534 422.52 303.445 422.52C304.311 422.52 304.979 422.152 305.447 421.416C305.916 420.68 306.154 419.622 306.16 418.242V417.588ZM320.369 419.336H314.842V425H311.414V410.781H320.926V413.428H314.842V416.699H320.369V419.336ZM335.408 422.344H330.711L329.891 425H326.229L331.443 410.781H334.666L339.92 425H336.238L335.408 422.344ZM331.531 419.697H334.588L333.055 414.766L331.531 419.697ZM348.299 421.221C348.299 420.719 348.12 420.329 347.762 420.049C347.41 419.769 346.788 419.479 345.896 419.18C345.005 418.88 344.275 418.59 343.709 418.311C341.867 417.406 340.945 416.162 340.945 414.58C340.945 413.792 341.173 413.099 341.629 412.5C342.091 411.895 342.742 411.426 343.582 411.094C344.422 410.755 345.366 410.586 346.414 410.586C347.436 410.586 348.351 410.768 349.158 411.133C349.972 411.497 350.604 412.018 351.053 412.695C351.502 413.366 351.727 414.134 351.727 415H348.309C348.309 414.421 348.13 413.971 347.771 413.652C347.42 413.333 346.941 413.174 346.336 413.174C345.724 413.174 345.239 413.311 344.881 413.584C344.529 413.851 344.354 414.193 344.354 414.609C344.354 414.974 344.549 415.306 344.939 415.605C345.33 415.898 346.017 416.204 347 416.523C347.983 416.836 348.79 417.174 349.422 417.539C350.958 418.424 351.727 419.645 351.727 421.201C351.727 422.445 351.258 423.421 350.32 424.131C349.383 424.84 348.097 425.195 346.463 425.195C345.311 425.195 344.266 424.99 343.328 424.58C342.397 424.163 341.694 423.597 341.219 422.881C340.75 422.158 340.516 421.328 340.516 420.391H343.953C343.953 421.152 344.148 421.715 344.539 422.08C344.936 422.438 345.577 422.617 346.463 422.617C347.029 422.617 347.475 422.497 347.801 422.256C348.133 422.008 348.299 421.663 348.299 421.221ZM360.818 421.221C360.818 420.719 360.639 420.329 360.281 420.049C359.93 419.769 359.308 419.479 358.416 419.18C357.524 418.88 356.795 418.59 356.229 418.311C354.386 417.406 353.465 416.162 353.465 414.58C353.465 413.792 353.693 413.099 354.148 412.5C354.611 411.895 355.262 411.426 356.102 411.094C356.941 410.755 357.885 410.586 358.934 410.586C359.956 410.586 360.87 410.768 361.678 411.133C362.492 411.497 363.123 412.018 363.572 412.695C364.021 413.366 364.246 414.134 364.246 415H360.828C360.828 414.421 360.649 413.971 360.291 413.652C359.939 413.333 359.461 413.174 358.855 413.174C358.243 413.174 357.758 413.311 357.4 413.584C357.049 413.851 356.873 414.193 356.873 414.609C356.873 414.974 357.068 415.306 357.459 415.605C357.85 415.898 358.536 416.204 359.52 416.523C360.503 416.836 361.31 417.174 361.941 417.539C363.478 418.424 364.246 419.645 364.246 421.201C364.246 422.445 363.777 423.421 362.84 424.131C361.902 424.84 360.617 425.195 358.982 425.195C357.83 425.195 356.785 424.99 355.848 424.58C354.917 424.163 354.214 423.597 353.738 422.881C353.27 422.158 353.035 421.328 353.035 420.391H356.473C356.473 421.152 356.668 421.715 357.059 422.08C357.456 422.438 358.097 422.617 358.982 422.617C359.549 422.617 359.995 422.497 360.32 422.256C360.652 422.008 360.818 421.663 360.818 421.221ZM374.822 418.975H369.432V422.363H375.799V425H366.004V410.781H375.818V413.428H369.432V416.426H374.822V418.975ZM384.529 421.221C384.529 420.719 384.35 420.329 383.992 420.049C383.641 419.769 383.019 419.479 382.127 419.18C381.235 418.88 380.506 418.59 379.939 418.311C378.097 417.406 377.176 416.162 377.176 414.58C377.176 413.792 377.404 413.099 377.859 412.5C378.322 411.895 378.973 411.426 379.812 411.094C380.652 410.755 381.596 410.586 382.645 410.586C383.667 410.586 384.581 410.768 385.389 411.133C386.202 411.497 386.834 412.018 387.283 412.695C387.732 413.366 387.957 414.134 387.957 415H384.539C384.539 414.421 384.36 413.971 384.002 413.652C383.65 413.333 383.172 413.174 382.566 413.174C381.954 413.174 381.469 413.311 381.111 413.584C380.76 413.851 380.584 414.193 380.584 414.609C380.584 414.974 380.779 415.306 381.17 415.605C381.561 415.898 382.247 416.204 383.23 416.523C384.214 416.836 385.021 417.174 385.652 417.539C387.189 418.424 387.957 419.645 387.957 421.201C387.957 422.445 387.488 423.421 386.551 424.131C385.613 424.84 384.327 425.195 382.693 425.195C381.541 425.195 380.496 424.99 379.559 424.58C378.628 424.163 377.924 423.597 377.449 422.881C376.98 422.158 376.746 421.328 376.746 420.391H380.184C380.184 421.152 380.379 421.715 380.77 422.08C381.167 422.438 381.808 422.617 382.693 422.617C383.26 422.617 383.706 422.497 384.031 422.256C384.363 422.008 384.529 421.663 384.529 421.221ZM397.049 421.221C397.049 420.719 396.87 420.329 396.512 420.049C396.16 419.769 395.538 419.479 394.646 419.18C393.755 418.88 393.025 418.59 392.459 418.311C390.617 417.406 389.695 416.162 389.695 414.58C389.695 413.792 389.923 413.099 390.379 412.5C390.841 411.895 391.492 411.426 392.332 411.094C393.172 410.755 394.116 410.586 395.164 410.586C396.186 410.586 397.101 410.768 397.908 411.133C398.722 411.497 399.354 412.018 399.803 412.695C400.252 413.366 400.477 414.134 400.477 415H397.059C397.059 414.421 396.88 413.971 396.521 413.652C396.17 413.333 395.691 413.174 395.086 413.174C394.474 413.174 393.989 413.311 393.631 413.584C393.279 413.851 393.104 414.193 393.104 414.609C393.104 414.974 393.299 415.306 393.689 415.605C394.08 415.898 394.767 416.204 395.75 416.523C396.733 416.836 397.54 417.174 398.172 417.539C399.708 418.424 400.477 419.645 400.477 421.201C400.477 422.445 400.008 423.421 399.07 424.131C398.133 424.84 396.847 425.195 395.213 425.195C394.061 425.195 393.016 424.99 392.078 424.58C391.147 424.163 390.444 423.597 389.969 422.881C389.5 422.158 389.266 421.328 389.266 420.391H392.703C392.703 421.152 392.898 421.715 393.289 422.08C393.686 422.438 394.327 422.617 395.213 422.617C395.779 422.617 396.225 422.497 396.551 422.256C396.883 422.008 397.049 421.663 397.049 421.221ZM406.736 410.781L409.91 420.674L413.074 410.781H417.586V425H414.148V421.68L414.48 414.883L411.043 425H408.777L405.33 414.873L405.662 421.68V425H402.234V410.781H406.736ZM428.592 418.975H423.201V422.363H429.568V425H419.773V410.781H429.588V413.428H423.201V416.426H428.592V418.975ZM442.84 425H439.432L434.393 416.152V425H430.965V410.781H434.393L439.422 419.629V410.781H442.84V425ZM455.877 413.428H451.609V425H448.182V413.428H443.992V410.781H455.877V413.428Z" fill="#1A83C2"/>
<path fill-rule="evenodd" clip-rule="evenodd" d="M216 328L345.721 303L510 237V328V343H216V328Z" fill="#1A83C2" fill-opacity="0.6"/>
<path d="M402.539 76.9297L402.891 78.6953L403.32 77.0078L405.789 68.625H406.656L409.094 77.0078L409.516 78.7109L409.891 76.9297L411.945 68.625H412.93L410.016 80H409.094L406.516 71.1016L406.227 69.9766L405.945 71.1016L403.305 80H402.383L399.477 68.625H400.461L402.539 76.9297ZM415.609 80H414.672V71.5469H415.609V80ZM414.508 69.1016C414.508 68.9245 414.565 68.776 414.68 68.6562C414.794 68.5312 414.951 68.4688 415.148 68.4688C415.346 68.4688 415.503 68.5312 415.617 68.6562C415.737 68.776 415.797 68.9245 415.797 69.1016C415.797 69.2786 415.737 69.4271 415.617 69.5469C415.503 69.6667 415.346 69.7266 415.148 69.7266C414.951 69.7266 414.794 69.6667 414.68 69.5469C414.565 69.4271 414.508 69.2786 414.508 69.1016ZM419.609 69.3828V71.5469H421.359V72.3125H419.609V77.9453C419.609 78.4141 419.693 78.763 419.859 78.9922C420.031 79.2214 420.315 79.3359 420.711 79.3359C420.867 79.3359 421.12 79.3099 421.469 79.2578L421.508 80.0234C421.263 80.112 420.93 80.1562 420.508 80.1562C419.867 80.1562 419.401 79.9714 419.109 79.6016C418.818 79.2266 418.672 78.6771 418.672 77.9531V72.3125H417.117V71.5469H418.672V69.3828H419.609ZM424.227 72.9766C424.534 72.4714 424.927 72.0807 425.406 71.8047C425.885 71.5286 426.409 71.3906 426.977 71.3906C427.883 71.3906 428.557 71.6458 429 72.1562C429.443 72.6667 429.667 73.4323 429.672 74.4531V80H428.742V74.4453C428.737 73.6901 428.576 73.1276 428.258 72.7578C427.945 72.388 427.443 72.2031 426.75 72.2031C426.172 72.2031 425.659 72.3854 425.211 72.75C424.768 73.1094 424.44 73.5964 424.227 74.2109V80H423.297V68H424.227V72.9766ZM436.188 80V68.625H439.547C440.766 68.625 441.69 68.8776 442.32 69.3828C442.951 69.8828 443.266 70.6224 443.266 71.6016C443.266 72.1901 443.104 72.7031 442.781 73.1406C442.464 73.5729 442.026 73.8828 441.469 74.0703C442.13 74.2161 442.661 74.5417 443.062 75.0469C443.469 75.5521 443.672 76.1354 443.672 76.7969C443.672 77.8021 443.346 78.5885 442.695 79.1562C442.049 79.7188 441.148 80 439.992 80H436.188ZM437.148 74.5312V79.1875H440.031C440.854 79.1875 441.505 78.9792 441.984 78.5625C442.469 78.1406 442.711 77.5573 442.711 76.8125C442.711 76.1094 442.479 75.5547 442.016 75.1484C441.557 74.737 440.922 74.5312 440.109 74.5312H437.148ZM437.148 73.7266H439.773C440.576 73.7109 441.195 73.5234 441.633 73.1641C442.076 72.7995 442.297 72.2708 442.297 71.5781C442.297 70.849 442.068 70.3125 441.609 69.9688C441.156 69.6198 440.469 69.4453 439.547 69.4453H437.148V73.7266ZM447.172 80H446.211V68.625H447.172V80ZM451.539 68.625L455.734 78.6641L459.945 68.625H461.227V80H460.266V75.0469L460.344 69.9688L456.109 80H455.367L451.148 70.0078L451.227 75.0156V80H450.266V68.625H451.539ZM472.164 76.4531C472.034 77.651 471.604 78.5677 470.875 79.2031C470.151 79.8385 469.185 80.1562 467.977 80.1562C467.133 80.1562 466.385 79.9453 465.734 79.5234C465.089 79.1016 464.589 78.5052 464.234 77.7344C463.88 76.9583 463.701 76.0729 463.695 75.0781V73.6016C463.695 72.5911 463.872 71.6953 464.227 70.9141C464.581 70.1328 465.089 69.5312 465.75 69.1094C466.417 68.6823 467.182 68.4688 468.047 68.4688C469.266 68.4688 470.227 68.7995 470.93 69.4609C471.638 70.1172 472.049 71.026 472.164 72.1875H471.195C470.956 70.2552 469.906 69.2891 468.047 69.2891C467.016 69.2891 466.193 69.6745 465.578 70.4453C464.969 71.2161 464.664 72.2812 464.664 73.6406V75.0312C464.664 76.3438 464.961 77.3906 465.555 78.1719C466.154 78.9531 466.961 79.3438 467.977 79.3438C468.982 79.3438 469.74 79.1042 470.25 78.625C470.76 78.1406 471.076 77.4167 471.195 76.4531H472.164ZM473.766 75.6484C473.766 74.8359 473.922 74.1042 474.234 73.4531C474.552 72.8021 474.997 72.2969 475.57 71.9375C476.148 71.5729 476.802 71.3906 477.531 71.3906C478.656 71.3906 479.568 71.7865 480.266 72.5781C480.964 73.3646 481.312 74.4089 481.312 75.7109V75.9062C481.312 76.724 481.154 77.4609 480.836 78.1172C480.523 78.7682 480.081 79.2708 479.508 79.625C478.935 79.9792 478.281 80.1562 477.547 80.1562C476.427 80.1562 475.516 79.763 474.812 78.9766C474.115 78.1849 473.766 77.138 473.766 75.8359V75.6484ZM474.703 75.9062C474.703 76.9167 474.964 77.7474 475.484 78.3984C476.01 79.0443 476.698 79.3672 477.547 79.3672C478.391 79.3672 479.073 79.0443 479.594 78.3984C480.12 77.7474 480.383 76.8906 480.383 75.8281V75.6484C480.383 75.0026 480.263 74.4115 480.023 73.875C479.784 73.3385 479.448 72.9245 479.016 72.6328C478.583 72.3359 478.089 72.1875 477.531 72.1875C476.698 72.1875 476.018 72.5156 475.492 73.1719C474.966 73.8229 474.703 74.6771 474.703 75.7344V75.9062ZM482.875 75.6953C482.875 74.3828 483.167 73.3385 483.75 72.5625C484.339 71.7812 485.135 71.3906 486.141 71.3906C487.281 71.3906 488.151 71.8411 488.75 72.7422V68H489.68V80H488.805L488.766 78.875C488.167 79.7292 487.286 80.1562 486.125 80.1562C485.151 80.1562 484.365 79.7656 483.766 78.9844C483.172 78.1979 482.875 77.138 482.875 75.8047V75.6953ZM483.82 75.8594C483.82 76.9375 484.036 77.7891 484.469 78.4141C484.901 79.0339 485.51 79.3438 486.297 79.3438C487.448 79.3438 488.266 78.8359 488.75 77.8203V73.8516C488.266 72.7526 487.453 72.2031 486.312 72.2031C485.526 72.2031 484.914 72.513 484.477 73.1328C484.039 73.7474 483.82 74.6562 483.82 75.8594ZM495.414 80.1562C494.695 80.1562 494.044 79.9792 493.461 79.625C492.883 79.2708 492.432 78.7786 492.109 78.1484C491.786 77.513 491.625 76.8021 491.625 76.0156V75.6797C491.625 74.8672 491.781 74.1354 492.094 73.4844C492.411 72.8333 492.852 72.3229 493.414 71.9531C493.977 71.5781 494.586 71.3906 495.242 71.3906C496.268 71.3906 497.081 71.7422 497.68 72.4453C498.284 73.1432 498.586 74.099 498.586 75.3125V75.8359H492.555V76.0156C492.555 76.974 492.828 77.7734 493.375 78.4141C493.927 79.0495 494.62 79.3672 495.453 79.3672C495.953 79.3672 496.393 79.276 496.773 79.0938C497.159 78.9115 497.508 78.6198 497.82 78.2188L498.406 78.6641C497.719 79.6589 496.721 80.1562 495.414 80.1562ZM495.242 72.1875C494.539 72.1875 493.945 72.4453 493.461 72.9609C492.982 73.4766 492.69 74.1693 492.586 75.0391H497.656V74.9375C497.63 74.125 497.398 73.4635 496.961 72.9531C496.523 72.4427 495.951 72.1875 495.242 72.1875ZM505.469 77.8516C505.469 77.388 505.281 77.0156 504.906 76.7344C504.536 76.4531 503.977 76.2344 503.227 76.0781C502.477 75.9167 501.893 75.7344 501.477 75.5312C501.065 75.3229 500.758 75.0703 500.555 74.7734C500.357 74.4766 500.258 74.1172 500.258 73.6953C500.258 73.0286 500.536 72.4792 501.094 72.0469C501.651 71.6094 502.365 71.3906 503.234 71.3906C504.177 71.3906 504.932 71.625 505.5 72.0938C506.073 72.5573 506.359 73.1641 506.359 73.9141H505.422C505.422 73.4193 505.214 73.0078 504.797 72.6797C504.385 72.3516 503.865 72.1875 503.234 72.1875C502.62 72.1875 502.125 72.3255 501.75 72.6016C501.38 72.8724 501.195 73.2266 501.195 73.6641C501.195 74.0859 501.349 74.4141 501.656 74.6484C501.969 74.8776 502.534 75.0885 503.352 75.2812C504.174 75.474 504.789 75.6797 505.195 75.8984C505.607 76.1172 505.911 76.3802 506.109 76.6875C506.307 76.9948 506.406 77.3672 506.406 77.8047C506.406 78.5182 506.117 79.0885 505.539 79.5156C504.966 79.9427 504.216 80.1562 503.289 80.1562C502.305 80.1562 501.505 79.9193 500.891 79.4453C500.281 78.9661 499.977 78.362 499.977 77.6328H500.914C500.951 78.1797 501.18 78.6068 501.602 78.9141C502.029 79.2161 502.591 79.3672 503.289 79.3672C503.94 79.3672 504.466 79.224 504.867 78.9375C505.268 78.651 505.469 78.2891 505.469 77.8516Z" fill="#424242"/>
<path d="M402.539 47.9297L402.891 49.6953L403.32 48.0078L405.789 39.625H406.656L409.094 48.0078L409.516 49.7109L409.891 47.9297L411.945 39.625H412.93L410.016 51H409.094L406.516 42.1016L406.227 40.9766L405.945 42.1016L403.305 51H402.383L399.477 39.625H400.461L402.539 47.9297ZM415.609 51H414.672V42.5469H415.609V51ZM414.508 40.1016C414.508 39.9245 414.565 39.776 414.68 39.6562C414.794 39.5312 414.951 39.4688 415.148 39.4688C415.346 39.4688 415.503 39.5312 415.617 39.6562C415.737 39.776 415.797 39.9245 415.797 40.1016C415.797 40.2786 415.737 40.4271 415.617 40.5469C415.503 40.6667 415.346 40.7266 415.148 40.7266C414.951 40.7266 414.794 40.6667 414.68 40.5469C414.565 40.4271 414.508 40.2786 414.508 40.1016ZM419.609 40.3828V42.5469H421.359V43.3125H419.609V48.9453C419.609 49.4141 419.693 49.763 419.859 49.9922C420.031 50.2214 420.315 50.3359 420.711 50.3359C420.867 50.3359 421.12 50.3099 421.469 50.2578L421.508 51.0234C421.263 51.112 420.93 51.1562 420.508 51.1562C419.867 51.1562 419.401 50.9714 419.109 50.6016C418.818 50.2266 418.672 49.6771 418.672 48.9531V43.3125H417.117V42.5469H418.672V40.3828H419.609ZM424.227 43.9766C424.534 43.4714 424.927 43.0807 425.406 42.8047C425.885 42.5286 426.409 42.3906 426.977 42.3906C427.883 42.3906 428.557 42.6458 429 43.1562C429.443 43.6667 429.667 44.4323 429.672 45.4531V51H428.742V45.4453C428.737 44.6901 428.576 44.1276 428.258 43.7578C427.945 43.388 427.443 43.2031 426.75 43.2031C426.172 43.2031 425.659 43.3854 425.211 43.75C424.768 44.1094 424.44 44.5964 424.227 45.2109V51H423.297V39H424.227V43.9766ZM431.562 46.6484C431.562 45.8359 431.719 45.1042 432.031 44.4531C432.349 43.8021 432.794 43.2969 433.367 42.9375C433.945 42.5729 434.599 42.3906 435.328 42.3906C436.453 42.3906 437.365 42.7865 438.062 43.5781C438.76 44.3646 439.109 45.4089 439.109 46.7109V46.9062C439.109 47.724 438.951 48.4609 438.633 49.1172C438.32 49.7682 437.878 50.2708 437.305 50.625C436.732 50.9792 436.078 51.1562 435.344 51.1562C434.224 51.1562 433.312 50.763 432.609 49.9766C431.911 49.1849 431.562 48.138 431.562 46.8359V46.6484ZM432.5 46.9062C432.5 47.9167 432.76 48.7474 433.281 49.3984C433.807 50.0443 434.495 50.3672 435.344 50.3672C436.188 50.3672 436.87 50.0443 437.391 49.3984C437.917 48.7474 438.18 47.8906 438.18 46.8281V46.6484C438.18 46.0026 438.06 45.4115 437.82 44.875C437.581 44.3385 437.245 43.9245 436.812 43.6328C436.38 43.3359 435.885 43.1875 435.328 43.1875C434.495 43.1875 433.815 43.5156 433.289 44.1719C432.763 44.8229 432.5 45.6771 432.5 46.7344V46.9062ZM446.484 49.9297C445.922 50.7474 445.023 51.1562 443.789 51.1562C442.888 51.1562 442.203 50.8958 441.734 50.375C441.266 49.849 441.026 49.0729 441.016 48.0469V42.5469H441.945V47.9297C441.945 49.5391 442.596 50.3438 443.898 50.3438C445.253 50.3438 446.109 49.7839 446.469 48.6641V42.5469H447.406V51H446.5L446.484 49.9297ZM451.297 40.3828V42.5469H453.047V43.3125H451.297V48.9453C451.297 49.4141 451.38 49.763 451.547 49.9922C451.719 50.2214 452.003 50.3359 452.398 50.3359C452.555 50.3359 452.807 50.3099 453.156 50.2578L453.195 51.0234C452.951 51.112 452.617 51.1562 452.195 51.1562C451.555 51.1562 451.089 50.9714 450.797 50.6016C450.505 50.2266 450.359 49.6771 450.359 48.9531V43.3125H448.805V42.5469H450.359V40.3828H451.297ZM459.094 51V39.625H462.453C463.672 39.625 464.596 39.8776 465.227 40.3828C465.857 40.8828 466.172 41.6224 466.172 42.6016C466.172 43.1901 466.01 43.7031 465.688 44.1406C465.37 44.5729 464.932 44.8828 464.375 45.0703C465.036 45.2161 465.568 45.5417 465.969 46.0469C466.375 46.5521 466.578 47.1354 466.578 47.7969C466.578 48.8021 466.253 49.5885 465.602 50.1562C464.956 50.7188 464.055 51 462.898 51H459.094ZM460.055 45.5312V50.1875H462.938C463.76 50.1875 464.411 49.9792 464.891 49.5625C465.375 49.1406 465.617 48.5573 465.617 47.8125C465.617 47.1094 465.385 46.5547 464.922 46.1484C464.464 45.737 463.828 45.5312 463.016 45.5312H460.055ZM460.055 44.7266H462.68C463.482 44.7109 464.102 44.5234 464.539 44.1641C464.982 43.7995 465.203 43.2708 465.203 42.5781C465.203 41.849 464.974 41.3125 464.516 40.9688C464.062 40.6198 463.375 40.4453 462.453 40.4453H460.055V44.7266ZM470.078 51H469.117V39.625H470.078V51ZM474.445 39.625L478.641 49.6641L482.852 39.625H484.133V51H483.172V46.0469L483.25 40.9688L479.016 51H478.273L474.055 41.0078L474.133 46.0156V51H473.172V39.625H474.445ZM495.07 47.4531C494.94 48.651 494.51 49.5677 493.781 50.2031C493.057 50.8385 492.091 51.1562 490.883 51.1562C490.039 51.1562 489.292 50.9453 488.641 50.5234C487.995 50.1016 487.495 49.5052 487.141 48.7344C486.786 47.9583 486.607 47.0729 486.602 46.0781V44.6016C486.602 43.5911 486.779 42.6953 487.133 41.9141C487.487 41.1328 487.995 40.5312 488.656 40.1094C489.323 39.6823 490.089 39.4688 490.953 39.4688C492.172 39.4688 493.133 39.7995 493.836 40.4609C494.544 41.1172 494.956 42.026 495.07 43.1875H494.102C493.862 41.2552 492.812 40.2891 490.953 40.2891C489.922 40.2891 489.099 40.6745 488.484 41.4453C487.875 42.2161 487.57 43.2812 487.57 44.6406V46.0312C487.57 47.3438 487.867 48.3906 488.461 49.1719C489.06 49.9531 489.867 50.3438 490.883 50.3438C491.888 50.3438 492.646 50.1042 493.156 49.625C493.667 49.1406 493.982 48.4167 494.102 47.4531H495.07ZM496.672 46.6484C496.672 45.8359 496.828 45.1042 497.141 44.4531C497.458 43.8021 497.904 43.2969 498.477 42.9375C499.055 42.5729 499.708 42.3906 500.438 42.3906C501.562 42.3906 502.474 42.7865 503.172 43.5781C503.87 44.3646 504.219 45.4089 504.219 46.7109V46.9062C504.219 47.724 504.06 48.4609 503.742 49.1172C503.43 49.7682 502.987 50.2708 502.414 50.625C501.841 50.9792 501.188 51.1562 500.453 51.1562C499.333 51.1562 498.422 50.763 497.719 49.9766C497.021 49.1849 496.672 48.138 496.672 46.8359V46.6484ZM497.609 46.9062C497.609 47.9167 497.87 48.7474 498.391 49.3984C498.917 50.0443 499.604 50.3672 500.453 50.3672C501.297 50.3672 501.979 50.0443 502.5 49.3984C503.026 48.7474 503.289 47.8906 503.289 46.8281V46.6484C503.289 46.0026 503.169 45.4115 502.93 44.875C502.69 44.3385 502.354 43.9245 501.922 43.6328C501.49 43.3359 500.995 43.1875 500.438 43.1875C499.604 43.1875 498.924 43.5156 498.398 44.1719C497.872 44.8229 497.609 45.6771 497.609 46.7344V46.9062ZM505.781 46.6953C505.781 45.3828 506.073 44.3385 506.656 43.5625C507.245 42.7812 508.042 42.3906 509.047 42.3906C510.188 42.3906 511.057 42.8411 511.656 43.7422V39H512.586V51H511.711L511.672 49.875C511.073 50.7292 510.193 51.1562 509.031 51.1562C508.057 51.1562 507.271 50.7656 506.672 49.9844C506.078 49.1979 505.781 48.138 505.781 46.8047V46.6953ZM506.727 46.8594C506.727 47.9375 506.943 48.7891 507.375 49.4141C507.807 50.0339 508.417 50.3438 509.203 50.3438C510.354 50.3438 511.172 49.8359 511.656 48.8203V44.8516C511.172 43.7526 510.359 43.2031 509.219 43.2031C508.432 43.2031 507.82 43.513 507.383 44.1328C506.945 44.7474 506.727 45.6562 506.727 46.8594ZM518.32 51.1562C517.602 51.1562 516.951 50.9792 516.367 50.625C515.789 50.2708 515.339 49.7786 515.016 49.1484C514.693 48.513 514.531 47.8021 514.531 47.0156V46.6797C514.531 45.8672 514.688 45.1354 515 44.4844C515.318 43.8333 515.758 43.3229 516.32 42.9531C516.883 42.5781 517.492 42.3906 518.148 42.3906C519.174 42.3906 519.987 42.7422 520.586 43.4453C521.19 44.1432 521.492 45.099 521.492 46.3125V46.8359H515.461V47.0156C515.461 47.974 515.734 48.7734 516.281 49.4141C516.833 50.0495 517.526 50.3672 518.359 50.3672C518.859 50.3672 519.299 50.276 519.68 50.0938C520.065 49.9115 520.414 49.6198 520.727 49.2188L521.312 49.6641C520.625 50.6589 519.628 51.1562 518.32 51.1562ZM518.148 43.1875C517.445 43.1875 516.852 43.4453 516.367 43.9609C515.888 44.4766 515.596 45.1693 515.492 46.0391H520.562V45.9375C520.536 45.125 520.305 44.4635 519.867 43.9531C519.43 43.4427 518.857 43.1875 518.148 43.1875ZM528.375 48.8516C528.375 48.388 528.188 48.0156 527.812 47.7344C527.443 47.4531 526.883 47.2344 526.133 47.0781C525.383 46.9167 524.799 46.7344 524.383 46.5312C523.971 46.3229 523.664 46.0703 523.461 45.7734C523.263 45.4766 523.164 45.1172 523.164 44.6953C523.164 44.0286 523.443 43.4792 524 43.0469C524.557 42.6094 525.271 42.3906 526.141 42.3906C527.083 42.3906 527.839 42.625 528.406 43.0938C528.979 43.5573 529.266 44.1641 529.266 44.9141H528.328C528.328 44.4193 528.12 44.0078 527.703 43.6797C527.292 43.3516 526.771 43.1875 526.141 43.1875C525.526 43.1875 525.031 43.3255 524.656 43.6016C524.286 43.8724 524.102 44.2266 524.102 44.6641C524.102 45.0859 524.255 45.4141 524.562 45.6484C524.875 45.8776 525.44 46.0885 526.258 46.2812C527.081 46.474 527.695 46.6797 528.102 46.8984C528.513 47.1172 528.818 47.3802 529.016 47.6875C529.214 47.9948 529.312 48.3672 529.312 48.8047C529.312 49.5182 529.023 50.0885 528.445 50.5156C527.872 50.9427 527.122 51.1562 526.195 51.1562C525.211 51.1562 524.411 50.9193 523.797 50.4453C523.188 49.9661 522.883 49.362 522.883 48.6328H523.82C523.857 49.1797 524.086 49.6068 524.508 49.9141C524.935 50.2161 525.497 50.3672 526.195 50.3672C526.846 50.3672 527.372 50.224 527.773 49.9375C528.174 49.651 528.375 49.2891 528.375 48.8516Z" fill="#424242"/>
<circle cx="381" cy="75" r="6" fill="#1A83C2" fill-opacity="0.8"/>
<circle cx="381" cy="46" r="6" fill="#DFDFDF" fill-opacity="0.9"/>
<circle cx="345.5" cy="239.5" r="2" fill="#BDBDBD" stroke="#BDBDBD"/>
<circle cx="509.5" cy="181.5" r="2" fill="#BDBDBD" stroke="#BDBDBD"/>
<circle cx="509.5" cy="238.5" r="2" fill="#BDBDBD" stroke="#BDBDBD"/>
<circle cx="216.5" cy="327.5" r="2" fill="#BDBDBD" stroke="#BDBDBD"/>
<circle cx="345.5" cy="302.5" r="2" fill="#BDBDBD" stroke="#BDBDBD"/>
<circle cx="216.5" cy="315.5" r="2" fill="#BDBDBD" stroke="#BDBDBD"/>
</svg>
