<svg width="618" height="467" viewBox="0 0 618 467" fill="none" xmlns="http://www.w3.org/2000/svg">
<rect width="618" height="467" rx="10" fill="white"/>
<path d="M456.539 69.9297L456.891 71.6953L457.32 70.0078L459.789 61.625H460.656L463.094 70.0078L463.516 71.7109L463.891 69.9297L465.945 61.625H466.93L464.016 73H463.094L460.516 64.1016L460.227 62.9766L459.945 64.1016L457.305 73H456.383L453.477 61.625H454.461L456.539 69.9297ZM469.609 73H468.672V64.5469H469.609V73ZM468.508 62.1016C468.508 61.9245 468.565 61.776 468.68 61.6562C468.794 61.5312 468.951 61.4688 469.148 61.4688C469.346 61.4688 469.503 61.5312 469.617 61.6562C469.737 61.776 469.797 61.9245 469.797 62.1016C469.797 62.2786 469.737 62.4271 469.617 62.5469C469.503 62.6667 469.346 62.7266 469.148 62.7266C468.951 62.7266 468.794 62.6667 468.68 62.5469C468.565 62.4271 468.508 62.2786 468.508 62.1016ZM473.609 62.3828V64.5469H475.359V65.3125H473.609V70.9453C473.609 71.4141 473.693 71.763 473.859 71.9922C474.031 72.2214 474.315 72.3359 474.711 72.3359C474.867 72.3359 475.12 72.3099 475.469 72.2578L475.508 73.0234C475.263 73.112 474.93 73.1562 474.508 73.1562C473.867 73.1562 473.401 72.9714 473.109 72.6016C472.818 72.2266 472.672 71.6771 472.672 70.9531V65.3125H471.117V64.5469H472.672V62.3828H473.609ZM478.227 65.9766C478.534 65.4714 478.927 65.0807 479.406 64.8047C479.885 64.5286 480.409 64.3906 480.977 64.3906C481.883 64.3906 482.557 64.6458 483 65.1562C483.443 65.6667 483.667 66.4323 483.672 67.4531V73H482.742V67.4453C482.737 66.6901 482.576 66.1276 482.258 65.7578C481.945 65.388 481.443 65.2031 480.75 65.2031C480.172 65.2031 479.659 65.3854 479.211 65.75C478.768 66.1094 478.44 66.5964 478.227 67.2109V73H477.297V61H478.227V65.9766ZM490.188 73V61.625H493.547C494.766 61.625 495.69 61.8776 496.32 62.3828C496.951 62.8828 497.266 63.6224 497.266 64.6016C497.266 65.1901 497.104 65.7031 496.781 66.1406C496.464 66.5729 496.026 66.8828 495.469 67.0703C496.13 67.2161 496.661 67.5417 497.062 68.0469C497.469 68.5521 497.672 69.1354 497.672 69.7969C497.672 70.8021 497.346 71.5885 496.695 72.1562C496.049 72.7188 495.148 73 493.992 73H490.188ZM491.148 67.5312V72.1875H494.031C494.854 72.1875 495.505 71.9792 495.984 71.5625C496.469 71.1406 496.711 70.5573 496.711 69.8125C496.711 69.1094 496.479 68.5547 496.016 68.1484C495.557 67.737 494.922 67.5312 494.109 67.5312H491.148ZM491.148 66.7266H493.773C494.576 66.7109 495.195 66.5234 495.633 66.1641C496.076 65.7995 496.297 65.2708 496.297 64.5781C496.297 63.849 496.068 63.3125 495.609 62.9688C495.156 62.6198 494.469 62.4453 493.547 62.4453H491.148V66.7266ZM501.172 73H500.211V61.625H501.172V73ZM505.539 61.625L509.734 71.6641L513.945 61.625H515.227V73H514.266V68.0469L514.344 62.9688L510.109 73H509.367L505.148 63.0078L505.227 68.0156V73H504.266V61.625H505.539ZM526.164 69.4531C526.034 70.651 525.604 71.5677 524.875 72.2031C524.151 72.8385 523.185 73.1562 521.977 73.1562C521.133 73.1562 520.385 72.9453 519.734 72.5234C519.089 72.1016 518.589 71.5052 518.234 70.7344C517.88 69.9583 517.701 69.0729 517.695 68.0781V66.6016C517.695 65.5911 517.872 64.6953 518.227 63.9141C518.581 63.1328 519.089 62.5312 519.75 62.1094C520.417 61.6823 521.182 61.4688 522.047 61.4688C523.266 61.4688 524.227 61.7995 524.93 62.4609C525.638 63.1172 526.049 64.026 526.164 65.1875H525.195C524.956 63.2552 523.906 62.2891 522.047 62.2891C521.016 62.2891 520.193 62.6745 519.578 63.4453C518.969 64.2161 518.664 65.2812 518.664 66.6406V68.0312C518.664 69.3438 518.961 70.3906 519.555 71.1719C520.154 71.9531 520.961 72.3438 521.977 72.3438C522.982 72.3438 523.74 72.1042 524.25 71.625C524.76 71.1406 525.076 70.4167 525.195 69.4531H526.164ZM527.766 68.6484C527.766 67.8359 527.922 67.1042 528.234 66.4531C528.552 65.8021 528.997 65.2969 529.57 64.9375C530.148 64.5729 530.802 64.3906 531.531 64.3906C532.656 64.3906 533.568 64.7865 534.266 65.5781C534.964 66.3646 535.312 67.4089 535.312 68.7109V68.9062C535.312 69.724 535.154 70.4609 534.836 71.1172C534.523 71.7682 534.081 72.2708 533.508 72.625C532.935 72.9792 532.281 73.1562 531.547 73.1562C530.427 73.1562 529.516 72.763 528.812 71.9766C528.115 71.1849 527.766 70.138 527.766 68.8359V68.6484ZM528.703 68.9062C528.703 69.9167 528.964 70.7474 529.484 71.3984C530.01 72.0443 530.698 72.3672 531.547 72.3672C532.391 72.3672 533.073 72.0443 533.594 71.3984C534.12 70.7474 534.383 69.8906 534.383 68.8281V68.6484C534.383 68.0026 534.263 67.4115 534.023 66.875C533.784 66.3385 533.448 65.9245 533.016 65.6328C532.583 65.3359 532.089 65.1875 531.531 65.1875C530.698 65.1875 530.018 65.5156 529.492 66.1719C528.966 66.8229 528.703 67.6771 528.703 68.7344V68.9062ZM536.875 68.6953C536.875 67.3828 537.167 66.3385 537.75 65.5625C538.339 64.7812 539.135 64.3906 540.141 64.3906C541.281 64.3906 542.151 64.8411 542.75 65.7422V61H543.68V73H542.805L542.766 71.875C542.167 72.7292 541.286 73.1562 540.125 73.1562C539.151 73.1562 538.365 72.7656 537.766 71.9844C537.172 71.1979 536.875 70.138 536.875 68.8047V68.6953ZM537.82 68.8594C537.82 69.9375 538.036 70.7891 538.469 71.4141C538.901 72.0339 539.51 72.3438 540.297 72.3438C541.448 72.3438 542.266 71.8359 542.75 70.8203V66.8516C542.266 65.7526 541.453 65.2031 540.312 65.2031C539.526 65.2031 538.914 65.513 538.477 66.1328C538.039 66.7474 537.82 67.6562 537.82 68.8594ZM549.414 73.1562C548.695 73.1562 548.044 72.9792 547.461 72.625C546.883 72.2708 546.432 71.7786 546.109 71.1484C545.786 70.513 545.625 69.8021 545.625 69.0156V68.6797C545.625 67.8672 545.781 67.1354 546.094 66.4844C546.411 65.8333 546.852 65.3229 547.414 64.9531C547.977 64.5781 548.586 64.3906 549.242 64.3906C550.268 64.3906 551.081 64.7422 551.68 65.4453C552.284 66.1432 552.586 67.099 552.586 68.3125V68.8359H546.555V69.0156C546.555 69.974 546.828 70.7734 547.375 71.4141C547.927 72.0495 548.62 72.3672 549.453 72.3672C549.953 72.3672 550.393 72.276 550.773 72.0938C551.159 71.9115 551.508 71.6198 551.82 71.2188L552.406 71.6641C551.719 72.6589 550.721 73.1562 549.414 73.1562ZM549.242 65.1875C548.539 65.1875 547.945 65.4453 547.461 65.9609C546.982 66.4766 546.69 67.1693 546.586 68.0391H551.656V67.9375C551.63 67.125 551.398 66.4635 550.961 65.9531C550.523 65.4427 549.951 65.1875 549.242 65.1875ZM559.469 70.8516C559.469 70.388 559.281 70.0156 558.906 69.7344C558.536 69.4531 557.977 69.2344 557.227 69.0781C556.477 68.9167 555.893 68.7344 555.477 68.5312C555.065 68.3229 554.758 68.0703 554.555 67.7734C554.357 67.4766 554.258 67.1172 554.258 66.6953C554.258 66.0286 554.536 65.4792 555.094 65.0469C555.651 64.6094 556.365 64.3906 557.234 64.3906C558.177 64.3906 558.932 64.625 559.5 65.0938C560.073 65.5573 560.359 66.1641 560.359 66.9141H559.422C559.422 66.4193 559.214 66.0078 558.797 65.6797C558.385 65.3516 557.865 65.1875 557.234 65.1875C556.62 65.1875 556.125 65.3255 555.75 65.6016C555.38 65.8724 555.195 66.2266 555.195 66.6641C555.195 67.0859 555.349 67.4141 555.656 67.6484C555.969 67.8776 556.534 68.0885 557.352 68.2812C558.174 68.474 558.789 68.6797 559.195 68.8984C559.607 69.1172 559.911 69.3802 560.109 69.6875C560.307 69.9948 560.406 70.3672 560.406 70.8047C560.406 71.5182 560.117 72.0885 559.539 72.5156C558.966 72.9427 558.216 73.1562 557.289 73.1562C556.305 73.1562 555.505 72.9193 554.891 72.4453C554.281 71.9661 553.977 71.362 553.977 70.6328H554.914C554.951 71.1797 555.18 71.6068 555.602 71.9141C556.029 72.2161 556.591 72.3672 557.289 72.3672C557.94 72.3672 558.466 72.224 558.867 71.9375C559.268 71.651 559.469 71.2891 559.469 70.8516Z" fill="#424242"/>
<path d="M456.539 40.9297L456.891 42.6953L457.32 41.0078L459.789 32.625H460.656L463.094 41.0078L463.516 42.7109L463.891 40.9297L465.945 32.625H466.93L464.016 44H463.094L460.516 35.1016L460.227 33.9766L459.945 35.1016L457.305 44H456.383L453.477 32.625H454.461L456.539 40.9297ZM469.609 44H468.672V35.5469H469.609V44ZM468.508 33.1016C468.508 32.9245 468.565 32.776 468.68 32.6562C468.794 32.5312 468.951 32.4688 469.148 32.4688C469.346 32.4688 469.503 32.5312 469.617 32.6562C469.737 32.776 469.797 32.9245 469.797 33.1016C469.797 33.2786 469.737 33.4271 469.617 33.5469C469.503 33.6667 469.346 33.7266 469.148 33.7266C468.951 33.7266 468.794 33.6667 468.68 33.5469C468.565 33.4271 468.508 33.2786 468.508 33.1016ZM473.609 33.3828V35.5469H475.359V36.3125H473.609V41.9453C473.609 42.4141 473.693 42.763 473.859 42.9922C474.031 43.2214 474.315 43.3359 474.711 43.3359C474.867 43.3359 475.12 43.3099 475.469 43.2578L475.508 44.0234C475.263 44.112 474.93 44.1562 474.508 44.1562C473.867 44.1562 473.401 43.9714 473.109 43.6016C472.818 43.2266 472.672 42.6771 472.672 41.9531V36.3125H471.117V35.5469H472.672V33.3828H473.609ZM478.227 36.9766C478.534 36.4714 478.927 36.0807 479.406 35.8047C479.885 35.5286 480.409 35.3906 480.977 35.3906C481.883 35.3906 482.557 35.6458 483 36.1562C483.443 36.6667 483.667 37.4323 483.672 38.4531V44H482.742V38.4453C482.737 37.6901 482.576 37.1276 482.258 36.7578C481.945 36.388 481.443 36.2031 480.75 36.2031C480.172 36.2031 479.659 36.3854 479.211 36.75C478.768 37.1094 478.44 37.5964 478.227 38.2109V44H477.297V32H478.227V36.9766ZM485.562 39.6484C485.562 38.8359 485.719 38.1042 486.031 37.4531C486.349 36.8021 486.794 36.2969 487.367 35.9375C487.945 35.5729 488.599 35.3906 489.328 35.3906C490.453 35.3906 491.365 35.7865 492.062 36.5781C492.76 37.3646 493.109 38.4089 493.109 39.7109V39.9062C493.109 40.724 492.951 41.4609 492.633 42.1172C492.32 42.7682 491.878 43.2708 491.305 43.625C490.732 43.9792 490.078 44.1562 489.344 44.1562C488.224 44.1562 487.312 43.763 486.609 42.9766C485.911 42.1849 485.562 41.138 485.562 39.8359V39.6484ZM486.5 39.9062C486.5 40.9167 486.76 41.7474 487.281 42.3984C487.807 43.0443 488.495 43.3672 489.344 43.3672C490.188 43.3672 490.87 43.0443 491.391 42.3984C491.917 41.7474 492.18 40.8906 492.18 39.8281V39.6484C492.18 39.0026 492.06 38.4115 491.82 37.875C491.581 37.3385 491.245 36.9245 490.812 36.6328C490.38 36.3359 489.885 36.1875 489.328 36.1875C488.495 36.1875 487.815 36.5156 487.289 37.1719C486.763 37.8229 486.5 38.6771 486.5 39.7344V39.9062ZM500.484 42.9297C499.922 43.7474 499.023 44.1562 497.789 44.1562C496.888 44.1562 496.203 43.8958 495.734 43.375C495.266 42.849 495.026 42.0729 495.016 41.0469V35.5469H495.945V40.9297C495.945 42.5391 496.596 43.3438 497.898 43.3438C499.253 43.3438 500.109 42.7839 500.469 41.6641V35.5469H501.406V44H500.5L500.484 42.9297ZM505.297 33.3828V35.5469H507.047V36.3125H505.297V41.9453C505.297 42.4141 505.38 42.763 505.547 42.9922C505.719 43.2214 506.003 43.3359 506.398 43.3359C506.555 43.3359 506.807 43.3099 507.156 43.2578L507.195 44.0234C506.951 44.112 506.617 44.1562 506.195 44.1562C505.555 44.1562 505.089 43.9714 504.797 43.6016C504.505 43.2266 504.359 42.6771 504.359 41.9531V36.3125H502.805V35.5469H504.359V33.3828H505.297ZM513.094 44V32.625H516.453C517.672 32.625 518.596 32.8776 519.227 33.3828C519.857 33.8828 520.172 34.6224 520.172 35.6016C520.172 36.1901 520.01 36.7031 519.688 37.1406C519.37 37.5729 518.932 37.8828 518.375 38.0703C519.036 38.2161 519.568 38.5417 519.969 39.0469C520.375 39.5521 520.578 40.1354 520.578 40.7969C520.578 41.8021 520.253 42.5885 519.602 43.1562C518.956 43.7188 518.055 44 516.898 44H513.094ZM514.055 38.5312V43.1875H516.938C517.76 43.1875 518.411 42.9792 518.891 42.5625C519.375 42.1406 519.617 41.5573 519.617 40.8125C519.617 40.1094 519.385 39.5547 518.922 39.1484C518.464 38.737 517.828 38.5312 517.016 38.5312H514.055ZM514.055 37.7266H516.68C517.482 37.7109 518.102 37.5234 518.539 37.1641C518.982 36.7995 519.203 36.2708 519.203 35.5781C519.203 34.849 518.974 34.3125 518.516 33.9688C518.062 33.6198 517.375 33.4453 516.453 33.4453H514.055V37.7266ZM524.078 44H523.117V32.625H524.078V44ZM528.445 32.625L532.641 42.6641L536.852 32.625H538.133V44H537.172V39.0469L537.25 33.9688L533.016 44H532.273L528.055 34.0078L528.133 39.0156V44H527.172V32.625H528.445ZM549.07 40.4531C548.94 41.651 548.51 42.5677 547.781 43.2031C547.057 43.8385 546.091 44.1562 544.883 44.1562C544.039 44.1562 543.292 43.9453 542.641 43.5234C541.995 43.1016 541.495 42.5052 541.141 41.7344C540.786 40.9583 540.607 40.0729 540.602 39.0781V37.6016C540.602 36.5911 540.779 35.6953 541.133 34.9141C541.487 34.1328 541.995 33.5312 542.656 33.1094C543.323 32.6823 544.089 32.4688 544.953 32.4688C546.172 32.4688 547.133 32.7995 547.836 33.4609C548.544 34.1172 548.956 35.026 549.07 36.1875H548.102C547.862 34.2552 546.812 33.2891 544.953 33.2891C543.922 33.2891 543.099 33.6745 542.484 34.4453C541.875 35.2161 541.57 36.2812 541.57 37.6406V39.0312C541.57 40.3438 541.867 41.3906 542.461 42.1719C543.06 42.9531 543.867 43.3438 544.883 43.3438C545.888 43.3438 546.646 43.1042 547.156 42.625C547.667 42.1406 547.982 41.4167 548.102 40.4531H549.07ZM550.672 39.6484C550.672 38.8359 550.828 38.1042 551.141 37.4531C551.458 36.8021 551.904 36.2969 552.477 35.9375C553.055 35.5729 553.708 35.3906 554.438 35.3906C555.562 35.3906 556.474 35.7865 557.172 36.5781C557.87 37.3646 558.219 38.4089 558.219 39.7109V39.9062C558.219 40.724 558.06 41.4609 557.742 42.1172C557.43 42.7682 556.987 43.2708 556.414 43.625C555.841 43.9792 555.188 44.1562 554.453 44.1562C553.333 44.1562 552.422 43.763 551.719 42.9766C551.021 42.1849 550.672 41.138 550.672 39.8359V39.6484ZM551.609 39.9062C551.609 40.9167 551.87 41.7474 552.391 42.3984C552.917 43.0443 553.604 43.3672 554.453 43.3672C555.297 43.3672 555.979 43.0443 556.5 42.3984C557.026 41.7474 557.289 40.8906 557.289 39.8281V39.6484C557.289 39.0026 557.169 38.4115 556.93 37.875C556.69 37.3385 556.354 36.9245 555.922 36.6328C555.49 36.3359 554.995 36.1875 554.438 36.1875C553.604 36.1875 552.924 36.5156 552.398 37.1719C551.872 37.8229 551.609 38.6771 551.609 39.7344V39.9062ZM559.781 39.6953C559.781 38.3828 560.073 37.3385 560.656 36.5625C561.245 35.7812 562.042 35.3906 563.047 35.3906C564.188 35.3906 565.057 35.8411 565.656 36.7422V32H566.586V44H565.711L565.672 42.875C565.073 43.7292 564.193 44.1562 563.031 44.1562C562.057 44.1562 561.271 43.7656 560.672 42.9844C560.078 42.1979 559.781 41.138 559.781 39.8047V39.6953ZM560.727 39.8594C560.727 40.9375 560.943 41.7891 561.375 42.4141C561.807 43.0339 562.417 43.3438 563.203 43.3438C564.354 43.3438 565.172 42.8359 565.656 41.8203V37.8516C565.172 36.7526 564.359 36.2031 563.219 36.2031C562.432 36.2031 561.82 36.513 561.383 37.1328C560.945 37.7474 560.727 38.6562 560.727 39.8594ZM572.32 44.1562C571.602 44.1562 570.951 43.9792 570.367 43.625C569.789 43.2708 569.339 42.7786 569.016 42.1484C568.693 41.513 568.531 40.8021 568.531 40.0156V39.6797C568.531 38.8672 568.688 38.1354 569 37.4844C569.318 36.8333 569.758 36.3229 570.32 35.9531C570.883 35.5781 571.492 35.3906 572.148 35.3906C573.174 35.3906 573.987 35.7422 574.586 36.4453C575.19 37.1432 575.492 38.099 575.492 39.3125V39.8359H569.461V40.0156C569.461 40.974 569.734 41.7734 570.281 42.4141C570.833 43.0495 571.526 43.3672 572.359 43.3672C572.859 43.3672 573.299 43.276 573.68 43.0938C574.065 42.9115 574.414 42.6198 574.727 42.2188L575.312 42.6641C574.625 43.6589 573.628 44.1562 572.32 44.1562ZM572.148 36.1875C571.445 36.1875 570.852 36.4453 570.367 36.9609C569.888 37.4766 569.596 38.1693 569.492 39.0391H574.562V38.9375C574.536 38.125 574.305 37.4635 573.867 36.9531C573.43 36.4427 572.857 36.1875 572.148 36.1875ZM582.375 41.8516C582.375 41.388 582.188 41.0156 581.812 40.7344C581.443 40.4531 580.883 40.2344 580.133 40.0781C579.383 39.9167 578.799 39.7344 578.383 39.5312C577.971 39.3229 577.664 39.0703 577.461 38.7734C577.263 38.4766 577.164 38.1172 577.164 37.6953C577.164 37.0286 577.443 36.4792 578 36.0469C578.557 35.6094 579.271 35.3906 580.141 35.3906C581.083 35.3906 581.839 35.625 582.406 36.0938C582.979 36.5573 583.266 37.1641 583.266 37.9141H582.328C582.328 37.4193 582.12 37.0078 581.703 36.6797C581.292 36.3516 580.771 36.1875 580.141 36.1875C579.526 36.1875 579.031 36.3255 578.656 36.6016C578.286 36.8724 578.102 37.2266 578.102 37.6641C578.102 38.0859 578.255 38.4141 578.562 38.6484C578.875 38.8776 579.44 39.0885 580.258 39.2812C581.081 39.474 581.695 39.6797 582.102 39.8984C582.513 40.1172 582.818 40.3802 583.016 40.6875C583.214 40.9948 583.312 41.3672 583.312 41.8047C583.312 42.5182 583.023 43.0885 582.445 43.5156C581.872 43.9427 581.122 44.1562 580.195 44.1562C579.211 44.1562 578.411 43.9193 577.797 43.4453C577.188 42.9661 576.883 42.362 576.883 41.6328H577.82C577.857 42.1797 578.086 42.6068 578.508 42.9141C578.935 43.2161 579.497 43.3672 580.195 43.3672C580.846 43.3672 581.372 43.224 581.773 42.9375C582.174 42.651 582.375 42.2891 582.375 41.8516Z" fill="#424242"/>
<circle cx="435" cy="68" r="6" fill="#1A83C2" fill-opacity="0.8"/>
<circle cx="435" cy="39" r="6" fill="#DFDFDF" fill-opacity="0.9"/>
<path d="M57.6113 56V34.6719H65.2725C68.0166 34.6719 70.1016 35.1748 71.5273 36.1807C72.9629 37.1865 73.6807 38.6465 73.6807 40.5605C73.6807 41.6641 73.4268 42.6064 72.9189 43.3877C72.4111 44.1689 71.6641 44.7451 70.6777 45.1162C71.791 45.4092 72.6455 45.9561 73.2412 46.7568C73.8369 47.5576 74.1348 48.5342 74.1348 49.6865C74.1348 51.7764 73.4707 53.3486 72.1426 54.4033C70.8242 55.4482 68.8662 55.9805 66.2686 56H57.6113ZM62.7529 46.9326V52.0449H66.1221C67.0498 52.0449 67.7627 51.835 68.2607 51.415C68.7588 50.9854 69.0078 50.3848 69.0078 49.6133C69.0078 47.8359 68.124 46.9424 66.3564 46.9326H62.7529ZM62.7529 43.5635H65.4336C66.5566 43.5537 67.3574 43.3486 67.8359 42.9482C68.3145 42.5479 68.5537 41.957 68.5537 41.1758C68.5537 40.2773 68.2949 39.6328 67.7773 39.2422C67.2598 38.8418 66.4248 38.6416 65.2725 38.6416H62.7529V43.5635ZM86.1904 54.2861C85.1455 55.624 83.7344 56.293 81.957 56.293C80.2188 56.293 78.9004 55.79 78.002 54.7842C77.1133 53.7686 76.6689 52.3135 76.6689 50.4189V40.1504H81.6055V50.4482C81.6055 51.8057 82.2646 52.4844 83.583 52.4844C84.7158 52.4844 85.5215 52.0791 86 51.2686V40.1504H90.9658V56H86.3369L86.1904 54.2861ZM98.8906 56H93.9395V40.1504H98.8906V56ZM93.6465 36.0635C93.6465 35.3604 93.9004 34.7842 94.4082 34.335C94.916 33.8857 95.5752 33.6611 96.3857 33.6611C97.1963 33.6611 97.8555 33.8857 98.3633 34.335C98.8711 34.7842 99.125 35.3604 99.125 36.0635C99.125 36.7666 98.8711 37.3428 98.3633 37.792C97.8555 38.2412 97.1963 38.4658 96.3857 38.4658C95.5752 38.4658 94.916 38.2412 94.4082 37.792C93.9004 37.3428 93.6465 36.7666 93.6465 36.0635ZM107.152 56H102.201V33.5H107.152V56ZM109.584 47.958C109.584 45.4482 110.126 43.4707 111.21 42.0254C112.294 40.5801 113.808 39.8574 115.751 39.8574C117.167 39.8574 118.358 40.4141 119.325 41.5273V33.5H124.276V56H119.838L119.589 54.3008C118.573 55.6289 117.284 56.293 115.722 56.293C113.837 56.293 112.343 55.5703 111.239 54.125C110.136 52.6797 109.584 50.624 109.584 47.958ZM114.521 48.2656C114.521 51.0781 115.341 52.4844 116.981 52.4844C118.075 52.4844 118.856 52.0254 119.325 51.1074V45.0723C118.876 44.1348 118.104 43.666 117.011 43.666C115.487 43.666 114.662 44.8965 114.535 47.3574L114.521 48.2656ZM132.289 56H127.338V40.1504H132.289V56ZM127.045 36.0635C127.045 35.3604 127.299 34.7842 127.807 34.335C128.314 33.8857 128.974 33.6611 129.784 33.6611C130.595 33.6611 131.254 33.8857 131.762 34.335C132.27 34.7842 132.523 35.3604 132.523 36.0635C132.523 36.7666 132.27 37.3428 131.762 37.792C131.254 38.2412 130.595 38.4658 129.784 38.4658C128.974 38.4658 128.314 38.2412 127.807 37.792C127.299 37.3428 127.045 36.7666 127.045 36.0635ZM139.877 40.1504L140.038 42.0107C141.132 40.5752 142.641 39.8574 144.564 39.8574C146.215 39.8574 147.445 40.3506 148.256 41.3369C149.076 42.3232 149.501 43.8076 149.53 45.79V56H144.579V45.9951C144.579 45.1943 144.418 44.6084 144.096 44.2373C143.773 43.8564 143.188 43.666 142.338 43.666C141.371 43.666 140.653 44.0469 140.185 44.8086V56H135.248V40.1504H139.877ZM151.698 47.958C151.698 46.3564 151.962 44.9404 152.489 43.71C153.017 42.4795 153.773 41.5322 154.76 40.8682C155.746 40.1943 156.894 39.8574 158.202 39.8574C159.853 39.8574 161.142 40.4141 162.069 41.5273L162.245 40.1504H166.728V55.3994C166.728 56.7959 166.4 58.0068 165.746 59.0322C165.102 60.0674 164.164 60.8584 162.934 61.4053C161.703 61.9619 160.277 62.2402 158.656 62.2402C157.494 62.2402 156.366 62.0205 155.272 61.5811C154.188 61.1416 153.358 60.5703 152.782 59.8672L154.848 56.9668C155.766 58.0508 156.977 58.5928 158.48 58.5928C160.668 58.5928 161.762 57.4697 161.762 55.2236V54.7256C160.814 55.7705 159.618 56.293 158.173 56.293C156.239 56.293 154.677 55.5557 153.485 54.0811C152.294 52.5967 151.698 50.6143 151.698 48.1338V47.958ZM156.649 48.2656C156.649 49.5645 156.894 50.5947 157.382 51.3564C157.87 52.1084 158.554 52.4844 159.433 52.4844C160.497 52.4844 161.273 52.1279 161.762 51.415V44.75C161.283 44.0273 160.517 43.666 159.462 43.666C158.583 43.666 157.895 44.0615 157.396 44.8525C156.898 45.6338 156.649 46.7715 156.649 48.2656ZM189.345 52.0156H182.299L181.068 56H175.575L183.397 34.6719H188.231L196.112 56H190.59L189.345 52.0156ZM183.529 48.0459H188.114L185.814 40.6484L183.529 48.0459ZM205.751 51.5469C205.751 51.127 205.531 50.79 205.092 50.5361C204.652 50.2822 203.817 50.0186 202.587 49.7451C201.356 49.4717 200.341 49.1152 199.54 48.6758C198.739 48.2266 198.129 47.6846 197.709 47.0498C197.289 46.415 197.079 45.6875 197.079 44.8672C197.079 43.4121 197.68 42.2158 198.881 41.2783C200.082 40.3311 201.654 39.8574 203.598 39.8574C205.688 39.8574 207.367 40.3311 208.637 41.2783C209.906 42.2256 210.541 43.4707 210.541 45.0137H205.59C205.59 43.7441 204.921 43.1094 203.583 43.1094C203.065 43.1094 202.631 43.2559 202.279 43.5488C201.928 43.832 201.752 44.1885 201.752 44.6182C201.752 45.0576 201.967 45.4141 202.396 45.6875C202.826 45.9609 203.51 46.1855 204.447 46.3613C205.395 46.5371 206.225 46.7471 206.938 46.9912C209.32 47.8115 210.512 49.2812 210.512 51.4004C210.512 52.8457 209.867 54.0225 208.578 54.9307C207.299 55.8389 205.639 56.293 203.598 56.293C202.24 56.293 201.029 56.0488 199.965 55.5605C198.9 55.0723 198.07 54.4082 197.475 53.5684C196.879 52.7285 196.581 51.8447 196.581 50.917H201.195C201.215 51.6494 201.459 52.1865 201.928 52.5283C202.396 52.8604 202.997 53.0264 203.729 53.0264C204.403 53.0264 204.906 52.8896 205.238 52.6162C205.58 52.3428 205.751 51.9863 205.751 51.5469ZM221.132 51.5469C221.132 51.127 220.912 50.79 220.473 50.5361C220.033 50.2822 219.198 50.0186 217.968 49.7451C216.737 49.4717 215.722 49.1152 214.921 48.6758C214.12 48.2266 213.51 47.6846 213.09 47.0498C212.67 46.415 212.46 45.6875 212.46 44.8672C212.46 43.4121 213.061 42.2158 214.262 41.2783C215.463 40.3311 217.035 39.8574 218.979 39.8574C221.068 39.8574 222.748 40.3311 224.018 41.2783C225.287 42.2256 225.922 43.4707 225.922 45.0137H220.971C220.971 43.7441 220.302 43.1094 218.964 43.1094C218.446 43.1094 218.012 43.2559 217.66 43.5488C217.309 43.832 217.133 44.1885 217.133 44.6182C217.133 45.0576 217.348 45.4141 217.777 45.6875C218.207 45.9609 218.891 46.1855 219.828 46.3613C220.775 46.5371 221.605 46.7471 222.318 46.9912C224.701 47.8115 225.893 49.2812 225.893 51.4004C225.893 52.8457 225.248 54.0225 223.959 54.9307C222.68 55.8389 221.02 56.293 218.979 56.293C217.621 56.293 216.41 56.0488 215.346 55.5605C214.281 55.0723 213.451 54.4082 212.855 53.5684C212.26 52.7285 211.962 51.8447 211.962 50.917H216.576C216.596 51.6494 216.84 52.1865 217.309 52.5283C217.777 52.8604 218.378 53.0264 219.11 53.0264C219.784 53.0264 220.287 52.8896 220.619 52.6162C220.961 52.3428 221.132 51.9863 221.132 51.5469ZM235.883 56.293C233.451 56.293 231.483 55.5703 229.979 54.125C228.476 52.6699 227.724 50.7803 227.724 48.4561V48.0459C227.724 46.4248 228.021 44.9941 228.617 43.7539C229.223 42.5137 230.102 41.5566 231.254 40.8828C232.406 40.1992 233.773 39.8574 235.355 39.8574C237.582 39.8574 239.34 40.5508 240.629 41.9375C241.918 43.3145 242.562 45.2383 242.562 47.709V49.6279H232.748C232.924 50.5166 233.31 51.2148 233.905 51.7227C234.501 52.2305 235.272 52.4844 236.22 52.4844C237.782 52.4844 239.003 51.9375 239.882 50.8438L242.138 53.5098C241.522 54.3594 240.648 55.0381 239.516 55.5459C238.393 56.0439 237.182 56.293 235.883 56.293ZM235.326 43.666C233.881 43.666 233.021 44.623 232.748 46.5371H237.729V46.1562C237.748 45.3652 237.548 44.7549 237.128 44.3252C236.708 43.8857 236.107 43.666 235.326 43.666ZM252.86 51.5469C252.86 51.127 252.641 50.79 252.201 50.5361C251.762 50.2822 250.927 50.0186 249.696 49.7451C248.466 49.4717 247.45 49.1152 246.649 48.6758C245.849 48.2266 245.238 47.6846 244.818 47.0498C244.398 46.415 244.188 45.6875 244.188 44.8672C244.188 43.4121 244.789 42.2158 245.99 41.2783C247.191 40.3311 248.764 39.8574 250.707 39.8574C252.797 39.8574 254.477 40.3311 255.746 41.2783C257.016 42.2256 257.65 43.4707 257.65 45.0137H252.699C252.699 43.7441 252.03 43.1094 250.692 43.1094C250.175 43.1094 249.74 43.2559 249.389 43.5488C249.037 43.832 248.861 44.1885 248.861 44.6182C248.861 45.0576 249.076 45.4141 249.506 45.6875C249.936 45.9609 250.619 46.1855 251.557 46.3613C252.504 46.5371 253.334 46.7471 254.047 46.9912C256.43 47.8115 257.621 49.2812 257.621 51.4004C257.621 52.8457 256.977 54.0225 255.688 54.9307C254.408 55.8389 252.748 56.293 250.707 56.293C249.35 56.293 248.139 56.0488 247.074 55.5605C246.01 55.0723 245.18 54.4082 244.584 53.5684C243.988 52.7285 243.69 51.8447 243.69 50.917H248.305C248.324 51.6494 248.568 52.1865 249.037 52.5283C249.506 52.8604 250.106 53.0264 250.839 53.0264C251.513 53.0264 252.016 52.8896 252.348 52.6162C252.689 52.3428 252.86 51.9863 252.86 51.5469ZM268.241 51.5469C268.241 51.127 268.021 50.79 267.582 50.5361C267.143 50.2822 266.308 50.0186 265.077 49.7451C263.847 49.4717 262.831 49.1152 262.03 48.6758C261.229 48.2266 260.619 47.6846 260.199 47.0498C259.779 46.415 259.569 45.6875 259.569 44.8672C259.569 43.4121 260.17 42.2158 261.371 41.2783C262.572 40.3311 264.145 39.8574 266.088 39.8574C268.178 39.8574 269.857 40.3311 271.127 41.2783C272.396 42.2256 273.031 43.4707 273.031 45.0137H268.08C268.08 43.7441 267.411 43.1094 266.073 43.1094C265.556 43.1094 265.121 43.2559 264.77 43.5488C264.418 43.832 264.242 44.1885 264.242 44.6182C264.242 45.0576 264.457 45.4141 264.887 45.6875C265.316 45.9609 266 46.1855 266.938 46.3613C267.885 46.5371 268.715 46.7471 269.428 46.9912C271.811 47.8115 273.002 49.2812 273.002 51.4004C273.002 52.8457 272.357 54.0225 271.068 54.9307C269.789 55.8389 268.129 56.293 266.088 56.293C264.73 56.293 263.52 56.0488 262.455 55.5605C261.391 55.0723 260.561 54.4082 259.965 53.5684C259.369 52.7285 259.071 51.8447 259.071 50.917H263.686C263.705 51.6494 263.949 52.1865 264.418 52.5283C264.887 52.8604 265.487 53.0264 266.22 53.0264C266.894 53.0264 267.396 52.8896 267.729 52.6162C268.07 52.3428 268.241 51.9863 268.241 51.5469ZM279.989 40.1504L280.15 42.0107C281.273 40.5752 282.782 39.8574 284.677 39.8574C286.679 39.8574 288.031 40.6533 288.734 42.2451C289.809 40.6533 291.361 39.8574 293.393 39.8574C296.605 39.8574 298.256 41.8008 298.344 45.6875V56H293.393V45.9951C293.393 45.1846 293.256 44.5938 292.982 44.2227C292.709 43.8516 292.211 43.666 291.488 43.666C290.512 43.666 289.784 44.1006 289.306 44.9697L289.32 45.1748V56H284.369V46.0244C284.369 45.1943 284.237 44.5938 283.974 44.2227C283.71 43.8516 283.207 43.666 282.465 43.666C281.518 43.666 280.795 44.1006 280.297 44.9697V56H275.36V40.1504H279.989ZM308.832 56.293C306.4 56.293 304.433 55.5703 302.929 54.125C301.425 52.6699 300.673 50.7803 300.673 48.4561V48.0459C300.673 46.4248 300.971 44.9941 301.566 43.7539C302.172 42.5137 303.051 41.5566 304.203 40.8828C305.355 40.1992 306.723 39.8574 308.305 39.8574C310.531 39.8574 312.289 40.5508 313.578 41.9375C314.867 43.3145 315.512 45.2383 315.512 47.709V49.6279H305.697C305.873 50.5166 306.259 51.2148 306.854 51.7227C307.45 52.2305 308.222 52.4844 309.169 52.4844C310.731 52.4844 311.952 51.9375 312.831 50.8438L315.087 53.5098C314.472 54.3594 313.598 55.0381 312.465 55.5459C311.342 56.0439 310.131 56.293 308.832 56.293ZM308.275 43.666C306.83 43.666 305.971 44.623 305.697 46.5371H310.678V46.1562C310.697 45.3652 310.497 44.7549 310.077 44.3252C309.657 43.8857 309.057 43.666 308.275 43.666ZM322.045 40.1504L322.206 42.0107C323.3 40.5752 324.809 39.8574 326.732 39.8574C328.383 39.8574 329.613 40.3506 330.424 41.3369C331.244 42.3232 331.669 43.8076 331.698 45.79V56H326.747V45.9951C326.747 45.1943 326.586 44.6084 326.264 44.2373C325.941 43.8564 325.355 43.666 324.506 43.666C323.539 43.666 322.821 44.0469 322.353 44.8086V56H317.416V40.1504H322.045ZM340.194 36.21V40.1504H342.802V43.5781H340.194V50.8291C340.194 51.4248 340.302 51.8398 340.517 52.0742C340.731 52.3086 341.156 52.4258 341.791 52.4258C342.279 52.4258 342.689 52.3965 343.021 52.3379V55.8682C342.133 56.1514 341.205 56.293 340.238 56.293C338.539 56.293 337.284 55.8926 336.474 55.0918C335.663 54.291 335.258 53.0752 335.258 51.4443V43.5781H333.236V40.1504H335.258V36.21H340.194ZM62.7529 83.7637V91H57.6113V69.6719H66.1221C67.7529 69.6719 69.1934 69.9746 70.4434 70.5801C71.7031 71.1758 72.6748 72.0303 73.3584 73.1436C74.0518 74.2471 74.3984 75.502 74.3984 76.9082C74.3984 78.9883 73.6514 80.6533 72.1572 81.9033C70.6729 83.1436 68.6318 83.7637 66.0342 83.7637H62.7529ZM62.7529 79.7939H66.1221C67.1182 79.7939 67.875 79.5449 68.3926 79.0469C68.9199 78.5488 69.1836 77.8457 69.1836 76.9375C69.1836 75.9414 68.915 75.1455 68.3779 74.5498C67.8408 73.9541 67.1084 73.6514 66.1807 73.6416H62.7529V79.7939ZM86.5127 79.6182L84.8867 79.501C83.334 79.501 82.3379 79.9893 81.8984 80.9658V91H76.9619V75.1504H81.5908L81.752 77.1865C82.582 75.6338 83.7393 74.8574 85.2236 74.8574C85.751 74.8574 86.21 74.916 86.6006 75.0332L86.5127 79.6182ZM87.1426 82.9287C87.1426 81.3467 87.4502 79.9404 88.0654 78.71C88.6807 77.4697 89.5645 76.5176 90.7168 75.8535C91.8691 75.1895 93.2217 74.8574 94.7744 74.8574C97.1475 74.8574 99.0176 75.5947 100.385 77.0693C101.752 78.5342 102.436 80.5312 102.436 83.0605V83.2363C102.436 85.707 101.747 87.6699 100.37 89.125C99.0029 90.5703 97.1475 91.293 94.8037 91.293C92.5479 91.293 90.7363 90.6191 89.3691 89.2715C88.002 87.9141 87.2646 86.0781 87.1572 83.7637L87.1426 82.9287ZM92.0791 83.2363C92.0791 84.7012 92.3086 85.7754 92.7676 86.459C93.2266 87.1426 93.9053 87.4844 94.8037 87.4844C96.5615 87.4844 97.46 86.1318 97.499 83.4268V82.9287C97.499 80.0869 96.5908 78.666 94.7744 78.666C93.124 78.666 92.2305 79.8916 92.0938 82.3428L92.0791 83.2363ZM103.988 82.958C103.988 80.4482 104.53 78.4707 105.614 77.0254C106.698 75.5801 108.212 74.8574 110.155 74.8574C111.571 74.8574 112.763 75.4141 113.729 76.5273V68.5H118.681V91H114.242L113.993 89.3008C112.978 90.6289 111.688 91.293 110.126 91.293C108.241 91.293 106.747 90.5703 105.644 89.125C104.54 87.6797 103.988 85.624 103.988 82.958ZM108.925 83.2656C108.925 86.0781 109.745 87.4844 111.386 87.4844C112.479 87.4844 113.261 87.0254 113.729 86.1074V80.0723C113.28 79.1348 112.509 78.666 111.415 78.666C109.892 78.666 109.066 79.8965 108.939 82.3574L108.925 83.2656ZM130.927 89.2861C129.882 90.624 128.471 91.293 126.693 91.293C124.955 91.293 123.637 90.79 122.738 89.7842C121.85 88.7686 121.405 87.3135 121.405 85.4189V75.1504H126.342V85.4482C126.342 86.8057 127.001 87.4844 128.319 87.4844C129.452 87.4844 130.258 87.0791 130.736 86.2686V75.1504H135.702V91H131.073L130.927 89.2861ZM145.121 87.4844C145.814 87.4844 146.352 87.2988 146.732 86.9277C147.113 86.5469 147.299 86.0195 147.289 85.3457H151.918C151.918 87.084 151.293 88.5098 150.043 89.623C148.803 90.7363 147.201 91.293 145.238 91.293C142.934 91.293 141.117 90.5703 139.789 89.125C138.461 87.6797 137.797 85.6777 137.797 83.1191V82.9141C137.797 81.3125 138.09 79.9014 138.676 78.6807C139.271 77.4502 140.126 76.5078 141.239 75.8535C142.353 75.1895 143.671 74.8574 145.194 74.8574C147.255 74.8574 148.891 75.4287 150.102 76.5713C151.312 77.7139 151.918 79.2617 151.918 81.2148H147.289C147.289 80.3945 147.089 79.7646 146.688 79.3252C146.288 78.8857 145.751 78.666 145.077 78.666C143.798 78.666 143.051 79.4814 142.836 81.1123C142.768 81.6299 142.733 82.3428 142.733 83.251C142.733 84.8428 142.924 85.9463 143.305 86.5615C143.686 87.1768 144.291 87.4844 145.121 87.4844ZM159.755 71.21V75.1504H162.362V78.5781H159.755V85.8291C159.755 86.4248 159.862 86.8398 160.077 87.0742C160.292 87.3086 160.717 87.4258 161.352 87.4258C161.84 87.4258 162.25 87.3965 162.582 87.3379V90.8682C161.693 91.1514 160.766 91.293 159.799 91.293C158.1 91.293 156.845 90.8926 156.034 90.0918C155.224 89.291 154.818 88.0752 154.818 86.4443V78.5781H152.797V75.1504H154.818V71.21H159.755ZM169.525 91H164.574V75.1504H169.525V91ZM164.281 71.0635C164.281 70.3604 164.535 69.7842 165.043 69.335C165.551 68.8857 166.21 68.6611 167.021 68.6611C167.831 68.6611 168.49 68.8857 168.998 69.335C169.506 69.7842 169.76 70.3604 169.76 71.0635C169.76 71.7666 169.506 72.3428 168.998 72.792C168.49 73.2412 167.831 73.4658 167.021 73.4658C166.21 73.4658 165.551 73.2412 165.043 72.792C164.535 72.3428 164.281 71.7666 164.281 71.0635ZM178.9 85.126L181.405 75.1504H186.605L181.435 91H176.396L171.225 75.1504H176.439L178.9 85.126ZM193.285 91H188.334V75.1504H193.285V91ZM188.041 71.0635C188.041 70.3604 188.295 69.7842 188.803 69.335C189.311 68.8857 189.97 68.6611 190.78 68.6611C191.591 68.6611 192.25 68.8857 192.758 69.335C193.266 69.7842 193.52 70.3604 193.52 71.0635C193.52 71.7666 193.266 72.3428 192.758 72.792C192.25 73.2412 191.591 73.4658 190.78 73.4658C189.97 73.4658 189.311 73.2412 188.803 72.792C188.295 72.3428 188.041 71.7666 188.041 71.0635ZM202.089 71.21V75.1504H204.696V78.5781H202.089V85.8291C202.089 86.4248 202.196 86.8398 202.411 87.0742C202.626 87.3086 203.051 87.4258 203.686 87.4258C204.174 87.4258 204.584 87.3965 204.916 87.3379V90.8682C204.027 91.1514 203.1 91.293 202.133 91.293C200.434 91.293 199.179 90.8926 198.368 90.0918C197.558 89.291 197.152 88.0752 197.152 86.4443V78.5781H195.131V75.1504H197.152V71.21H202.089ZM212.987 84.0859L215.624 75.1504H220.912L214.452 93.6514L214.174 94.3252C213.256 96.376 211.635 97.4014 209.311 97.4014C208.666 97.4014 207.987 97.3037 207.274 97.1084V93.5781H207.919C208.612 93.5781 209.14 93.4756 209.501 93.2705C209.872 93.0752 210.146 92.7188 210.321 92.2012L210.717 91.1465L205.209 75.1504H210.482L212.987 84.0859Z" fill="#1A83C2"/>
<line x1="539" y1="352.5" x2="183" y2="352.5" stroke="#424242"/>
<line x1="539" y1="285.5" x2="183" y2="285.5" stroke="#424242"/>
<line x1="539" y1="227.5" x2="183" y2="227.5" stroke="#424242"/>
<line x1="539" y1="165.5" x2="183" y2="165.5" stroke="#424242"/>
<path d="M147.93 352.258C147.93 353.862 147.635 355.081 147.047 355.914C146.458 356.742 145.591 357.156 144.445 357.156C143.32 357.156 142.458 356.75 141.859 355.938C141.26 355.12 140.953 353.932 140.938 352.375V350.336C140.938 348.737 141.234 347.526 141.828 346.703C142.422 345.88 143.289 345.469 144.43 345.469C145.555 345.469 146.414 345.867 147.008 346.664C147.602 347.456 147.909 348.625 147.93 350.172V352.258ZM146.992 350.219C146.992 348.917 146.779 347.932 146.352 347.266C145.93 346.599 145.289 346.266 144.43 346.266C143.586 346.266 142.951 346.591 142.523 347.242C142.096 347.893 141.878 348.854 141.867 350.125V352.359C141.867 353.656 142.086 354.648 142.523 355.336C142.966 356.023 143.607 356.367 144.445 356.367C145.279 356.367 145.909 356.031 146.336 355.359C146.768 354.688 146.987 353.703 146.992 352.406V350.219Z" fill="#424242"/>
<path d="M141.703 284.172L142.258 278.625H147.945V279.492H143.062L142.664 283.336C143.273 282.919 143.987 282.711 144.805 282.711C145.831 282.711 146.648 283.044 147.258 283.711C147.867 284.378 148.172 285.266 148.172 286.375C148.172 287.573 147.875 288.503 147.281 289.164C146.688 289.826 145.852 290.156 144.773 290.156C143.784 290.156 142.982 289.88 142.367 289.328C141.753 288.776 141.401 288.003 141.312 287.008H142.211C142.299 287.784 142.562 288.372 143 288.773C143.438 289.169 144.029 289.367 144.773 289.367C145.586 289.367 146.198 289.109 146.609 288.594C147.026 288.078 147.234 287.344 147.234 286.391C147.234 285.557 147.003 284.878 146.539 284.352C146.076 283.826 145.443 283.562 144.641 283.562C144.198 283.562 143.812 283.62 143.484 283.734C143.156 283.844 142.81 284.06 142.445 284.383L141.703 284.172Z" fill="#424242"/>
<path d="M141.422 234H140.484V223.75L137.391 224.898V224.023L141.266 222.586H141.422V234ZM152.805 229.258C152.805 230.862 152.51 232.081 151.922 232.914C151.333 233.742 150.466 234.156 149.32 234.156C148.195 234.156 147.333 233.75 146.734 232.938C146.135 232.12 145.828 230.932 145.812 229.375V227.336C145.812 225.737 146.109 224.526 146.703 223.703C147.297 222.88 148.164 222.469 149.305 222.469C150.43 222.469 151.289 222.867 151.883 223.664C152.477 224.456 152.784 225.625 152.805 227.172V229.258ZM151.867 227.219C151.867 225.917 151.654 224.932 151.227 224.266C150.805 223.599 150.164 223.266 149.305 223.266C148.461 223.266 147.826 223.591 147.398 224.242C146.971 224.893 146.753 225.854 146.742 227.125V229.359C146.742 230.656 146.961 231.648 147.398 232.336C147.841 233.023 148.482 233.367 149.32 233.367C150.154 233.367 150.784 233.031 151.211 232.359C151.643 231.688 151.862 230.703 151.867 229.406V227.219Z" fill="#424242"/>
<path d="M141.422 172H140.484V161.75L137.391 162.898V162.023L141.266 160.586H141.422V172ZM146.578 166.172L147.133 160.625H152.82V161.492H147.938L147.539 165.336C148.148 164.919 148.862 164.711 149.68 164.711C150.706 164.711 151.523 165.044 152.133 165.711C152.742 166.378 153.047 167.266 153.047 168.375C153.047 169.573 152.75 170.503 152.156 171.164C151.562 171.826 150.727 172.156 149.648 172.156C148.659 172.156 147.857 171.88 147.242 171.328C146.628 170.776 146.276 170.003 146.188 169.008H147.086C147.174 169.784 147.438 170.372 147.875 170.773C148.312 171.169 148.904 171.367 149.648 171.367C150.461 171.367 151.073 171.109 151.484 170.594C151.901 170.078 152.109 169.344 152.109 168.391C152.109 167.557 151.878 166.878 151.414 166.352C150.951 165.826 150.318 165.562 149.516 165.562C149.073 165.562 148.688 165.62 148.359 165.734C148.031 165.844 147.685 166.06 147.32 166.383L146.578 166.172Z" fill="#424242"/>
<path d="M216.703 377.688H211.398V383H210.438V371.625H217.484V372.445H211.398V376.867H216.703V377.688ZM220.266 383H219.328V374.547H220.266V383ZM219.164 372.102C219.164 371.924 219.221 371.776 219.336 371.656C219.451 371.531 219.607 371.469 219.805 371.469C220.003 371.469 220.159 371.531 220.273 371.656C220.393 371.776 220.453 371.924 220.453 372.102C220.453 372.279 220.393 372.427 220.273 372.547C220.159 372.667 220.003 372.727 219.805 372.727C219.607 372.727 219.451 372.667 219.336 372.547C219.221 372.427 219.164 372.279 219.164 372.102ZM224.266 372.383V374.547H226.016V375.312H224.266V380.945C224.266 381.414 224.349 381.763 224.516 381.992C224.688 382.221 224.971 382.336 225.367 382.336C225.523 382.336 225.776 382.31 226.125 382.258L226.164 383.023C225.919 383.112 225.586 383.156 225.164 383.156C224.523 383.156 224.057 382.971 223.766 382.602C223.474 382.227 223.328 381.677 223.328 380.953V375.312H221.773V374.547H223.328V372.383H224.266ZM227.281 378.648C227.281 377.836 227.438 377.104 227.75 376.453C228.068 375.802 228.513 375.297 229.086 374.938C229.664 374.573 230.318 374.391 231.047 374.391C232.172 374.391 233.083 374.786 233.781 375.578C234.479 376.365 234.828 377.409 234.828 378.711V378.906C234.828 379.724 234.669 380.461 234.352 381.117C234.039 381.768 233.596 382.271 233.023 382.625C232.451 382.979 231.797 383.156 231.062 383.156C229.943 383.156 229.031 382.763 228.328 381.977C227.63 381.185 227.281 380.138 227.281 378.836V378.648ZM228.219 378.906C228.219 379.917 228.479 380.747 229 381.398C229.526 382.044 230.214 382.367 231.062 382.367C231.906 382.367 232.589 382.044 233.109 381.398C233.635 380.747 233.898 379.891 233.898 378.828V378.648C233.898 378.003 233.779 377.411 233.539 376.875C233.299 376.339 232.964 375.924 232.531 375.633C232.099 375.336 231.604 375.188 231.047 375.188C230.214 375.188 229.534 375.516 229.008 376.172C228.482 376.823 228.219 377.677 228.219 378.734V378.906ZM242.203 381.93C241.641 382.747 240.742 383.156 239.508 383.156C238.607 383.156 237.922 382.896 237.453 382.375C236.984 381.849 236.745 381.073 236.734 380.047V374.547H237.664V379.93C237.664 381.539 238.315 382.344 239.617 382.344C240.971 382.344 241.828 381.784 242.188 380.664V374.547H243.125V383H242.219L242.203 381.93ZM247.016 372.383V374.547H248.766V375.312H247.016V380.945C247.016 381.414 247.099 381.763 247.266 381.992C247.438 382.221 247.721 382.336 248.117 382.336C248.273 382.336 248.526 382.31 248.875 382.258L248.914 383.023C248.669 383.112 248.336 383.156 247.914 383.156C247.273 383.156 246.807 382.971 246.516 382.602C246.224 382.227 246.078 381.677 246.078 380.953V375.312H244.523V374.547H246.078V372.383H247.016Z" fill="#424242"/>
<path d="M299.711 371.625L303.906 381.664L308.117 371.625H309.398V383H308.438V378.047L308.516 372.969L304.281 383H303.539L299.32 373.008L299.398 378.016V383H298.438V371.625H299.711ZM313.109 383H312.172V374.547H313.109V383ZM312.008 372.102C312.008 371.924 312.065 371.776 312.18 371.656C312.294 371.531 312.451 371.469 312.648 371.469C312.846 371.469 313.003 371.531 313.117 371.656C313.237 371.776 313.297 371.924 313.297 372.102C313.297 372.279 313.237 372.427 313.117 372.547C313.003 372.667 312.846 372.727 312.648 372.727C312.451 372.727 312.294 372.667 312.18 372.547C312.065 372.427 312.008 372.279 312.008 372.102ZM315.281 378.695C315.281 377.383 315.573 376.339 316.156 375.562C316.745 374.781 317.542 374.391 318.547 374.391C319.688 374.391 320.557 374.841 321.156 375.742V371H322.086V383H321.211L321.172 381.875C320.573 382.729 319.693 383.156 318.531 383.156C317.557 383.156 316.771 382.766 316.172 381.984C315.578 381.198 315.281 380.138 315.281 378.805V378.695ZM316.227 378.859C316.227 379.938 316.443 380.789 316.875 381.414C317.307 382.034 317.917 382.344 318.703 382.344C319.854 382.344 320.672 381.836 321.156 380.82V376.852C320.672 375.753 319.859 375.203 318.719 375.203C317.932 375.203 317.32 375.513 316.883 376.133C316.445 376.747 316.227 377.656 316.227 378.859ZM335.094 380.203C335.094 379.573 334.872 379.076 334.43 378.711C333.987 378.341 333.177 377.992 332 377.664C330.823 377.331 329.964 376.969 329.422 376.578C328.651 376.026 328.266 375.302 328.266 374.406C328.266 373.536 328.622 372.831 329.336 372.289C330.055 371.742 330.971 371.469 332.086 371.469C332.841 371.469 333.516 371.615 334.109 371.906C334.708 372.198 335.172 372.604 335.5 373.125C335.828 373.646 335.992 374.227 335.992 374.867H335.023C335.023 374.091 334.758 373.469 334.227 373C333.695 372.526 332.982 372.289 332.086 372.289C331.216 372.289 330.523 372.484 330.008 372.875C329.492 373.26 329.234 373.766 329.234 374.391C329.234 374.969 329.466 375.44 329.93 375.805C330.393 376.169 331.135 376.492 332.156 376.773C333.177 377.049 333.951 377.339 334.477 377.641C335.003 377.938 335.398 378.294 335.664 378.711C335.93 379.128 336.062 379.62 336.062 380.188C336.062 381.083 335.703 381.802 334.984 382.344C334.271 382.885 333.328 383.156 332.156 383.156C331.354 383.156 330.617 383.013 329.945 382.727C329.279 382.44 328.771 382.039 328.422 381.523C328.078 381.008 327.906 380.417 327.906 379.75H328.867C328.867 380.552 329.167 381.185 329.766 381.648C330.365 382.112 331.161 382.344 332.156 382.344C333.042 382.344 333.753 382.148 334.289 381.758C334.826 381.367 335.094 380.849 335.094 380.203ZM338.969 383H338.031V374.547H338.969V383ZM337.867 372.102C337.867 371.924 337.924 371.776 338.039 371.656C338.154 371.531 338.31 371.469 338.508 371.469C338.706 371.469 338.862 371.531 338.977 371.656C339.096 371.776 339.156 371.924 339.156 372.102C339.156 372.279 339.096 372.427 338.977 372.547C338.862 372.667 338.706 372.727 338.508 372.727C338.31 372.727 338.154 372.667 338.039 372.547C337.924 372.427 337.867 372.279 337.867 372.102ZM342.133 382.211H347.625V383H340.977V382.312L346.102 375.352H341.133V374.547H347.281V375.242L342.133 382.211ZM352.445 383.156C351.727 383.156 351.076 382.979 350.492 382.625C349.914 382.271 349.464 381.779 349.141 381.148C348.818 380.513 348.656 379.802 348.656 379.016V378.68C348.656 377.867 348.812 377.135 349.125 376.484C349.443 375.833 349.883 375.323 350.445 374.953C351.008 374.578 351.617 374.391 352.273 374.391C353.299 374.391 354.112 374.742 354.711 375.445C355.315 376.143 355.617 377.099 355.617 378.312V378.836H349.586V379.016C349.586 379.974 349.859 380.773 350.406 381.414C350.958 382.049 351.651 382.367 352.484 382.367C352.984 382.367 353.424 382.276 353.805 382.094C354.19 381.911 354.539 381.62 354.852 381.219L355.438 381.664C354.75 382.659 353.753 383.156 352.445 383.156ZM352.273 375.188C351.57 375.188 350.977 375.445 350.492 375.961C350.013 376.477 349.721 377.169 349.617 378.039H354.688V377.938C354.661 377.125 354.43 376.464 353.992 375.953C353.555 375.443 352.982 375.188 352.273 375.188ZM362.508 378.367V383H361.547V371.625H365.422C366.604 371.625 367.536 371.927 368.219 372.531C368.906 373.135 369.25 373.966 369.25 375.023C369.25 376.091 368.919 376.917 368.258 377.5C367.602 378.078 366.648 378.367 365.398 378.367H362.508ZM362.508 377.555H365.422C366.354 377.555 367.065 377.333 367.555 376.891C368.044 376.448 368.289 375.831 368.289 375.039C368.289 374.253 368.044 373.628 367.555 373.164C367.07 372.695 366.38 372.456 365.484 372.445H362.508V377.555ZM375.094 375.344C374.896 375.307 374.685 375.289 374.461 375.289C373.878 375.289 373.383 375.453 372.977 375.781C372.576 376.104 372.289 376.576 372.117 377.195V383H371.188V374.547H372.102L372.117 375.891C372.612 374.891 373.406 374.391 374.5 374.391C374.76 374.391 374.966 374.424 375.117 374.492L375.094 375.344ZM375.906 378.648C375.906 377.836 376.062 377.104 376.375 376.453C376.693 375.802 377.138 375.297 377.711 374.938C378.289 374.573 378.943 374.391 379.672 374.391C380.797 374.391 381.708 374.786 382.406 375.578C383.104 376.365 383.453 377.409 383.453 378.711V378.906C383.453 379.724 383.294 380.461 382.977 381.117C382.664 381.768 382.221 382.271 381.648 382.625C381.076 382.979 380.422 383.156 379.688 383.156C378.568 383.156 377.656 382.763 376.953 381.977C376.255 381.185 375.906 380.138 375.906 378.836V378.648ZM376.844 378.906C376.844 379.917 377.104 380.747 377.625 381.398C378.151 382.044 378.839 382.367 379.688 382.367C380.531 382.367 381.214 382.044 381.734 381.398C382.26 380.747 382.523 379.891 382.523 378.828V378.648C382.523 378.003 382.404 377.411 382.164 376.875C381.924 376.339 381.589 375.924 381.156 375.633C380.724 375.336 380.229 375.188 379.672 375.188C378.839 375.188 378.159 375.516 377.633 376.172C377.107 376.823 376.844 377.677 376.844 378.734V378.906ZM386.398 374.547V384.008C386.398 384.789 386.211 385.385 385.836 385.797C385.461 386.208 384.909 386.414 384.18 386.414C383.898 386.414 383.625 386.365 383.359 386.266L383.375 385.492C383.604 385.56 383.839 385.594 384.078 385.594C385.005 385.594 385.469 385.06 385.469 383.992V374.547H386.398ZM385.938 371.469C386.141 371.469 386.299 371.531 386.414 371.656C386.529 371.776 386.586 371.924 386.586 372.102C386.586 372.279 386.529 372.427 386.414 372.547C386.299 372.667 386.141 372.727 385.938 372.727C385.74 372.727 385.583 372.667 385.469 372.547C385.359 372.427 385.305 372.279 385.305 372.102C385.305 371.924 385.359 371.776 385.469 371.656C385.583 371.531 385.74 371.469 385.938 371.469ZM392.32 383.156C391.602 383.156 390.951 382.979 390.367 382.625C389.789 382.271 389.339 381.779 389.016 381.148C388.693 380.513 388.531 379.802 388.531 379.016V378.68C388.531 377.867 388.688 377.135 389 376.484C389.318 375.833 389.758 375.323 390.32 374.953C390.883 374.578 391.492 374.391 392.148 374.391C393.174 374.391 393.987 374.742 394.586 375.445C395.19 376.143 395.492 377.099 395.492 378.312V378.836H389.461V379.016C389.461 379.974 389.734 380.773 390.281 381.414C390.833 382.049 391.526 382.367 392.359 382.367C392.859 382.367 393.299 382.276 393.68 382.094C394.065 381.911 394.414 381.62 394.727 381.219L395.312 381.664C394.625 382.659 393.628 383.156 392.32 383.156ZM392.148 375.188C391.445 375.188 390.852 375.445 390.367 375.961C389.888 376.477 389.596 377.169 389.492 378.039H394.562V377.938C394.536 377.125 394.305 376.464 393.867 375.953C393.43 375.443 392.857 375.188 392.148 375.188ZM400.438 382.367C401.089 382.367 401.633 382.185 402.07 381.82C402.513 381.451 402.753 380.974 402.789 380.391H403.688C403.661 380.906 403.5 381.378 403.203 381.805C402.906 382.227 402.51 382.557 402.016 382.797C401.526 383.036 401 383.156 400.438 383.156C399.328 383.156 398.448 382.771 397.797 382C397.151 381.229 396.828 380.193 396.828 378.891V378.609C396.828 377.776 396.974 377.039 397.266 376.398C397.557 375.758 397.974 375.263 398.516 374.914C399.062 374.565 399.701 374.391 400.43 374.391C401.357 374.391 402.12 374.667 402.719 375.219C403.323 375.771 403.646 376.497 403.688 377.398H402.789C402.747 376.737 402.508 376.203 402.07 375.797C401.638 375.391 401.091 375.188 400.43 375.188C399.586 375.188 398.93 375.492 398.461 376.102C397.997 376.711 397.766 377.565 397.766 378.664V378.938C397.766 380.016 397.997 380.857 398.461 381.461C398.93 382.065 399.589 382.367 400.438 382.367ZM407.016 372.383V374.547H408.766V375.312H407.016V380.945C407.016 381.414 407.099 381.763 407.266 381.992C407.438 382.221 407.721 382.336 408.117 382.336C408.273 382.336 408.526 382.31 408.875 382.258L408.914 383.023C408.669 383.112 408.336 383.156 407.914 383.156C407.273 383.156 406.807 382.971 406.516 382.602C406.224 382.227 406.078 381.677 406.078 380.953V375.312H404.523V374.547H406.078V372.383H407.016Z" fill="#424242"/>
<path d="M438.406 382.188H444.023V383H437.438V371.625H438.406V382.188ZM450.992 383C450.898 382.734 450.839 382.341 450.812 381.82C450.484 382.247 450.065 382.578 449.555 382.812C449.049 383.042 448.513 383.156 447.945 383.156C447.133 383.156 446.474 382.93 445.969 382.477C445.469 382.023 445.219 381.451 445.219 380.758C445.219 379.935 445.56 379.284 446.242 378.805C446.93 378.326 447.885 378.086 449.109 378.086H450.805V377.125C450.805 376.521 450.617 376.047 450.242 375.703C449.872 375.354 449.331 375.18 448.617 375.18C447.966 375.18 447.427 375.346 447 375.68C446.573 376.013 446.359 376.414 446.359 376.883L445.422 376.875C445.422 376.203 445.734 375.622 446.359 375.133C446.984 374.638 447.753 374.391 448.664 374.391C449.607 374.391 450.349 374.628 450.891 375.102C451.438 375.57 451.719 376.227 451.734 377.07V381.07C451.734 381.888 451.82 382.5 451.992 382.906V383H450.992ZM448.055 382.328C448.68 382.328 449.237 382.177 449.727 381.875C450.221 381.573 450.581 381.169 450.805 380.664V378.805H449.133C448.201 378.815 447.471 378.987 446.945 379.32C446.419 379.648 446.156 380.102 446.156 380.68C446.156 381.154 446.331 381.547 446.68 381.859C447.034 382.172 447.492 382.328 448.055 382.328ZM458.141 375.344C457.943 375.307 457.732 375.289 457.508 375.289C456.924 375.289 456.43 375.453 456.023 375.781C455.622 376.104 455.336 376.576 455.164 377.195V383H454.234V374.547H455.148L455.164 375.891C455.659 374.891 456.453 374.391 457.547 374.391C457.807 374.391 458.013 374.424 458.164 374.492L458.141 375.344ZM459.094 378.695C459.094 377.372 459.385 376.326 459.969 375.555C460.557 374.779 461.354 374.391 462.359 374.391C463.51 374.391 464.385 374.849 464.984 375.766L465.031 374.547H465.906V382.828C465.906 383.917 465.602 384.779 464.992 385.414C464.383 386.049 463.557 386.367 462.516 386.367C461.927 386.367 461.365 386.234 460.828 385.969C460.297 385.708 459.878 385.359 459.57 384.922L460.094 384.359C460.755 385.172 461.542 385.578 462.453 385.578C463.234 385.578 463.844 385.346 464.281 384.883C464.719 384.424 464.945 383.786 464.961 382.969V381.906C464.362 382.74 463.49 383.156 462.344 383.156C461.365 383.156 460.578 382.766 459.984 381.984C459.391 381.203 459.094 380.148 459.094 378.82V378.695ZM460.039 378.859C460.039 379.938 460.255 380.789 460.688 381.414C461.12 382.034 461.729 382.344 462.516 382.344C463.667 382.344 464.482 381.828 464.961 380.797V376.867C464.742 376.326 464.427 375.914 464.016 375.633C463.604 375.346 463.109 375.203 462.531 375.203C461.745 375.203 461.133 375.513 460.695 376.133C460.258 376.747 460.039 377.656 460.039 378.859ZM471.617 383.156C470.898 383.156 470.247 382.979 469.664 382.625C469.086 382.271 468.635 381.779 468.312 381.148C467.99 380.513 467.828 379.802 467.828 379.016V378.68C467.828 377.867 467.984 377.135 468.297 376.484C468.615 375.833 469.055 375.323 469.617 374.953C470.18 374.578 470.789 374.391 471.445 374.391C472.471 374.391 473.284 374.742 473.883 375.445C474.487 376.143 474.789 377.099 474.789 378.312V378.836H468.758V379.016C468.758 379.974 469.031 380.773 469.578 381.414C470.13 382.049 470.823 382.367 471.656 382.367C472.156 382.367 472.596 382.276 472.977 382.094C473.362 381.911 473.711 381.62 474.023 381.219L474.609 381.664C473.922 382.659 472.924 383.156 471.617 383.156ZM471.445 375.188C470.742 375.188 470.148 375.445 469.664 375.961C469.185 376.477 468.893 377.169 468.789 378.039H473.859V377.938C473.833 377.125 473.602 376.464 473.164 375.953C472.727 375.443 472.154 375.188 471.445 375.188ZM487.156 380.203C487.156 379.573 486.935 379.076 486.492 378.711C486.049 378.341 485.24 377.992 484.062 377.664C482.885 377.331 482.026 376.969 481.484 376.578C480.714 376.026 480.328 375.302 480.328 374.406C480.328 373.536 480.685 372.831 481.398 372.289C482.117 371.742 483.034 371.469 484.148 371.469C484.904 371.469 485.578 371.615 486.172 371.906C486.771 372.198 487.234 372.604 487.562 373.125C487.891 373.646 488.055 374.227 488.055 374.867H487.086C487.086 374.091 486.82 373.469 486.289 373C485.758 372.526 485.044 372.289 484.148 372.289C483.279 372.289 482.586 372.484 482.07 372.875C481.555 373.26 481.297 373.766 481.297 374.391C481.297 374.969 481.529 375.44 481.992 375.805C482.456 376.169 483.198 376.492 484.219 376.773C485.24 377.049 486.013 377.339 486.539 377.641C487.065 377.938 487.461 378.294 487.727 378.711C487.992 379.128 488.125 379.62 488.125 380.188C488.125 381.083 487.766 381.802 487.047 382.344C486.333 382.885 485.391 383.156 484.219 383.156C483.417 383.156 482.68 383.013 482.008 382.727C481.341 382.44 480.833 382.039 480.484 381.523C480.141 381.008 479.969 380.417 479.969 379.75H480.93C480.93 380.552 481.229 381.185 481.828 381.648C482.427 382.112 483.224 382.344 484.219 382.344C485.104 382.344 485.815 382.148 486.352 381.758C486.888 381.367 487.156 380.849 487.156 380.203ZM491.031 383H490.094V374.547H491.031V383ZM489.93 372.102C489.93 371.924 489.987 371.776 490.102 371.656C490.216 371.531 490.372 371.469 490.57 371.469C490.768 371.469 490.924 371.531 491.039 371.656C491.159 371.776 491.219 371.924 491.219 372.102C491.219 372.279 491.159 372.427 491.039 372.547C490.924 372.667 490.768 372.727 490.57 372.727C490.372 372.727 490.216 372.667 490.102 372.547C489.987 372.427 489.93 372.279 489.93 372.102ZM494.195 382.211H499.688V383H493.039V382.312L498.164 375.352H493.195V374.547H499.344V375.242L494.195 382.211ZM504.508 383.156C503.789 383.156 503.138 382.979 502.555 382.625C501.977 382.271 501.526 381.779 501.203 381.148C500.88 380.513 500.719 379.802 500.719 379.016V378.68C500.719 377.867 500.875 377.135 501.188 376.484C501.505 375.833 501.945 375.323 502.508 374.953C503.07 374.578 503.68 374.391 504.336 374.391C505.362 374.391 506.174 374.742 506.773 375.445C507.378 376.143 507.68 377.099 507.68 378.312V378.836H501.648V379.016C501.648 379.974 501.922 380.773 502.469 381.414C503.021 382.049 503.714 382.367 504.547 382.367C505.047 382.367 505.487 382.276 505.867 382.094C506.253 381.911 506.602 381.62 506.914 381.219L507.5 381.664C506.812 382.659 505.815 383.156 504.508 383.156ZM504.336 375.188C503.633 375.188 503.039 375.445 502.555 375.961C502.076 376.477 501.784 377.169 501.68 378.039H506.75V377.938C506.724 377.125 506.492 376.464 506.055 375.953C505.617 375.443 505.044 375.188 504.336 375.188ZM514.57 378.367V383H513.609V371.625H517.484C518.667 371.625 519.599 371.927 520.281 372.531C520.969 373.135 521.312 373.966 521.312 375.023C521.312 376.091 520.982 376.917 520.32 377.5C519.664 378.078 518.711 378.367 517.461 378.367H514.57ZM514.57 377.555H517.484C518.417 377.555 519.128 377.333 519.617 376.891C520.107 376.448 520.352 375.831 520.352 375.039C520.352 374.253 520.107 373.628 519.617 373.164C519.133 372.695 518.443 372.456 517.547 372.445H514.57V377.555ZM527.156 375.344C526.958 375.307 526.747 375.289 526.523 375.289C525.94 375.289 525.445 375.453 525.039 375.781C524.638 376.104 524.352 376.576 524.18 377.195V383H523.25V374.547H524.164L524.18 375.891C524.674 374.891 525.469 374.391 526.562 374.391C526.823 374.391 527.029 374.424 527.18 374.492L527.156 375.344ZM527.969 378.648C527.969 377.836 528.125 377.104 528.438 376.453C528.755 375.802 529.201 375.297 529.773 374.938C530.352 374.573 531.005 374.391 531.734 374.391C532.859 374.391 533.771 374.786 534.469 375.578C535.167 376.365 535.516 377.409 535.516 378.711V378.906C535.516 379.724 535.357 380.461 535.039 381.117C534.727 381.768 534.284 382.271 533.711 382.625C533.138 382.979 532.484 383.156 531.75 383.156C530.63 383.156 529.719 382.763 529.016 381.977C528.318 381.185 527.969 380.138 527.969 378.836V378.648ZM528.906 378.906C528.906 379.917 529.167 380.747 529.688 381.398C530.214 382.044 530.901 382.367 531.75 382.367C532.594 382.367 533.276 382.044 533.797 381.398C534.323 380.747 534.586 379.891 534.586 378.828V378.648C534.586 378.003 534.466 377.411 534.227 376.875C533.987 376.339 533.651 375.924 533.219 375.633C532.786 375.336 532.292 375.188 531.734 375.188C530.901 375.188 530.221 375.516 529.695 376.172C529.169 376.823 528.906 377.677 528.906 378.734V378.906ZM538.461 374.547V384.008C538.461 384.789 538.273 385.385 537.898 385.797C537.523 386.208 536.971 386.414 536.242 386.414C535.961 386.414 535.688 386.365 535.422 386.266L535.438 385.492C535.667 385.56 535.901 385.594 536.141 385.594C537.068 385.594 537.531 385.06 537.531 383.992V374.547H538.461ZM538 371.469C538.203 371.469 538.362 371.531 538.477 371.656C538.591 371.776 538.648 371.924 538.648 372.102C538.648 372.279 538.591 372.427 538.477 372.547C538.362 372.667 538.203 372.727 538 372.727C537.802 372.727 537.646 372.667 537.531 372.547C537.422 372.427 537.367 372.279 537.367 372.102C537.367 371.924 537.422 371.776 537.531 371.656C537.646 371.531 537.802 371.469 538 371.469ZM544.383 383.156C543.664 383.156 543.013 382.979 542.43 382.625C541.852 382.271 541.401 381.779 541.078 381.148C540.755 380.513 540.594 379.802 540.594 379.016V378.68C540.594 377.867 540.75 377.135 541.062 376.484C541.38 375.833 541.82 375.323 542.383 374.953C542.945 374.578 543.555 374.391 544.211 374.391C545.237 374.391 546.049 374.742 546.648 375.445C547.253 376.143 547.555 377.099 547.555 378.312V378.836H541.523V379.016C541.523 379.974 541.797 380.773 542.344 381.414C542.896 382.049 543.589 382.367 544.422 382.367C544.922 382.367 545.362 382.276 545.742 382.094C546.128 381.911 546.477 381.62 546.789 381.219L547.375 381.664C546.688 382.659 545.69 383.156 544.383 383.156ZM544.211 375.188C543.508 375.188 542.914 375.445 542.43 375.961C541.951 376.477 541.659 377.169 541.555 378.039H546.625V377.938C546.599 377.125 546.367 376.464 545.93 375.953C545.492 375.443 544.919 375.188 544.211 375.188ZM552.5 382.367C553.151 382.367 553.695 382.185 554.133 381.82C554.576 381.451 554.815 380.974 554.852 380.391H555.75C555.724 380.906 555.562 381.378 555.266 381.805C554.969 382.227 554.573 382.557 554.078 382.797C553.589 383.036 553.062 383.156 552.5 383.156C551.391 383.156 550.51 382.771 549.859 382C549.214 381.229 548.891 380.193 548.891 378.891V378.609C548.891 377.776 549.036 377.039 549.328 376.398C549.62 375.758 550.036 375.263 550.578 374.914C551.125 374.565 551.763 374.391 552.492 374.391C553.419 374.391 554.182 374.667 554.781 375.219C555.385 375.771 555.708 376.497 555.75 377.398H554.852C554.81 376.737 554.57 376.203 554.133 375.797C553.701 375.391 553.154 375.188 552.492 375.188C551.648 375.188 550.992 375.492 550.523 376.102C550.06 376.711 549.828 377.565 549.828 378.664V378.938C549.828 380.016 550.06 380.857 550.523 381.461C550.992 382.065 551.651 382.367 552.5 382.367ZM559.078 372.383V374.547H560.828V375.312H559.078V380.945C559.078 381.414 559.161 381.763 559.328 381.992C559.5 382.221 559.784 382.336 560.18 382.336C560.336 382.336 560.589 382.31 560.938 382.258L560.977 383.023C560.732 383.112 560.398 383.156 559.977 383.156C559.336 383.156 558.87 382.971 558.578 382.602C558.286 382.227 558.141 381.677 558.141 380.953V375.312H556.586V374.547H558.141V372.383H559.078Z" fill="#424242"/>
<path d="M51 359.932V363.34H45.0625V368.389H51V371.816H36.7812V368.389H42.4258V363.34H36.7812V359.932H51ZM44.1836 345.713C45.5703 345.713 46.7975 345.97 47.8652 346.484C48.9329 346.999 49.7565 347.731 50.3359 348.682C50.9089 349.626 51.1953 350.703 51.1953 351.914C51.1953 353.125 50.9186 354.199 50.3652 355.137C49.8053 356.074 49.0078 356.807 47.9727 357.334C46.9375 357.855 45.7493 358.128 44.4082 358.154H43.6074C42.2142 358.154 40.987 357.9 39.9258 357.393C38.8581 356.878 38.0345 356.146 37.4551 355.195C36.8757 354.238 36.5859 353.151 36.5859 351.934C36.5859 350.729 36.8724 349.655 37.4453 348.711C38.0182 347.767 38.8353 347.035 39.8965 346.514C40.9512 345.986 42.1621 345.719 43.5293 345.713H44.1836ZM43.5879 349.199C42.1751 349.199 41.1042 349.437 40.375 349.912C39.6393 350.381 39.2715 351.055 39.2715 351.934C39.2715 353.652 40.5605 354.561 43.1387 354.658L44.1836 354.668C45.5768 354.668 46.6478 354.437 47.3965 353.975C48.1452 353.512 48.5195 352.826 48.5195 351.914C48.5195 351.048 48.1517 350.381 47.416 349.912C46.6803 349.443 45.6224 349.206 44.2422 349.199H43.5879ZM36.7812 332.793H46.0879C47.1426 332.793 48.0573 333.018 48.832 333.467C49.6003 333.916 50.1862 334.561 50.5898 335.4C50.9935 336.24 51.1953 337.233 51.1953 338.379C51.1953 340.111 50.7461 341.475 49.8477 342.471C48.9492 343.467 47.7188 343.975 46.1562 343.994H36.7812V340.547H46.2246C47.7806 340.508 48.5586 339.785 48.5586 338.379C48.5586 337.669 48.3633 337.132 47.9727 336.768C47.582 336.403 46.9473 336.221 46.0684 336.221H36.7812V332.793ZM45.9805 325.361V327.217H51V330.645H36.7812V325.049C36.7812 323.363 37.1556 322.044 37.9043 321.094C38.653 320.143 39.7109 319.668 41.0781 319.668C42.0677 319.668 42.888 319.87 43.5391 320.273C44.1901 320.671 44.7174 321.296 45.1211 322.148L50.8535 319.18H51V322.852L45.9805 325.361ZM43.334 327.217V325.049C43.334 324.398 43.1647 323.91 42.8262 323.584C42.4811 323.252 42.0026 323.086 41.3906 323.086C40.7786 323.086 40.3001 323.252 39.9551 323.584C39.6035 323.916 39.4277 324.404 39.4277 325.049V327.217H43.334ZM47.2207 310.264C46.7194 310.264 46.3288 310.443 46.0488 310.801C45.7689 311.152 45.4792 311.774 45.1797 312.666C44.8802 313.558 44.5905 314.287 44.3105 314.854C43.4056 316.696 42.1621 317.617 40.5801 317.617C39.7923 317.617 39.099 317.389 38.5 316.934C37.8945 316.471 37.4258 315.82 37.0938 314.98C36.7552 314.141 36.5859 313.197 36.5859 312.148C36.5859 311.126 36.7682 310.212 37.1328 309.404C37.4974 308.59 38.0182 307.959 38.6953 307.51C39.3659 307.061 40.1341 306.836 41 306.836V310.254C40.4206 310.254 39.9714 310.433 39.6523 310.791C39.3333 311.143 39.1738 311.621 39.1738 312.227C39.1738 312.839 39.3105 313.324 39.584 313.682C39.8509 314.033 40.1927 314.209 40.6094 314.209C40.974 314.209 41.306 314.014 41.6055 313.623C41.8984 313.232 42.2044 312.546 42.5234 311.562C42.8359 310.579 43.1745 309.772 43.5391 309.141C44.4245 307.604 45.6452 306.836 47.2012 306.836C48.4447 306.836 49.4212 307.305 50.1309 308.242C50.8405 309.18 51.1953 310.465 51.1953 312.1C51.1953 313.252 50.9902 314.297 50.5801 315.234C50.1634 316.165 49.597 316.868 48.8809 317.344C48.1582 317.812 47.3281 318.047 46.3906 318.047V314.609C47.1523 314.609 47.7155 314.414 48.0801 314.023C48.4382 313.626 48.6172 312.985 48.6172 312.1C48.6172 311.533 48.4967 311.087 48.2559 310.762C48.0085 310.43 47.6634 310.264 47.2207 310.264ZM39.4277 289.521V293.789H51V297.217H39.4277V301.406H36.7813V289.521H39.4277ZM44.1836 276.299C45.5703 276.299 46.7975 276.556 47.8652 277.07C48.9329 277.585 49.7565 278.317 50.3359 279.268C50.9089 280.212 51.1953 281.289 51.1953 282.5C51.1953 283.711 50.9186 284.785 50.3652 285.723C49.8053 286.66 49.0078 287.393 47.9727 287.92C46.9375 288.441 45.7493 288.714 44.4082 288.74H43.6074C42.2142 288.74 40.987 288.486 39.9258 287.979C38.8581 287.464 38.0345 286.732 37.4551 285.781C36.8757 284.824 36.5859 283.737 36.5859 282.52C36.5859 281.315 36.8724 280.241 37.4453 279.297C38.0182 278.353 38.8353 277.62 39.8965 277.1C40.9512 276.572 42.1621 276.305 43.5293 276.299H44.1836ZM43.5879 279.785C42.1751 279.785 41.1042 280.023 40.375 280.498C39.6393 280.967 39.2715 281.641 39.2715 282.52C39.2715 284.238 40.5605 285.146 43.1387 285.244L44.1836 285.254C45.5768 285.254 46.6478 285.023 47.3965 284.561C48.1452 284.098 48.5195 283.411 48.5195 282.5C48.5195 281.634 48.1517 280.967 47.416 280.498C46.6803 280.029 45.6224 279.792 44.2422 279.785H43.5879ZM46.1855 258.047C47.1751 258.092 48.0508 258.359 48.8125 258.848C49.5677 259.336 50.1536 260.023 50.5703 260.908C50.987 261.787 51.1953 262.793 51.1953 263.926C51.1953 265.794 50.5866 267.266 49.3691 268.34C48.1517 269.414 46.4329 269.951 44.2129 269.951H43.5098C42.1165 269.951 40.8991 269.71 39.8574 269.229C38.8092 268.74 38.002 268.04 37.4355 267.129C36.8626 266.217 36.5762 265.163 36.5762 263.965C36.5762 262.24 37.0319 260.853 37.9434 259.805C38.8483 258.757 40.0983 258.161 41.6934 258.018V261.436C40.8275 261.462 40.2057 261.68 39.8281 262.09C39.4505 262.5 39.2617 263.125 39.2617 263.965C39.2617 264.818 39.5807 265.443 40.2188 265.84C40.8568 266.237 41.8757 266.445 43.2754 266.465H44.2813C45.7982 266.465 46.8822 266.276 47.5332 265.898C48.1842 265.514 48.5098 264.857 48.5098 263.926C48.5098 263.138 48.3242 262.536 47.9531 262.119C47.582 261.702 46.9928 261.481 46.1855 261.455V258.047ZM44.1836 244.385C45.5703 244.385 46.7975 244.642 47.8652 245.156C48.9329 245.671 49.7565 246.403 50.3359 247.354C50.9089 248.298 51.1953 249.375 51.1953 250.586C51.1953 251.797 50.9186 252.871 50.3652 253.809C49.8053 254.746 49.0078 255.479 47.9727 256.006C46.9375 256.527 45.7493 256.8 44.4082 256.826H43.6074C42.2142 256.826 40.987 256.572 39.9258 256.064C38.8581 255.55 38.0345 254.818 37.4551 253.867C36.8757 252.91 36.5859 251.823 36.5859 250.605C36.5859 249.401 36.8724 248.327 37.4453 247.383C38.0182 246.439 38.8353 245.706 39.8965 245.186C40.9512 244.658 42.1621 244.391 43.5293 244.385H44.1836ZM43.5879 247.871C42.1751 247.871 41.1042 248.109 40.375 248.584C39.6393 249.053 39.2715 249.727 39.2715 250.605C39.2715 252.324 40.5605 253.232 43.1387 253.33L44.1836 253.34C45.5768 253.34 46.6478 253.109 47.3965 252.646C48.1452 252.184 48.5195 251.497 48.5195 250.586C48.5195 249.72 48.1517 249.053 47.416 248.584C46.6803 248.115 45.6224 247.878 44.2422 247.871H43.5879ZM36.7813 238.115L46.6738 234.941L36.7813 231.777V227.266H51L51 230.703H47.6797L40.8828 230.371L51 233.809V236.074L40.873 239.521L47.6797 239.189H51V242.617H36.7813V238.115ZM46.1758 221.65H51V225.078H36.7813V219.404C36.7813 218.317 36.9831 217.357 37.3867 216.523C37.7839 215.684 38.3535 215.036 39.0957 214.58C39.8314 214.118 40.668 213.887 41.6055 213.887C42.9922 213.887 44.1022 214.385 44.9355 215.381C45.7624 216.37 46.1758 217.731 46.1758 219.463V221.65ZM43.5293 221.65V219.404C43.5293 218.74 43.3633 218.236 43.0313 217.891C42.6992 217.539 42.2305 217.363 41.625 217.363C40.9609 217.363 40.4303 217.542 40.0332 217.9C39.6361 218.258 39.4342 218.747 39.4277 219.365V221.65H43.5293ZM48.3633 208.623V202.656H51V212.051H36.7813V208.623H48.3633ZM44.9746 192.393V197.783H48.3633V191.416H51V201.211H36.7813V191.396H39.4277V197.783H42.4258V192.393H44.9746ZM39.4277 178.662V182.93H51V186.357H39.4277V190.547H36.7813V178.662H39.4277ZM44.9746 168.389V173.779H48.3633V167.412H51V177.207H36.7813V167.393H39.4277V173.779H42.4258V168.389H44.9746ZM71.3438 323.35V328.047L74 328.867V332.529L59.7812 327.314V324.092L74 318.838V322.52L71.3438 323.35ZM68.6973 327.227V324.17L63.7656 325.703L68.6973 327.227ZM70.2207 310.459C69.7194 310.459 69.3288 310.638 69.0488 310.996C68.7689 311.348 68.4792 311.969 68.1797 312.861C67.8802 313.753 67.5905 314.482 67.3105 315.049C66.4056 316.891 65.1621 317.812 63.5801 317.812C62.7923 317.812 62.099 317.585 61.5 317.129C60.8945 316.667 60.4258 316.016 60.0938 315.176C59.7552 314.336 59.5859 313.392 59.5859 312.344C59.5859 311.322 59.7682 310.407 60.1328 309.6C60.4974 308.786 61.0182 308.154 61.6953 307.705C62.3659 307.256 63.1341 307.031 64 307.031V310.449C63.4206 310.449 62.9714 310.628 62.6523 310.986C62.3333 311.338 62.1738 311.816 62.1738 312.422C62.1738 313.034 62.3105 313.519 62.584 313.877C62.8509 314.229 63.1927 314.404 63.6094 314.404C63.974 314.404 64.306 314.209 64.6055 313.818C64.8984 313.428 65.2044 312.741 65.5234 311.758C65.8359 310.775 66.1745 309.967 66.5391 309.336C67.4245 307.799 68.6452 307.031 70.2012 307.031C71.4447 307.031 72.4212 307.5 73.1309 308.438C73.8405 309.375 74.1953 310.661 74.1953 312.295C74.1953 313.447 73.9902 314.492 73.5801 315.43C73.1634 316.361 72.597 317.064 71.8809 317.539C71.1582 318.008 70.3281 318.242 69.3906 318.242V314.805C70.1523 314.805 70.7155 314.609 71.0801 314.219C71.4382 313.822 71.6172 313.18 71.6172 312.295C71.6172 311.729 71.4967 311.283 71.2559 310.957C71.0085 310.625 70.6634 310.459 70.2207 310.459ZM70.2207 297.939C69.7194 297.939 69.3288 298.118 69.0488 298.477C68.7689 298.828 68.4792 299.45 68.1797 300.342C67.8802 301.234 67.5905 301.963 67.3105 302.529C66.4056 304.372 65.1621 305.293 63.5801 305.293C62.7923 305.293 62.099 305.065 61.5 304.609C60.8945 304.147 60.4258 303.496 60.0938 302.656C59.7552 301.816 59.5859 300.872 59.5859 299.824C59.5859 298.802 59.7682 297.887 60.1328 297.08C60.4974 296.266 61.0182 295.635 61.6953 295.186C62.3659 294.736 63.1341 294.512 64 294.512V297.93C63.4206 297.93 62.9714 298.109 62.6523 298.467C62.3333 298.818 62.1738 299.297 62.1738 299.902C62.1738 300.514 62.3105 300.999 62.584 301.357C62.8509 301.709 63.1927 301.885 63.6094 301.885C63.974 301.885 64.306 301.689 64.6055 301.299C64.8984 300.908 65.2044 300.221 65.5234 299.238C65.8359 298.255 66.1745 297.448 66.5391 296.816C67.4245 295.28 68.6452 294.512 70.2012 294.512C71.4447 294.512 72.4212 294.98 73.1309 295.918C73.8405 296.855 74.1953 298.141 74.1953 299.775C74.1953 300.928 73.9902 301.973 73.5801 302.91C73.1634 303.841 72.597 304.544 71.8809 305.02C71.1582 305.488 70.3281 305.723 69.3906 305.723V302.285C70.1523 302.285 70.7155 302.09 71.0801 301.699C71.4382 301.302 71.6172 300.661 71.6172 299.775C71.6172 299.209 71.4967 298.763 71.2559 298.438C71.0085 298.105 70.6634 297.939 70.2207 297.939ZM67.9746 283.936V289.326H71.3633V282.959H74V292.754H59.7812L59.7813 282.939H62.4277L62.4277 289.326H65.4258V283.936H67.9746ZM70.2207 274.229C69.7194 274.229 69.3288 274.408 69.0488 274.766C68.7689 275.117 68.4792 275.739 68.1797 276.631C67.8802 277.523 67.5905 278.252 67.3105 278.818C66.4056 280.661 65.1621 281.582 63.5801 281.582C62.7923 281.582 62.099 281.354 61.5 280.898C60.8945 280.436 60.4258 279.785 60.0938 278.945C59.7552 278.105 59.5859 277.161 59.5859 276.113C59.5859 275.091 59.7682 274.176 60.1328 273.369C60.4974 272.555 61.0182 271.924 61.6953 271.475C62.3659 271.025 63.1341 270.801 64 270.801V274.219C63.4206 274.219 62.9714 274.398 62.6523 274.756C62.3333 275.107 62.1738 275.586 62.1738 276.191C62.1738 276.803 62.3105 277.288 62.584 277.646C62.8509 277.998 63.1927 278.174 63.6094 278.174C63.974 278.174 64.306 277.979 64.6055 277.588C64.8984 277.197 65.2044 276.51 65.5234 275.527C65.8359 274.544 66.1745 273.737 66.5391 273.105C67.4245 271.569 68.6452 270.801 70.2012 270.801C71.4447 270.801 72.4212 271.27 73.1309 272.207C73.8405 273.145 74.1953 274.43 74.1953 276.064C74.1953 277.217 73.9902 278.262 73.5801 279.199C73.1634 280.13 72.597 280.833 71.8809 281.309C71.1582 281.777 70.3281 282.012 69.3906 282.012V278.574C70.1523 278.574 70.7155 278.379 71.0801 277.988C71.4382 277.591 71.6172 276.95 71.6172 276.064C71.6172 275.498 71.4967 275.052 71.2559 274.727C71.0085 274.395 70.6634 274.229 70.2207 274.229ZM70.2207 261.709C69.7194 261.709 69.3288 261.888 69.0488 262.246C68.7689 262.598 68.4792 263.219 68.1797 264.111C67.8802 265.003 67.5905 265.732 67.3105 266.299C66.4056 268.141 65.1621 269.062 63.5801 269.062C62.7923 269.062 62.099 268.835 61.5 268.379C60.8945 267.917 60.4258 267.266 60.0938 266.426C59.7552 265.586 59.5859 264.642 59.5859 263.594C59.5859 262.572 59.7682 261.657 60.1328 260.85C60.4974 260.036 61.0182 259.404 61.6953 258.955C62.3659 258.506 63.1341 258.281 64 258.281V261.699C63.4206 261.699 62.9714 261.878 62.6523 262.236C62.3333 262.588 62.1738 263.066 62.1738 263.672C62.1738 264.284 62.3105 264.769 62.584 265.127C62.8509 265.479 63.1927 265.654 63.6094 265.654C63.974 265.654 64.306 265.459 64.6055 265.068C64.8984 264.678 65.2044 263.991 65.5234 263.008C65.8359 262.025 66.1745 261.217 66.5391 260.586C67.4245 259.049 68.6452 258.281 70.2012 258.281C71.4447 258.281 72.4212 258.75 73.1309 259.688C73.8405 260.625 74.1953 261.911 74.1953 263.545C74.1953 264.697 73.9902 265.742 73.5801 266.68C73.1634 267.611 72.597 268.314 71.8809 268.789C71.1582 269.258 70.3281 269.492 69.3906 269.492V266.055C70.1523 266.055 70.7155 265.859 71.0801 265.469C71.4382 265.072 71.6172 264.43 71.6172 263.545C71.6172 262.979 71.4967 262.533 71.2559 262.207C71.0085 261.875 70.6634 261.709 70.2207 261.709ZM59.7813 252.021L69.6738 248.848L59.7813 245.684V241.172H74V244.609H70.6797L63.8828 244.277L74 247.715V249.98L63.873 253.428L70.6797 253.096H74V256.523H59.7813V252.021ZM67.9746 230.166V235.557H71.3633V229.189H74V238.984H59.7813V229.17H62.4277V235.557H65.4258V230.166H67.9746ZM74 215.918V219.326L65.1523 224.365H74V227.793H59.7813V224.365L68.6289 219.336H59.7813V215.918H74ZM62.4277 202.881V207.148H74V210.576H62.4277V214.766H59.7813V202.881H62.4277Z" fill="#1A83C2"/>
<path d="M262.236 422.428H257.969V434H254.541V422.428H250.352V419.781H262.236V422.428ZM269.053 425.953L271.67 419.781H275.371L270.791 428.893V434H267.314V428.893L262.744 419.781H266.426L269.053 425.953ZM279.834 429.176V434H276.406V419.781H282.08C283.167 419.781 284.128 419.983 284.961 420.387C285.801 420.784 286.449 421.354 286.904 422.096C287.367 422.831 287.598 423.668 287.598 424.605C287.598 425.992 287.1 427.102 286.104 427.936C285.114 428.762 283.753 429.176 282.021 429.176H279.834ZM279.834 426.529H282.08C282.744 426.529 283.249 426.363 283.594 426.031C283.945 425.699 284.121 425.23 284.121 424.625C284.121 423.961 283.942 423.43 283.584 423.033C283.226 422.636 282.738 422.434 282.119 422.428H279.834V426.529ZM298.252 427.975H292.861V431.363H299.229V434H289.434V419.781H299.248V422.428H292.861V425.426H298.252V427.975ZM317.646 427.184C317.646 428.57 317.389 429.798 316.875 430.865C316.361 431.933 315.628 432.757 314.678 433.336C313.734 433.909 312.656 434.195 311.445 434.195C310.234 434.195 309.16 433.919 308.223 433.365C307.285 432.805 306.553 432.008 306.025 430.973C305.505 429.938 305.231 428.749 305.205 427.408V426.607C305.205 425.214 305.459 423.987 305.967 422.926C306.481 421.858 307.214 421.035 308.164 420.455C309.121 419.876 310.208 419.586 311.426 419.586C312.63 419.586 313.704 419.872 314.648 420.445C315.592 421.018 316.325 421.835 316.846 422.896C317.373 423.951 317.64 425.162 317.646 426.529V427.184ZM314.16 426.588C314.16 425.175 313.923 424.104 313.447 423.375C312.979 422.639 312.305 422.271 311.426 422.271C309.707 422.271 308.799 423.561 308.701 426.139L308.691 427.184C308.691 428.577 308.923 429.648 309.385 430.396C309.847 431.145 310.534 431.52 311.445 431.52C312.311 431.52 312.979 431.152 313.447 430.416C313.916 429.68 314.154 428.622 314.16 427.242V426.588ZM328.369 428.336H322.842V434H319.414V419.781H328.926V422.428H322.842V425.699H328.369V428.336ZM343.408 431.344H338.711L337.891 434H334.229L339.443 419.781H342.666L347.92 434H344.238L343.408 431.344ZM339.531 428.697H342.588L341.055 423.766L339.531 428.697ZM356.299 430.221C356.299 429.719 356.12 429.329 355.762 429.049C355.41 428.769 354.788 428.479 353.896 428.18C353.005 427.88 352.275 427.59 351.709 427.311C349.867 426.406 348.945 425.162 348.945 423.58C348.945 422.792 349.173 422.099 349.629 421.5C350.091 420.895 350.742 420.426 351.582 420.094C352.422 419.755 353.366 419.586 354.414 419.586C355.436 419.586 356.351 419.768 357.158 420.133C357.972 420.497 358.604 421.018 359.053 421.695C359.502 422.366 359.727 423.134 359.727 424H356.309C356.309 423.421 356.13 422.971 355.771 422.652C355.42 422.333 354.941 422.174 354.336 422.174C353.724 422.174 353.239 422.311 352.881 422.584C352.529 422.851 352.354 423.193 352.354 423.609C352.354 423.974 352.549 424.306 352.939 424.605C353.33 424.898 354.017 425.204 355 425.523C355.983 425.836 356.79 426.174 357.422 426.539C358.958 427.424 359.727 428.645 359.727 430.201C359.727 431.445 359.258 432.421 358.32 433.131C357.383 433.84 356.097 434.195 354.463 434.195C353.311 434.195 352.266 433.99 351.328 433.58C350.397 433.163 349.694 432.597 349.219 431.881C348.75 431.158 348.516 430.328 348.516 429.391H351.953C351.953 430.152 352.148 430.715 352.539 431.08C352.936 431.438 353.577 431.617 354.463 431.617C355.029 431.617 355.475 431.497 355.801 431.256C356.133 431.008 356.299 430.663 356.299 430.221ZM368.818 430.221C368.818 429.719 368.639 429.329 368.281 429.049C367.93 428.769 367.308 428.479 366.416 428.18C365.524 427.88 364.795 427.59 364.229 427.311C362.386 426.406 361.465 425.162 361.465 423.58C361.465 422.792 361.693 422.099 362.148 421.5C362.611 420.895 363.262 420.426 364.102 420.094C364.941 419.755 365.885 419.586 366.934 419.586C367.956 419.586 368.87 419.768 369.678 420.133C370.492 420.497 371.123 421.018 371.572 421.695C372.021 422.366 372.246 423.134 372.246 424H368.828C368.828 423.421 368.649 422.971 368.291 422.652C367.939 422.333 367.461 422.174 366.855 422.174C366.243 422.174 365.758 422.311 365.4 422.584C365.049 422.851 364.873 423.193 364.873 423.609C364.873 423.974 365.068 424.306 365.459 424.605C365.85 424.898 366.536 425.204 367.52 425.523C368.503 425.836 369.31 426.174 369.941 426.539C371.478 427.424 372.246 428.645 372.246 430.201C372.246 431.445 371.777 432.421 370.84 433.131C369.902 433.84 368.617 434.195 366.982 434.195C365.83 434.195 364.785 433.99 363.848 433.58C362.917 433.163 362.214 432.597 361.738 431.881C361.27 431.158 361.035 430.328 361.035 429.391H364.473C364.473 430.152 364.668 430.715 365.059 431.08C365.456 431.438 366.097 431.617 366.982 431.617C367.549 431.617 367.995 431.497 368.32 431.256C368.652 431.008 368.818 430.663 368.818 430.221ZM382.822 427.975H377.432V431.363H383.799V434H374.004V419.781H383.818V422.428H377.432V425.426H382.822V427.975ZM392.529 430.221C392.529 429.719 392.35 429.329 391.992 429.049C391.641 428.769 391.019 428.479 390.127 428.18C389.235 427.88 388.506 427.59 387.939 427.311C386.097 426.406 385.176 425.162 385.176 423.58C385.176 422.792 385.404 422.099 385.859 421.5C386.322 420.895 386.973 420.426 387.812 420.094C388.652 419.755 389.596 419.586 390.645 419.586C391.667 419.586 392.581 419.768 393.389 420.133C394.202 420.497 394.834 421.018 395.283 421.695C395.732 422.366 395.957 423.134 395.957 424H392.539C392.539 423.421 392.36 422.971 392.002 422.652C391.65 422.333 391.172 422.174 390.566 422.174C389.954 422.174 389.469 422.311 389.111 422.584C388.76 422.851 388.584 423.193 388.584 423.609C388.584 423.974 388.779 424.306 389.17 424.605C389.561 424.898 390.247 425.204 391.23 425.523C392.214 425.836 393.021 426.174 393.652 426.539C395.189 427.424 395.957 428.645 395.957 430.201C395.957 431.445 395.488 432.421 394.551 433.131C393.613 433.84 392.327 434.195 390.693 434.195C389.541 434.195 388.496 433.99 387.559 433.58C386.628 433.163 385.924 432.597 385.449 431.881C384.98 431.158 384.746 430.328 384.746 429.391H388.184C388.184 430.152 388.379 430.715 388.77 431.08C389.167 431.438 389.808 431.617 390.693 431.617C391.26 431.617 391.706 431.497 392.031 431.256C392.363 431.008 392.529 430.663 392.529 430.221ZM405.049 430.221C405.049 429.719 404.87 429.329 404.512 429.049C404.16 428.769 403.538 428.479 402.646 428.18C401.755 427.88 401.025 427.59 400.459 427.311C398.617 426.406 397.695 425.162 397.695 423.58C397.695 422.792 397.923 422.099 398.379 421.5C398.841 420.895 399.492 420.426 400.332 420.094C401.172 419.755 402.116 419.586 403.164 419.586C404.186 419.586 405.101 419.768 405.908 420.133C406.722 420.497 407.354 421.018 407.803 421.695C408.252 422.366 408.477 423.134 408.477 424H405.059C405.059 423.421 404.88 422.971 404.521 422.652C404.17 422.333 403.691 422.174 403.086 422.174C402.474 422.174 401.989 422.311 401.631 422.584C401.279 422.851 401.104 423.193 401.104 423.609C401.104 423.974 401.299 424.306 401.689 424.605C402.08 424.898 402.767 425.204 403.75 425.523C404.733 425.836 405.54 426.174 406.172 426.539C407.708 427.424 408.477 428.645 408.477 430.201C408.477 431.445 408.008 432.421 407.07 433.131C406.133 433.84 404.847 434.195 403.213 434.195C402.061 434.195 401.016 433.99 400.078 433.58C399.147 433.163 398.444 432.597 397.969 431.881C397.5 431.158 397.266 430.328 397.266 429.391H400.703C400.703 430.152 400.898 430.715 401.289 431.08C401.686 431.438 402.327 431.617 403.213 431.617C403.779 431.617 404.225 431.497 404.551 431.256C404.883 431.008 405.049 430.663 405.049 430.221ZM414.736 419.781L417.91 429.674L421.074 419.781H425.586V434H422.148V430.68L422.48 423.883L419.043 434H416.777L413.33 423.873L413.662 430.68V434H410.234V419.781H414.736ZM436.592 427.975H431.201V431.363H437.568V434H427.773V419.781H437.588V422.428H431.201V425.426H436.592V427.975ZM450.84 434H447.432L442.393 425.152V434H438.965V419.781H442.393L447.422 428.629V419.781H450.84V434ZM463.877 422.428H459.609V434H456.182V422.428H451.992V419.781H463.877V422.428Z" fill="#1A83C2"/>
<path d="M190 338C190 335.239 192.239 333 195 333H225C227.761 333 230 335.239 230 338V352H190V338Z" fill="#1A83C2" fill-opacity="0.8"/>
<path d="M314 299C314 296.239 316.239 294 319 294H349C351.761 294 354 296.239 354 299V352H314V299Z" fill="#1A83C2" fill-opacity="0.8"/>
<path d="M459 232C459 229.239 461.239 227 464 227H494C496.761 227 499 229.239 499 232V352H459V232Z" fill="#1A83C2" fill-opacity="0.8"/>
<path d="M230 299C230 296.239 232.239 294 235 294H265C267.761 294 270 296.239 270 299V352H230V299Z" fill="#DFDFDF" fill-opacity="0.95"/>
<path d="M354 232C354 229.239 356.239 227 359 227H389C391.761 227 394 229.239 394 232V352H354V232Z" fill="#DFDFDF" fill-opacity="0.95"/>
<path d="M499 170C499 167.239 501.239 165 504 165H534C536.761 165 539 167.239 539 170V352H499V170Z" fill="#DFDFDF" fill-opacity="0.95"/>
</svg>
