<svg width="457" height="215" viewBox="0 0 457 215" fill="none" xmlns="http://www.w3.org/2000/svg">
<g filter="url(#filter0_d_24_207)">
<rect x="4" width="449" height="207" rx="20" fill="#3A3A7E"/>
</g>
<path d="M46.24 70.26C45.4667 70.26 44.7233 70.14 44.01 69.9C43.3033 69.6533 42.6833 69.3033 42.15 68.85C41.6167 68.39 41.2333 67.84 41 67.2L43.29 66.36C43.3833 66.6267 43.5733 66.87 43.86 67.09C44.1467 67.31 44.4967 67.4867 44.91 67.62C45.3233 67.7533 45.7667 67.82 46.24 67.82C46.7267 67.82 47.18 67.7467 47.6 67.6C48.0267 67.4467 48.37 67.2367 48.63 66.97C48.89 66.6967 49.02 66.38 49.02 66.02C49.02 65.6533 48.8833 65.3533 48.61 65.12C48.3367 64.88 47.9867 64.69 47.56 64.55C47.1333 64.41 46.6933 64.3033 46.24 64.23C45.2467 64.0767 44.3567 63.84 43.57 63.52C42.7833 63.2 42.16 62.7567 41.7 62.19C41.2467 61.6233 41.02 60.89 41.02 59.99C41.02 59.1433 41.2633 58.4033 41.75 57.77C42.2367 57.1367 42.8767 56.6433 43.67 56.29C44.4633 55.9367 45.32 55.76 46.24 55.76C47.0067 55.76 47.7467 55.88 48.46 56.12C49.1733 56.36 49.7967 56.71 50.33 57.17C50.87 57.63 51.2567 58.1833 51.49 58.83L49.19 59.66C49.0967 59.3933 48.9067 59.15 48.62 58.93C48.3333 58.71 47.9833 58.5367 47.57 58.41C47.1567 58.2767 46.7133 58.21 46.24 58.21C45.7667 58.2033 45.3167 58.28 44.89 58.44C44.47 58.5933 44.1267 58.8033 43.86 59.07C43.5933 59.3367 43.46 59.6433 43.46 59.99C43.46 60.4367 43.5833 60.7733 43.83 61C44.0833 61.2267 44.42 61.3933 44.84 61.5C45.26 61.6 45.7267 61.6933 46.24 61.78C47.1733 61.9267 48.0367 62.1733 48.83 62.52C49.6233 62.8667 50.26 63.33 50.74 63.91C51.22 64.4833 51.46 65.1867 51.46 66.02C51.46 66.8667 51.22 67.61 50.74 68.25C50.26 68.8833 49.6233 69.3767 48.83 69.73C48.0367 70.0833 47.1733 70.26 46.24 70.26ZM57.768 70.26C56.848 70.26 56.008 70.0233 55.248 69.55C54.4946 69.0767 53.8913 68.44 53.438 67.64C52.9913 66.84 52.768 65.9567 52.768 64.99C52.768 64.2633 52.898 63.5833 53.158 62.95C53.418 62.31 53.7746 61.75 54.228 61.27C54.688 60.7833 55.2213 60.4033 55.828 60.13C56.4346 59.8567 57.0813 59.72 57.768 59.72C58.548 59.72 59.2613 59.8867 59.908 60.22C60.5613 60.5467 61.1146 60.9967 61.568 61.57C62.0213 62.1433 62.3513 62.7967 62.558 63.53C62.7646 64.2633 62.8113 65.03 62.698 65.83H55.388C55.4813 66.2033 55.6346 66.54 55.848 66.84C56.0613 67.1333 56.3313 67.37 56.658 67.55C56.9846 67.7233 57.3546 67.8133 57.768 67.82C58.1946 67.8267 58.5813 67.7267 58.928 67.52C59.2813 67.3067 59.5746 67.02 59.808 66.66L62.298 67.24C61.8913 68.1267 61.2846 68.8533 60.478 69.42C59.6713 69.98 58.768 70.26 57.768 70.26ZM55.308 64H60.228C60.1546 63.6 59.998 63.24 59.758 62.92C59.5246 62.5933 59.2346 62.3333 58.888 62.14C58.5413 61.9467 58.168 61.85 57.768 61.85C57.368 61.85 56.998 61.9467 56.658 62.14C56.318 62.3267 56.028 62.5833 55.788 62.91C55.5546 63.23 55.3946 63.5933 55.308 64ZM64.3169 70V55H66.7569V70H64.3169ZM73.6273 70.26C72.7073 70.26 71.8673 70.0233 71.1073 69.55C70.354 69.0767 69.7507 68.44 69.2973 67.64C68.8507 66.84 68.6273 65.9567 68.6273 64.99C68.6273 64.2633 68.7573 63.5833 69.0173 62.95C69.2773 62.31 69.634 61.75 70.0873 61.27C70.5473 60.7833 71.0807 60.4033 71.6873 60.13C72.294 59.8567 72.9407 59.72 73.6273 59.72C74.4073 59.72 75.1207 59.8867 75.7673 60.22C76.4207 60.5467 76.974 60.9967 77.4273 61.57C77.8807 62.1433 78.2107 62.7967 78.4173 63.53C78.624 64.2633 78.6707 65.03 78.5573 65.83H71.2473C71.3407 66.2033 71.494 66.54 71.7073 66.84C71.9207 67.1333 72.1907 67.37 72.5173 67.55C72.844 67.7233 73.214 67.8133 73.6273 67.82C74.054 67.8267 74.4407 67.7267 74.7873 67.52C75.1407 67.3067 75.434 67.02 75.6673 66.66L78.1573 67.24C77.7507 68.1267 77.144 68.8533 76.3373 69.42C75.5307 69.98 74.6273 70.26 73.6273 70.26ZM71.1673 64H76.0873C76.014 63.6 75.8573 63.24 75.6173 62.92C75.384 62.5933 75.094 62.3333 74.7473 62.14C74.4007 61.9467 74.0273 61.85 73.6273 61.85C73.2273 61.85 72.8573 61.9467 72.5173 62.14C72.1773 62.3267 71.8873 62.5833 71.6473 62.91C71.414 63.23 71.254 63.5933 71.1673 64ZM86.4234 66.99L88.6234 68.18C88.1634 68.8067 87.5868 69.31 86.8934 69.69C86.2001 70.07 85.4434 70.26 84.6234 70.26C83.7034 70.26 82.8634 70.0233 82.1034 69.55C81.3501 69.0767 80.7468 68.4433 80.2934 67.65C79.8468 66.85 79.6234 65.9667 79.6234 65C79.6234 64.2667 79.7534 63.5833 80.0134 62.95C80.2734 62.31 80.6301 61.75 81.0834 61.27C81.5434 60.7833 82.0768 60.4033 82.6834 60.13C83.2901 59.8567 83.9368 59.72 84.6234 59.72C85.4434 59.72 86.2001 59.91 86.8934 60.29C87.5868 60.67 88.1634 61.18 88.6234 61.82L86.4234 63C86.1901 62.7333 85.9134 62.5267 85.5934 62.38C85.2801 62.2333 84.9568 62.16 84.6234 62.16C84.1434 62.16 83.7101 62.2933 83.3234 62.56C82.9368 62.82 82.6301 63.1667 82.4034 63.6C82.1768 64.0267 82.0634 64.4933 82.0634 65C82.0634 65.5 82.1768 65.9667 82.4034 66.4C82.6301 66.8267 82.9368 67.17 83.3234 67.43C83.7101 67.69 84.1434 67.82 84.6234 67.82C84.9701 67.82 85.3001 67.7467 85.6134 67.6C85.9268 67.4467 86.1968 67.2433 86.4234 66.99ZM95.7788 62.44H93.8388V70H91.3988V62.44H89.9188V60H91.3988V56.86H93.8388V60H95.7788V62.44ZM105.771 70L102.191 56H104.711L107.151 65.57L109.591 56H111.811L114.251 65.57L116.691 56H119.211L115.651 70H112.871L110.701 61.52L108.541 70H105.771ZM124.37 70.26C123.45 70.26 122.61 70.0233 121.85 69.55C121.096 69.0767 120.493 68.44 120.04 67.64C119.593 66.84 119.37 65.9567 119.37 64.99C119.37 64.2633 119.5 63.5833 119.76 62.95C120.02 62.31 120.376 61.75 120.83 61.27C121.29 60.7833 121.823 60.4033 122.43 60.13C123.036 59.8567 123.683 59.72 124.37 59.72C125.15 59.72 125.863 59.8867 126.51 60.22C127.163 60.5467 127.716 60.9967 128.17 61.57C128.623 62.1433 128.953 62.7967 129.16 63.53C129.366 64.2633 129.413 65.03 129.3 65.83H121.99C122.083 66.2033 122.236 66.54 122.45 66.84C122.663 67.1333 122.933 67.37 123.26 67.55C123.586 67.7233 123.956 67.8133 124.37 67.82C124.796 67.8267 125.183 67.7267 125.53 67.52C125.883 67.3067 126.176 67.02 126.41 66.66L128.9 67.24C128.493 68.1267 127.886 68.8533 127.08 69.42C126.273 69.98 125.37 70.26 124.37 70.26ZM121.91 64H126.83C126.756 63.6 126.6 63.24 126.36 62.92C126.126 62.5933 125.836 62.3333 125.49 62.14C125.143 61.9467 124.77 61.85 124.37 61.85C123.97 61.85 123.6 61.9467 123.26 62.14C122.92 62.3267 122.63 62.5833 122.39 62.91C122.156 63.23 121.996 63.5933 121.91 64ZM138.626 60H141.066V70H138.616L138.516 68.76C138.236 69.2067 137.869 69.57 137.416 69.85C136.969 70.1233 136.442 70.26 135.836 70.26C135.096 70.26 134.402 70.12 133.756 69.84C133.109 69.56 132.539 69.1733 132.046 68.68C131.552 68.1867 131.169 67.6167 130.896 66.97C130.622 66.3233 130.486 65.63 130.486 64.89C130.486 64.1767 130.616 63.5067 130.876 62.88C131.136 62.2533 131.502 61.7033 131.976 61.23C132.449 60.7567 132.996 60.3867 133.616 60.12C134.236 59.8533 134.902 59.72 135.616 59.72C136.282 59.72 136.876 59.8667 137.396 60.16C137.922 60.4533 138.369 60.8267 138.736 61.28L138.626 60ZM135.906 67.91C136.439 67.91 136.902 67.7733 137.296 67.5C137.689 67.2267 137.986 66.8633 138.186 66.41C138.392 65.95 138.476 65.4433 138.436 64.89C138.389 64.37 138.236 63.9 137.976 63.48C137.716 63.0533 137.382 62.7133 136.976 62.46C136.569 62.2067 136.112 62.08 135.606 62.08C135.079 62.08 134.606 62.2167 134.186 62.49C133.772 62.7633 133.452 63.13 133.226 63.59C132.999 64.0433 132.909 64.55 132.956 65.11C133.009 65.6233 133.176 66.0933 133.456 66.52C133.736 66.94 134.089 67.2767 134.516 67.53C134.949 67.7833 135.412 67.91 135.906 67.91ZM145.906 75H143.466V60H145.906V61.27C146.232 60.8167 146.632 60.45 147.106 60.17C147.586 59.8833 148.146 59.74 148.786 59.74C149.519 59.74 150.202 59.8767 150.836 60.15C151.469 60.4233 152.026 60.8033 152.506 61.29C152.992 61.77 153.369 62.3267 153.636 62.96C153.909 63.5933 154.046 64.2733 154.046 65C154.046 65.7267 153.909 66.41 153.636 67.05C153.369 67.69 152.992 68.2533 152.506 68.74C152.026 69.22 151.469 69.5967 150.836 69.87C150.202 70.1433 149.519 70.28 148.786 70.28C148.146 70.28 147.586 70.14 147.106 69.86C146.632 69.5733 146.232 69.2033 145.906 68.75V75ZM148.756 62.09C148.249 62.09 147.796 62.2233 147.396 62.49C146.996 62.75 146.682 63.1 146.456 63.54C146.229 63.98 146.116 64.4667 146.116 65C146.116 65.5333 146.229 66.0233 146.456 66.47C146.682 66.91 146.996 67.2633 147.396 67.53C147.796 67.79 148.249 67.92 148.756 67.92C149.269 67.92 149.739 67.79 150.166 67.53C150.592 67.27 150.932 66.92 151.186 66.48C151.439 66.0333 151.566 65.54 151.566 65C151.566 64.4667 151.439 63.98 151.186 63.54C150.932 63.1 150.592 62.75 150.166 62.49C149.746 62.2233 149.276 62.09 148.756 62.09ZM160.248 70.26C159.328 70.26 158.488 70.0233 157.728 69.55C156.975 69.0767 156.372 68.4433 155.918 67.65C155.472 66.85 155.248 65.9667 155.248 65C155.248 64.2667 155.378 63.5833 155.638 62.95C155.898 62.31 156.255 61.75 156.708 61.27C157.168 60.7833 157.702 60.4033 158.308 60.13C158.915 59.8567 159.562 59.72 160.248 59.72C161.168 59.72 162.005 59.9567 162.758 60.43C163.518 60.9033 164.122 61.54 164.568 62.34C165.022 63.14 165.248 64.0267 165.248 65C165.248 65.7267 165.118 66.4067 164.858 67.04C164.598 67.6733 164.238 68.2333 163.778 68.72C163.325 69.2 162.795 69.5767 162.188 69.85C161.588 70.1233 160.942 70.26 160.248 70.26ZM160.248 67.82C160.735 67.82 161.172 67.69 161.558 67.43C161.945 67.17 162.248 66.8267 162.468 66.4C162.695 65.9733 162.808 65.5067 162.808 65C162.808 64.48 162.692 64.0067 162.458 63.58C162.232 63.1467 161.922 62.8033 161.528 62.55C161.142 62.29 160.715 62.16 160.248 62.16C159.768 62.16 159.335 62.29 158.948 62.55C158.562 62.81 158.255 63.1567 158.028 63.59C157.802 64.0233 157.688 64.4933 157.688 65C157.688 65.5267 157.805 66.0033 158.038 66.43C158.272 66.8567 158.582 67.1967 158.968 67.45C159.362 67.6967 159.788 67.82 160.248 67.82ZM176.345 64.83V70H173.905V64.87C173.905 64.3567 173.799 63.89 173.585 63.47C173.372 63.0433 173.075 62.7033 172.695 62.45C172.322 62.1967 171.889 62.07 171.395 62.07C170.915 62.07 170.499 62.1967 170.145 62.45C169.792 62.7033 169.519 63.0433 169.325 63.47C169.139 63.89 169.045 64.3567 169.045 64.87V70H166.605V60H169.045V61.18C169.379 60.7333 169.775 60.38 170.235 60.12C170.702 59.8533 171.229 59.72 171.815 59.72C172.735 59.72 173.532 59.9533 174.205 60.42C174.885 60.88 175.409 61.4967 175.775 62.27C176.149 63.0433 176.339 63.8967 176.345 64.83ZM189.628 70.26C188.682 70.26 187.792 70.0733 186.958 69.7C186.125 69.32 185.392 68.7967 184.758 68.13C184.132 67.4633 183.638 66.6933 183.278 65.82C182.925 64.94 182.748 64 182.748 63C182.748 61.9933 182.925 61.0533 183.278 60.18C183.638 59.3 184.132 58.53 184.758 57.87C185.392 57.2033 186.125 56.6833 186.958 56.31C187.792 55.93 188.682 55.74 189.628 55.74C190.762 55.74 191.805 56.0033 192.758 56.53C193.712 57.05 194.502 57.7467 195.128 58.62L192.948 59.79C192.555 59.3033 192.065 58.9133 191.478 58.62C190.898 58.3267 190.282 58.18 189.628 58.18C189.015 58.18 188.438 58.3067 187.898 58.56C187.358 58.8067 186.885 59.1533 186.478 59.6C186.072 60.04 185.755 60.5533 185.528 61.14C185.302 61.72 185.188 62.34 185.188 63C185.188 63.6667 185.302 64.29 185.528 64.87C185.762 65.45 186.082 65.9633 186.488 66.41C186.895 66.85 187.365 67.1967 187.898 67.45C188.438 67.6967 189.015 67.82 189.628 67.82C190.295 67.82 190.915 67.6733 191.488 67.38C192.068 67.08 192.555 66.6867 192.948 66.2L195.128 67.38C194.502 68.2467 193.712 68.9433 192.758 69.47C191.805 69.9967 190.762 70.26 189.628 70.26ZM197.403 70V55H199.843V70H197.403ZM209.973 60H212.413V70H209.963L209.863 68.76C209.583 69.2067 209.217 69.57 208.763 69.85C208.317 70.1233 207.79 70.26 207.183 70.26C206.443 70.26 205.75 70.12 205.103 69.84C204.457 69.56 203.887 69.1733 203.393 68.68C202.9 68.1867 202.517 67.6167 202.243 66.97C201.97 66.3233 201.833 65.63 201.833 64.89C201.833 64.1767 201.963 63.5067 202.223 62.88C202.483 62.2533 202.85 61.7033 203.323 61.23C203.797 60.7567 204.343 60.3867 204.963 60.12C205.583 59.8533 206.25 59.72 206.963 59.72C207.63 59.72 208.223 59.8667 208.743 60.16C209.27 60.4533 209.717 60.8267 210.083 61.28L209.973 60ZM207.253 67.91C207.787 67.91 208.25 67.7733 208.643 67.5C209.037 67.2267 209.333 66.8633 209.533 66.41C209.74 65.95 209.823 65.4433 209.783 64.89C209.737 64.37 209.583 63.9 209.323 63.48C209.063 63.0533 208.73 62.7133 208.323 62.46C207.917 62.2067 207.46 62.08 206.953 62.08C206.427 62.08 205.953 62.2167 205.533 62.49C205.12 62.7633 204.8 63.13 204.573 63.59C204.347 64.0433 204.257 64.55 204.303 65.11C204.357 65.6233 204.523 66.0933 204.803 66.52C205.083 66.94 205.437 67.2767 205.863 67.53C206.297 67.7833 206.76 67.91 207.253 67.91ZM217.863 70.18C217.343 70.1467 216.84 70.0433 216.353 69.87C215.873 69.69 215.447 69.4467 215.073 69.14C214.7 68.8333 214.413 68.4667 214.213 68.04L216.273 67.16C216.353 67.2933 216.483 67.4367 216.663 67.59C216.843 67.7367 217.057 67.86 217.303 67.96C217.557 68.06 217.833 68.11 218.133 68.11C218.387 68.11 218.627 68.0767 218.853 68.01C219.087 67.9367 219.273 67.8267 219.413 67.68C219.56 67.5333 219.633 67.3433 219.633 67.11C219.633 66.8633 219.547 66.6733 219.373 66.54C219.207 66.4 218.993 66.2967 218.733 66.23C218.48 66.1567 218.233 66.09 217.993 66.03C217.36 65.9033 216.77 65.7067 216.223 65.44C215.683 65.1733 215.247 64.83 214.913 64.41C214.587 63.9833 214.423 63.47 214.423 62.87C214.423 62.21 214.597 61.64 214.943 61.16C215.29 60.68 215.747 60.31 216.313 60.05C216.88 59.79 217.49 59.66 218.143 59.66C218.937 59.66 219.663 59.8267 220.323 60.16C220.99 60.4867 221.517 60.95 221.903 61.55L219.973 62.69C219.88 62.53 219.75 62.3833 219.583 62.25C219.417 62.11 219.227 61.9967 219.013 61.91C218.8 61.8167 218.577 61.7633 218.343 61.75C218.043 61.7367 217.77 61.7633 217.523 61.83C217.277 61.8967 217.077 62.01 216.923 62.17C216.777 62.33 216.703 62.5433 216.703 62.81C216.703 63.0633 216.803 63.2533 217.003 63.38C217.203 63.5 217.443 63.5933 217.723 63.66C218.01 63.7267 218.283 63.8 218.543 63.88C219.13 64.0733 219.68 64.31 220.193 64.59C220.713 64.87 221.13 65.2133 221.443 65.62C221.757 66.0267 221.907 66.5133 221.893 67.08C221.893 67.7267 221.7 68.2933 221.313 68.78C220.927 69.26 220.427 69.6267 219.813 69.88C219.207 70.1333 218.557 70.2333 217.863 70.18ZM226.75 70.18C226.23 70.1467 225.727 70.0433 225.24 69.87C224.76 69.69 224.333 69.4467 223.96 69.14C223.587 68.8333 223.3 68.4667 223.1 68.04L225.16 67.16C225.24 67.2933 225.37 67.4367 225.55 67.59C225.73 67.7367 225.943 67.86 226.19 67.96C226.443 68.06 226.72 68.11 227.02 68.11C227.273 68.11 227.513 68.0767 227.74 68.01C227.973 67.9367 228.16 67.8267 228.3 67.68C228.447 67.5333 228.52 67.3433 228.52 67.11C228.52 66.8633 228.433 66.6733 228.26 66.54C228.093 66.4 227.88 66.2967 227.62 66.23C227.367 66.1567 227.12 66.09 226.88 66.03C226.247 65.9033 225.657 65.7067 225.11 65.44C224.57 65.1733 224.133 64.83 223.8 64.41C223.473 63.9833 223.31 63.47 223.31 62.87C223.31 62.21 223.483 61.64 223.83 61.16C224.177 60.68 224.633 60.31 225.2 60.05C225.767 59.79 226.377 59.66 227.03 59.66C227.823 59.66 228.55 59.8267 229.21 60.16C229.877 60.4867 230.403 60.95 230.79 61.55L228.86 62.69C228.767 62.53 228.637 62.3833 228.47 62.25C228.303 62.11 228.113 61.9967 227.9 61.91C227.687 61.8167 227.463 61.7633 227.23 61.75C226.93 61.7367 226.657 61.7633 226.41 61.83C226.163 61.8967 225.963 62.01 225.81 62.17C225.663 62.33 225.59 62.5433 225.59 62.81C225.59 63.0633 225.69 63.2533 225.89 63.38C226.09 63.5 226.33 63.5933 226.61 63.66C226.897 63.7267 227.17 63.8 227.43 63.88C228.017 64.0733 228.567 64.31 229.08 64.59C229.6 64.87 230.017 65.2133 230.33 65.62C230.643 66.0267 230.793 66.5133 230.78 67.08C230.78 67.7267 230.587 68.2933 230.2 68.78C229.813 69.26 229.313 69.6267 228.7 69.88C228.093 70.1333 227.443 70.2333 226.75 70.18Z" fill="white"/>
<path d="M172 99C172 96.2386 174.239 94 177 94H281C283.761 94 286 96.2386 286 99V115C286 117.761 283.761 120 281 120H177C174.239 120 172 117.761 172 115V99Z" fill="#26FFDF" fill-opacity="0.3"/>
<path d="M214.992 113.208C214.373 113.208 213.779 113.112 213.208 112.92C212.643 112.723 212.147 112.443 211.72 112.08C211.293 111.712 210.987 111.272 210.8 110.76L212.632 110.088C212.707 110.301 212.859 110.496 213.088 110.672C213.317 110.848 213.597 110.989 213.928 111.096C214.259 111.203 214.613 111.256 214.992 111.256C215.381 111.256 215.744 111.197 216.08 111.08C216.421 110.957 216.696 110.789 216.904 110.576C217.112 110.357 217.216 110.104 217.216 109.816C217.216 109.523 217.107 109.283 216.888 109.096C216.669 108.904 216.389 108.752 216.048 108.64C215.707 108.528 215.355 108.443 214.992 108.384C214.197 108.261 213.485 108.072 212.856 107.816C212.227 107.56 211.728 107.205 211.36 106.752C210.997 106.299 210.816 105.712 210.816 104.992C210.816 104.315 211.011 103.723 211.4 103.216C211.789 102.709 212.301 102.315 212.936 102.032C213.571 101.749 214.256 101.608 214.992 101.608C215.605 101.608 216.197 101.704 216.768 101.896C217.339 102.088 217.837 102.368 218.264 102.736C218.696 103.104 219.005 103.547 219.192 104.064L217.352 104.728C217.277 104.515 217.125 104.32 216.896 104.144C216.667 103.968 216.387 103.829 216.056 103.728C215.725 103.621 215.371 103.568 214.992 103.568C214.613 103.563 214.253 103.624 213.912 103.752C213.576 103.875 213.301 104.043 213.088 104.256C212.875 104.469 212.768 104.715 212.768 104.992C212.768 105.349 212.867 105.619 213.064 105.8C213.267 105.981 213.536 106.115 213.872 106.2C214.208 106.28 214.581 106.355 214.992 106.424C215.739 106.541 216.429 106.739 217.064 107.016C217.699 107.293 218.208 107.664 218.592 108.128C218.976 108.587 219.168 109.149 219.168 109.816C219.168 110.493 218.976 111.088 218.592 111.6C218.208 112.107 217.699 112.501 217.064 112.784C216.429 113.067 215.739 113.208 214.992 113.208ZM221.047 113V101.8H223.159L227.887 109.472V101.8H229.839V113H227.735L222.999 105.328V113H221.047ZM232.216 113V101.8H234.168V113H232.216ZM236.491 113V101.8H240.491C241.099 101.8 241.649 101.952 242.139 102.256C242.635 102.56 243.027 102.968 243.315 103.48C243.603 103.992 243.747 104.555 243.747 105.168C243.747 105.797 243.598 106.368 243.299 106.88C243.006 107.387 242.611 107.792 242.115 108.096C241.619 108.395 241.078 108.544 240.491 108.544H238.443V113H236.491ZM238.443 106.592H240.283C240.561 106.592 240.814 106.523 241.043 106.384C241.273 106.245 241.454 106.059 241.587 105.824C241.726 105.589 241.795 105.328 241.795 105.04C241.795 104.747 241.726 104.483 241.587 104.248C241.454 104.013 241.273 103.827 241.043 103.688C240.814 103.549 240.561 103.48 240.283 103.48H238.443V106.592ZM245.21 113V101.8H252.234V103.752H247.162V106.024H251.186V107.976H247.162V111.048H252.234V113H245.21ZM254.094 113V101.8H258.39C258.998 101.8 259.547 101.952 260.038 102.256C260.529 102.56 260.918 102.968 261.206 103.48C261.494 103.987 261.638 104.549 261.638 105.168C261.638 105.675 261.545 106.141 261.358 106.568C261.177 106.989 260.921 107.355 260.59 107.664C260.265 107.973 259.889 108.208 259.462 108.368L262.142 113H259.894L257.302 108.544H256.046V113H254.094ZM256.046 106.592H258.166C258.443 106.592 258.697 106.523 258.926 106.384C259.155 106.245 259.339 106.059 259.478 105.824C259.617 105.589 259.686 105.328 259.686 105.04C259.686 104.747 259.617 104.483 259.478 104.248C259.339 104.013 259.155 103.827 258.926 103.688C258.697 103.549 258.443 103.48 258.166 103.48H256.046V106.592Z" fill="#26FFDF"/>
<circle cx="183.5" cy="107.5" r="2.5" fill="#FE362B"/>
<rect x="40" y="94" width="114" height="26" rx="5" fill="#26FFDF" fill-opacity="0.3"/>
<path d="M97.704 101.8H99.952L104.024 113H101.952L101.232 111.016H96.432L95.712 113H93.64L97.704 101.8ZM97.144 109.064H100.512L98.824 104.448L97.144 109.064ZM105.422 113V101.8H109.718C110.326 101.8 110.876 101.952 111.366 102.256C111.857 102.56 112.246 102.968 112.534 103.48C112.822 103.987 112.966 104.549 112.966 105.168C112.966 105.675 112.873 106.141 112.686 106.568C112.505 106.989 112.249 107.355 111.918 107.664C111.593 107.973 111.217 108.208 110.79 108.368L113.47 113H111.222L108.63 108.544H107.374V113H105.422ZM107.374 106.592H109.494C109.772 106.592 110.025 106.523 110.254 106.384C110.484 106.245 110.668 106.059 110.806 105.824C110.945 105.589 111.014 105.328 111.014 105.04C111.014 104.747 110.945 104.483 110.806 104.248C110.668 104.013 110.484 103.827 110.254 103.688C110.025 103.549 109.772 103.48 109.494 103.48H107.374V106.592Z" fill="#26FFDF"/>
<ellipse cx="55.0688" cy="107.5" rx="3.27586" ry="2.5" fill="#FE362B"/>
<rect x="314" y="94" width="114" height="26" rx="5" fill="#26FFDF" fill-opacity="0.3"/>
<path d="M345.992 113.208C345.373 113.208 344.779 113.112 344.208 112.92C343.643 112.723 343.147 112.443 342.72 112.08C342.293 111.712 341.987 111.272 341.8 110.76L343.632 110.088C343.707 110.301 343.859 110.496 344.088 110.672C344.317 110.848 344.597 110.989 344.928 111.096C345.259 111.203 345.613 111.256 345.992 111.256C346.381 111.256 346.744 111.197 347.08 111.08C347.421 110.957 347.696 110.789 347.904 110.576C348.112 110.357 348.216 110.104 348.216 109.816C348.216 109.523 348.107 109.283 347.888 109.096C347.669 108.904 347.389 108.752 347.048 108.64C346.707 108.528 346.355 108.443 345.992 108.384C345.197 108.261 344.485 108.072 343.856 107.816C343.227 107.56 342.728 107.205 342.36 106.752C341.997 106.299 341.816 105.712 341.816 104.992C341.816 104.315 342.011 103.723 342.4 103.216C342.789 102.709 343.301 102.315 343.936 102.032C344.571 101.749 345.256 101.608 345.992 101.608C346.605 101.608 347.197 101.704 347.768 101.896C348.339 102.088 348.837 102.368 349.264 102.736C349.696 103.104 350.005 103.547 350.192 104.064L348.352 104.728C348.277 104.515 348.125 104.32 347.896 104.144C347.667 103.968 347.387 103.829 347.056 103.728C346.725 103.621 346.371 103.568 345.992 103.568C345.613 103.563 345.253 103.624 344.912 103.752C344.576 103.875 344.301 104.043 344.088 104.256C343.875 104.469 343.768 104.715 343.768 104.992C343.768 105.349 343.867 105.619 344.064 105.8C344.267 105.981 344.536 106.115 344.872 106.2C345.208 106.28 345.581 106.355 345.992 106.424C346.739 106.541 347.429 106.739 348.064 107.016C348.699 107.293 349.208 107.664 349.592 108.128C349.976 108.587 350.168 109.149 350.168 109.816C350.168 110.493 349.976 111.088 349.592 111.6C349.208 112.107 348.699 112.501 348.064 112.784C347.429 113.067 346.739 113.208 345.992 113.208ZM358.583 101.8H360.535V113H358.583V107.976H353.943V113H351.991V101.8H353.943V106.024H358.583V101.8ZM367.66 113.208C366.903 113.208 366.191 113.059 365.524 112.76C364.857 112.456 364.271 112.037 363.764 111.504C363.257 110.971 362.86 110.355 362.572 109.656C362.284 108.952 362.14 108.2 362.14 107.4C362.14 106.6 362.284 105.851 362.572 105.152C362.86 104.448 363.257 103.829 363.764 103.296C364.271 102.763 364.857 102.347 365.524 102.048C366.191 101.744 366.903 101.592 367.66 101.592C368.423 101.592 369.137 101.744 369.804 102.048C370.471 102.347 371.057 102.763 371.564 103.296C372.071 103.829 372.465 104.448 372.748 105.152C373.036 105.851 373.18 106.6 373.18 107.4C373.18 108.2 373.036 108.952 372.748 109.656C372.465 110.355 372.071 110.971 371.564 111.504C371.057 112.037 370.471 112.456 369.804 112.76C369.137 113.059 368.423 113.208 367.66 113.208ZM367.66 111.256C368.151 111.256 368.612 111.155 369.044 110.952C369.476 110.749 369.855 110.472 370.18 110.12C370.511 109.763 370.767 109.352 370.948 108.888C371.135 108.424 371.228 107.928 371.228 107.4C371.228 106.872 371.135 106.376 370.948 105.912C370.761 105.443 370.503 105.032 370.172 104.68C369.847 104.328 369.468 104.051 369.036 103.848C368.609 103.645 368.151 103.544 367.66 103.544C367.169 103.544 366.708 103.645 366.276 103.848C365.844 104.051 365.463 104.331 365.132 104.688C364.807 105.04 364.551 105.448 364.364 105.912C364.183 106.376 364.092 106.872 364.092 107.4C364.092 107.933 364.185 108.432 364.372 108.896C364.559 109.36 364.815 109.771 365.14 110.128C365.471 110.48 365.849 110.757 366.276 110.96C366.708 111.157 367.169 111.256 367.66 111.256ZM382.534 101.8V103.752H379.11V113H377.158V103.752H373.734V101.8H382.534ZM388.515 113.208C387.737 113.208 387.011 113.056 386.339 112.752C385.673 112.448 385.091 112.029 384.595 111.496C384.099 110.957 383.71 110.339 383.427 109.64C383.15 108.936 383.011 108.184 383.011 107.384C383.011 106.541 383.161 105.768 383.459 105.064C383.763 104.36 384.177 103.749 384.699 103.232C385.222 102.715 385.814 102.315 386.475 102.032C387.142 101.749 387.835 101.608 388.555 101.608C389.361 101.608 390.142 101.797 390.899 102.176C391.662 102.549 392.334 103.128 392.915 103.912L391.171 104.848C390.814 104.411 390.403 104.085 389.939 103.872C389.481 103.653 389.011 103.544 388.531 103.544C388.062 103.544 387.611 103.64 387.179 103.832C386.753 104.024 386.371 104.296 386.035 104.648C385.705 104.995 385.443 105.405 385.251 105.88C385.059 106.349 384.963 106.864 384.963 107.424C384.963 107.952 385.057 108.451 385.243 108.92C385.43 109.384 385.686 109.792 386.011 110.144C386.342 110.491 386.723 110.763 387.155 110.96C387.587 111.157 388.051 111.256 388.547 111.256C388.878 111.256 389.201 111.205 389.515 111.104C389.835 110.997 390.134 110.845 390.411 110.648C390.694 110.451 390.945 110.211 391.163 109.928C391.387 109.645 391.574 109.325 391.723 108.968H389.683V107.264H394.019C394.041 108.08 393.913 108.845 393.635 109.56C393.358 110.275 392.966 110.907 392.459 111.456C391.953 112.005 391.363 112.435 390.691 112.744C390.019 113.053 389.294 113.208 388.515 113.208ZM399.948 113.208C399.052 113.208 398.265 112.989 397.588 112.552C396.916 112.115 396.393 111.528 396.02 110.792C395.647 110.051 395.46 109.229 395.46 108.328V101.8H397.412V108.328C397.412 108.861 397.511 109.352 397.708 109.8C397.911 110.243 398.199 110.597 398.572 110.864C398.951 111.125 399.409 111.256 399.948 111.256C400.492 111.256 400.951 111.125 401.324 110.864C401.697 110.597 401.98 110.243 402.172 109.8C402.369 109.352 402.468 108.861 402.468 108.328V101.8H404.42V108.328C404.42 109.005 404.313 109.64 404.1 110.232C403.887 110.819 403.583 111.336 403.188 111.784C402.793 112.232 402.321 112.581 401.772 112.832C401.228 113.083 400.62 113.208 399.948 113.208ZM406.391 113V101.8H408.503L413.231 109.472V101.8H415.183V113H413.079L408.343 105.328V113H406.391Z" fill="#26FFDF"/>
<circle cx="325.5" cy="107.5" r="2.5" fill="#FE362B"/>
<rect x="40" y="134" width="114" height="26" rx="5" fill="#26FFDF" fill-opacity="0.3"/>
<ellipse cx="50.8339" cy="147.5" rx="2.35537" ry="2.5" fill="#FE362B"/>
<path d="M85.2413 153V141.8H87.1933V151.048H91.8573V153H85.2413ZM93.6163 153L95.7923 141.8H97.4083L100.136 148.976L102.864 141.8H104.48L106.656 153H104.664L103.32 146.072L100.8 152.744H99.4643L96.9443 146.072L95.6083 153H93.6163ZM112.984 153.208C112.205 153.208 111.48 153.056 110.808 152.752C110.141 152.448 109.56 152.029 109.064 151.496C108.568 150.957 108.179 150.339 107.896 149.64C107.619 148.936 107.48 148.184 107.48 147.384C107.48 146.541 107.629 145.768 107.928 145.064C108.232 144.36 108.645 143.749 109.168 143.232C109.691 142.715 110.283 142.315 110.944 142.032C111.611 141.749 112.304 141.608 113.024 141.608C113.829 141.608 114.611 141.797 115.368 142.176C116.131 142.549 116.803 143.128 117.384 143.912L115.64 144.848C115.283 144.411 114.872 144.085 114.408 143.872C113.949 143.653 113.48 143.544 113 143.544C112.531 143.544 112.08 143.64 111.648 143.832C111.221 144.024 110.84 144.296 110.504 144.648C110.173 144.995 109.912 145.405 109.72 145.88C109.528 146.349 109.432 146.864 109.432 147.424C109.432 147.952 109.525 148.451 109.712 148.92C109.899 149.384 110.155 149.792 110.48 150.144C110.811 150.491 111.192 150.763 111.624 150.96C112.056 151.157 112.52 151.256 113.016 151.256C113.347 151.256 113.669 151.205 113.984 151.104C114.304 150.997 114.603 150.845 114.88 150.648C115.163 150.451 115.413 150.211 115.632 149.928C115.856 149.645 116.043 149.325 116.192 148.968H114.152V147.264H118.488C118.509 148.08 118.381 148.845 118.104 149.56C117.827 150.275 117.435 150.907 116.928 151.456C116.421 152.005 115.832 152.435 115.16 152.744C114.488 153.053 113.763 153.208 112.984 153.208Z" fill="#26FFDF"/>
<rect x="172" y="134" width="114" height="26" rx="5" fill="#2D2D5C"/>
<path d="M201.96 153V141.8H205.96C206.568 141.8 207.117 141.952 207.608 142.256C208.104 142.56 208.496 142.968 208.784 143.48C209.072 143.992 209.216 144.555 209.216 145.168C209.216 145.797 209.067 146.368 208.768 146.88C208.475 147.387 208.08 147.792 207.584 148.096C207.088 148.395 206.547 148.544 205.96 148.544H203.912V153H201.96ZM203.912 146.592H205.752C206.029 146.592 206.283 146.523 206.512 146.384C206.741 146.245 206.923 146.059 207.056 145.824C207.195 145.589 207.264 145.328 207.264 145.04C207.264 144.747 207.195 144.483 207.056 144.248C206.923 144.013 206.741 143.827 206.512 143.688C206.283 143.549 206.029 143.48 205.752 143.48H203.912V146.592ZM210.919 153V141.8H212.871V153H210.919ZM219.07 153.208C218.451 153.208 217.857 153.112 217.286 152.92C216.721 152.723 216.225 152.443 215.798 152.08C215.371 151.712 215.065 151.272 214.878 150.76L216.71 150.088C216.785 150.301 216.937 150.496 217.166 150.672C217.395 150.848 217.675 150.989 218.006 151.096C218.337 151.203 218.691 151.256 219.07 151.256C219.459 151.256 219.822 151.197 220.158 151.08C220.499 150.957 220.774 150.789 220.982 150.576C221.19 150.357 221.294 150.104 221.294 149.816C221.294 149.523 221.185 149.283 220.966 149.096C220.747 148.904 220.467 148.752 220.126 148.64C219.785 148.528 219.433 148.443 219.07 148.384C218.275 148.261 217.563 148.072 216.934 147.816C216.305 147.56 215.806 147.205 215.438 146.752C215.075 146.299 214.894 145.712 214.894 144.992C214.894 144.315 215.089 143.723 215.478 143.216C215.867 142.709 216.379 142.315 217.014 142.032C217.649 141.749 218.334 141.608 219.07 141.608C219.683 141.608 220.275 141.704 220.846 141.896C221.417 142.088 221.915 142.368 222.342 142.736C222.774 143.104 223.083 143.547 223.27 144.064L221.43 144.728C221.355 144.515 221.203 144.32 220.974 144.144C220.745 143.968 220.465 143.829 220.134 143.728C219.803 143.621 219.449 143.568 219.07 143.568C218.691 143.563 218.331 143.624 217.99 143.752C217.654 143.875 217.379 144.043 217.166 144.256C216.953 144.469 216.846 144.715 216.846 144.992C216.846 145.349 216.945 145.619 217.142 145.8C217.345 145.981 217.614 146.115 217.95 146.2C218.286 146.28 218.659 146.355 219.07 146.424C219.817 146.541 220.507 146.739 221.142 147.016C221.777 147.293 222.286 147.664 222.67 148.128C223.054 148.587 223.246 149.149 223.246 149.816C223.246 150.493 223.054 151.088 222.67 151.6C222.286 152.107 221.777 152.501 221.142 152.784C220.507 153.067 219.817 153.208 219.07 153.208ZM233.143 141.8V143.752H229.719V153H227.767V143.752H224.343V141.8H233.143ZM239.301 153.208C238.543 153.208 237.831 153.059 237.165 152.76C236.498 152.456 235.911 152.037 235.405 151.504C234.898 150.971 234.501 150.355 234.213 149.656C233.925 148.952 233.781 148.2 233.781 147.4C233.781 146.6 233.925 145.851 234.213 145.152C234.501 144.448 234.898 143.829 235.405 143.296C235.911 142.763 236.498 142.347 237.165 142.048C237.831 141.744 238.543 141.592 239.301 141.592C240.063 141.592 240.778 141.744 241.445 142.048C242.111 142.347 242.698 142.763 243.205 143.296C243.711 143.829 244.106 144.448 244.389 145.152C244.677 145.851 244.821 146.6 244.821 147.4C244.821 148.2 244.677 148.952 244.389 149.656C244.106 150.355 243.711 150.971 243.205 151.504C242.698 152.037 242.111 152.456 241.445 152.76C240.778 153.059 240.063 153.208 239.301 153.208ZM239.301 151.256C239.791 151.256 240.253 151.155 240.685 150.952C241.117 150.749 241.495 150.472 241.821 150.12C242.151 149.763 242.407 149.352 242.589 148.888C242.775 148.424 242.869 147.928 242.869 147.4C242.869 146.872 242.775 146.376 242.589 145.912C242.402 145.443 242.143 145.032 241.813 144.68C241.487 144.328 241.109 144.051 240.677 143.848C240.25 143.645 239.791 143.544 239.301 143.544C238.81 143.544 238.349 143.645 237.917 143.848C237.485 144.051 237.103 144.331 236.773 144.688C236.447 145.04 236.191 145.448 236.005 145.912C235.823 146.376 235.733 146.872 235.733 147.4C235.733 147.933 235.826 148.432 236.013 148.896C236.199 149.36 236.455 149.771 236.781 150.128C237.111 150.48 237.49 150.757 237.917 150.96C238.349 151.157 238.81 151.256 239.301 151.256ZM246.616 153V141.8H248.568V151.048H253.232V153H246.616Z" fill="white"/>
<defs>
<filter id="filter0_d_24_207" x="0" y="0" width="457" height="215" filterUnits="userSpaceOnUse" color-interpolation-filters="sRGB">
<feFlood flood-opacity="0" result="BackgroundImageFix"/>
<feColorMatrix in="SourceAlpha" type="matrix" values="0 0 0 0 0 0 0 0 0 0 0 0 0 0 0 0 0 0 127 0" result="hardAlpha"/>
<feOffset dy="4"/>
<feGaussianBlur stdDeviation="2"/>
<feComposite in2="hardAlpha" operator="out"/>
<feColorMatrix type="matrix" values="0 0 0 0 0 0 0 0 0 0 0 0 0 0 0 0 0 0 0.25 0"/>
<feBlend mode="normal" in2="BackgroundImageFix" result="effect1_dropShadow_24_207"/>
<feBlend mode="normal" in="SourceGraphic" in2="effect1_dropShadow_24_207" result="shape"/>
</filter>
</defs>
</svg>
