<svg width="457" height="215" viewBox="0 0 457 215" fill="none" xmlns="http://www.w3.org/2000/svg">
<g filter="url(#filter0_d_24_192)">
<rect x="4" width="449" height="207" rx="20" fill="#3A3A7E"/>
</g>
<rect x="45" y="133" width="122" height="26" rx="5" fill="#2D2D5C"/>
<path d="M51.96 151V139.8H56.04C56.632 139.8 57.1653 139.923 57.64 140.168C58.12 140.408 58.4987 140.755 58.776 141.208C59.0587 141.656 59.2 142.187 59.2 142.8C59.2 143.072 59.16 143.347 59.08 143.624C59 143.901 58.8773 144.152 58.712 144.376C58.5467 144.595 58.3333 144.757 58.072 144.864C58.4187 144.949 58.7013 145.104 58.92 145.328C59.1387 145.552 59.3093 145.816 59.432 146.12C59.5547 146.419 59.6373 146.725 59.68 147.04C59.728 147.349 59.752 147.637 59.752 147.904C59.752 148.496 59.6053 149.024 59.312 149.488C59.0187 149.952 58.624 150.32 58.128 150.592C57.6373 150.864 57.0933 151 56.496 151H51.96ZM53.912 149.328H56.296C56.616 149.328 56.904 149.251 57.16 149.096C57.416 148.941 57.6213 148.728 57.776 148.456C57.9307 148.184 58.008 147.875 58.008 147.528C58.008 147.229 57.9307 146.947 57.776 146.68C57.6213 146.413 57.416 146.197 57.16 146.032C56.904 145.867 56.616 145.784 56.296 145.784H53.912V149.328ZM53.912 144.136H55.816C56.2107 144.136 56.5467 144.013 56.824 143.768C57.1067 143.523 57.248 143.197 57.248 142.792C57.248 142.36 57.1067 142.035 56.824 141.816C56.5467 141.592 56.2107 141.48 55.816 141.48H53.912V144.136ZM64.4071 139.8H66.6551L70.7271 151H68.6551L67.9351 149.016H63.1351L62.4151 151H60.3431L64.4071 139.8ZM63.8471 147.064H67.2151L65.5271 142.448L63.8471 147.064ZM79.3619 139.8V141.752H75.9379V151H73.9859V141.752H70.5619V139.8H79.3619ZM89.44 139.8V141.752H86.016V151H84.064V141.752H80.64V139.8H89.44ZM91.0381 151V139.8H92.9901V149.048H97.6541V151H91.0381ZM99.4131 151V139.8H106.437V141.752H101.365V144.024H105.389V145.976H101.365V149.048H106.437V151H99.4131ZM108.241 151V139.8H114.857V141.752H110.193V144.024H114.089V145.976H110.193V151H108.241ZM116.263 151V139.8H118.215V151H116.263ZM120.538 151V139.8H127.562V141.752H122.49V144.024H126.514V145.976H122.49V149.048H127.562V151H120.538ZM129.366 151V139.8H131.318V149.048H135.982V151H129.366ZM137.741 151V139.8H141.453C142.227 139.8 142.949 139.947 143.621 140.24C144.299 140.528 144.893 140.931 145.405 141.448C145.923 141.96 146.325 142.555 146.613 143.232C146.907 143.904 147.053 144.627 147.053 145.4C147.053 146.173 146.907 146.899 146.613 147.576C146.325 148.248 145.923 148.843 145.405 149.36C144.893 149.872 144.299 150.275 143.621 150.568C142.949 150.856 142.227 151 141.453 151H137.741ZM139.693 149.048H141.453C141.949 149.048 142.416 148.955 142.853 148.768C143.296 148.576 143.685 148.315 144.021 147.984C144.357 147.648 144.621 147.261 144.813 146.824C145.005 146.381 145.101 145.907 145.101 145.4C145.101 144.893 145.005 144.421 144.813 143.984C144.621 143.547 144.357 143.16 144.021 142.824C143.685 142.488 143.299 142.227 142.861 142.04C142.424 141.848 141.955 141.752 141.453 141.752H139.693V149.048ZM153.423 151V141.752H152.015L152.543 139.8H155.375V151H153.423Z" fill="white"/>
<rect x="229" y="93" width="122" height="26" rx="5" fill="#2D2D5C"/>
<path d="M235.96 111V99.8H240.04C240.632 99.8 241.165 99.9227 241.64 100.168C242.12 100.408 242.499 100.755 242.776 101.208C243.059 101.656 243.2 102.187 243.2 102.8C243.2 103.072 243.16 103.347 243.08 103.624C243 103.901 242.877 104.152 242.712 104.376C242.547 104.595 242.333 104.757 242.072 104.864C242.419 104.949 242.701 105.104 242.92 105.328C243.139 105.552 243.309 105.816 243.432 106.12C243.555 106.419 243.637 106.725 243.68 107.04C243.728 107.349 243.752 107.637 243.752 107.904C243.752 108.496 243.605 109.024 243.312 109.488C243.019 109.952 242.624 110.32 242.128 110.592C241.637 110.864 241.093 111 240.496 111H235.96ZM237.912 109.328H240.296C240.616 109.328 240.904 109.251 241.16 109.096C241.416 108.941 241.621 108.728 241.776 108.456C241.931 108.184 242.008 107.875 242.008 107.528C242.008 107.229 241.931 106.947 241.776 106.68C241.621 106.413 241.416 106.197 241.16 106.032C240.904 105.867 240.616 105.784 240.296 105.784H237.912V109.328ZM237.912 104.136H239.816C240.211 104.136 240.547 104.013 240.824 103.768C241.107 103.523 241.248 103.197 241.248 102.792C241.248 102.36 241.107 102.035 240.824 101.816C240.547 101.592 240.211 101.48 239.816 101.48H237.912V104.136ZM248.407 99.8H250.655L254.727 111H252.655L251.935 109.016H247.135L246.415 111H244.343L248.407 99.8ZM247.847 107.064H251.215L249.527 102.448L247.847 107.064ZM263.362 99.8V101.752H259.938V111H257.986V101.752H254.562V99.8H263.362ZM273.44 99.8V101.752H270.016V111H268.064V101.752H264.64V99.8H273.44ZM275.038 111V99.8H276.99V109.048H281.654V111H275.038ZM283.413 111V99.8H290.437V101.752H285.365V104.024H289.389V105.976H285.365V109.048H290.437V111H283.413ZM292.241 111V99.8H298.857V101.752H294.193V104.024H298.089V105.976H294.193V111H292.241ZM300.263 111V99.8H302.215V111H300.263ZM304.538 111V99.8H311.562V101.752H306.49V104.024H310.514V105.976H306.49V109.048H311.562V111H304.538ZM313.366 111V99.8H315.318V109.048H319.982V111H313.366ZM321.741 111V99.8H325.453C326.227 99.8 326.949 99.9467 327.621 100.24C328.299 100.528 328.893 100.931 329.405 101.448C329.923 101.96 330.325 102.555 330.613 103.232C330.907 103.904 331.053 104.627 331.053 105.4C331.053 106.173 330.907 106.899 330.613 107.576C330.325 108.248 329.923 108.843 329.405 109.36C328.893 109.872 328.299 110.275 327.621 110.568C326.949 110.856 326.227 111 325.453 111H321.741ZM323.693 109.048H325.453C325.949 109.048 326.416 108.955 326.853 108.768C327.296 108.576 327.685 108.315 328.021 107.984C328.357 107.648 328.621 107.261 328.813 106.824C329.005 106.381 329.101 105.907 329.101 105.4C329.101 104.893 329.005 104.421 328.813 103.984C328.621 103.547 328.357 103.16 328.021 102.824C327.685 102.488 327.299 102.227 326.861 102.04C326.424 101.848 325.955 101.752 325.453 101.752H323.693V109.048ZM339.463 111.208C338.786 111.208 338.175 111.048 337.631 110.728C337.087 110.408 336.655 109.979 336.335 109.44C336.015 108.896 335.855 108.293 335.855 107.632H337.807C337.807 107.931 337.876 108.203 338.015 108.448C338.159 108.693 338.356 108.891 338.607 109.04C338.858 109.184 339.143 109.256 339.463 109.256C339.756 109.256 340.028 109.184 340.279 109.04C340.535 108.891 340.74 108.693 340.895 108.448C341.05 108.203 341.127 107.931 341.127 107.632C341.127 107.243 341.023 106.92 340.815 106.664C340.607 106.403 340.316 106.208 339.943 106.08C339.575 105.952 339.146 105.888 338.655 105.888V104.384C339.316 104.384 339.839 104.259 340.223 104.008C340.612 103.757 340.807 103.389 340.807 102.904C340.807 102.653 340.743 102.424 340.615 102.216C340.487 102.008 340.316 101.843 340.103 101.72C339.895 101.592 339.666 101.528 339.415 101.528C339.159 101.528 338.911 101.592 338.671 101.72C338.431 101.843 338.234 102.008 338.079 102.216C337.93 102.424 337.855 102.653 337.855 102.904H335.903C335.903 102.445 335.996 102.016 336.183 101.616C336.37 101.211 336.626 100.856 336.951 100.552C337.282 100.248 337.655 100.011 338.071 99.84C338.492 99.664 338.932 99.576 339.391 99.576C339.994 99.576 340.551 99.7253 341.063 100.024C341.575 100.323 341.986 100.723 342.295 101.224C342.604 101.725 342.759 102.285 342.759 102.904C342.759 103.336 342.658 103.76 342.455 104.176C342.252 104.592 341.964 104.885 341.591 105.056C341.916 105.173 342.188 105.371 342.407 105.648C342.626 105.92 342.791 106.232 342.903 106.584C343.02 106.931 343.079 107.28 343.079 107.632C343.079 108.288 342.914 108.888 342.583 109.432C342.252 109.971 341.812 110.403 341.263 110.728C340.719 111.048 340.119 111.208 339.463 111.208Z" fill="white"/>
<path d="M51.24 69.26C50.4667 69.26 49.7233 69.14 49.01 68.9C48.3033 68.6533 47.6833 68.3033 47.15 67.85C46.6167 67.39 46.2333 66.84 46 66.2L48.29 65.36C48.3833 65.6267 48.5733 65.87 48.86 66.09C49.1467 66.31 49.4967 66.4867 49.91 66.62C50.3233 66.7533 50.7667 66.82 51.24 66.82C51.7267 66.82 52.18 66.7467 52.6 66.6C53.0267 66.4467 53.37 66.2367 53.63 65.97C53.89 65.6967 54.02 65.38 54.02 65.02C54.02 64.6533 53.8833 64.3533 53.61 64.12C53.3367 63.88 52.9867 63.69 52.56 63.55C52.1333 63.41 51.6933 63.3033 51.24 63.23C50.2467 63.0767 49.3567 62.84 48.57 62.52C47.7833 62.2 47.16 61.7567 46.7 61.19C46.2467 60.6233 46.02 59.89 46.02 58.99C46.02 58.1433 46.2633 57.4033 46.75 56.77C47.2367 56.1367 47.8767 55.6433 48.67 55.29C49.4633 54.9367 50.32 54.76 51.24 54.76C52.0067 54.76 52.7467 54.88 53.46 55.12C54.1733 55.36 54.7967 55.71 55.33 56.17C55.87 56.63 56.2567 57.1833 56.49 57.83L54.19 58.66C54.0967 58.3933 53.9067 58.15 53.62 57.93C53.3333 57.71 52.9833 57.5367 52.57 57.41C52.1567 57.2767 51.7133 57.21 51.24 57.21C50.7667 57.2033 50.3167 57.28 49.89 57.44C49.47 57.5933 49.1267 57.8033 48.86 58.07C48.5933 58.3367 48.46 58.6433 48.46 58.99C48.46 59.4367 48.5833 59.7733 48.83 60C49.0833 60.2267 49.42 60.3933 49.84 60.5C50.26 60.6 50.7267 60.6933 51.24 60.78C52.1733 60.9267 53.0367 61.1733 53.83 61.52C54.6233 61.8667 55.26 62.33 55.74 62.91C56.22 63.4833 56.46 64.1867 56.46 65.02C56.46 65.8667 56.22 66.61 55.74 67.25C55.26 67.8833 54.6233 68.3767 53.83 68.73C53.0367 69.0833 52.1733 69.26 51.24 69.26ZM62.768 69.26C61.848 69.26 61.008 69.0233 60.248 68.55C59.4946 68.0767 58.8913 67.44 58.438 66.64C57.9913 65.84 57.768 64.9567 57.768 63.99C57.768 63.2633 57.898 62.5833 58.158 61.95C58.418 61.31 58.7746 60.75 59.228 60.27C59.688 59.7833 60.2213 59.4033 60.828 59.13C61.4346 58.8567 62.0813 58.72 62.768 58.72C63.548 58.72 64.2613 58.8867 64.908 59.22C65.5613 59.5467 66.1146 59.9967 66.568 60.57C67.0213 61.1433 67.3513 61.7967 67.558 62.53C67.7646 63.2633 67.8113 64.03 67.698 64.83H60.388C60.4813 65.2033 60.6346 65.54 60.848 65.84C61.0613 66.1333 61.3313 66.37 61.658 66.55C61.9846 66.7233 62.3546 66.8133 62.768 66.82C63.1946 66.8267 63.5813 66.7267 63.928 66.52C64.2813 66.3067 64.5746 66.02 64.808 65.66L67.298 66.24C66.8913 67.1267 66.2846 67.8533 65.478 68.42C64.6713 68.98 63.768 69.26 62.768 69.26ZM60.308 63H65.228C65.1546 62.6 64.998 62.24 64.758 61.92C64.5246 61.5933 64.2346 61.3333 63.888 61.14C63.5413 60.9467 63.168 60.85 62.768 60.85C62.368 60.85 61.998 60.9467 61.658 61.14C61.318 61.3267 61.028 61.5833 60.788 61.91C60.5546 62.23 60.3946 62.5933 60.308 63ZM69.3169 69V54H71.7569V69H69.3169ZM78.6273 69.26C77.7073 69.26 76.8673 69.0233 76.1073 68.55C75.354 68.0767 74.7507 67.44 74.2973 66.64C73.8507 65.84 73.6273 64.9567 73.6273 63.99C73.6273 63.2633 73.7573 62.5833 74.0173 61.95C74.2773 61.31 74.634 60.75 75.0873 60.27C75.5473 59.7833 76.0807 59.4033 76.6873 59.13C77.294 58.8567 77.9407 58.72 78.6273 58.72C79.4073 58.72 80.1207 58.8867 80.7673 59.22C81.4207 59.5467 81.974 59.9967 82.4273 60.57C82.8807 61.1433 83.2107 61.7967 83.4173 62.53C83.624 63.2633 83.6707 64.03 83.5573 64.83H76.2473C76.3407 65.2033 76.494 65.54 76.7073 65.84C76.9207 66.1333 77.1907 66.37 77.5173 66.55C77.844 66.7233 78.214 66.8133 78.6273 66.82C79.054 66.8267 79.4407 66.7267 79.7873 66.52C80.1407 66.3067 80.434 66.02 80.6673 65.66L83.1573 66.24C82.7507 67.1267 82.144 67.8533 81.3373 68.42C80.5307 68.98 79.6273 69.26 78.6273 69.26ZM76.1673 63H81.0873C81.014 62.6 80.8573 62.24 80.6173 61.92C80.384 61.5933 80.094 61.3333 79.7473 61.14C79.4007 60.9467 79.0273 60.85 78.6273 60.85C78.2273 60.85 77.8573 60.9467 77.5173 61.14C77.1773 61.3267 76.8873 61.5833 76.6473 61.91C76.414 62.23 76.254 62.5933 76.1673 63ZM91.4234 65.99L93.6234 67.18C93.1634 67.8067 92.5868 68.31 91.8934 68.69C91.2001 69.07 90.4434 69.26 89.6234 69.26C88.7034 69.26 87.8634 69.0233 87.1034 68.55C86.3501 68.0767 85.7468 67.4433 85.2934 66.65C84.8468 65.85 84.6234 64.9667 84.6234 64C84.6234 63.2667 84.7534 62.5833 85.0134 61.95C85.2734 61.31 85.6301 60.75 86.0834 60.27C86.5434 59.7833 87.0768 59.4033 87.6834 59.13C88.2901 58.8567 88.9368 58.72 89.6234 58.72C90.4434 58.72 91.2001 58.91 91.8934 59.29C92.5868 59.67 93.1634 60.18 93.6234 60.82L91.4234 62C91.1901 61.7333 90.9134 61.5267 90.5934 61.38C90.2801 61.2333 89.9568 61.16 89.6234 61.16C89.1434 61.16 88.7101 61.2933 88.3234 61.56C87.9368 61.82 87.6301 62.1667 87.4034 62.6C87.1768 63.0267 87.0634 63.4933 87.0634 64C87.0634 64.5 87.1768 64.9667 87.4034 65.4C87.6301 65.8267 87.9368 66.17 88.3234 66.43C88.7101 66.69 89.1434 66.82 89.6234 66.82C89.9701 66.82 90.3001 66.7467 90.6134 66.6C90.9268 66.4467 91.1968 66.2433 91.4234 65.99ZM100.779 61.44H98.8388V69H96.3988V61.44H94.9188V59H96.3988V55.86H98.8388V59H100.779V61.44ZM118.476 69.26C117.503 69.26 116.596 69.07 115.756 68.69C114.923 68.31 114.196 67.7867 113.576 67.12C112.956 66.4467 112.469 65.6733 112.116 64.8C111.769 63.92 111.596 62.98 111.596 61.98C111.596 60.9267 111.783 59.96 112.156 59.08C112.536 58.2 113.053 57.4367 113.706 56.79C114.359 56.1433 115.099 55.6433 115.926 55.29C116.759 54.9367 117.626 54.76 118.526 54.76C119.533 54.76 120.509 54.9967 121.456 55.47C122.409 55.9367 123.249 56.66 123.976 57.64L121.796 58.81C121.349 58.2633 120.836 57.8567 120.256 57.59C119.683 57.3167 119.096 57.18 118.496 57.18C117.909 57.18 117.346 57.3 116.806 57.54C116.273 57.78 115.796 58.12 115.376 58.56C114.963 58.9933 114.636 59.5067 114.396 60.1C114.156 60.6867 114.036 61.33 114.036 62.03C114.036 62.69 114.153 63.3133 114.386 63.9C114.619 64.48 114.939 64.99 115.346 65.43C115.759 65.8633 116.236 66.2033 116.776 66.45C117.316 66.6967 117.896 66.82 118.516 66.82C118.929 66.82 119.333 66.7567 119.726 66.63C120.126 66.4967 120.499 66.3067 120.846 66.06C121.199 65.8133 121.513 65.5133 121.786 65.16C122.066 64.8067 122.299 64.4067 122.486 63.96H119.936V61.83H125.356C125.383 62.85 125.223 63.8067 124.876 64.7C124.529 65.5933 124.039 66.3833 123.406 67.07C122.773 67.7567 122.036 68.2933 121.196 68.68C120.356 69.0667 119.449 69.26 118.476 69.26ZM134.505 59H136.945V69H134.495L134.395 67.76C134.115 68.2067 133.748 68.57 133.295 68.85C132.848 69.1233 132.321 69.26 131.715 69.26C130.975 69.26 130.281 69.12 129.635 68.84C128.988 68.56 128.418 68.1733 127.925 67.68C127.431 67.1867 127.048 66.6167 126.775 65.97C126.501 65.3233 126.365 64.63 126.365 63.89C126.365 63.1767 126.495 62.5067 126.755 61.88C127.015 61.2533 127.381 60.7033 127.855 60.23C128.328 59.7567 128.875 59.3867 129.495 59.12C130.115 58.8533 130.781 58.72 131.495 58.72C132.161 58.72 132.755 58.8667 133.275 59.16C133.801 59.4533 134.248 59.8267 134.615 60.28L134.505 59ZM131.785 66.91C132.318 66.91 132.781 66.7733 133.175 66.5C133.568 66.2267 133.865 65.8633 134.065 65.41C134.271 64.95 134.355 64.4433 134.315 63.89C134.268 63.37 134.115 62.9 133.855 62.48C133.595 62.0533 133.261 61.7133 132.855 61.46C132.448 61.2067 131.991 61.08 131.485 61.08C130.958 61.08 130.485 61.2167 130.065 61.49C129.651 61.7633 129.331 62.13 129.105 62.59C128.878 63.0433 128.788 63.55 128.835 64.11C128.888 64.6233 129.055 65.0933 129.335 65.52C129.615 65.94 129.968 66.2767 130.395 66.53C130.828 66.7833 131.291 66.91 131.785 66.91ZM138.995 69V59H141.435V60.01C141.728 59.6833 142.038 59.42 142.365 59.22C142.698 59.0133 143.075 58.91 143.495 58.91C144.175 58.91 144.795 59.0533 145.355 59.34C145.921 59.62 146.408 60.02 146.815 60.54C147.221 60.02 147.708 59.62 148.275 59.34C148.841 59.0533 149.461 58.91 150.135 58.91C150.995 58.91 151.761 59.1233 152.435 59.55C153.115 59.9767 153.651 60.55 154.045 61.27C154.438 61.9833 154.635 62.7733 154.635 63.64V69H152.195V63.64C152.195 63.2133 152.108 62.83 151.935 62.49C151.761 62.1433 151.518 61.8667 151.205 61.66C150.898 61.4533 150.541 61.35 150.135 61.35C149.728 61.35 149.365 61.4533 149.045 61.66C148.731 61.8667 148.485 62.1433 148.305 62.49C148.125 62.83 148.035 63.2133 148.035 63.64V69H145.595V63.64C145.595 63.2133 145.501 62.83 145.315 62.49C145.135 62.1433 144.885 61.8667 144.565 61.66C144.251 61.4533 143.895 61.35 143.495 61.35C143.108 61.35 142.758 61.4567 142.445 61.67C142.131 61.8833 141.885 62.1667 141.705 62.52C141.525 62.8733 141.435 63.26 141.435 63.68V69H138.995ZM160.717 69.26C159.797 69.26 158.957 69.0233 158.197 68.55C157.444 68.0767 156.841 67.44 156.387 66.64C155.941 65.84 155.717 64.9567 155.717 63.99C155.717 63.2633 155.847 62.5833 156.107 61.95C156.367 61.31 156.724 60.75 157.177 60.27C157.637 59.7833 158.171 59.4033 158.777 59.13C159.384 58.8567 160.031 58.72 160.717 58.72C161.497 58.72 162.211 58.8867 162.857 59.22C163.511 59.5467 164.064 59.9967 164.517 60.57C164.971 61.1433 165.301 61.7967 165.507 62.53C165.714 63.2633 165.761 64.03 165.647 64.83H158.337C158.431 65.2033 158.584 65.54 158.797 65.84C159.011 66.1333 159.281 66.37 159.607 66.55C159.934 66.7233 160.304 66.8133 160.717 66.82C161.144 66.8267 161.531 66.7267 161.877 66.52C162.231 66.3067 162.524 66.02 162.757 65.66L165.247 66.24C164.841 67.1267 164.234 67.8533 163.427 68.42C162.621 68.98 161.717 69.26 160.717 69.26ZM158.257 63H163.177C163.104 62.6 162.947 62.24 162.707 61.92C162.474 61.5933 162.184 61.3333 161.837 61.14C161.491 60.9467 161.117 60.85 160.717 60.85C160.317 60.85 159.947 60.9467 159.607 61.14C159.267 61.3267 158.977 61.5833 158.737 61.91C158.504 62.23 158.344 62.5933 158.257 63Z" fill="white"/>
<rect x="45" y="93" width="168" height="26" rx="5" fill="#26FFDF" fill-opacity="0.3"/>
<path d="M67.96 112V100.8H72.04C72.632 100.8 73.1653 100.923 73.64 101.168C74.12 101.408 74.4987 101.755 74.776 102.208C75.0587 102.656 75.2 103.187 75.2 103.8C75.2 104.072 75.16 104.347 75.08 104.624C75 104.901 74.8773 105.152 74.712 105.376C74.5467 105.595 74.3333 105.757 74.072 105.864C74.4187 105.949 74.7013 106.104 74.92 106.328C75.1387 106.552 75.3093 106.816 75.432 107.12C75.5547 107.419 75.6373 107.725 75.68 108.04C75.728 108.349 75.752 108.637 75.752 108.904C75.752 109.496 75.6053 110.024 75.312 110.488C75.0187 110.952 74.624 111.32 74.128 111.592C73.6373 111.864 73.0933 112 72.496 112H67.96ZM69.912 110.328H72.296C72.616 110.328 72.904 110.251 73.16 110.096C73.416 109.941 73.6213 109.728 73.776 109.456C73.9307 109.184 74.008 108.875 74.008 108.528C74.008 108.229 73.9307 107.947 73.776 107.68C73.6213 107.413 73.416 107.197 73.16 107.032C72.904 106.867 72.616 106.784 72.296 106.784H69.912V110.328ZM69.912 105.136H71.816C72.2107 105.136 72.5467 105.013 72.824 104.768C73.1067 104.523 73.248 104.197 73.248 103.792C73.248 103.36 73.1067 103.035 72.824 102.816C72.5467 102.592 72.2107 102.48 71.816 102.48H69.912V105.136ZM80.4071 100.8H82.6551L86.7271 112H84.6551L83.9351 110.016H79.1351L78.4151 112H76.3431L80.4071 100.8ZM79.8471 108.064H83.2151L81.5271 103.448L79.8471 108.064ZM95.3619 100.8V102.752H91.9379V112H89.9859V102.752H86.5619V100.8H95.3619ZM105.44 100.8V102.752H102.016V112H100.064V102.752H96.64V100.8H105.44ZM107.038 112V100.8H108.99V110.048H113.654V112H107.038ZM115.413 112V100.8H122.437V102.752H117.365V105.024H121.389V106.976H117.365V110.048H122.437V112H115.413ZM124.241 112V100.8H130.857V102.752H126.193V105.024H130.089V106.976H126.193V112H124.241ZM132.263 112V100.8H134.215V112H132.263ZM136.538 112V100.8H143.562V102.752H138.49V105.024H142.514V106.976H138.49V110.048H143.562V112H136.538ZM145.366 112V100.8H147.318V110.048H151.982V112H145.366ZM153.741 112V100.8H157.453C158.227 100.8 158.949 100.947 159.621 101.24C160.299 101.528 160.893 101.931 161.405 102.448C161.923 102.96 162.325 103.555 162.613 104.232C162.907 104.904 163.053 105.627 163.053 106.4C163.053 107.173 162.907 107.899 162.613 108.576C162.325 109.248 161.923 109.843 161.405 110.36C160.893 110.872 160.299 111.275 159.621 111.568C158.949 111.856 158.227 112 157.453 112H153.741ZM155.693 110.048H157.453C157.949 110.048 158.416 109.955 158.853 109.768C159.296 109.576 159.685 109.315 160.021 108.984C160.357 108.648 160.621 108.261 160.813 107.824C161.005 107.381 161.101 106.907 161.101 106.4C161.101 105.893 161.005 105.421 160.813 104.984C160.621 104.547 160.357 104.16 160.021 103.824C159.685 103.488 159.299 103.227 158.861 103.04C158.424 102.848 157.955 102.752 157.453 102.752H155.693V110.048ZM168.015 112V110.256C168.362 109.995 168.772 109.672 169.247 109.288C169.722 108.899 170.21 108.48 170.711 108.032C171.212 107.579 171.676 107.125 172.103 106.672C172.53 106.219 172.876 105.787 173.143 105.376C173.415 104.965 173.551 104.613 173.551 104.32C173.551 103.995 173.471 103.699 173.311 103.432C173.151 103.16 172.938 102.944 172.671 102.784C172.41 102.624 172.116 102.544 171.791 102.544C171.466 102.544 171.17 102.624 170.903 102.784C170.636 102.944 170.423 103.16 170.263 103.432C170.103 103.699 170.023 103.995 170.023 104.32H168.071C168.071 103.616 168.242 102.984 168.583 102.424C168.924 101.859 169.375 101.413 169.935 101.088C170.5 100.757 171.119 100.592 171.791 100.592C172.474 100.592 173.095 100.76 173.655 101.096C174.215 101.427 174.663 101.875 174.999 102.44C175.335 103.005 175.503 103.632 175.503 104.32C175.503 104.683 175.436 105.048 175.303 105.416C175.17 105.784 174.983 106.155 174.743 106.528C174.503 106.901 174.22 107.28 173.895 107.664C173.57 108.043 173.21 108.432 172.815 108.832C172.426 109.227 172.015 109.632 171.583 110.048H175.559V112H168.015ZM180.949 112.208C180.299 112.208 179.707 112.059 179.173 111.76C178.64 111.456 178.179 111.037 177.789 110.504C177.405 109.971 177.109 109.355 176.901 108.656C176.693 107.952 176.589 107.2 176.589 106.4C176.589 105.6 176.693 104.851 176.901 104.152C177.109 103.448 177.405 102.829 177.789 102.296C178.179 101.763 178.64 101.347 179.173 101.048C179.707 100.744 180.299 100.592 180.949 100.592C181.6 100.592 182.192 100.744 182.725 101.048C183.259 101.347 183.715 101.763 184.093 102.296C184.477 102.829 184.773 103.448 184.981 104.152C185.195 104.851 185.301 105.6 185.301 106.4C185.301 107.2 185.195 107.952 184.981 108.656C184.773 109.355 184.477 109.971 184.093 110.504C183.715 111.037 183.259 111.456 182.725 111.76C182.192 112.059 181.6 112.208 180.949 112.208ZM180.949 110.256C181.52 110.256 181.992 110.075 182.365 109.712C182.739 109.349 183.016 108.875 183.197 108.288C183.379 107.701 183.469 107.072 183.469 106.4C183.469 105.691 183.373 105.045 183.181 104.464C182.989 103.877 182.707 103.411 182.333 103.064C181.96 102.717 181.499 102.544 180.949 102.544C180.517 102.544 180.141 102.651 179.821 102.864C179.507 103.072 179.245 103.357 179.037 103.72C178.829 104.083 178.675 104.496 178.573 104.96C178.472 105.419 178.421 105.899 178.421 106.4C178.421 107.067 178.512 107.696 178.693 108.288C178.88 108.875 179.16 109.349 179.533 109.712C179.912 110.075 180.384 110.256 180.949 110.256ZM191.189 112V109.288H186.421V107.328L190.733 100.8H193.141V107.336H194.085V109.288H193.141V112H191.189ZM188.685 107.328L191.189 107.336L191.181 103.464L188.685 107.328ZM195.687 112V110.256C196.034 109.995 196.444 109.672 196.919 109.288C197.394 108.899 197.882 108.48 198.383 108.032C198.884 107.579 199.348 107.125 199.775 106.672C200.202 106.219 200.548 105.787 200.815 105.376C201.087 104.965 201.223 104.613 201.223 104.32C201.223 103.995 201.143 103.699 200.983 103.432C200.823 103.16 200.61 102.944 200.343 102.784C200.082 102.624 199.788 102.544 199.463 102.544C199.138 102.544 198.842 102.624 198.575 102.784C198.308 102.944 198.095 103.16 197.935 103.432C197.775 103.699 197.695 103.995 197.695 104.32H195.743C195.743 103.616 195.914 102.984 196.255 102.424C196.596 101.859 197.047 101.413 197.607 101.088C198.172 100.757 198.791 100.592 199.463 100.592C200.146 100.592 200.767 100.76 201.327 101.096C201.887 101.427 202.335 101.875 202.671 102.44C203.007 103.005 203.175 103.632 203.175 104.32C203.175 104.683 203.108 105.048 202.975 105.416C202.842 105.784 202.655 106.155 202.415 106.528C202.175 106.901 201.892 107.28 201.567 107.664C201.242 108.043 200.882 108.432 200.487 108.832C200.098 109.227 199.687 109.632 199.255 110.048H203.231V112H195.687Z" fill="#26FFDF"/>
<circle cx="56.5" cy="106.5" r="2.5" fill="#FE362B"/>
<defs>
<filter id="filter0_d_24_192" x="0" y="0" width="457" height="215" filterUnits="userSpaceOnUse" color-interpolation-filters="sRGB">
<feFlood flood-opacity="0" result="BackgroundImageFix"/>
<feColorMatrix in="SourceAlpha" type="matrix" values="0 0 0 0 0 0 0 0 0 0 0 0 0 0 0 0 0 0 127 0" result="hardAlpha"/>
<feOffset dy="4"/>
<feGaussianBlur stdDeviation="2"/>
<feComposite in2="hardAlpha" operator="out"/>
<feColorMatrix type="matrix" values="0 0 0 0 0 0 0 0 0 0 0 0 0 0 0 0 0 0 0.25 0"/>
<feBlend mode="normal" in2="BackgroundImageFix" result="effect1_dropShadow_24_192"/>
<feBlend mode="normal" in="SourceGraphic" in2="effect1_dropShadow_24_192" result="shape"/>
</filter>
</defs>
</svg>
