<svg width="293" height="120" viewBox="0 0 293 120" fill="none" xmlns="http://www.w3.org/2000/svg">
<rect width="293" height="120" rx="10" fill="black" fill-opacity="0.6"/>
<path d="M20.1612 57.7027C20.2688 57.8105 20.4166 57.8709 20.5708 57.8703H23.575C23.8093 57.8703 23.9993 58.0556 23.9993 58.2842V67.4455C23.9993 67.7518 24.2539 68 24.5679 68H30.4151C30.7291 68 30.9836 67.7518 30.9836 67.4455V58.2842C30.9836 58.0556 31.1736 57.8703 31.408 57.8703H34.4207C34.7346 57.8761 34.994 57.6326 34.9999 57.3265C35.0029 57.1732 34.9406 57.0255 34.828 56.9186L27.9031 50.1655C27.7977 50.0612 27.6544 50.0017 27.5042 50C27.3511 49.9995 27.2042 50.0591 27.0968 50.1655L20.1719 56.9186C19.9469 57.1323 19.9422 57.4833 20.1612 57.7027Z" fill="#00E676"/>
<path d="M163.161 60.2973C163.269 60.1895 163.417 60.1291 163.571 60.1297H166.575C166.809 60.1297 166.999 59.9444 166.999 59.7158V50.5545C166.999 50.2482 167.254 50 167.568 50H173.415C173.729 50 173.984 50.2482 173.984 50.5545V59.7158C173.984 59.9444 174.174 60.1297 174.408 60.1297H177.421C177.735 60.1239 177.994 60.3674 178 60.6735C178.003 60.8268 177.941 60.9745 177.828 61.0814L170.903 67.8345C170.798 67.9388 170.654 67.9983 170.504 68C170.351 68.0005 170.204 67.9409 170.097 67.8345L163.172 61.0814C162.947 60.8677 162.942 60.5167 163.161 60.2973Z" fill="#F44336"/>
<path d="M20.1612 88.7027C20.2688 88.8105 20.4166 88.8709 20.5708 88.8703H23.575C23.8093 88.8703 23.9993 89.0556 23.9993 89.2842V98.4455C23.9993 98.7518 24.2539 99 24.5679 99H30.4151C30.7291 99 30.9836 98.7518 30.9836 98.4455V89.2842C30.9836 89.0556 31.1736 88.8703 31.408 88.8703H34.4207C34.7346 88.8761 34.994 88.6326 34.9999 88.3265C35.0029 88.1732 34.9406 88.0255 34.828 87.9186L27.9031 81.1655C27.7977 81.0612 27.6544 81.0017 27.5042 81C27.3511 80.9995 27.2042 81.0591 27.0968 81.1655L20.1719 87.9186C19.9469 88.1323 19.9422 88.4833 20.1612 88.7027Z" fill="#00E676"/>
<path d="M51.89 52H53.31L58.41 66H57.26L56.11 62.84H49.1L47.95 66H46.8L51.89 52ZM49.49 61.76H55.71L52.6 53.23L49.49 61.76ZM66.837 63.65L67.797 64.17C67.3437 64.8033 66.767 65.31 66.067 65.69C65.3737 66.07 64.6204 66.26 63.807 66.26C62.887 66.26 62.047 66.0233 61.287 65.55C60.5337 65.0767 59.9304 64.4433 59.477 63.65C59.0304 62.85 58.807 61.9667 58.807 61C58.807 60.2667 58.937 59.5833 59.197 58.95C59.457 58.31 59.8137 57.75 60.267 57.27C60.727 56.7833 61.2604 56.4033 61.867 56.13C62.4737 55.8567 63.1204 55.72 63.807 55.72C64.6204 55.72 65.3737 55.91 66.067 56.29C66.767 56.67 67.3437 57.18 67.797 57.82L66.837 58.33C66.457 57.8367 65.997 57.46 65.457 57.2C64.917 56.9333 64.367 56.8 63.807 56.8C63.0737 56.8 62.4104 56.9933 61.817 57.38C61.2237 57.76 60.7537 58.27 60.407 58.91C60.0604 59.5433 59.887 60.24 59.887 61C59.887 61.7667 60.0637 62.4667 60.417 63.1C60.7704 63.7333 61.2437 64.24 61.837 64.62C62.4304 64.9933 63.087 65.18 63.807 65.18C64.4137 65.18 64.9837 65.0367 65.517 64.75C66.0504 64.4633 66.4904 64.0967 66.837 63.65ZM76.9542 63.65L77.9142 64.17C77.4609 64.8033 76.8842 65.31 76.1842 65.69C75.4909 66.07 74.7376 66.26 73.9242 66.26C73.0042 66.26 72.1642 66.0233 71.4042 65.55C70.6509 65.0767 70.0476 64.4433 69.5942 63.65C69.1476 62.85 68.9242 61.9667 68.9242 61C68.9242 60.2667 69.0542 59.5833 69.3142 58.95C69.5742 58.31 69.9309 57.75 70.3842 57.27C70.8442 56.7833 71.3776 56.4033 71.9842 56.13C72.5909 55.8567 73.2376 55.72 73.9242 55.72C74.7376 55.72 75.4909 55.91 76.1842 56.29C76.8842 56.67 77.4609 57.18 77.9142 57.82L76.9542 58.33C76.5742 57.8367 76.1142 57.46 75.5742 57.2C75.0342 56.9333 74.4842 56.8 73.9242 56.8C73.1909 56.8 72.5276 56.9933 71.9342 57.38C71.3409 57.76 70.8709 58.27 70.5242 58.91C70.1776 59.5433 70.0042 60.24 70.0042 61C70.0042 61.7667 70.1809 62.4667 70.5342 63.1C70.8876 63.7333 71.3609 64.24 71.9542 64.62C72.5476 64.9933 73.2042 65.18 73.9242 65.18C74.5309 65.18 75.1009 65.0367 75.6342 64.75C76.1676 64.4633 76.6076 64.0967 76.9542 63.65ZM79.2609 62.13V56H80.3409V61.96C80.3409 62.5533 80.4843 63.0933 80.7709 63.58C81.0643 64.0667 81.4543 64.4533 81.9409 64.74C82.4276 65.0267 82.9643 65.17 83.5509 65.17C84.1443 65.17 84.6809 65.0267 85.1609 64.74C85.6476 64.4533 86.0343 64.0667 86.3209 63.58C86.6143 63.0933 86.7609 62.5533 86.7609 61.96V56H87.8409V66H86.7609V64.45C86.4009 64.9967 85.9243 65.4367 85.3309 65.77C84.7443 66.0967 84.0976 66.26 83.3909 66.26C82.6309 66.26 81.9376 66.0767 81.3109 65.71C80.6843 65.3367 80.1843 64.8367 79.8109 64.21C79.4443 63.5833 79.2609 62.89 79.2609 62.13ZM89.8367 66V56H90.9167V57.53C91.2767 56.9767 91.7534 56.5367 92.3467 56.21C92.9401 55.8833 93.5867 55.72 94.2867 55.72C94.6801 55.72 95.0567 55.77 95.4167 55.87L94.9667 56.93C94.6801 56.85 94.4001 56.81 94.1267 56.81C93.5401 56.81 93.0034 56.9533 92.5167 57.24C92.0301 57.5267 91.6401 57.9133 91.3467 58.4C91.0601 58.8867 90.9167 59.4267 90.9167 60.02V66H89.8367ZM104.595 56H105.675V66H104.595L104.565 63.95C104.225 64.6433 103.738 65.2033 103.105 65.63C102.478 66.05 101.725 66.26 100.845 66.26C100.118 66.26 99.4348 66.1233 98.7948 65.85C98.1615 65.57 97.6015 65.19 97.1148 64.71C96.6282 64.2233 96.2482 63.6633 95.9748 63.03C95.7015 62.39 95.5648 61.7033 95.5648 60.97C95.5648 60.2433 95.6982 59.5633 95.9648 58.93C96.2382 58.2967 96.6148 57.74 97.0948 57.26C97.5748 56.7733 98.1315 56.3967 98.7648 56.13C99.3982 55.8567 100.075 55.72 100.795 55.72C101.682 55.72 102.448 55.9367 103.095 56.37C103.748 56.7967 104.258 57.3567 104.625 58.05L104.595 56ZM100.835 65.2C101.602 65.2 102.258 65.0133 102.805 64.64C103.358 64.26 103.782 63.75 104.075 63.11C104.368 62.47 104.515 61.7667 104.515 61C104.515 60.2133 104.365 59.5033 104.065 58.87C103.772 58.23 103.348 57.7233 102.795 57.35C102.248 56.97 101.595 56.78 100.835 56.78C100.062 56.78 99.3582 56.97 98.7248 57.35C98.0982 57.73 97.5982 58.24 97.2248 58.88C96.8515 59.52 96.6648 60.2267 96.6648 61C96.6648 61.7867 96.8548 62.4967 97.2348 63.13C97.6215 63.7633 98.1315 64.2667 98.7648 64.64C99.3982 65.0133 100.088 65.2 100.835 65.2ZM114.903 63.65L115.863 64.17C115.41 64.8033 114.833 65.31 114.133 65.69C113.44 66.07 112.687 66.26 111.873 66.26C110.953 66.26 110.113 66.0233 109.353 65.55C108.6 65.0767 107.997 64.4433 107.543 63.65C107.097 62.85 106.873 61.9667 106.873 61C106.873 60.2667 107.003 59.5833 107.263 58.95C107.523 58.31 107.88 57.75 108.333 57.27C108.793 56.7833 109.327 56.4033 109.933 56.13C110.54 55.8567 111.187 55.72 111.873 55.72C112.687 55.72 113.44 55.91 114.133 56.29C114.833 56.67 115.41 57.18 115.863 57.82L114.903 58.33C114.523 57.8367 114.063 57.46 113.523 57.2C112.983 56.9333 112.433 56.8 111.873 56.8C111.14 56.8 110.477 56.9933 109.883 57.38C109.29 57.76 108.82 58.27 108.473 58.91C108.127 59.5433 107.953 60.24 107.953 61C107.953 61.7667 108.13 62.4667 108.483 63.1C108.837 63.7333 109.31 64.24 109.903 64.62C110.497 64.9933 111.153 65.18 111.873 65.18C112.48 65.18 113.05 65.0367 113.583 64.75C114.117 64.4633 114.557 64.0967 114.903 63.65ZM124.323 56H125.453L119.993 71H118.843L120.663 66L117.073 56H118.253L121.203 64.51L124.323 56Z" fill="white"/>
<path d="M55.7975 83H56.8775V97H55.7975V90.04H47.9675V97H46.8875V83H47.9675V88.96H55.7975V83ZM67.6417 87H68.7217V97H67.6417L67.6117 94.95C67.2717 95.6433 66.7851 96.2033 66.1517 96.63C65.5251 97.05 64.7717 97.26 63.8917 97.26C63.1651 97.26 62.4817 97.1233 61.8417 96.85C61.2084 96.57 60.6484 96.19 60.1617 95.71C59.6751 95.2233 59.2951 94.6633 59.0217 94.03C58.7484 93.39 58.6117 92.7033 58.6117 91.97C58.6117 91.2433 58.7451 90.5633 59.0117 89.93C59.2851 89.2967 59.6617 88.74 60.1417 88.26C60.6217 87.7733 61.1784 87.3967 61.8117 87.13C62.4451 86.8567 63.1217 86.72 63.8417 86.72C64.7284 86.72 65.4951 86.9367 66.1417 87.37C66.7951 87.7967 67.3051 88.3567 67.6717 89.05L67.6417 87ZM63.8817 96.2C64.6484 96.2 65.3051 96.0133 65.8517 95.64C66.4051 95.26 66.8284 94.75 67.1217 94.11C67.4151 93.47 67.5617 92.7667 67.5617 92C67.5617 91.2133 67.4117 90.5033 67.1117 89.87C66.8184 89.23 66.3951 88.7233 65.8417 88.35C65.2951 87.97 64.6417 87.78 63.8817 87.78C63.1084 87.78 62.4051 87.97 61.7717 88.35C61.1451 88.73 60.6451 89.24 60.2717 89.88C59.8984 90.52 59.7117 91.2267 59.7117 92C59.7117 92.7867 59.9017 93.4967 60.2817 94.13C60.6684 94.7633 61.1784 95.2667 61.8117 95.64C62.4451 96.0133 63.1351 96.2 63.8817 96.2ZM79.2956 90.85V97H78.2156V91.02C78.2156 90.4267 78.0723 89.8867 77.7856 89.4C77.499 88.9133 77.1123 88.5267 76.6256 88.24C76.139 87.9533 75.599 87.81 75.0056 87.81C74.419 87.81 73.8823 87.9533 73.3956 88.24C72.909 88.5267 72.519 88.9133 72.2256 89.4C71.939 89.8867 71.7956 90.4267 71.7956 91.02V97H70.7156V87H71.7956V88.53C72.1556 87.9767 72.6323 87.5367 73.2256 87.21C73.819 86.8833 74.4656 86.72 75.1656 86.72C75.9323 86.72 76.6256 86.9067 77.2456 87.28C77.8723 87.6467 78.369 88.1433 78.7356 88.77C79.109 89.3967 79.2956 90.09 79.2956 90.85ZM89.5363 82H90.6163V97H89.5363V94.94C89.1896 95.64 88.6963 96.2033 88.0563 96.63C87.4163 97.05 86.6529 97.26 85.7663 97.26C85.0396 97.26 84.3596 97.1233 83.7263 96.85C83.0929 96.5767 82.5329 96.2 82.0463 95.72C81.5663 95.2333 81.1896 94.6733 80.9163 94.04C80.6429 93.4067 80.5063 92.7267 80.5063 92C80.5063 91.2733 80.6429 90.5933 80.9163 89.96C81.1896 89.32 81.5663 88.76 82.0463 88.28C82.5329 87.7933 83.0929 87.4133 83.7263 87.14C84.3596 86.8667 85.0396 86.73 85.7663 86.73C86.6529 86.73 87.4163 86.9433 88.0563 87.37C88.6963 87.79 89.1896 88.3467 89.5363 89.04V82ZM85.7763 96.2C86.5429 96.2 87.1996 96.0133 87.7463 95.64C88.2996 95.26 88.7229 94.75 89.0163 94.11C89.3096 93.47 89.4563 92.7667 89.4563 92C89.4563 91.2133 89.3063 90.5033 89.0063 89.87C88.7129 89.23 88.2896 88.7233 87.7363 88.35C87.1896 87.97 86.5363 87.78 85.7763 87.78C85.0096 87.78 84.3096 87.97 83.6763 88.35C83.0496 88.73 82.5463 89.24 82.1663 89.88C81.7929 90.52 81.6063 91.2267 81.6063 92C81.6063 92.7867 81.7963 93.4967 82.1763 94.13C82.5629 94.7633 83.0729 95.2667 83.7063 95.64C84.3396 96.0133 85.0296 96.2 85.7763 96.2ZM93.0203 97V82H94.1003V97H93.0203ZM96.4969 87H97.5769V97H96.4969V87ZM97.0469 85.11C96.8602 85.11 96.7002 85.05 96.5669 84.93C96.4402 84.8033 96.3769 84.6467 96.3769 84.46C96.3769 84.2733 96.4402 84.12 96.5669 84C96.7002 83.8733 96.8602 83.81 97.0469 83.81C97.2269 83.81 97.3802 83.8733 97.5069 84C97.6402 84.12 97.7069 84.2733 97.7069 84.46C97.7069 84.6467 97.6435 84.8033 97.5169 84.93C97.3902 85.05 97.2335 85.11 97.0469 85.11ZM108.534 90.85V97H107.454V91.02C107.454 90.4267 107.311 89.8867 107.024 89.4C106.737 88.9133 106.351 88.5267 105.864 88.24C105.377 87.9533 104.837 87.81 104.244 87.81C103.657 87.81 103.121 87.9533 102.634 88.24C102.147 88.5267 101.757 88.9133 101.464 89.4C101.177 89.8867 101.034 90.4267 101.034 91.02V97H99.9539V87H101.034V88.53C101.394 87.9767 101.871 87.5367 102.464 87.21C103.057 86.8833 103.704 86.72 104.404 86.72C105.171 86.72 105.864 86.9067 106.484 87.28C107.111 87.6467 107.607 88.1433 107.974 88.77C108.347 89.3967 108.534 90.09 108.534 90.85ZM118.455 87H119.535V97.42C119.535 98.04 119.398 98.6233 119.125 99.17C118.858 99.7233 118.495 100.21 118.035 100.63C117.575 101.057 117.051 101.39 116.465 101.63C115.885 101.877 115.285 102 114.665 102C113.971 102 113.301 101.837 112.655 101.51C112.008 101.19 111.448 100.76 110.975 100.22C110.508 99.68 110.185 99.09 110.005 98.45L111.005 97.99C111.125 98.53 111.371 99.02 111.745 99.46C112.118 99.9067 112.561 100.26 113.075 100.52C113.595 100.78 114.125 100.91 114.665 100.91C115.145 100.91 115.611 100.817 116.065 100.63C116.518 100.443 116.925 100.187 117.285 99.86C117.645 99.54 117.928 99.17 118.135 98.75C118.348 98.33 118.455 97.8867 118.455 97.42V94.97C118.101 95.65 117.611 96.2033 116.985 96.63C116.358 97.05 115.628 97.26 114.795 97.26C114.101 97.26 113.448 97.1233 112.835 96.85C112.221 96.5767 111.685 96.2 111.225 95.72C110.765 95.2333 110.401 94.6733 110.135 94.04C109.875 93.4067 109.745 92.7267 109.745 92C109.745 91.2733 109.875 90.5933 110.135 89.96C110.401 89.32 110.765 88.76 111.225 88.28C111.685 87.7933 112.221 87.4133 112.835 87.14C113.448 86.8667 114.101 86.73 114.795 86.73C115.628 86.73 116.358 86.94 116.985 87.36C117.611 87.7733 118.101 88.3267 118.455 89.02V87ZM114.805 96.2C115.551 96.2 116.191 96.0067 116.725 95.62C117.265 95.2333 117.678 94.72 117.965 94.08C118.258 93.44 118.405 92.7467 118.405 92C118.405 91.2333 118.258 90.5333 117.965 89.9C117.671 89.26 117.255 88.7467 116.715 88.36C116.175 87.9733 115.538 87.78 114.805 87.78C114.071 87.78 113.405 87.97 112.805 88.35C112.205 88.73 111.728 89.24 111.375 89.88C111.021 90.52 110.845 91.2267 110.845 92C110.845 92.78 111.025 93.4867 111.385 94.12C111.745 94.7533 112.225 95.26 112.825 95.64C113.425 96.0133 114.085 96.2 114.805 96.2Z" fill="white"/>
<path d="M188.2 66V52H196.36V53.08H189.28V57.96H195.4V59.04H189.28V66H188.2ZM197.165 56H198.245V66H197.165V56ZM197.715 54.11C197.528 54.11 197.368 54.05 197.235 53.93C197.108 53.8033 197.045 53.6467 197.045 53.46C197.045 53.2733 197.108 53.12 197.235 53C197.368 52.8733 197.528 52.81 197.715 52.81C197.895 52.81 198.048 52.8733 198.175 53C198.308 53.12 198.375 53.2733 198.375 53.46C198.375 53.6467 198.312 53.8033 198.185 53.93C198.058 54.05 197.902 54.11 197.715 54.11ZM200.622 66V56H201.702V57.53C202.062 56.9767 202.539 56.5367 203.132 56.21C203.725 55.8833 204.372 55.72 205.072 55.72C205.465 55.72 205.842 55.77 206.202 55.87L205.752 56.93C205.465 56.85 205.185 56.81 204.912 56.81C204.325 56.81 203.789 56.9533 203.302 57.24C202.815 57.5267 202.425 57.9133 202.132 58.4C201.845 58.8867 201.702 59.4267 201.702 60.02V66H200.622ZM211.35 66.26C210.43 66.26 209.59 66.0233 208.83 65.55C208.077 65.0767 207.473 64.4433 207.02 63.65C206.573 62.85 206.35 61.9667 206.35 61C206.35 60.2667 206.48 59.5833 206.74 58.95C207 58.31 207.357 57.75 207.81 57.27C208.27 56.7833 208.803 56.4033 209.41 56.13C210.017 55.8567 210.663 55.72 211.35 55.72C212.077 55.72 212.747 55.8633 213.36 56.15C213.98 56.43 214.513 56.8267 214.96 57.34C215.407 57.8533 215.75 58.46 215.99 59.16C216.23 59.8533 216.34 60.6133 216.32 61.44H207.48C207.553 62.1533 207.767 62.7933 208.12 63.36C208.48 63.92 208.94 64.3633 209.5 64.69C210.06 65.01 210.677 65.1733 211.35 65.18C212.09 65.18 212.757 64.9867 213.35 64.6C213.943 64.2067 214.42 63.67 214.78 62.99L215.87 63.24C215.47 64.1267 214.867 64.8533 214.06 65.42C213.253 65.98 212.35 66.26 211.35 66.26ZM207.45 60.52H215.23C215.19 59.8333 214.99 59.2033 214.63 58.63C214.277 58.05 213.813 57.5867 213.24 57.24C212.667 56.8933 212.037 56.72 211.35 56.72C210.663 56.72 210.037 56.89 209.47 57.23C208.903 57.57 208.44 58.03 208.08 58.61C207.727 59.1833 207.517 59.82 207.45 60.52ZM219.143 71H218.063V56H219.143V58.06C219.497 57.3667 219.99 56.8067 220.623 56.38C221.263 55.9533 222.027 55.74 222.913 55.74C223.64 55.74 224.32 55.8767 224.953 56.15C225.587 56.4233 226.143 56.8033 226.623 57.29C227.11 57.77 227.49 58.3267 227.763 58.96C228.037 59.5933 228.173 60.2733 228.173 61C228.173 61.7267 228.037 62.41 227.763 63.05C227.49 63.69 227.11 64.2533 226.623 64.74C226.143 65.22 225.587 65.5967 224.953 65.87C224.32 66.1433 223.64 66.28 222.913 66.28C222.027 66.28 221.263 66.0667 220.623 65.64C219.99 65.2133 219.497 64.6533 219.143 63.96V71ZM222.903 56.8C222.143 56.8 221.487 56.99 220.933 57.37C220.387 57.7433 219.963 58.2467 219.663 58.88C219.37 59.5133 219.223 60.22 219.223 61C219.223 61.7667 219.37 62.47 219.663 63.11C219.957 63.75 220.377 64.2633 220.923 64.65C221.477 65.03 222.137 65.22 222.903 65.22C223.657 65.22 224.347 65.0333 224.973 64.66C225.607 64.2867 226.117 63.7833 226.503 63.15C226.89 62.51 227.083 61.7933 227.083 61C227.083 60.2333 226.893 59.5333 226.513 58.9C226.14 58.26 225.637 57.75 225.003 57.37C224.377 56.99 223.677 56.8 222.903 56.8ZM234.182 66.26C233.262 66.26 232.422 66.0233 231.662 65.55C230.909 65.0767 230.305 64.4433 229.852 63.65C229.405 62.85 229.182 61.9667 229.182 61C229.182 60.2667 229.312 59.5833 229.572 58.95C229.832 58.31 230.189 57.75 230.642 57.27C231.102 56.7833 231.635 56.4033 232.242 56.13C232.849 55.8567 233.495 55.72 234.182 55.72C235.102 55.72 235.939 55.9567 236.692 56.43C237.452 56.9033 238.055 57.54 238.502 58.34C238.955 59.14 239.182 60.0267 239.182 61C239.182 61.7267 239.052 62.4067 238.792 63.04C238.532 63.6733 238.172 64.2333 237.712 64.72C237.259 65.2 236.729 65.5767 236.122 65.85C235.522 66.1233 234.875 66.26 234.182 66.26ZM234.182 65.18C234.922 65.18 235.585 64.9867 236.172 64.6C236.765 64.2133 237.235 63.7033 237.582 63.07C237.929 62.4367 238.102 61.7467 238.102 61C238.102 60.2467 237.929 59.55 237.582 58.91C237.235 58.27 236.765 57.76 236.172 57.38C235.579 56.9933 234.915 56.8 234.182 56.8C233.442 56.8 232.775 56.9933 232.182 57.38C231.589 57.7667 231.119 58.28 230.772 58.92C230.432 59.5533 230.262 60.2467 230.262 61C230.262 61.78 230.439 62.4867 230.792 63.12C231.152 63.7467 231.629 64.2467 232.222 64.62C232.815 64.9933 233.469 65.18 234.182 65.18ZM244.395 66H243.255L239.905 56H240.955L243.845 64.55L246.715 56H247.905L250.775 64.55L253.645 56H254.715L251.355 66H250.205L247.295 57.36L244.395 66ZM260.452 66.26C259.532 66.26 258.692 66.0233 257.932 65.55C257.178 65.0767 256.575 64.4433 256.122 63.65C255.675 62.85 255.452 61.9667 255.452 61C255.452 60.2667 255.582 59.5833 255.842 58.95C256.102 58.31 256.458 57.75 256.912 57.27C257.372 56.7833 257.905 56.4033 258.512 56.13C259.118 55.8567 259.765 55.72 260.452 55.72C261.178 55.72 261.848 55.8633 262.462 56.15C263.082 56.43 263.615 56.8267 264.062 57.34C264.508 57.8533 264.852 58.46 265.092 59.16C265.332 59.8533 265.442 60.6133 265.422 61.44H256.582C256.655 62.1533 256.868 62.7933 257.222 63.36C257.582 63.92 258.042 64.3633 258.602 64.69C259.162 65.01 259.778 65.1733 260.452 65.18C261.192 65.18 261.858 64.9867 262.452 64.6C263.045 64.2067 263.522 63.67 263.882 62.99L264.972 63.24C264.572 64.1267 263.968 64.8533 263.162 65.42C262.355 65.98 261.452 66.26 260.452 66.26ZM256.552 60.52H264.332C264.292 59.8333 264.092 59.2033 263.732 58.63C263.378 58.05 262.915 57.5867 262.342 57.24C261.768 56.8933 261.138 56.72 260.452 56.72C259.765 56.72 259.138 56.89 258.572 57.23C258.005 57.57 257.542 58.03 257.182 58.61C256.828 59.1833 256.618 59.82 256.552 60.52ZM267.165 66V56H268.245V57.53C268.605 56.9767 269.082 56.5367 269.675 56.21C270.268 55.8833 270.915 55.72 271.615 55.72C272.008 55.72 272.385 55.77 272.745 55.87L272.295 56.93C272.008 56.85 271.728 56.81 271.455 56.81C270.868 56.81 270.332 56.9533 269.845 57.24C269.358 57.5267 268.968 57.9133 268.675 58.4C268.388 58.8867 268.245 59.4267 268.245 60.02V66H267.165Z" fill="white"/>
<path d="M20.96 31V19.8H27.56V21.464H22.624V24.168H26.792V25.832H22.624V31H20.96ZM28.2569 23H29.9209V31H28.2569V23ZM29.0969 21.68C28.8462 21.68 28.6355 21.5973 28.4649 21.432C28.2942 21.2667 28.2089 21.0587 28.2089 20.808C28.2089 20.5627 28.2942 20.3573 28.4649 20.192C28.6355 20.0213 28.8462 19.936 29.0969 19.936C29.3422 19.936 29.5502 20.0213 29.7209 20.192C29.8915 20.3573 29.9769 20.5627 29.9769 20.808C29.9769 21.0587 29.8915 21.2667 29.7209 21.432C29.5502 21.5973 29.3422 21.68 29.0969 21.68ZM37.1099 24.672C36.9712 24.5867 36.8192 24.52 36.6539 24.472C36.4939 24.4187 36.3179 24.392 36.1259 24.392C35.7099 24.392 35.3472 24.5013 35.0379 24.72C34.7285 24.9387 34.4859 25.2347 34.3099 25.608C34.1392 25.9813 34.0539 26.3947 34.0539 26.848V31H32.3819V23H34.0459V24.08C34.3232 23.68 34.6592 23.3653 35.0539 23.136C35.4539 22.9013 35.8992 22.784 36.3899 22.784C36.5712 22.784 36.7419 22.792 36.9019 22.808C37.0672 22.824 37.2245 22.856 37.3739 22.904L37.1099 24.672ZM41.5581 31.208C40.8221 31.208 40.1501 31.0187 39.5421 30.64C38.9395 30.2613 38.4568 29.7547 38.0941 29.12C37.7368 28.48 37.5581 27.7733 37.5581 27C37.5581 26.4133 37.6621 25.8667 37.8701 25.36C38.0781 24.848 38.3635 24.4 38.7261 24.016C39.0941 23.6267 39.5208 23.3227 40.0061 23.104C40.4915 22.8853 41.0088 22.776 41.5581 22.776C42.1715 22.776 42.7341 22.904 43.2461 23.16C43.7581 23.4107 44.1955 23.76 44.5581 24.208C44.9208 24.6507 45.1875 25.1627 45.3581 25.744C45.5288 26.32 45.5795 26.9333 45.5101 27.584H39.3421C39.4115 27.952 39.5448 28.2853 39.7421 28.584C39.9448 28.8773 40.2008 29.1093 40.5101 29.28C40.8248 29.4507 41.1741 29.5387 41.5581 29.544C41.9635 29.544 42.3315 29.4427 42.6621 29.24C42.9981 29.0373 43.2728 28.7573 43.4861 28.4L45.1741 28.792C44.8541 29.5013 44.3715 30.0827 43.7261 30.536C43.0808 30.984 42.3581 31.208 41.5581 31.208ZM39.2861 26.312H43.8301C43.7768 25.928 43.6408 25.5813 43.4221 25.272C43.2088 24.9573 42.9395 24.7093 42.6141 24.528C42.2941 24.3413 41.9421 24.248 41.5581 24.248C41.1795 24.248 40.8275 24.3387 40.5021 24.52C40.1821 24.7013 39.9155 24.9493 39.7021 25.264C39.4941 25.5733 39.3555 25.9227 39.2861 26.312ZM54.587 19.8H56.531L60.603 31H58.843L58.067 28.872H53.051L52.283 31H50.515L54.587 19.8ZM53.667 27.208H57.451L55.555 22.008L53.667 27.208ZM61.946 31V23H63.61V23.968C63.866 23.6533 64.1353 23.3973 64.418 23.2C64.706 22.9973 65.0473 22.896 65.442 22.896C66.0287 22.896 66.5487 23.0293 67.002 23.296C67.4607 23.5573 67.8447 23.9227 68.154 24.392C68.4633 23.9173 68.8473 23.5493 69.306 23.288C69.77 23.0267 70.2873 22.896 70.858 22.896C71.546 22.896 72.1513 23.0693 72.674 23.416C73.1967 23.7627 73.6073 24.224 73.906 24.8C74.2047 25.3707 74.354 26 74.354 26.688V31H72.69V26.688C72.69 26.2933 72.6127 25.936 72.458 25.616C72.3087 25.296 72.098 25.04 71.826 24.848C71.554 24.656 71.2313 24.56 70.858 24.56C70.4953 24.56 70.17 24.656 69.882 24.848C69.5993 25.04 69.378 25.296 69.218 25.616C69.0633 25.936 68.986 26.2933 68.986 26.688V31H67.322V26.688C67.322 26.2933 67.242 25.936 67.082 25.616C66.922 25.296 66.7007 25.04 66.418 24.848C66.1353 24.656 65.81 24.56 65.442 24.56C65.09 24.56 64.7753 24.6613 64.498 24.864C64.226 25.0667 64.01 25.3333 63.85 25.664C63.69 25.9947 63.61 26.3573 63.61 26.752V31H61.946ZM75.7429 31V23H77.4069V23.968C77.6629 23.6533 77.9322 23.3973 78.2149 23.2C78.5029 22.9973 78.8442 22.896 79.2389 22.896C79.8255 22.896 80.3455 23.0293 80.7989 23.296C81.2575 23.5573 81.6415 23.9227 81.9509 24.392C82.2602 23.9173 82.6442 23.5493 83.1029 23.288C83.5669 23.0267 84.0842 22.896 84.6549 22.896C85.3429 22.896 85.9482 23.0693 86.4709 23.416C86.9935 23.7627 87.4042 24.224 87.7029 24.8C88.0015 25.3707 88.1509 26 88.1509 26.688V31H86.4869V26.688C86.4869 26.2933 86.4095 25.936 86.2549 25.616C86.1055 25.296 85.8949 25.04 85.6229 24.848C85.3509 24.656 85.0282 24.56 84.6549 24.56C84.2922 24.56 83.9669 24.656 83.6789 24.848C83.3962 25.04 83.1749 25.296 83.0149 25.616C82.8602 25.936 82.7829 26.2933 82.7829 26.688V31H81.1189V26.688C81.1189 26.2933 81.0389 25.936 80.8789 25.616C80.7189 25.296 80.4975 25.04 80.2149 24.848C79.9322 24.656 79.6069 24.56 79.2389 24.56C78.8869 24.56 78.5722 24.6613 78.2949 24.864C78.0229 25.0667 77.8069 25.3333 77.6469 25.664C77.4869 25.9947 77.4069 26.3573 77.4069 26.752V31H75.7429ZM93.0581 31.208C92.3221 31.208 91.6501 31.0187 91.0421 30.64C90.4395 30.2613 89.9568 29.7547 89.5941 29.12C89.2368 28.48 89.0581 27.7733 89.0581 27C89.0581 26.4133 89.1621 25.8667 89.3701 25.36C89.5781 24.848 89.8635 24.4 90.2261 24.016C90.5941 23.6267 91.0208 23.3227 91.5061 23.104C91.9915 22.8853 92.5088 22.776 93.0581 22.776C93.7941 22.776 94.4635 22.9653 95.0661 23.344C95.6741 23.7227 96.1568 24.232 96.5141 24.872C96.8768 25.512 97.0581 26.2213 97.0581 27C97.0581 27.5813 96.9541 28.1253 96.7461 28.632C96.5381 29.1387 96.2501 29.5867 95.8821 29.976C95.5195 30.36 95.0955 30.6613 94.6101 30.88C94.1301 31.0987 93.6128 31.208 93.0581 31.208ZM93.0581 29.544C93.5008 29.544 93.8981 29.4267 94.2501 29.192C94.6021 28.9573 94.8795 28.648 95.0821 28.264C95.2901 27.8747 95.3941 27.4533 95.3941 27C95.3941 26.536 95.2875 26.1093 95.0741 25.72C94.8661 25.3307 94.5861 25.0213 94.2341 24.792C93.8821 24.5573 93.4901 24.44 93.0581 24.44C92.6208 24.44 92.2235 24.5573 91.8661 24.792C91.5141 25.0267 91.2341 25.3387 91.0261 25.728C90.8235 26.1173 90.7221 26.5413 90.7221 27C90.7221 27.4747 90.8288 27.904 91.0421 28.288C91.2555 28.672 91.5381 28.9787 91.8901 29.208C92.2475 29.432 92.6368 29.544 93.0581 29.544Z" fill="white"/>
</svg>
